<svg width="40" height="34" viewBox="0 0 40 34" fill="none" xmlns="http://www.w3.org/2000/svg">
<path d="M18.0704 7.37012L21.6267 13.531C22.0281 13.5235 22.4315 13.5205 22.8376 13.5205C23.8783 13.5205 24.9057 13.5439 25.9163 13.5894L18.0704 0L9.44922 14.9326C10.9465 14.5911 12.5346 14.3053 14.1952 14.0823L18.0704 7.37012ZM11.6866 13.3248L18.0706 2.26743L23.9172 12.3951C23.5574 12.3891 23.197 12.3869 22.8378 12.3869C22.6526 12.3869 22.466 12.3876 22.2769 12.3891L19.0524 6.80341L18.0706 5.1027L17.0881 6.80341L13.4902 13.0354C12.8816 13.1229 12.279 13.2197 11.6866 13.3248Z" fill="#AD63F6"/>
<path d="M12.7832 33.911C8.33654 31.957 5.61912 29.3418 5.61912 26.4686C5.61912 25.5124 5.91993 24.585 6.48571 23.7006H31.7541L27.1506 15.7275C28.902 15.5821 30.7156 15.5055 32.573 15.5055C35.0748 15.5055 37.4975 15.6442 39.7957 15.9041C39.6632 15.8611 39.5268 15.8206 39.392 15.7787C39.5268 15.8204 39.6634 15.8611 39.7957 15.9039C39.9501 15.9212 40.1034 15.9388 40.2567 15.9574C39.8516 15.8547 39.4395 15.7568 39.0197 15.6633C39.0195 15.6631 39.0193 15.6631 39.019 15.6629C35.2655 14.826 30.9468 14.3469 26.3504 14.3419C26.3232 14.3413 26.2956 14.3413 26.2684 14.3413C25.2222 14.3413 24.1907 14.3659 23.1766 14.4137C22.8387 14.4297 22.5026 14.4483 22.1685 14.4693C18.966 14.6701 15.9557 15.1032 13.2471 15.7241C13.0131 15.7778 12.7813 15.8328 12.5518 15.8891C10.9459 16.2839 9.45421 16.7463 8.10104 17.2663C3.10849 19.1826 0 21.882 0 24.8723C0 28.7117 5.12484 32.0712 12.7832 33.911ZM23.1637 16.1923L25.3707 20.0154H10.7817C13.8714 18.292 18.167 16.9493 23.1637 16.1923Z" fill="#AD63F6"/>
</svg>
