<svg width="31" height="37" viewBox="0 0 31 37" fill="none" xmlns="http://www.w3.org/2000/svg">
<path fill-rule="evenodd" clip-rule="evenodd" d="M30.4609 0C28.7826 20.9051 21.1341 35.2369 13.6011 36.3462C7.83006 37.1804 2.68237 30.1058 0.168623 19.2325C-0.327183 16.3137 0.317139 15.428 1.48972 15.6097C6.36949 16.4481 11.322 29.7692 19.7737 18.703C19.1471 21.109 18.4305 23.1017 17.7328 24.52C20.8924 23.7267 27.7538 17.845 30.4609 0Z" fill="url(#paint0_radial_1436_2106)"/>
<path fill-rule="evenodd" clip-rule="evenodd" d="M0.0361328 16.8613C0.182288 15.8349 0.737795 15.4936 1.48962 15.6097C6.36939 16.4481 11.3219 29.7692 19.7736 18.703C16.9496 23.9779 14.0626 25.4809 11.3919 25.0644C7.58495 24.5003 1.14469 12.6246 0.0361328 16.8613Z" fill="url(#paint1_radial_1436_2106)"/>
<defs>
<radialGradient id="paint0_radial_1436_2106" cx="0" cy="0" r="1" gradientTransform="matrix(-8.84547 -63.6836 29.1813 0 19.5253 -0.965001)" gradientUnits="userSpaceOnUse">
<stop stop-color="#FFFF00"/>
<stop offset="1" stop-color="#FF0000"/>
</radialGradient>
<radialGradient id="paint1_radial_1436_2106" cx="0" cy="0" r="1" gradientTransform="matrix(-2.13977 -15.4054 7.05912 0 10.2627 20.359)" gradientUnits="userSpaceOnUse">
<stop stop-color="#FF0000"/>
<stop offset="0.2516" stop-color="#C30000"/>
<stop offset="0.42" stop-color="#9F0000"/>
<stop offset="0.5713" stop-color="#770000"/>
<stop offset="0.764" stop-color="#4A0000"/>
<stop offset="0.9133" stop-color="#2E0000"/>
<stop offset="1" stop-color="#240000"/>
</radialGradient>
</defs>
</svg>
