<svg width="32" height="32" viewBox="0 0 32 32" fill="none" xmlns="http://www.w3.org/2000/svg">
<path d="M0.184119 13.5589L0.181893 13.5737L0.178927 13.5934C0.174662 13.6208 0.170397 13.6485 0.166875 13.6761V13.6787L0.166319 13.6805L0.165948 13.6813C0.165392 13.6865 0.16465 13.692 0.163908 13.6972C0.161683 13.7135 0.159459 13.7297 0.157419 13.7467L0.150929 13.7899L0.149817 13.7977L0.148148 13.8107L0.147963 13.8116L0.147221 13.8183L0.146108 13.8248L0.145552 13.8279L0.144068 13.8411L0.142956 13.8513L0.142586 13.8532L0.141102 13.86C0.134241 13.9125 0.127381 13.9659 0.120521 14.0193C0.114958 14.0662 0.109581 14.1148 0.10439 14.1628C0.10235 14.1812 0.100311 14.199 0.0982716 14.2173V14.219L0.0977142 14.2214L0.0975289 14.2225C0.0906685 14.2802 0.0845503 14.3388 0.078617 14.3964C0.0743524 14.4394 0.0708291 14.4834 0.0665645 14.5273V14.5316L0.0623009 14.5746C0.0606321 14.5917 0.0593337 14.6089 0.0580358 14.626C0.0565525 14.6441 0.0548834 14.6623 0.0535854 14.6803C0.0526584 14.6896 0.052102 14.699 0.0511749 14.7083C0.049877 14.7222 0.0485797 14.7361 0.0476526 14.75C0.0465401 14.7676 0.0452427 14.7849 0.0441302 14.8023C0.0435739 14.8105 0.0430172 14.8186 0.042461 14.8266C0.0372693 14.8859 0.0330048 14.948 0.0294819 15.0194L0.0291113 15.0202L0.0287406 15.0211V15.0237C0.0270719 15.0539 0.0255883 15.0843 0.024105 15.1147C0.0224362 15.1464 0.0205819 15.178 0.019284 15.2097L0.0189133 15.2126L0.0185427 15.2158V15.2202V15.2226C0.0183573 15.2263 0.0181708 15.2297 0.0179854 15.233C0.0176145 15.2401 0.0174297 15.2469 0.0168735 15.2545V15.264V15.2647V15.2657L0.0161322 15.2759C0.0142781 15.3115 0.0131651 15.3474 0.0118672 15.3834C0.0113109 15.3988 0.0105688 15.4138 0.0101979 15.4292C0.00760211 15.4946 0.00593339 15.5558 0.00500631 15.6187C0.00426464 15.6281 0.00426505 15.6385 0.00426505 15.6489V15.6704C0.00259631 15.7222 0.00166924 15.773 0.00166924 15.8245L0.0011133 15.8536L0.000927985 15.8666V15.8675V15.9207C0.000371737 15.9363 0.000557458 15.9519 0.000372043 15.9676C0.000372043 15.9788 0 15.9899 0 16.001C0 16.0118 0.000372043 16.0231 0.000372043 16.0342C0.000372043 16.0496 0.000371737 16.0646 0.000927985 16.0804V16.1312L0.00166924 16.1742C0.0465399 19.2171 1.26565 22.0713 3.43464 24.2101C5.60512 26.3515 8.48018 27.5302 11.5299 27.5302C12.0146 27.5302 12.4952 27.4983 12.9706 27.4393C13.186 27.4126 13.4007 27.382 13.6136 27.3433L13.613 27.3431C12.035 26.3891 10.6698 25.1124 9.59787 23.5756C9.20905 23.0185 8.86603 22.4368 8.57029 21.8353C8.50373 21.6998 8.44013 21.5629 8.37839 21.4255C8.37153 21.4105 8.36411 21.3959 8.35743 21.3809C7.60928 19.6999 7.22065 17.8761 7.22065 16.0014C7.22065 13.2745 8.04297 10.6553 9.59787 8.42696C9.95498 7.91485 10.3458 7.43277 10.7651 6.98072C12.1286 5.51056 13.8035 4.36914 15.6895 3.63879C16.261 3.41758 16.8445 3.23718 17.4376 3.09812C18.4261 2.86635 19.4412 2.74935 20.4716 2.74935C22.8798 2.74935 25.1934 3.38903 27.2142 4.58756C27.214 4.58719 27.2135 4.587 27.2133 4.58663C27.2124 4.58533 27.2113 4.58404 27.21 4.5833C27.1918 4.56531 27.1721 4.54621 27.153 4.5273C27.128 4.50301 27.1024 4.47854 27.0766 4.45425C27.0689 4.44683 27.0609 4.43923 27.0531 4.43162L27.0524 4.43107L27.0462 4.42569L27.044 4.4231L27.0403 4.41883C27.0186 4.39806 26.9939 4.37563 26.9708 4.35394C26.9461 4.33076 26.9228 4.30814 26.8966 4.28459L26.8938 4.28144L26.8914 4.27847L26.8853 4.27328C26.881 4.2692 26.877 4.26549 26.8727 4.2616C26.8445 4.23508 26.8165 4.20912 26.7881 4.18372L26.7829 4.17853L26.746 4.14497C26.7397 4.13941 26.7338 4.13404 26.7275 4.12847C26.6865 4.0912 26.6461 4.05449 26.6055 4.01852C26.559 3.97717 26.5143 3.93842 26.4696 3.89967C26.4555 3.88724 26.4401 3.87482 26.4258 3.8624C26.3952 3.83607 26.3648 3.80974 26.3328 3.78341L26.2708 3.73149L26.2371 3.70331L26.2363 3.70165L26.2113 3.68125L26.1983 3.67068C26.1612 3.63971 26.126 3.61042 26.0899 3.58187L26.0845 3.57723L26.0821 3.57519L26.0786 3.57241L26.0743 3.56907C26.0476 3.54664 26.02 3.52512 25.9934 3.50362L25.9933 3.50344L25.9908 3.50102L25.989 3.5001L25.9873 3.49936C25.9013 3.42964 25.8108 3.35899 25.7205 3.2902L25.7188 3.28854L25.7163 3.28687C25.6921 3.26777 25.668 3.24979 25.643 3.23087L25.6135 3.20844L25.5957 3.19472C25.5918 3.19138 25.5876 3.1886 25.5833 3.18563C25.582 3.1847 25.5805 3.18378 25.5794 3.18266L25.5783 3.18174L25.5751 3.17914L25.5727 3.17766L25.5683 3.17488L25.5177 3.13705L25.4993 3.12333L25.4303 3.07253C25.4233 3.06734 25.4157 3.06215 25.4085 3.05677C25.3953 3.04731 25.3823 3.03786 25.3692 3.02858L25.3415 3.00875L25.3412 3.00837L25.3399 3.00708L25.3384 3.00634L25.3365 3.00541C25.3094 2.9852 25.2824 2.9661 25.2551 2.947C25.2486 2.94255 25.2423 2.93754 25.2357 2.93309L25.2281 2.9279L25.2212 2.9229C25.1548 2.87636 25.0886 2.83 25.0213 2.78328L25.0196 2.78254L25.0189 2.78217L25.0161 2.78087C24.9863 2.7601 24.9562 2.73933 24.9258 2.71912C24.9186 2.7143 24.9115 2.70911 24.9041 2.70429L24.9034 2.70337L24.9008 2.7017C24.8559 2.6724 24.8109 2.64218 24.7653 2.61269C24.7628 2.61103 24.7604 2.60954 24.7578 2.60787L24.7576 2.60769L24.7543 2.60528L24.75 2.60269C24.7404 2.59638 24.7308 2.59026 24.7211 2.58396C24.6887 2.56282 24.656 2.5415 24.6236 2.52092L24.6184 2.51739L24.618 2.51721L24.6132 2.51387C24.565 2.48198 24.5159 2.45175 24.4658 2.42098L24.4608 2.41801L24.4599 2.41746L24.453 2.41319C24.4029 2.3813 24.3521 2.3494 24.3006 2.31937L24.2198 2.27023L24.219 2.26931C24.2064 2.2617 24.1942 2.25447 24.1817 2.24706C24.1664 2.23779 24.1508 2.22851 24.1354 2.21943L24.1322 2.21776L24.1321 2.21758L24.1304 2.21646L24.1282 2.21498C24.1187 2.20923 24.1092 2.20404 24.0998 2.19848C24.0633 2.17716 24.0266 2.1562 23.9897 2.13488L23.962 2.11856C23.9492 2.11096 23.9368 2.1041 23.9242 2.09687C23.8903 2.07703 23.8565 2.05738 23.8226 2.03847C23.8193 2.03661 23.8157 2.03512 23.8126 2.03327C23.5858 1.90626 23.3542 1.78444 23.1217 1.66874C23.1165 1.66615 23.1115 1.66318 23.1063 1.66059L23.1037 1.65966L23.1021 1.65892L23.0969 1.65632C23.0461 1.62962 22.9945 1.60459 22.9421 1.58049L22.805 1.51504L22.8043 1.51411C22.8006 1.51207 22.7963 1.51021 22.7924 1.50836C22.7898 1.50725 22.7872 1.50595 22.7846 1.50465L22.7811 1.50298L22.78 1.5028L22.7778 1.50224C22.6159 1.42567 22.467 1.35928 22.3231 1.2981L22.3192 1.29624L22.3161 1.29476L22.3128 1.29365L22.309 1.29235C22.2746 1.27677 22.2401 1.26212 22.2048 1.24748L22.1902 1.24155L22.1798 1.23728L22.178 1.23598L22.1774 1.23561L22.1153 1.20984C22.0934 1.20094 22.0712 1.19185 22.0489 1.18277C22.0385 1.1785 22.0285 1.17424 22.0181 1.17016C21.8641 1.10805 21.7374 1.05835 21.6212 1.01515L21.5514 0.989379L21.5418 0.985859L21.4686 0.958416C21.2731 0.887772 21.0699 0.818054 20.8658 0.753529L20.8632 0.752788L20.8606 0.751865C20.8572 0.750753 20.8539 0.749826 20.8506 0.748714C20.8116 0.736105 20.7729 0.724049 20.7341 0.712183C20.6943 0.69976 20.6542 0.687708 20.6143 0.675471C20.5906 0.66824 20.5669 0.661012 20.543 0.653595C20.4541 0.627637 20.3698 0.60353 20.2889 0.58128L20.2849 0.580726L20.2838 0.580539L20.2815 0.579798L20.2786 0.57887C20.2676 0.575903 20.2565 0.572936 20.2454 0.569969C20.2278 0.565334 20.21 0.560514 20.1925 0.555693L20.1816 0.552541L20.1658 0.547907C19.9977 0.502851 19.826 0.46243 19.6539 0.42238C19.5527 0.398832 19.4516 0.376211 19.3493 0.354332C19.1777 0.317805 19.0059 0.281465 18.8329 0.249945C18.7682 0.23882 18.7046 0.227509 18.64 0.217126L18.6365 0.216384H18.6339H18.6323C18.5685 0.205074 18.5039 0.194876 18.4394 0.185235C18.4096 0.180785 18.3799 0.176331 18.35 0.171881C18.3126 0.166133 18.275 0.160386 18.2381 0.155194C18.0539 0.129607 17.8689 0.106989 17.6829 0.0877059C17.3247 0.0504373 16.9637 0.0255878 16.6021 0.0120525C16.4011 0.00463585 16.2 0 15.9993 0C15.661 0 15.3215 0.0122374 14.9829 0.0335602C14.9473 0.0357852 14.9115 0.0367121 14.8759 0.0391225C14.5017 0.0650807 14.1292 0.103834 13.7606 0.155194C13.6944 0.16465 13.6281 0.174846 13.5626 0.184488C13.5608 0.185044 13.5591 0.185232 13.5572 0.185603C13.5565 0.185603 13.5558 0.185786 13.5548 0.186157L0.185045 13.5552L0.184119 13.5589Z" fill="#3584FC"/>
<path d="M31.8185 18.4218L31.8202 18.4097L31.8219 18.3968C31.8254 18.3743 31.8287 18.3512 31.8313 18.3287L31.8323 18.3235L31.833 18.315L31.8347 18.3055C31.8389 18.2763 31.8441 18.2462 31.8476 18.2167L31.8493 18.1971L31.8528 18.1772C31.8545 18.1678 31.8554 18.1583 31.8571 18.1498L31.8692 18.0499L31.8786 17.9811C31.8871 17.9147 31.894 17.8528 31.901 17.7908L31.9018 17.7823C31.9086 17.723 31.9148 17.667 31.92 17.6101C31.9242 17.5628 31.9294 17.5179 31.9329 17.474V17.4714L31.9372 17.4283C31.9405 17.3964 31.9433 17.3655 31.945 17.3345L31.9457 17.3225L31.9467 17.3104C31.9509 17.27 31.9535 17.2294 31.9561 17.189V17.183L31.957 17.1727C31.9622 17.1142 31.9665 17.0521 31.97 16.9824V16.9782C31.9743 16.9153 31.9778 16.8541 31.9811 16.7938L31.9821 16.7757V16.7506L31.9828 16.7258C31.9861 16.675 31.988 16.6233 31.9897 16.5715C31.9923 16.5018 31.9939 16.4356 31.9958 16.3692L31.9965 16.3607V16.3307C31.9975 16.2832 31.9982 16.235 31.9982 16.1868V16.1325L31.9991 16.1239C31.9999 16.0826 31.9999 16.0412 31.9999 16.0008C31.9999 15.9578 31.9999 15.9139 31.9991 15.8716V15.8681L31.9982 15.8267C31.9535 12.7839 30.7342 9.92957 28.5662 7.7908C26.3947 5.64943 23.5199 4.47074 20.47 4.47074C19.7658 4.47074 19.0692 4.5336 18.3863 4.65764C19.9645 5.61179 21.3301 6.88949 22.402 8.42641C23.9571 10.6547 24.7792 13.2739 24.7792 16.0008C24.7792 18.7277 23.9569 21.3469 22.402 23.5752C20.8833 25.7518 18.7762 27.4076 16.3094 28.3625C14.7864 28.9523 13.1779 29.2519 11.5283 29.2519C9.12011 29.2519 6.80742 28.6123 4.78564 27.4147L4.78917 27.4182L4.79862 27.4267L4.80716 27.4354C4.81661 27.4458 4.82625 27.4553 4.83645 27.4638L4.86834 27.4948C4.89411 27.5205 4.91989 27.5456 4.94659 27.5706L4.95085 27.5749L4.95604 27.5791C4.99906 27.6205 5.04986 27.6694 5.09974 27.715L5.10753 27.7211L5.11439 27.728C5.14702 27.759 5.17984 27.7901 5.2134 27.8202L5.21599 27.8228L5.21933 27.8254C5.277 27.8788 5.33559 27.9312 5.39585 27.9837L5.39937 27.9863L5.4029 27.9898C5.44165 28.0243 5.48021 28.0588 5.51989 28.0933L5.52768 28.0992L5.55364 28.1216L5.55623 28.1226L5.66989 28.2207L5.69307 28.2405L5.69826 28.2457C5.72923 28.2715 5.75926 28.2974 5.79116 28.3223L5.80321 28.3317L5.81433 28.3421C5.84103 28.3653 5.87126 28.3894 5.90482 28.4161L5.91612 28.4246L5.92651 28.4331C5.95061 28.4537 5.97472 28.4736 5.9979 28.4908L6.00568 28.4969L6.01254 28.5029C6.09783 28.5718 6.18646 28.6406 6.27602 28.7087C6.29493 28.7242 6.31477 28.7389 6.33368 28.7535C6.35612 28.7708 6.37763 28.7871 6.39988 28.8034C6.41286 28.8129 6.42491 28.8214 6.43603 28.8309L6.45754 28.8463C6.49277 28.8729 6.52892 28.8997 6.56508 28.9264L6.59864 28.9505C6.61681 28.9632 6.6348 28.9762 6.65278 28.9892L6.65964 28.9942L6.66743 28.9994C6.6932 29.0192 6.72083 29.0381 6.74753 29.0571L6.77682 29.0776C6.84228 29.1242 6.9094 29.1705 6.97652 29.2171L6.98264 29.2206L6.98876 29.2249C7.01805 29.2454 7.04809 29.2653 7.07738 29.2851L7.09982 29.2998L7.1738 29.3489L7.25223 29.4014C7.29173 29.4272 7.33326 29.4548 7.37535 29.4806C7.41744 29.508 7.45879 29.534 7.49921 29.5597H7.60081L7.78252 29.7327C7.80996 29.75 7.83852 29.7672 7.86689 29.7835C7.92196 29.8162 7.97795 29.8488 8.03395 29.8799L8.03914 29.8835L8.04433 29.8868C8.08827 29.9126 8.13222 29.9367 8.1769 29.9617C8.41294 30.0952 8.65212 30.2217 8.8915 30.3398C8.94489 30.3665 8.99737 30.3922 9.04984 30.4171C9.05763 30.4214 9.06541 30.4249 9.0732 30.4291C9.12326 30.4523 9.17221 30.4755 9.22209 30.4996C9.37283 30.5702 9.52692 30.639 9.67747 30.7037L9.68099 30.7047L9.68452 30.7063C9.7216 30.7227 9.76035 30.739 9.79725 30.7545C9.80856 30.7588 9.82043 30.764 9.83341 30.7701C9.88328 30.7907 9.93316 30.8115 9.98415 30.832C10.1073 30.8821 10.2408 30.9337 10.3802 30.9863L10.3845 30.988L10.3887 30.9898C10.4317 31.0062 10.4748 31.0225 10.5187 31.038L10.5246 31.0397L10.5298 31.0414C10.734 31.1163 10.9363 31.1851 11.1309 31.2463L11.1378 31.2489L11.1437 31.2505C11.1834 31.2643 11.2222 31.2763 11.2617 31.2885L11.2678 31.2893L11.273 31.291C11.3323 31.3101 11.3918 31.328 11.4512 31.346L11.5012 31.3607C11.5726 31.3805 11.6433 31.4013 11.7139 31.4209C11.7534 31.4322 11.7888 31.4415 11.824 31.4512L11.8326 31.4528C12.2735 31.5717 12.722 31.6716 13.1646 31.7499L13.1698 31.7515L13.175 31.7525C13.2284 31.7619 13.286 31.7723 13.3583 31.7844H13.3626L13.3661 31.7851C13.4377 31.7971 13.497 31.8066 13.5514 31.8144L13.5599 31.8153L13.5684 31.817C13.6305 31.8274 13.6932 31.8359 13.7553 31.8446L13.7605 31.8453C14.4975 31.9479 15.2501 32.0004 15.9983 32.0004C16.7474 32.0004 17.5009 31.9479 18.2378 31.8453L18.2533 31.8428C18.3127 31.8342 18.3712 31.8264 18.4298 31.817L18.4384 31.8153L18.4445 31.8144L31.8143 18.4446C31.8159 18.4374 31.8169 18.4296 31.8185 18.4218Z" fill="#3584FC"/>
</svg>
