<svg width="132" height="47" viewBox="0 0 132 47" fill="none" xmlns="http://www.w3.org/2000/svg">
<g clip-path="url(#clip0_7150_2493)">
<mask id="mask0_7150_2493" style="mask-type:luminance" maskUnits="userSpaceOnUse" x="-199" y="3" width="330" height="41">
<path d="M130.653 3.49146H-199V43.2669H130.653V3.49146Z" fill="white"/>
</mask>
<g mask="url(#mask0_7150_2493)">
<path d="M-229.689 33.2157C-229.376 33.2157 -229.108 31.9579 -228.794 31.9579C-228.481 31.9579 -228.212 32.4739 -227.899 32.4739C-227.586 32.4739 -227.317 32.8932 -227.004 32.8932C-226.064 32.8932 -225.258 33.0544 -224.318 33.0544C-224.005 33.0544 -223.736 33.2157 -223.423 33.2157C-223.11 33.2157 -222.841 32.2804 -222.528 32.2804C-222.214 32.2804 -221.946 32.1191 -221.632 32.1191C-221.319 32.1191 -221.051 30.3131 -220.737 30.3131C-219.797 30.3131 -218.992 30.2808 -218.052 30.2808C-217.738 30.2808 -217.47 28.9263 -217.156 28.9263C-216.843 28.9263 -216.574 29.5068 -216.261 29.5068C-215.948 29.5068 -215.679 27.733 -215.366 27.733C-215.053 27.733 -214.784 29.1521 -214.471 29.1521C-213.531 29.1521 -212.725 28.7005 -211.785 28.7005C-211.472 28.7005 -211.203 28.4103 -210.89 28.4103C-210.576 28.4103 -210.308 28.3458 -209.995 28.3458C-209.681 28.3458 -209.413 27.0557 -209.099 27.0557C-208.786 27.0557 -208.517 27.4105 -208.204 27.4105C-206.951 27.4105 -205.877 28.0878 -204.623 28.0878C-204.31 28.0878 -204.041 28.765 -203.728 28.765C-203.415 28.765 -203.146 26.701 -202.833 26.701C-202.519 26.701 -202.251 25.2819 -201.938 25.2819C-200.998 25.2819 -200.192 25.7335 -199.252 25.7335C-198.939 25.7335 -198.67 25.7335 -198.357 25.7335C-198.043 25.7335 -197.775 26.959 -197.461 26.959C-197.148 26.959 -196.88 26.2817 -196.566 26.2817C-196.253 26.2817 -195.984 24.2499 -195.671 24.2499C-194.731 24.2499 -193.925 25.8947 -192.985 25.8947C-192.672 25.8947 -192.403 29.8616 -192.09 29.8616C-191.777 29.8616 -191.508 28.507 -191.195 28.507C-190.882 28.507 -190.613 26.443 -190.3 26.443C-189.986 26.443 -189.718 24.5402 -189.404 24.5402C-188.464 24.5402 -187.659 24.7982 -186.719 24.7982C-186.405 24.7982 -186.137 22.6696 -185.823 22.6696C-185.51 22.6696 -185.242 24.1209 -184.928 24.1209C-184.615 24.1209 -184.346 22.8309 -184.033 22.8309C-183.72 22.8309 -183.451 23.9597 -183.138 23.9597C-182.198 23.9597 -181.392 21.7343 -180.452 21.7343C-180.139 21.7343 -179.87 26.0882 -179.557 26.0882C-179.244 26.0882 -178.975 24.7982 -178.662 24.7982C-178.348 24.7982 -178.08 24.3144 -177.766 24.3144C-177.453 24.3144 -177.185 23.9919 -176.871 23.9919C-175.944 23.9919 -175.15 22.0891 -174.223 22.0891C-173.91 22.0891 -173.641 21.3473 -173.328 21.3473C-173.014 21.3473 -172.746 21.8956 -172.432 21.8956C-172.119 21.8956 -171.851 21.8311 -171.537 21.8311C-171.224 21.8311 -170.955 22.3794 -170.642 22.3794C-169.702 22.3794 -168.896 21.1216 -167.956 21.1216C-167.643 21.1216 -167.374 22.3794 -167.061 22.3794C-166.748 22.3794 -166.479 25.1207 -166.166 25.1207C-165.853 25.1207 -165.584 24.7014 -165.271 24.7014C-164.017 24.7014 -162.943 25.8947 -161.69 25.8947C-161.376 25.8947 -161.108 27.862 -160.795 27.862C-160.481 27.862 -160.213 26.572 -159.899 26.572C-159.586 26.572 -159.317 24.8304 -159.004 24.8304C-158.691 24.8304 -158.422 26.0237 -158.109 26.0237C-157.169 26.0237 -156.363 27.1202 -155.423 27.1202C-155.11 27.1202 -154.841 23.8952 -154.528 23.8952C-154.215 23.8952 -153.946 25.3464 -153.633 25.3464C-153.319 25.3464 -153.051 26.8945 -152.738 26.8945C-152.424 26.8945 -152.156 26.4107 -151.842 26.4107C-150.902 26.4107 -150.097 27.8298 -149.157 27.8298C-148.843 27.8298 -148.575 28.5393 -148.261 28.5393C-147.948 28.5393 -147.68 26.185 -147.366 26.185C-147.053 26.185 -146.784 25.7657 -146.471 25.7657C-146.158 25.7657 -145.889 24.7337 -145.576 24.7337C-144.636 24.7337 -143.83 24.8304 -142.89 24.8304C-142.577 24.8304 -142.308 24.1209 -141.995 24.1209C-141.682 24.1209 -141.413 24.1532 -141.1 24.1532C-140.786 24.1532 -140.518 25.5722 -140.204 25.5722C-139.891 25.5722 -139.622 27.862 -139.309 27.862C-138.369 27.862 -137.563 28.1523 -136.623 28.1523C-136.31 28.1523 -136.042 27.6685 -135.728 27.6685C-135.415 27.6685 -135.146 28.1523 -134.833 28.1523C-134.52 28.1523 -134.251 30.0873 -133.938 30.0873C-133.624 30.0873 -133.356 29.1843 -133.043 29.1843C-132.103 29.1843 -131.297 29.0876 -130.357 29.0876C-130.044 29.0876 -129.775 28.765 -129.462 28.765C-129.148 28.765 -128.88 28.6683 -128.566 28.6683C-128.253 28.6683 -127.985 29.7971 -127.671 29.7971C-127.358 29.7971 -127.089 32.0546 -126.776 32.0546C-125.836 32.0546 -125.03 29.7971 -124.09 29.7971C-123.777 29.7971 -123.508 29.7971 -123.195 29.7971C-122.882 29.7971 -122.613 29.2488 -122.3 29.2488C-121.987 29.2488 -121.718 31.3129 -121.405 31.3129C-121.091 31.3129 -120.823 31.1194 -120.509 31.1194C-119.256 31.1194 -118.182 29.6681 -116.929 29.6681C-116.615 29.6681 -116.347 32.1191 -116.033 32.1191C-115.72 32.1191 -115.451 32.8932 -115.138 32.8932C-114.825 32.8932 -114.556 36.86 -114.243 36.86C-113.303 36.86 -112.497 35.2797 -111.557 35.2797C-111.244 35.2797 -110.975 34.0219 -110.662 34.0219C-110.349 34.0219 -110.08 30.8291 -109.767 30.8291C-109.453 30.8291 -109.185 32.0224 -108.872 32.0224C-108.558 32.0224 -108.29 30.9581 -107.976 30.9581C-107.036 30.9581 -106.231 32.6352 -105.291 32.6352C-104.977 32.6352 -104.709 30.5711 -104.395 30.5711C-104.082 30.5711 -103.814 30.5066 -103.5 30.5066C-103.187 30.5066 -102.918 30.8936 -102.605 30.8936C-102.292 30.8936 -102.023 28.5715 -101.71 28.5715C-100.77 28.5715 -99.9641 27.7975 -99.0241 27.7975C-98.7108 27.7975 -98.4422 26.959 -98.1289 26.959C-97.8155 26.959 -97.547 29.8616 -97.2336 29.8616C-96.9203 29.8616 -96.6517 32.3126 -96.3384 32.3126C-96.0251 32.3126 -95.7565 31.2161 -95.4432 31.2161C-94.5032 31.2161 -93.6975 33.5704 -92.7575 33.5704C-92.4442 33.5704 -92.1756 32.8287 -91.8623 32.8287C-91.549 32.8287 -91.2804 31.7321 -90.9671 31.7321C-90.6538 31.7321 -90.3852 32.5062 -90.0719 32.5062C-89.7585 32.5062 -89.49 28.636 -89.1766 28.636C-88.2366 28.636 -87.431 29.2166 -86.491 29.2166C-86.1776 29.2166 -85.9091 28.1845 -85.5957 28.1845C-84.9691 28.1845 -84.432 28.12 -83.8053 28.12C-83.492 28.12 -83.2234 31.8611 -82.9101 31.8611C-81.9701 31.8611 -81.1644 34.8927 -80.2244 34.8927C-79.9111 34.8927 -79.6425 34.8605 -79.3292 34.8605C-79.0158 34.8605 -78.7473 35.6345 -78.4339 35.6345C-78.1206 35.6345 -77.8521 35.828 -77.5387 35.828C-77.2254 35.828 -76.9568 34.1832 -76.6435 34.1832C-75.7035 34.1832 -74.8978 34.9895 -73.9578 34.9895C-73.6445 34.9895 -73.3759 34.1832 -73.0626 34.1832C-72.7493 34.1832 -72.4807 31.6676 -72.1674 31.6676C-71.854 31.6676 -71.5855 30.1841 -71.2722 30.1841C-70.9588 30.1841 -70.6903 31.8289 -70.3769 31.8289C-69.437 31.8289 -68.6313 34.2155 -67.6913 34.2155C-67.3779 34.2155 -67.1094 36.215 -66.7961 36.215C-66.4827 36.215 -66.2142 35.2152 -65.9008 35.2152C-65.5875 35.2152 -65.3189 33.2157 -65.0056 33.2157C-64.6923 33.2157 -64.4237 30.1841 -64.1104 30.1841C-63.1704 30.1841 -62.3647 33.0222 -61.4247 33.0222C-61.1114 33.0222 -60.8428 33.4414 -60.5295 33.4414C-60.2162 33.4414 -59.9476 34.0542 -59.6342 34.0542C-59.3209 34.0542 -59.0524 34.409 -58.739 34.409C-58.4257 34.409 -58.1571 29.7648 -57.8438 29.7648C-56.9038 29.7648 -56.0981 29.3778 -55.1581 29.3778C-54.8448 29.3778 -54.5762 28.636 -54.2629 28.636C-53.9496 28.636 -53.681 28.1845 -53.3677 28.1845C-53.0544 28.1845 -52.7858 27.733 -52.4725 27.733C-52.1591 27.733 -51.8906 27.7653 -51.5773 27.7653C-50.6373 27.7653 -49.8316 28.9586 -48.8916 28.9586C-48.5783 28.9586 -48.3097 29.5068 -47.9964 29.5068C-47.683 29.5068 -47.4145 26.8945 -47.1011 26.8945C-46.7878 26.8945 -46.5192 24.5079 -46.2059 24.5079C-45.8926 24.5079 -45.624 24.0242 -45.3107 24.0242C-44.3707 24.0242 -43.565 23.6371 -42.625 23.6371C-42.3117 23.6371 -42.0431 24.1854 -41.7298 24.1854C-41.4164 24.1854 -41.1479 23.8952 -40.8345 23.8952C-40.5212 23.8952 -40.2527 24.9917 -39.9393 24.9917C-39.626 24.9917 -39.3574 28.9908 -39.0441 28.9908C-38.1041 28.9908 -37.2984 28.7973 -36.3584 28.7973C-36.0451 28.7973 -35.7766 29.6358 -35.4632 29.6358C-35.1499 29.6358 -34.8813 29.9583 -34.568 29.9583C-34.2547 29.9583 -33.9861 31.5709 -33.6728 31.5709C-33.3595 31.5709 -33.0909 32.1836 -32.7776 32.1836C-31.5242 32.1836 -30.45 31.6676 -29.1966 31.6676C-28.8833 31.6676 -28.6147 28.9908 -28.3014 28.9908C-27.9881 28.9908 -27.7195 27.2815 -27.4062 27.2815C-27.0929 27.2815 -26.8243 28.3458 -26.511 28.3458C-25.571 28.3458 -24.7653 29.4101 -23.8253 29.4101C-23.512 29.4101 -23.2434 28.4425 -22.9301 28.4425C-22.6168 28.4425 -22.3482 28.4748 -22.0349 28.4748C-21.7215 28.4748 -21.453 27.217 -21.1396 27.217C-20.8263 27.217 -20.5578 25.5077 -20.2444 25.5077C-19.3044 25.5077 -18.4987 25.2819 -17.5588 25.2819C-17.2454 25.2819 -16.9769 27.991 -16.6635 27.991C-16.3502 27.991 -16.0816 26.2172 -15.7683 26.2172C-15.455 26.2172 -15.1864 21.6698 -14.8731 21.6698C-14.5597 21.6698 -14.2912 23.9274 -13.9778 23.9274C-13.0379 23.9274 -12.2322 25.2819 -11.2922 25.2819C-10.9788 25.2819 -10.7103 26.9267 -10.3969 26.9267C-10.0836 26.9267 -9.81506 28.12 -9.50172 28.12C-9.1884 28.12 -8.91983 27.2492 -8.60651 27.2492C-8.29318 27.2492 -8.02461 28.4103 -7.71129 28.4103C-6.7713 28.4103 -5.96561 27.8298 -5.02562 27.8298C-4.7123 27.8298 -4.44373 27.991 -4.1304 27.991C-3.81706 27.991 -3.54851 27.8943 -3.23517 27.8943C-2.92184 27.8943 -2.65329 27.6363 -2.33995 27.6363C-2.02663 27.6363 -1.75806 28.3135 -1.44473 28.3135C-0.504745 28.3135 0.30098 29.0876 1.24097 29.0876C1.55429 29.0876 1.82286 30.8614 2.13618 30.8614C2.44952 30.8614 2.71808 31.4096 3.0314 31.4096C3.34474 31.4096 3.6133 30.5388 3.92664 30.5388C4.23996 30.5388 4.50853 30.0228 4.82185 30.0228C5.76184 30.0228 6.56754 28.765 7.50752 28.765C7.82085 28.765 8.08942 25.8302 8.40274 25.8302C8.71606 25.8302 8.98463 25.1852 9.29796 25.1852C9.6113 25.1852 9.87985 25.0562 10.1932 25.0562C10.5065 25.0562 10.7751 25.8302 11.0884 25.8302C12.0284 25.8302 12.8341 25.0239 13.7741 25.0239C14.0874 25.0239 14.356 25.6044 14.6693 25.6044C14.9826 25.6044 15.2512 25.4432 15.5645 25.4432C15.8779 25.4432 16.1464 25.3142 16.4598 25.3142C16.7731 25.3142 17.0417 23.3469 17.355 23.3469C18.9347 23.3469 20.2887 23.3146 21.8684 23.3146C22.1817 23.3146 22.4503 22.2181 22.7636 22.2181C23.0769 22.2181 23.3455 22.1213 23.6588 22.1213C24.5988 22.1213 25.4045 22.6051 26.3445 22.6051C26.6579 22.6051 26.9264 22.1213 27.2397 22.1213C27.5531 22.1213 27.8217 25.0884 28.135 25.0884C28.4483 25.0884 28.7169 26.6687 29.0302 26.6687C29.3435 26.6687 29.6121 26.9267 29.9254 26.9267C30.8654 26.9267 31.6711 27.5718 32.6111 27.5718C32.9244 27.5718 33.193 28.0878 33.5063 28.0878C33.8196 28.0878 34.0882 29.0876 34.4015 29.0876C34.7148 29.0876 34.9834 27.7653 35.2968 27.7653C35.6101 27.7653 35.8786 27.733 36.192 27.733C37.132 27.733 37.9377 26.8622 38.8776 26.8622C39.1909 26.8622 39.4595 27.7653 39.7729 27.7653C40.0862 27.7653 40.3548 27.1202 40.6681 27.1202C41.2948 27.1202 41.8319 25.3142 42.4586 25.3142C43.3985 25.3142 44.2042 25.6367 45.1442 25.6367C45.4576 25.6367 45.7261 26.0237 46.0394 26.0237C46.3528 26.0237 46.6213 23.7661 46.9347 23.7661C47.248 23.7661 47.5166 23.0889 47.8299 23.0889C48.1432 23.0889 48.4118 21.4118 48.7251 21.4118C49.6651 21.4118 50.4708 21.1216 51.4108 21.1216C51.7241 21.1216 51.9927 19.1865 52.306 19.1865C52.6193 19.1865 52.8879 18.864 53.2012 18.864C53.5146 18.864 53.7831 19.7025 54.0964 19.7025C54.4098 19.7025 54.6783 18.606 54.9917 18.606C55.9316 18.606 56.7374 17.7352 57.6774 17.7352C57.9907 17.7352 58.2592 18.4125 58.5726 18.4125C58.8859 18.4125 59.1545 17.058 59.4678 17.058C59.7811 17.058 60.0497 18.4447 60.363 18.4447C60.6764 18.4447 60.9449 11.8978 61.2582 11.8978C62.1982 11.8978 63.0039 12.3493 63.9439 12.3493C64.2572 12.3493 64.5258 12.1236 64.8391 12.1236C65.1525 12.1236 65.421 10.1885 65.7343 10.1885C66.0477 10.1885 66.3163 10.898 66.6296 10.898C66.9429 10.898 67.2115 11.414 67.5248 11.414C68.4648 11.414 69.2705 11.9946 70.2104 11.9946C70.8371 11.9946 71.3743 11.93 72.0009 11.93C72.3143 11.93 72.5828 12.7363 72.8961 12.7363C73.2095 12.7363 73.4781 14.0264 73.7914 14.0264C74.7314 14.0264 75.537 11.5108 76.4771 11.5108C77.1037 11.5108 77.6408 9.38222 78.2675 9.38222C78.5808 9.38222 78.8494 11.285 79.1627 11.285C79.476 11.285 79.7446 10.0595 80.0579 10.0595C80.9979 10.0595 81.8036 10.6723 82.7436 10.6723C83.0569 10.6723 83.3255 10.0272 83.6388 10.0272C83.9521 10.0272 84.2207 8.35019 84.5341 8.35019C84.8474 8.35019 85.1159 8.4792 85.4293 8.4792C85.7426 8.4792 86.0112 10.1885 86.3245 10.1885C87.2645 10.1885 88.0702 9.96274 89.0102 9.96274C89.3235 9.96274 89.5921 9.99499 89.9054 9.99499C90.2188 9.99499 90.4873 10.8658 90.8006 10.8658C91.114 10.8658 91.3825 11.3495 91.6959 11.3495C92.0092 11.3495 92.2777 10.5433 92.5911 10.5433C93.8444 10.5433 94.9186 10.64 96.172 10.64C96.4853 10.64 96.7538 9.67248 97.0672 9.67248C97.3805 9.67248 97.6491 10.1562 97.9624 10.1562C98.2757 10.1562 98.5443 9.44672 98.8576 9.44672C99.7976 9.44672 100.603 9.70473 101.543 9.70473C101.857 9.70473 102.125 8.80171 102.439 8.80171C102.752 8.80171 103.02 10.6723 103.334 10.6723C103.647 10.6723 103.916 11.027 104.229 11.027C104.542 11.027 104.811 9.38222 105.124 9.38222C106.064 9.38222 106.87 10.1562 107.81 10.1562C108.123 10.1562 108.392 8.83396 108.705 8.83396C109.018 8.83396 109.287 9.18872 109.6 9.18872C109.914 9.18872 110.182 10.253 110.496 10.253C110.809 10.253 111.077 6.86665 111.391 6.86665C112.331 6.86665 113.136 8.41469 114.076 8.41469C114.39 8.41469 114.658 7.60842 114.972 7.60842C115.285 7.60842 115.554 7.86643 115.867 7.86643C116.18 7.86643 116.449 8.51145 116.762 8.51145C117.075 8.51145 117.344 8.44695 117.657 8.44695C118.911 8.44695 119.985 7.28591 121.238 7.28591C121.552 7.28591 121.82 7.99543 122.133 7.99543C122.447 7.99543 122.715 9.38222 123.029 9.38222C123.342 9.38222 123.611 8.70495 123.924 8.70495C124.864 8.70495 125.67 10.124 126.61 10.124C126.923 10.124 127.191 8.57595 127.505 8.57595C127.818 8.57595 128.087 5.3186 128.4 5.3186C128.4 5.3186 128.4 5.31861 128.4 42.7297H-229.689V33.2157Z" fill="url(#paint0_linear_7150_2493)"/>
</g>
<mask id="mask1_7150_2493" style="mask-type:luminance" maskUnits="userSpaceOnUse" x="-79" y="3" width="210" height="40">
<path d="M131 3H-78.0713V43H131V3Z" fill="white"/>
</mask>
<g mask="url(#mask1_7150_2493)">
<path d="M-229.688 33.3027C-229.376 33.3027 -229.108 32.0266 -228.795 32.0266C-228.482 32.0266 -228.214 32.5501 -227.901 32.5501C-227.588 32.5501 -227.32 32.9755 -227.007 32.9755C-226.069 32.9755 -225.264 33.1391 -224.326 33.1391C-224.013 33.1391 -223.745 33.3027 -223.432 33.3027C-223.119 33.3027 -222.851 32.3538 -222.539 32.3538C-222.226 32.3538 -221.958 32.1902 -221.645 32.1902C-221.332 32.1902 -221.064 30.3579 -220.751 30.3579C-219.813 30.3579 -219.008 30.3252 -218.07 30.3252C-217.757 30.3252 -217.489 28.9509 -217.176 28.9509C-216.863 28.9509 -216.595 29.5399 -216.282 29.5399C-215.97 29.5399 -215.701 27.7403 -215.389 27.7403C-215.076 27.7403 -214.808 29.18 -214.495 29.18C-213.556 29.18 -212.752 28.7219 -211.814 28.7219C-211.501 28.7219 -211.233 28.4274 -210.92 28.4274C-210.607 28.4274 -210.339 28.362 -210.026 28.362C-209.713 28.362 -209.445 27.0532 -209.132 27.0532C-208.82 27.0532 -208.552 27.4131 -208.239 27.4131C-206.987 27.4131 -205.915 28.1002 -204.664 28.1002C-204.351 28.1002 -204.083 28.7873 -203.77 28.7873C-203.457 28.7873 -203.189 26.6933 -202.876 26.6933C-202.563 26.6933 -202.295 25.2536 -201.983 25.2536C-201.044 25.2536 -200.24 25.7117 -199.301 25.7117C-198.988 25.7117 -198.72 25.7117 -198.408 25.7117C-198.095 25.7117 -197.827 26.955 -197.514 26.955C-197.201 26.955 -196.933 26.2679 -196.62 26.2679C-196.307 26.2679 -196.039 24.2065 -195.726 24.2065C-194.788 24.2065 -193.984 25.8753 -193.045 25.8753C-192.732 25.8753 -192.464 29.8998 -192.151 29.8998C-191.839 29.8998 -191.57 28.5256 -191.258 28.5256C-190.945 28.5256 -190.677 26.4315 -190.364 26.4315C-190.051 26.4315 -189.783 24.501 -189.47 24.501C-188.532 24.501 -187.727 24.7628 -186.789 24.7628C-186.476 24.7628 -186.208 22.6033 -185.895 22.6033C-185.582 22.6033 -185.314 24.0757 -185.001 24.0757C-184.689 24.0757 -184.421 22.7669 -184.108 22.7669C-183.795 22.7669 -183.527 23.9121 -183.214 23.9121C-182.276 23.9121 -181.471 21.6544 -180.533 21.6544C-180.22 21.6544 -179.952 26.0716 -179.639 26.0716C-179.326 26.0716 -179.058 24.7628 -178.745 24.7628C-178.432 24.7628 -178.164 24.272 -177.852 24.272C-177.539 24.272 -177.271 23.9448 -176.958 23.9448C-176.032 23.9448 -175.239 22.0143 -174.314 22.0143C-174.001 22.0143 -173.733 21.2618 -173.42 21.2618C-173.107 21.2618 -172.839 21.818 -172.526 21.818C-172.214 21.818 -171.945 21.7526 -171.633 21.7526C-171.32 21.7526 -171.052 22.3088 -170.739 22.3088C-169.8 22.3088 -168.996 21.0327 -168.058 21.0327C-167.745 21.0327 -167.477 22.3088 -167.164 22.3088C-166.851 22.3088 -166.583 25.09 -166.27 25.09C-165.957 25.09 -165.689 24.6646 -165.376 24.6646C-164.125 24.6646 -163.053 25.8753 -161.801 25.8753C-161.489 25.8753 -161.221 27.8712 -160.908 27.8712C-160.595 27.8712 -160.327 26.5624 -160.014 26.5624C-159.701 26.5624 -159.433 24.7955 -159.12 24.7955C-158.807 24.7955 -158.539 26.0061 -158.226 26.0061C-157.288 26.0061 -156.484 27.1186 -155.545 27.1186C-155.232 27.1186 -154.964 23.8466 -154.652 23.8466C-154.339 23.8466 -154.071 25.319 -153.758 25.319C-153.445 25.319 -153.177 26.8896 -152.864 26.8896C-152.551 26.8896 -152.283 26.3988 -151.97 26.3988C-151.032 26.3988 -150.227 27.8384 -149.289 27.8384C-148.976 27.8384 -148.708 28.5583 -148.395 28.5583C-148.083 28.5583 -147.814 26.1697 -147.502 26.1697C-147.189 26.1697 -146.921 25.7444 -146.608 25.7444C-146.295 25.7444 -146.027 24.6973 -145.714 24.6973C-144.776 24.6973 -143.971 24.7955 -143.033 24.7955C-142.72 24.7955 -142.452 24.0757 -142.139 24.0757C-141.826 24.0757 -141.558 24.1084 -141.245 24.1084C-140.933 24.1084 -140.664 25.5481 -140.352 25.5481C-140.039 25.5481 -139.771 27.8712 -139.458 27.8712C-138.519 27.8712 -137.715 28.1656 -136.777 28.1656C-136.464 28.1656 -136.196 27.6748 -135.883 27.6748C-135.57 27.6748 -135.302 28.1656 -134.989 28.1656C-134.676 28.1656 -134.408 30.1288 -134.095 30.1288C-133.783 30.1288 -133.515 29.2127 -133.202 29.2127C-132.263 29.2127 -131.459 29.1145 -130.521 29.1145C-130.208 29.1145 -129.94 28.7873 -129.627 28.7873C-129.314 28.7873 -129.046 28.6892 -128.733 28.6892C-128.42 28.6892 -128.152 29.8344 -127.839 29.8344C-127.526 29.8344 -127.258 32.1247 -126.946 32.1247C-126.007 32.1247 -125.203 29.8344 -124.264 29.8344C-123.952 29.8344 -123.683 29.8344 -123.371 29.8344C-123.058 29.8344 -122.79 29.2781 -122.477 29.2781C-122.164 29.2781 -121.896 31.3722 -121.583 31.3722C-121.27 31.3722 -121.002 31.1759 -120.689 31.1759C-119.438 31.1759 -118.366 29.7035 -117.114 29.7035C-116.802 29.7035 -116.533 32.1902 -116.221 32.1902C-115.908 32.1902 -115.64 32.9755 -115.327 32.9755C-115.014 32.9755 -114.746 37 -114.433 37C-113.495 37 -112.69 35.3967 -111.752 35.3967C-111.439 35.3967 -111.171 34.1207 -110.858 34.1207C-110.545 34.1207 -110.277 30.8814 -109.964 30.8814C-109.652 30.8814 -109.384 32.092 -109.071 32.092C-108.758 32.092 -108.49 31.0123 -108.177 31.0123C-107.239 31.0123 -106.434 32.7137 -105.496 32.7137C-105.183 32.7137 -104.915 30.6196 -104.602 30.6196C-104.289 30.6196 -104.021 30.5542 -103.708 30.5542C-103.395 30.5542 -103.127 30.9468 -102.815 30.9468C-102.502 30.9468 -102.234 28.591 -101.921 28.591C-100.982 28.591 -100.178 27.8057 -99.2396 27.8057C-98.9268 27.8057 -98.6587 26.955 -98.3459 26.955C-98.033 26.955 -97.7649 29.8998 -97.4521 29.8998C-97.1393 29.8998 -96.8712 32.3865 -96.5584 32.3865C-96.2456 32.3865 -95.9774 31.274 -95.6646 31.274C-94.7262 31.274 -93.9218 33.6626 -92.9834 33.6626C-92.6706 33.6626 -92.4025 32.91 -92.0897 32.91C-91.7769 32.91 -91.5087 31.7975 -91.1959 31.7975C-90.8831 31.7975 -90.615 32.5828 -90.3022 32.5828C-89.9894 32.5828 -89.7213 28.6564 -89.4084 28.6564C-88.47 28.6564 -87.6657 29.2454 -86.7272 29.2454C-86.4144 29.2454 -86.1463 28.1984 -85.8335 28.1984C-85.2079 28.1984 -84.6716 28.1329 -84.046 28.1329C-83.7332 28.1329 -83.4651 31.9284 -83.1523 31.9284C-82.2138 31.9284 -81.4095 35.0041 -80.4711 35.0041C-80.1582 35.0041 -79.8901 34.9714 -79.5773 34.9714C-79.2645 34.9714 -78.9964 35.7566 -78.6836 35.7566C-78.3708 35.7566 -78.1026 35.953 -77.7898 35.953C-77.477 35.953 -77.2089 34.2843 -76.8961 34.2843C-75.9577 34.2843 -75.1533 35.1022 -74.2149 35.1022C-73.902 35.1022 -73.6339 34.2843 -73.3211 34.2843C-73.0083 34.2843 -72.7402 31.7321 -72.4274 31.7321C-72.1146 31.7321 -71.8464 30.227 -71.5336 30.227C-71.2208 30.227 -70.9527 31.8957 -70.6399 31.8957C-69.7015 31.8957 -68.8971 34.317 -67.9587 34.317C-67.6459 34.317 -67.3778 36.3456 -67.0649 36.3456C-66.7521 36.3456 -66.484 35.3313 -66.1712 35.3313C-65.8584 35.3313 -65.5903 33.3027 -65.2775 33.3027C-64.9647 33.3027 -64.6965 30.227 -64.3837 30.227C-63.4453 30.227 -62.6409 33.1063 -61.7025 33.1063C-61.3897 33.1063 -61.1216 33.5317 -60.8088 33.5317C-60.4959 33.5317 -60.2278 34.1534 -59.915 34.1534C-59.6022 34.1534 -59.3341 34.5133 -59.0213 34.5133C-58.7085 34.5133 -58.4403 29.8016 -58.1275 29.8016C-57.1891 29.8016 -56.3847 29.409 -55.4463 29.409C-55.1335 29.409 -54.8654 28.6564 -54.5526 28.6564C-54.2398 28.6564 -53.9716 28.1984 -53.6588 28.1984C-53.346 28.1984 -53.0779 27.7403 -52.7651 27.7403C-52.4523 27.7403 -52.1842 27.773 -51.8714 27.773C-50.9329 27.773 -50.1286 28.9836 -49.1901 28.9836C-48.8773 28.9836 -48.6092 29.5399 -48.2964 29.5399C-47.9836 29.5399 -47.7155 26.8896 -47.4027 26.8896C-47.0899 26.8896 -46.8217 24.4683 -46.5089 24.4683C-46.1961 24.4683 -45.928 23.9775 -45.6151 23.9775C-44.6767 23.9775 -43.8724 23.5849 -42.9339 23.5849C-42.6211 23.5849 -42.353 24.1411 -42.0402 24.1411C-41.7274 24.1411 -41.4593 23.8466 -41.1465 23.8466C-40.8336 23.8466 -40.5655 24.9591 -40.2527 24.9591C-39.9399 24.9591 -39.6718 29.0164 -39.359 29.0164C-38.4206 29.0164 -37.6162 28.82 -36.6778 28.82C-36.365 28.82 -36.0968 29.6708 -35.784 29.6708C-35.4712 29.6708 -35.2031 29.998 -34.8903 29.998C-34.5775 29.998 -34.3094 31.6339 -33.9965 31.6339C-33.6837 31.6339 -33.4156 32.2556 -33.1028 32.2556C-31.8516 32.2556 -30.7791 31.7321 -29.5278 31.7321C-29.215 31.7321 -28.9469 29.0164 -28.6341 29.0164C-28.3213 29.0164 -28.0532 27.2822 -27.7403 27.2822C-27.4275 27.2822 -27.1594 28.362 -26.8466 28.362C-25.9082 28.362 -25.1038 29.4417 -24.1654 29.4417C-23.8526 29.4417 -23.5845 28.4601 -23.2717 28.4601C-22.9588 28.4601 -22.6907 28.4928 -22.3779 28.4928C-22.0651 28.4928 -21.797 27.2168 -21.4842 27.2168C-21.1714 27.2168 -20.9032 25.4826 -20.5904 25.4826C-19.652 25.4826 -18.8476 25.2536 -17.9092 25.2536C-17.5964 25.2536 -17.3283 28.002 -17.0155 28.002C-16.7027 28.002 -16.4345 26.2025 -16.1217 26.2025C-15.8089 26.2025 -15.5408 21.589 -15.228 21.589C-14.9152 21.589 -14.647 23.8793 -14.3342 23.8793C-13.3958 23.8793 -12.5914 25.2536 -11.653 25.2536C-11.3402 25.2536 -11.0721 26.9223 -10.7593 26.9223C-10.4465 26.9223 -10.1783 28.1329 -9.86554 28.1329C-9.55273 28.1329 -9.28461 27.2495 -8.9718 27.2495C-8.65899 27.2495 -8.39087 28.4274 -8.07806 28.4274C-7.13963 28.4274 -6.33527 27.8384 -5.39685 27.8384C-5.08404 27.8384 -4.81592 28.002 -4.50311 28.002C-4.1903 28.002 -3.92218 27.9039 -3.60937 27.9039C-3.29656 27.9039 -3.02844 27.6421 -2.71563 27.6421C-2.40282 27.6421 -2.1347 28.3292 -1.82189 28.3292C-0.883464 28.3292 -0.0790687 29.1145 0.859359 29.1145C1.17217 29.1145 1.44029 30.9141 1.7531 30.9141C2.06591 30.9141 2.33403 31.4703 2.64684 31.4703C2.95965 31.4703 3.22777 30.5869 3.54057 30.5869C3.85338 30.5869 4.1215 30.0634 4.43431 30.0634C5.37274 30.0634 6.1771 28.7873 7.11553 28.7873C7.42834 28.7873 7.69646 25.8098 8.00927 25.8098C8.32208 25.8098 8.5902 25.1554 8.90301 25.1554C9.21582 25.1554 9.48394 25.0245 9.79674 25.0245C10.1096 25.0245 10.3777 25.8098 10.6905 25.8098C11.6289 25.8098 12.4333 24.9918 13.3717 24.9918C13.6845 24.9918 13.9526 25.5808 14.2654 25.5808C14.5782 25.5808 14.8464 25.4172 15.1592 25.4172C15.472 25.4172 15.7401 25.2863 16.0529 25.2863C16.3658 25.2863 16.6339 23.2904 16.9467 23.2904C18.5238 23.2904 19.8755 23.2577 21.4526 23.2577C21.7654 23.2577 22.0335 22.1452 22.3463 22.1452C22.6592 22.1452 22.9273 22.047 23.2401 22.047C24.1785 22.047 24.9829 22.5378 25.9213 22.5378C26.2341 22.5378 26.5023 22.047 26.8151 22.047C27.1279 22.047 27.396 25.0573 27.7088 25.0573C28.0216 25.0573 28.2897 26.6605 28.6025 26.6605C28.9154 26.6605 29.1835 26.9223 29.4963 26.9223C30.4347 26.9223 31.2391 27.5767 32.1775 27.5767C32.4903 27.5767 32.7584 28.1002 33.0712 28.1002C33.3841 28.1002 33.6522 29.1145 33.965 29.1145C34.2778 29.1145 34.5459 27.773 34.8587 27.773C35.1715 27.773 35.4396 27.7403 35.7525 27.7403C36.6909 27.7403 37.4952 26.8569 38.4337 26.8569C38.7465 26.8569 39.0146 27.773 39.3274 27.773C39.6402 27.773 39.9084 27.1186 40.2212 27.1186C40.8468 27.1186 41.383 25.2863 42.0087 25.2863C42.9471 25.2863 43.7514 25.6135 44.6899 25.6135C45.0027 25.6135 45.2708 26.0061 45.5836 26.0061C45.8964 26.0061 46.1645 23.7157 46.4774 23.7157C46.7902 23.7157 47.0583 23.0286 47.3711 23.0286C47.6839 23.0286 47.952 21.3272 48.2648 21.3272C49.2033 21.3272 50.0076 21.0327 50.946 21.0327C51.2589 21.0327 51.527 19.0695 51.8398 19.0695C52.1526 19.0695 52.4207 18.7423 52.7335 18.7423C53.0463 18.7423 53.3145 19.593 53.6273 19.593C53.9401 19.593 54.2082 18.4806 54.521 18.4806C55.4594 18.4806 56.2638 17.5971 57.2023 17.5971C57.5151 17.5971 57.7832 18.2843 58.096 18.2843C58.4088 18.2843 58.6769 16.91 58.9897 16.91C59.3025 16.91 59.5707 18.317 59.8835 18.317C60.1963 18.317 60.4644 11.6748 60.7772 11.6748C61.7156 11.6748 62.52 12.1329 63.4584 12.1329C63.7712 12.1329 64.0394 11.9039 64.3522 11.9039C64.665 11.9039 64.9331 9.9407 65.2459 9.9407C65.5587 9.9407 65.8268 10.6605 66.1396 10.6605C66.4524 10.6605 66.7206 11.184 67.0334 11.184C67.9718 11.184 68.7762 11.773 69.7146 11.773C70.3402 11.773 70.8765 11.7076 71.5021 11.7076C71.8149 11.7076 72.083 12.5256 72.3958 12.5256C72.7087 12.5256 72.9768 13.8344 73.2896 13.8344C74.228 13.8344 75.0324 11.2822 75.9708 11.2822C76.5964 11.2822 77.1327 9.1227 77.7583 9.1227C78.0711 9.1227 78.3392 11.0532 78.652 11.0532C78.9648 11.0532 79.2329 9.80982 79.5457 9.80982C80.4842 9.80982 81.2885 10.4315 82.227 10.4315C82.5398 10.4315 82.8079 9.7771 83.1207 9.7771C83.4335 9.7771 83.7016 8.07566 84.0144 8.07566C84.3273 8.07566 84.5954 8.20654 84.9082 8.20654C85.221 8.20654 85.4891 9.9407 85.802 9.9407C86.7404 9.9407 87.5447 9.71166 88.4832 9.71166C88.796 9.71166 89.0641 9.74438 89.3769 9.74438C89.6897 9.74438 89.9578 10.6278 90.2706 10.6278C90.5835 10.6278 90.8516 11.1186 91.1644 11.1186C91.4772 11.1186 91.7453 10.3006 92.0581 10.3006C93.3094 10.3006 94.3818 10.3988 95.6331 10.3988C95.9459 10.3988 96.214 9.41718 96.5268 9.41718C96.8396 9.41718 97.1077 9.90798 97.4206 9.90798C97.7334 9.90798 98.0015 9.18814 98.3143 9.18814C99.2527 9.18814 100.057 9.4499 100.996 9.4499C101.308 9.4499 101.576 8.53374 101.889 8.53374C102.202 8.53374 102.47 10.4315 102.783 10.4315C103.096 10.4315 103.364 10.7914 103.677 10.7914C103.99 10.7914 104.258 9.1227 104.57 9.1227C105.509 9.1227 106.313 9.90798 107.252 9.90798C107.565 9.90798 107.833 8.56646 108.145 8.56646C108.458 8.56646 108.726 8.92638 109.039 8.92638C109.352 8.92638 109.62 10.0061 109.933 10.0061C110.246 10.0061 110.514 6.57055 110.827 6.57055C111.765 6.57055 112.569 8.1411 113.508 8.1411C113.821 8.1411 114.089 7.32311 114.402 7.32311C114.714 7.32311 114.983 7.58487 115.295 7.58487C115.608 7.58487 115.876 8.23926 116.189 8.23926C116.502 8.23926 116.77 8.17382 117.083 8.17382C118.334 8.17382 119.407 6.99591 120.658 6.99591C120.971 6.99591 121.239 7.71575 121.552 7.71575C121.864 7.71575 122.132 9.1227 122.445 9.1227C122.758 9.1227 123.026 8.43558 123.339 8.43558C124.277 8.43558 125.082 9.87526 126.02 9.87526C126.333 9.87526 126.601 8.3047 126.914 8.3047C127.227 8.3047 127.495 5 127.808 5" stroke="#008FFB"/>
</g>
</g>
<defs>
<linearGradient id="paint0_linear_7150_2493" x1="-229.689" y1="5.3186" x2="-229.689" y2="42.7297" gradientUnits="userSpaceOnUse">
<stop stop-color="#008FFB" stop-opacity="0.49"/>
<stop offset="1" stop-color="white" stop-opacity="0.81"/>
</linearGradient>
<clipPath id="clip0_7150_2493">
<rect width="132" height="47" fill="white"/>
</clipPath>
</defs>
</svg>
