<svg width="132" height="47" viewBox="0 0 132 47" fill="none" xmlns="http://www.w3.org/2000/svg">
<mask id="mask0_7150_2343" style="mask-type:luminance" maskUnits="userSpaceOnUse" x="0" y="3" width="131" height="41">
<path d="M130.862 3.49146H0V43.2669H130.862V3.49146Z" fill="white"/>
</mask>
<g mask="url(#mask0_7150_2343)">
<g clip-path="url(#clip0_7150_2343)">
<mask id="path-2-inside-1_7150_2343" fill="white">
<path d="M-12.1826 33.2157C-12.0582 33.2157 -11.9516 31.9579 -11.8272 31.9579C-11.7029 31.9579 -11.5962 32.4739 -11.4719 32.4739C-11.3475 32.4739 -11.2409 32.8932 -11.1165 32.8932C-10.7433 32.8932 -10.4235 33.0544 -10.0504 33.0544C-9.92597 33.0544 -9.81936 33.2157 -9.69498 33.2157C-9.5706 33.2157 -9.46398 32.2804 -9.3396 32.2804C-9.21522 32.2804 -9.10861 32.1191 -8.98422 32.1191C-8.85984 32.1191 -8.75323 30.3131 -8.62885 30.3131C-8.2557 30.3131 -7.93586 30.2808 -7.56272 30.2808C-7.43833 30.2808 -7.33172 28.9263 -7.20734 28.9263C-7.08296 28.9263 -6.97634 29.5068 -6.85196 29.5068C-6.72758 29.5068 -6.62097 27.733 -6.49659 27.733C-6.3722 27.733 -6.26559 29.1521 -6.14121 29.1521C-5.76806 29.1521 -5.44822 28.7005 -5.07508 28.7005C-4.9507 28.7005 -4.84408 28.4103 -4.7197 28.4103C-4.59532 28.4103 -4.48871 28.3458 -4.36432 28.3458C-4.23994 28.3458 -4.13333 27.0557 -4.00895 27.0557C-3.88457 27.0557 -3.77795 27.4105 -3.65357 27.4105C-3.15604 27.4105 -2.72959 28.0878 -2.23206 28.0878C-2.10768 28.0878 -2.00107 28.765 -1.87669 28.765C-1.7523 28.765 -1.64569 26.701 -1.52131 26.701C-1.39693 26.701 -1.29031 25.2819 -1.16593 25.2819C-0.792786 25.2819 -0.472946 25.7335 -0.0998001 25.7335C0.0245819 25.7335 0.131195 25.7335 0.255577 25.7335C0.379958 25.7335 0.486571 26.959 0.610953 26.959C0.735335 26.959 0.841949 26.2817 0.966331 26.2817C1.09071 26.2817 1.19733 24.2499 1.32171 24.2499C1.69485 24.2499 2.01469 25.8947 2.38784 25.8947C2.51222 25.8947 2.61883 29.8616 2.74321 29.8616C2.8676 29.8616 2.97421 28.507 3.09859 28.507C3.22297 28.507 3.32959 26.443 3.45397 26.443C3.57835 26.443 3.68497 24.5402 3.80935 24.5402C4.18249 24.5402 4.50233 24.7982 4.87548 24.7982C4.99986 24.7982 5.10647 22.6696 5.23086 22.6696C5.35524 22.6696 5.46185 24.1209 5.58623 24.1209C5.71061 24.1209 5.81723 22.8309 5.94161 22.8309C6.06599 22.8309 6.1726 23.9597 6.29699 23.9597C6.67013 23.9597 6.98997 21.7343 7.36312 21.7343C7.4875 21.7343 7.59411 26.0882 7.71849 26.0882C7.84288 26.0882 7.94949 24.7982 8.07387 24.7982C8.19825 24.7982 8.30486 24.3144 8.42925 24.3144C8.55363 24.3144 8.66024 23.9919 8.78463 23.9919C9.15259 23.9919 9.46799 22.0891 9.83595 22.0891C9.96033 22.0891 10.0669 21.3473 10.1913 21.3473C10.3157 21.3473 10.4223 21.8956 10.5467 21.8956C10.6711 21.8956 10.7777 21.8311 10.9021 21.8311C11.0265 21.8311 11.1331 22.3794 11.2575 22.3794C11.6306 22.3794 11.9504 21.1216 12.3236 21.1216C12.448 21.1216 12.5546 22.3794 12.679 22.3794C12.8033 22.3794 12.91 25.1207 13.0343 25.1207C13.1587 25.1207 13.2653 24.7014 13.3897 24.7014C13.8872 24.7014 14.3137 25.8947 14.8112 25.8947C14.9356 25.8947 15.0422 27.862 15.1666 27.862C15.291 27.862 15.3976 26.572 15.522 26.572C15.6464 26.572 15.753 24.8304 15.8774 24.8304C16.0017 24.8304 16.1084 26.0237 16.2327 26.0237C16.6059 26.0237 16.9257 27.1202 17.2989 27.1202C17.4232 27.1202 17.5299 23.8952 17.6542 23.8952C17.7786 23.8952 17.8852 25.3464 18.0096 25.3464C18.134 25.3464 18.2406 26.8945 18.365 26.8945C18.4894 26.8945 18.596 26.4107 18.7204 26.4107C19.0935 26.4107 19.4134 27.8298 19.7865 27.8298C19.9109 27.8298 20.0175 28.5393 20.1419 28.5393C20.2663 28.5393 20.3729 26.185 20.4973 26.185C20.6216 26.185 20.7283 25.7657 20.8526 25.7657C20.977 25.7657 21.0836 24.7337 21.208 24.7337C21.5812 24.7337 21.901 24.8304 22.2741 24.8304C22.3985 24.8304 22.5051 24.1209 22.6295 24.1209C22.7539 24.1209 22.8605 24.1532 22.9849 24.1532C23.1093 24.1532 23.2159 25.5722 23.3403 25.5722C23.4647 25.5722 23.5713 27.862 23.6957 27.862C24.0688 27.862 24.3886 28.1523 24.7618 28.1523C24.8862 28.1523 24.9928 27.6685 25.1172 27.6685C25.2415 27.6685 25.3482 28.1523 25.4725 28.1523C25.5969 28.1523 25.7035 30.0873 25.8279 30.0873C25.9523 30.0873 26.0589 29.1843 26.1833 29.1843C26.5564 29.1843 26.8763 29.0876 27.2494 29.0876C27.3738 29.0876 27.4804 28.765 27.6048 28.765C27.7292 28.765 27.8358 28.6683 27.9602 28.6683C28.0846 28.6683 28.1912 29.7971 28.3156 29.7971C28.4399 29.7971 28.5465 32.0546 28.6709 32.0546C29.0441 32.0546 29.3639 29.7971 29.7371 29.7971C29.8614 29.7971 29.9681 29.7971 30.0924 29.7971C30.2168 29.7971 30.3234 29.2488 30.4478 29.2488C30.5722 29.2488 30.6788 31.3129 30.8032 31.3129C30.9276 31.3129 31.0342 31.1194 31.1586 31.1194C31.6561 31.1194 32.0825 29.6681 32.5801 29.6681C32.7045 29.6681 32.8111 32.1191 32.9355 32.1191C33.0598 32.1191 33.1664 32.8932 33.2908 32.8932C33.4152 32.8932 33.5218 36.86 33.6462 36.86C34.0193 36.86 34.3392 35.2797 34.7123 35.2797C34.8367 35.2797 34.9433 34.0219 35.0677 34.0219C35.1921 34.0219 35.2987 30.8291 35.4231 30.8291C35.5475 30.8291 35.6541 32.0224 35.7785 32.0224C35.9029 32.0224 36.0095 30.9581 36.1338 30.9581C36.507 30.9581 36.8268 32.6352 37.2 32.6352C37.3244 32.6352 37.431 30.5711 37.5554 30.5711C37.6797 30.5711 37.7863 30.5066 37.9107 30.5066C38.0351 30.5066 38.1417 30.8936 38.2661 30.8936C38.3905 30.8936 38.4971 28.5715 38.6215 28.5715C38.9946 28.5715 39.3145 27.7975 39.6876 27.7975C39.812 27.7975 39.9186 26.959 40.043 26.959C40.1674 26.959 40.274 29.8616 40.3984 29.8616C40.5228 29.8616 40.6294 32.3126 40.7537 32.3126C40.8781 32.3126 40.9847 31.2161 41.1091 31.2161C41.4823 31.2161 41.8021 33.5704 42.1753 33.5704C42.2996 33.5704 42.4062 32.8287 42.5306 32.8287C42.655 32.8287 42.7616 31.7321 42.886 31.7321C43.0104 31.7321 43.117 32.5062 43.2414 32.5062C43.3658 32.5062 43.4724 28.636 43.5968 28.636C43.9699 28.636 44.2897 29.2166 44.6629 29.2166C44.7873 29.2166 44.8939 28.1845 45.0183 28.1845C45.267 28.1845 45.4803 28.12 45.729 28.12C45.8534 28.12 45.96 31.8611 46.0844 31.8611C46.4575 31.8611 46.7774 34.8927 47.1505 34.8927C47.2749 34.8927 47.3815 34.8605 47.5059 34.8605C47.6303 34.8605 47.7369 35.6345 47.8613 35.6345C47.9857 35.6345 48.0923 35.828 48.2167 35.828C48.341 35.828 48.4477 34.1832 48.572 34.1832C48.9452 34.1832 49.265 34.9895 49.6382 34.9895C49.7626 34.9895 49.8692 34.1832 49.9935 34.1832C50.1179 34.1832 50.2245 31.6676 50.3489 31.6676C50.4733 31.6676 50.5799 30.1841 50.7043 30.1841C50.8287 30.1841 50.9353 31.8289 51.0597 31.8289C51.4328 31.8289 51.7527 34.2155 52.1258 34.2155C52.2502 34.2155 52.3568 36.215 52.4812 36.215C52.6056 36.215 52.7122 35.2152 52.8366 35.2152C52.9609 35.2152 53.0676 33.2157 53.1919 33.2157C53.3163 33.2157 53.4229 30.1841 53.5473 30.1841C53.9205 30.1841 54.2403 33.0222 54.6134 33.0222C54.7378 33.0222 54.8444 33.4414 54.9688 33.4414C55.0932 33.4414 55.1998 34.0542 55.3242 34.0542C55.4486 34.0542 55.5552 34.409 55.6796 34.409C55.804 34.409 55.9106 29.7648 56.035 29.7648C56.4081 29.7648 56.7279 29.3778 57.1011 29.3778C57.2255 29.3778 57.3321 28.636 57.4565 28.636C57.5808 28.636 57.6875 28.1845 57.8118 28.1845C57.9362 28.1845 58.0428 27.733 58.1672 27.733C58.2916 27.733 58.3982 27.7653 58.5226 27.7653C58.8957 27.7653 59.2156 28.9586 59.5887 28.9586C59.7131 28.9586 59.8197 29.5068 59.9441 29.5068C60.0685 29.5068 60.1751 26.8945 60.2995 26.8945C60.4239 26.8945 60.5305 24.5079 60.6549 24.5079C60.7792 24.5079 60.8859 24.0242 61.0102 24.0242C61.3834 24.0242 61.7032 23.6371 62.0764 23.6371C62.2008 23.6371 62.3074 24.1854 62.4317 24.1854C62.5561 24.1854 62.6627 23.8952 62.7871 23.8952C62.9115 23.8952 63.0181 24.9917 63.1425 24.9917C63.2669 24.9917 63.3735 28.9908 63.4979 28.9908C63.871 28.9908 64.1909 28.7973 64.564 28.7973C64.6884 28.7973 64.795 29.6358 64.9194 29.6358C65.0438 29.6358 65.1504 29.9583 65.2747 29.9583C65.3991 29.9583 65.5057 31.5709 65.6301 31.5709C65.7545 31.5709 65.8611 32.1836 65.9855 32.1836C66.483 32.1836 66.9095 31.6676 67.407 31.6676C67.5314 31.6676 67.638 28.9908 67.7624 28.9908C67.8868 28.9908 67.9934 27.2815 68.1178 27.2815C68.2422 27.2815 68.3488 28.3458 68.4732 28.3458C68.8463 28.3458 69.1661 29.4101 69.5393 29.4101C69.6637 29.4101 69.7703 28.4425 69.8947 28.4425C70.019 28.4425 70.1256 28.4748 70.25 28.4748C70.3744 28.4748 70.481 27.217 70.6054 27.217C70.7298 27.217 70.8364 25.5077 70.9608 25.5077C71.3339 25.5077 71.6538 25.2819 72.0269 25.2819C72.1513 25.2819 72.2579 27.991 72.3823 27.991C72.5067 27.991 72.6133 26.2172 72.7377 26.2172C72.8621 26.2172 72.9687 21.6698 73.0931 21.6698C73.2174 21.6698 73.3241 23.9274 73.4484 23.9274C73.8216 23.9274 74.1414 25.2819 74.5146 25.2819C74.6389 25.2819 74.7456 26.9267 74.8699 26.9267C74.9943 26.9267 75.1009 28.12 75.2253 28.12C75.3497 28.12 75.4563 27.2492 75.5807 27.2492C75.7051 27.2492 75.8117 28.4103 75.9361 28.4103C76.3092 28.4103 76.6291 27.8298 77.0022 27.8298C77.1266 27.8298 77.2332 27.991 77.3576 27.991C77.482 27.991 77.5886 27.8943 77.7129 27.8943C77.8373 27.8943 77.9439 27.6363 78.0683 27.6363C78.1927 27.6363 78.2993 28.3135 78.4237 28.3135C78.7968 28.3135 79.1167 29.0876 79.4898 29.0876C79.6142 29.0876 79.7208 30.8614 79.8452 30.8614C79.9696 30.8614 80.0762 31.4096 80.2006 31.4096C80.325 31.4096 80.4316 30.5388 80.556 30.5388C80.6804 30.5388 80.787 30.0228 80.9113 30.0228C81.2845 30.0228 81.6043 28.765 81.9775 28.765C82.1019 28.765 82.2085 25.8302 82.3328 25.8302C82.4572 25.8302 82.5638 25.1852 82.6882 25.1852C82.8126 25.1852 82.9192 25.0562 83.0436 25.0562C83.168 25.0562 83.2746 25.8302 83.399 25.8302C83.7721 25.8302 84.092 25.0239 84.4651 25.0239C84.5895 25.0239 84.6961 25.6044 84.8205 25.6044C84.9449 25.6044 85.0515 25.4432 85.1759 25.4432C85.3003 25.4432 85.4069 25.3142 85.5312 25.3142C85.6556 25.3142 85.7622 23.3469 85.8866 23.3469C86.5137 23.3469 87.0512 23.3146 87.6783 23.3146C87.8027 23.3146 87.9093 22.2181 88.0337 22.2181C88.1581 22.2181 88.2647 22.1213 88.3891 22.1213C88.7622 22.1213 89.0821 22.6051 89.4552 22.6051C89.5796 22.6051 89.6862 22.1213 89.8106 22.1213C89.935 22.1213 90.0416 25.0884 90.166 25.0884C90.2903 25.0884 90.3969 26.6687 90.5213 26.6687C90.6457 26.6687 90.7523 26.9267 90.8767 26.9267C91.2499 26.9267 91.5697 27.5718 91.9428 27.5718C92.0672 27.5718 92.1738 28.0878 92.2982 28.0878C92.4226 28.0878 92.5292 29.0876 92.6536 29.0876C92.778 29.0876 92.8846 27.7653 93.009 27.7653C93.1333 27.7653 93.24 27.733 93.3643 27.733C93.7375 27.733 94.0573 26.8622 94.4305 26.8622C94.5549 26.8622 94.6615 27.7653 94.7859 27.7653C94.9102 27.7653 95.0169 27.1202 95.1412 27.1202C95.39 27.1202 95.6032 25.3142 95.852 25.3142C96.2251 25.3142 96.545 25.6367 96.9181 25.6367C97.0425 25.6367 97.1491 26.0237 97.2735 26.0237C97.3979 26.0237 97.5045 23.7661 97.6289 23.7661C97.7533 23.7661 97.8599 23.0889 97.9842 23.0889C98.1086 23.0889 98.2152 21.4118 98.3396 21.4118C98.7128 21.4118 99.0326 21.1216 99.4058 21.1216C99.5301 21.1216 99.6367 19.1865 99.7611 19.1865C99.8855 19.1865 99.9921 18.864 100.117 18.864C100.241 18.864 100.347 19.7025 100.472 19.7025C100.596 19.7025 100.703 18.606 100.827 18.606C101.2 18.606 101.52 17.7352 101.893 17.7352C102.018 17.7352 102.124 18.4125 102.249 18.4125C102.373 18.4125 102.48 17.058 102.604 17.058C102.729 17.058 102.835 18.4447 102.96 18.4447C103.084 18.4447 103.191 11.8978 103.315 11.8978C103.688 11.8978 104.008 12.3493 104.381 12.3493C104.505 12.3493 104.612 12.1236 104.736 12.1236C104.861 12.1236 104.967 10.1885 105.092 10.1885C105.216 10.1885 105.323 10.898 105.447 10.898C105.572 10.898 105.678 11.414 105.803 11.414C106.176 11.414 106.496 11.9946 106.869 11.9946C107.117 11.9946 107.331 11.93 107.579 11.93C107.704 11.93 107.81 12.7363 107.935 12.7363C108.059 12.7363 108.166 14.0264 108.29 14.0264C108.663 14.0264 108.983 11.5108 109.356 11.5108C109.605 11.5108 109.818 9.38222 110.067 9.38222C110.191 9.38222 110.298 11.285 110.422 11.285C110.547 11.285 110.653 10.0595 110.778 10.0595C111.151 10.0595 111.471 10.6723 111.844 10.6723C111.968 10.6723 112.075 10.0272 112.199 10.0272C112.324 10.0272 112.43 8.35019 112.555 8.35019C112.679 8.35019 112.786 8.4792 112.91 8.4792C113.034 8.4792 113.141 10.1885 113.265 10.1885C113.639 10.1885 113.958 9.96274 114.332 9.96274C114.456 9.96274 114.563 9.99499 114.687 9.99499C114.811 9.99499 114.918 10.8658 115.042 10.8658C115.167 10.8658 115.273 11.3495 115.398 11.3495C115.522 11.3495 115.629 10.5433 115.753 10.5433C116.251 10.5433 116.677 10.64 117.175 10.64C117.299 10.64 117.406 9.67248 117.53 9.67248C117.654 9.67248 117.761 10.1562 117.885 10.1562C118.01 10.1562 118.116 9.44672 118.241 9.44672C118.614 9.44672 118.934 9.70473 119.307 9.70473C119.431 9.70473 119.538 8.80171 119.662 8.80171C119.787 8.80171 119.893 10.6723 120.018 10.6723C120.142 10.6723 120.249 11.027 120.373 11.027C120.497 11.027 120.604 9.38222 120.728 9.38222C121.102 9.38222 121.421 10.1562 121.795 10.1562C121.919 10.1562 122.025 8.83396 122.15 8.83396C122.274 8.83396 122.381 9.18872 122.505 9.18872C122.63 9.18872 122.736 10.253 122.861 10.253C122.985 10.253 123.092 6.86665 123.216 6.86665C123.589 6.86665 123.909 8.41469 124.282 8.41469C124.407 8.41469 124.513 7.60842 124.638 7.60842C124.762 7.60842 124.869 7.86643 124.993 7.86643C125.117 7.86643 125.224 8.51145 125.348 8.51145C125.473 8.51145 125.579 8.44695 125.704 8.44695C126.201 8.44695 126.628 7.28591 127.125 7.28591C127.25 7.28591 127.356 7.99543 127.481 7.99543C127.605 7.99543 127.712 9.38222 127.836 9.38222C127.96 9.38222 128.067 8.70495 128.191 8.70495C128.564 8.70495 128.884 10.124 129.257 10.124C129.382 10.124 129.488 8.57595 129.613 8.57595C129.737 8.57595 129.844 5.3186 129.968 5.3186C129.968 5.3186 129.968 5.31861 129.968 42.7297H-12.1826V33.2157Z"/>
</mask>
<path d="M-12.1826 33.2157C-12.0582 33.2157 -11.9516 31.9579 -11.8272 31.9579C-11.7029 31.9579 -11.5962 32.4739 -11.4719 32.4739C-11.3475 32.4739 -11.2409 32.8932 -11.1165 32.8932C-10.7433 32.8932 -10.4235 33.0544 -10.0504 33.0544C-9.92597 33.0544 -9.81936 33.2157 -9.69498 33.2157C-9.5706 33.2157 -9.46398 32.2804 -9.3396 32.2804C-9.21522 32.2804 -9.10861 32.1191 -8.98422 32.1191C-8.85984 32.1191 -8.75323 30.3131 -8.62885 30.3131C-8.2557 30.3131 -7.93586 30.2808 -7.56272 30.2808C-7.43833 30.2808 -7.33172 28.9263 -7.20734 28.9263C-7.08296 28.9263 -6.97634 29.5068 -6.85196 29.5068C-6.72758 29.5068 -6.62097 27.733 -6.49659 27.733C-6.3722 27.733 -6.26559 29.1521 -6.14121 29.1521C-5.76806 29.1521 -5.44822 28.7005 -5.07508 28.7005C-4.9507 28.7005 -4.84408 28.4103 -4.7197 28.4103C-4.59532 28.4103 -4.48871 28.3458 -4.36432 28.3458C-4.23994 28.3458 -4.13333 27.0557 -4.00895 27.0557C-3.88457 27.0557 -3.77795 27.4105 -3.65357 27.4105C-3.15604 27.4105 -2.72959 28.0878 -2.23206 28.0878C-2.10768 28.0878 -2.00107 28.765 -1.87669 28.765C-1.7523 28.765 -1.64569 26.701 -1.52131 26.701C-1.39693 26.701 -1.29031 25.2819 -1.16593 25.2819C-0.792786 25.2819 -0.472946 25.7335 -0.0998001 25.7335C0.0245819 25.7335 0.131195 25.7335 0.255577 25.7335C0.379958 25.7335 0.486571 26.959 0.610953 26.959C0.735335 26.959 0.841949 26.2817 0.966331 26.2817C1.09071 26.2817 1.19733 24.2499 1.32171 24.2499C1.69485 24.2499 2.01469 25.8947 2.38784 25.8947C2.51222 25.8947 2.61883 29.8616 2.74321 29.8616C2.8676 29.8616 2.97421 28.507 3.09859 28.507C3.22297 28.507 3.32959 26.443 3.45397 26.443C3.57835 26.443 3.68497 24.5402 3.80935 24.5402C4.18249 24.5402 4.50233 24.7982 4.87548 24.7982C4.99986 24.7982 5.10647 22.6696 5.23086 22.6696C5.35524 22.6696 5.46185 24.1209 5.58623 24.1209C5.71061 24.1209 5.81723 22.8309 5.94161 22.8309C6.06599 22.8309 6.1726 23.9597 6.29699 23.9597C6.67013 23.9597 6.98997 21.7343 7.36312 21.7343C7.4875 21.7343 7.59411 26.0882 7.71849 26.0882C7.84288 26.0882 7.94949 24.7982 8.07387 24.7982C8.19825 24.7982 8.30486 24.3144 8.42925 24.3144C8.55363 24.3144 8.66024 23.9919 8.78463 23.9919C9.15259 23.9919 9.46799 22.0891 9.83595 22.0891C9.96033 22.0891 10.0669 21.3473 10.1913 21.3473C10.3157 21.3473 10.4223 21.8956 10.5467 21.8956C10.6711 21.8956 10.7777 21.8311 10.9021 21.8311C11.0265 21.8311 11.1331 22.3794 11.2575 22.3794C11.6306 22.3794 11.9504 21.1216 12.3236 21.1216C12.448 21.1216 12.5546 22.3794 12.679 22.3794C12.8033 22.3794 12.91 25.1207 13.0343 25.1207C13.1587 25.1207 13.2653 24.7014 13.3897 24.7014C13.8872 24.7014 14.3137 25.8947 14.8112 25.8947C14.9356 25.8947 15.0422 27.862 15.1666 27.862C15.291 27.862 15.3976 26.572 15.522 26.572C15.6464 26.572 15.753 24.8304 15.8774 24.8304C16.0017 24.8304 16.1084 26.0237 16.2327 26.0237C16.6059 26.0237 16.9257 27.1202 17.2989 27.1202C17.4232 27.1202 17.5299 23.8952 17.6542 23.8952C17.7786 23.8952 17.8852 25.3464 18.0096 25.3464C18.134 25.3464 18.2406 26.8945 18.365 26.8945C18.4894 26.8945 18.596 26.4107 18.7204 26.4107C19.0935 26.4107 19.4134 27.8298 19.7865 27.8298C19.9109 27.8298 20.0175 28.5393 20.1419 28.5393C20.2663 28.5393 20.3729 26.185 20.4973 26.185C20.6216 26.185 20.7283 25.7657 20.8526 25.7657C20.977 25.7657 21.0836 24.7337 21.208 24.7337C21.5812 24.7337 21.901 24.8304 22.2741 24.8304C22.3985 24.8304 22.5051 24.1209 22.6295 24.1209C22.7539 24.1209 22.8605 24.1532 22.9849 24.1532C23.1093 24.1532 23.2159 25.5722 23.3403 25.5722C23.4647 25.5722 23.5713 27.862 23.6957 27.862C24.0688 27.862 24.3886 28.1523 24.7618 28.1523C24.8862 28.1523 24.9928 27.6685 25.1172 27.6685C25.2415 27.6685 25.3482 28.1523 25.4725 28.1523C25.5969 28.1523 25.7035 30.0873 25.8279 30.0873C25.9523 30.0873 26.0589 29.1843 26.1833 29.1843C26.5564 29.1843 26.8763 29.0876 27.2494 29.0876C27.3738 29.0876 27.4804 28.765 27.6048 28.765C27.7292 28.765 27.8358 28.6683 27.9602 28.6683C28.0846 28.6683 28.1912 29.7971 28.3156 29.7971C28.4399 29.7971 28.5465 32.0546 28.6709 32.0546C29.0441 32.0546 29.3639 29.7971 29.7371 29.7971C29.8614 29.7971 29.9681 29.7971 30.0924 29.7971C30.2168 29.7971 30.3234 29.2488 30.4478 29.2488C30.5722 29.2488 30.6788 31.3129 30.8032 31.3129C30.9276 31.3129 31.0342 31.1194 31.1586 31.1194C31.6561 31.1194 32.0825 29.6681 32.5801 29.6681C32.7045 29.6681 32.8111 32.1191 32.9355 32.1191C33.0598 32.1191 33.1664 32.8932 33.2908 32.8932C33.4152 32.8932 33.5218 36.86 33.6462 36.86C34.0193 36.86 34.3392 35.2797 34.7123 35.2797C34.8367 35.2797 34.9433 34.0219 35.0677 34.0219C35.1921 34.0219 35.2987 30.8291 35.4231 30.8291C35.5475 30.8291 35.6541 32.0224 35.7785 32.0224C35.9029 32.0224 36.0095 30.9581 36.1338 30.9581C36.507 30.9581 36.8268 32.6352 37.2 32.6352C37.3244 32.6352 37.431 30.5711 37.5554 30.5711C37.6797 30.5711 37.7863 30.5066 37.9107 30.5066C38.0351 30.5066 38.1417 30.8936 38.2661 30.8936C38.3905 30.8936 38.4971 28.5715 38.6215 28.5715C38.9946 28.5715 39.3145 27.7975 39.6876 27.7975C39.812 27.7975 39.9186 26.959 40.043 26.959C40.1674 26.959 40.274 29.8616 40.3984 29.8616C40.5228 29.8616 40.6294 32.3126 40.7537 32.3126C40.8781 32.3126 40.9847 31.2161 41.1091 31.2161C41.4823 31.2161 41.8021 33.5704 42.1753 33.5704C42.2996 33.5704 42.4062 32.8287 42.5306 32.8287C42.655 32.8287 42.7616 31.7321 42.886 31.7321C43.0104 31.7321 43.117 32.5062 43.2414 32.5062C43.3658 32.5062 43.4724 28.636 43.5968 28.636C43.9699 28.636 44.2897 29.2166 44.6629 29.2166C44.7873 29.2166 44.8939 28.1845 45.0183 28.1845C45.267 28.1845 45.4803 28.12 45.729 28.12C45.8534 28.12 45.96 31.8611 46.0844 31.8611C46.4575 31.8611 46.7774 34.8927 47.1505 34.8927C47.2749 34.8927 47.3815 34.8605 47.5059 34.8605C47.6303 34.8605 47.7369 35.6345 47.8613 35.6345C47.9857 35.6345 48.0923 35.828 48.2167 35.828C48.341 35.828 48.4477 34.1832 48.572 34.1832C48.9452 34.1832 49.265 34.9895 49.6382 34.9895C49.7626 34.9895 49.8692 34.1832 49.9935 34.1832C50.1179 34.1832 50.2245 31.6676 50.3489 31.6676C50.4733 31.6676 50.5799 30.1841 50.7043 30.1841C50.8287 30.1841 50.9353 31.8289 51.0597 31.8289C51.4328 31.8289 51.7527 34.2155 52.1258 34.2155C52.2502 34.2155 52.3568 36.215 52.4812 36.215C52.6056 36.215 52.7122 35.2152 52.8366 35.2152C52.9609 35.2152 53.0676 33.2157 53.1919 33.2157C53.3163 33.2157 53.4229 30.1841 53.5473 30.1841C53.9205 30.1841 54.2403 33.0222 54.6134 33.0222C54.7378 33.0222 54.8444 33.4414 54.9688 33.4414C55.0932 33.4414 55.1998 34.0542 55.3242 34.0542C55.4486 34.0542 55.5552 34.409 55.6796 34.409C55.804 34.409 55.9106 29.7648 56.035 29.7648C56.4081 29.7648 56.7279 29.3778 57.1011 29.3778C57.2255 29.3778 57.3321 28.636 57.4565 28.636C57.5808 28.636 57.6875 28.1845 57.8118 28.1845C57.9362 28.1845 58.0428 27.733 58.1672 27.733C58.2916 27.733 58.3982 27.7653 58.5226 27.7653C58.8957 27.7653 59.2156 28.9586 59.5887 28.9586C59.7131 28.9586 59.8197 29.5068 59.9441 29.5068C60.0685 29.5068 60.1751 26.8945 60.2995 26.8945C60.4239 26.8945 60.5305 24.5079 60.6549 24.5079C60.7792 24.5079 60.8859 24.0242 61.0102 24.0242C61.3834 24.0242 61.7032 23.6371 62.0764 23.6371C62.2008 23.6371 62.3074 24.1854 62.4317 24.1854C62.5561 24.1854 62.6627 23.8952 62.7871 23.8952C62.9115 23.8952 63.0181 24.9917 63.1425 24.9917C63.2669 24.9917 63.3735 28.9908 63.4979 28.9908C63.871 28.9908 64.1909 28.7973 64.564 28.7973C64.6884 28.7973 64.795 29.6358 64.9194 29.6358C65.0438 29.6358 65.1504 29.9583 65.2747 29.9583C65.3991 29.9583 65.5057 31.5709 65.6301 31.5709C65.7545 31.5709 65.8611 32.1836 65.9855 32.1836C66.483 32.1836 66.9095 31.6676 67.407 31.6676C67.5314 31.6676 67.638 28.9908 67.7624 28.9908C67.8868 28.9908 67.9934 27.2815 68.1178 27.2815C68.2422 27.2815 68.3488 28.3458 68.4732 28.3458C68.8463 28.3458 69.1661 29.4101 69.5393 29.4101C69.6637 29.4101 69.7703 28.4425 69.8947 28.4425C70.019 28.4425 70.1256 28.4748 70.25 28.4748C70.3744 28.4748 70.481 27.217 70.6054 27.217C70.7298 27.217 70.8364 25.5077 70.9608 25.5077C71.3339 25.5077 71.6538 25.2819 72.0269 25.2819C72.1513 25.2819 72.2579 27.991 72.3823 27.991C72.5067 27.991 72.6133 26.2172 72.7377 26.2172C72.8621 26.2172 72.9687 21.6698 73.0931 21.6698C73.2174 21.6698 73.3241 23.9274 73.4484 23.9274C73.8216 23.9274 74.1414 25.2819 74.5146 25.2819C74.6389 25.2819 74.7456 26.9267 74.8699 26.9267C74.9943 26.9267 75.1009 28.12 75.2253 28.12C75.3497 28.12 75.4563 27.2492 75.5807 27.2492C75.7051 27.2492 75.8117 28.4103 75.9361 28.4103C76.3092 28.4103 76.6291 27.8298 77.0022 27.8298C77.1266 27.8298 77.2332 27.991 77.3576 27.991C77.482 27.991 77.5886 27.8943 77.7129 27.8943C77.8373 27.8943 77.9439 27.6363 78.0683 27.6363C78.1927 27.6363 78.2993 28.3135 78.4237 28.3135C78.7968 28.3135 79.1167 29.0876 79.4898 29.0876C79.6142 29.0876 79.7208 30.8614 79.8452 30.8614C79.9696 30.8614 80.0762 31.4096 80.2006 31.4096C80.325 31.4096 80.4316 30.5388 80.556 30.5388C80.6804 30.5388 80.787 30.0228 80.9113 30.0228C81.2845 30.0228 81.6043 28.765 81.9775 28.765C82.1019 28.765 82.2085 25.8302 82.3328 25.8302C82.4572 25.8302 82.5638 25.1852 82.6882 25.1852C82.8126 25.1852 82.9192 25.0562 83.0436 25.0562C83.168 25.0562 83.2746 25.8302 83.399 25.8302C83.7721 25.8302 84.092 25.0239 84.4651 25.0239C84.5895 25.0239 84.6961 25.6044 84.8205 25.6044C84.9449 25.6044 85.0515 25.4432 85.1759 25.4432C85.3003 25.4432 85.4069 25.3142 85.5312 25.3142C85.6556 25.3142 85.7622 23.3469 85.8866 23.3469C86.5137 23.3469 87.0512 23.3146 87.6783 23.3146C87.8027 23.3146 87.9093 22.2181 88.0337 22.2181C88.1581 22.2181 88.2647 22.1213 88.3891 22.1213C88.7622 22.1213 89.0821 22.6051 89.4552 22.6051C89.5796 22.6051 89.6862 22.1213 89.8106 22.1213C89.935 22.1213 90.0416 25.0884 90.166 25.0884C90.2903 25.0884 90.3969 26.6687 90.5213 26.6687C90.6457 26.6687 90.7523 26.9267 90.8767 26.9267C91.2499 26.9267 91.5697 27.5718 91.9428 27.5718C92.0672 27.5718 92.1738 28.0878 92.2982 28.0878C92.4226 28.0878 92.5292 29.0876 92.6536 29.0876C92.778 29.0876 92.8846 27.7653 93.009 27.7653C93.1333 27.7653 93.24 27.733 93.3643 27.733C93.7375 27.733 94.0573 26.8622 94.4305 26.8622C94.5549 26.8622 94.6615 27.7653 94.7859 27.7653C94.9102 27.7653 95.0169 27.1202 95.1412 27.1202C95.39 27.1202 95.6032 25.3142 95.852 25.3142C96.2251 25.3142 96.545 25.6367 96.9181 25.6367C97.0425 25.6367 97.1491 26.0237 97.2735 26.0237C97.3979 26.0237 97.5045 23.7661 97.6289 23.7661C97.7533 23.7661 97.8599 23.0889 97.9842 23.0889C98.1086 23.0889 98.2152 21.4118 98.3396 21.4118C98.7128 21.4118 99.0326 21.1216 99.4058 21.1216C99.5301 21.1216 99.6367 19.1865 99.7611 19.1865C99.8855 19.1865 99.9921 18.864 100.117 18.864C100.241 18.864 100.347 19.7025 100.472 19.7025C100.596 19.7025 100.703 18.606 100.827 18.606C101.2 18.606 101.52 17.7352 101.893 17.7352C102.018 17.7352 102.124 18.4125 102.249 18.4125C102.373 18.4125 102.48 17.058 102.604 17.058C102.729 17.058 102.835 18.4447 102.96 18.4447C103.084 18.4447 103.191 11.8978 103.315 11.8978C103.688 11.8978 104.008 12.3493 104.381 12.3493C104.505 12.3493 104.612 12.1236 104.736 12.1236C104.861 12.1236 104.967 10.1885 105.092 10.1885C105.216 10.1885 105.323 10.898 105.447 10.898C105.572 10.898 105.678 11.414 105.803 11.414C106.176 11.414 106.496 11.9946 106.869 11.9946C107.117 11.9946 107.331 11.93 107.579 11.93C107.704 11.93 107.81 12.7363 107.935 12.7363C108.059 12.7363 108.166 14.0264 108.29 14.0264C108.663 14.0264 108.983 11.5108 109.356 11.5108C109.605 11.5108 109.818 9.38222 110.067 9.38222C110.191 9.38222 110.298 11.285 110.422 11.285C110.547 11.285 110.653 10.0595 110.778 10.0595C111.151 10.0595 111.471 10.6723 111.844 10.6723C111.968 10.6723 112.075 10.0272 112.199 10.0272C112.324 10.0272 112.43 8.35019 112.555 8.35019C112.679 8.35019 112.786 8.4792 112.91 8.4792C113.034 8.4792 113.141 10.1885 113.265 10.1885C113.639 10.1885 113.958 9.96274 114.332 9.96274C114.456 9.96274 114.563 9.99499 114.687 9.99499C114.811 9.99499 114.918 10.8658 115.042 10.8658C115.167 10.8658 115.273 11.3495 115.398 11.3495C115.522 11.3495 115.629 10.5433 115.753 10.5433C116.251 10.5433 116.677 10.64 117.175 10.64C117.299 10.64 117.406 9.67248 117.53 9.67248C117.654 9.67248 117.761 10.1562 117.885 10.1562C118.01 10.1562 118.116 9.44672 118.241 9.44672C118.614 9.44672 118.934 9.70473 119.307 9.70473C119.431 9.70473 119.538 8.80171 119.662 8.80171C119.787 8.80171 119.893 10.6723 120.018 10.6723C120.142 10.6723 120.249 11.027 120.373 11.027C120.497 11.027 120.604 9.38222 120.728 9.38222C121.102 9.38222 121.421 10.1562 121.795 10.1562C121.919 10.1562 122.025 8.83396 122.15 8.83396C122.274 8.83396 122.381 9.18872 122.505 9.18872C122.63 9.18872 122.736 10.253 122.861 10.253C122.985 10.253 123.092 6.86665 123.216 6.86665C123.589 6.86665 123.909 8.41469 124.282 8.41469C124.407 8.41469 124.513 7.60842 124.638 7.60842C124.762 7.60842 124.869 7.86643 124.993 7.86643C125.117 7.86643 125.224 8.51145 125.348 8.51145C125.473 8.51145 125.579 8.44695 125.704 8.44695C126.201 8.44695 126.628 7.28591 127.125 7.28591C127.25 7.28591 127.356 7.99543 127.481 7.99543C127.605 7.99543 127.712 9.38222 127.836 9.38222C127.96 9.38222 128.067 8.70495 128.191 8.70495C128.564 8.70495 128.884 10.124 129.257 10.124C129.382 10.124 129.488 8.57595 129.613 8.57595C129.737 8.57595 129.844 5.3186 129.968 5.3186C129.968 5.3186 129.968 5.31861 129.968 42.7297H-12.1826V33.2157Z" fill="url(#paint0_linear_7150_2343)" stroke="#008FFB" stroke-width="2" mask="url(#path-2-inside-1_7150_2343)"/>
</g>
</g>
<defs>
<linearGradient id="paint0_linear_7150_2343" x1="-12.1826" y1="5.3186" x2="-12.1826" y2="42.7297" gradientUnits="userSpaceOnUse">
<stop stop-color="#008FFB" stop-opacity="0.49"/>
<stop offset="1" stop-color="white" stop-opacity="0.81"/>
</linearGradient>
<clipPath id="clip0_7150_2343">
<rect width="141" height="36" fill="white" transform="translate(-12 5)"/>
</clipPath>
</defs>
</svg>
