<svg width="132" height="47" viewBox="0 0 132 47" fill="none" xmlns="http://www.w3.org/2000/svg">
<g clip-path="url(#clip0_7150_2605)">
<mask id="mask0_7150_2605" style="mask-type:luminance" maskUnits="userSpaceOnUse" x="-84" y="3" width="345" height="41">
<path d="M-83.1377 3.99146V42.7668H260.5V3.99146H-83.1377Z" fill="white" stroke="white"/>
</mask>
<g mask="url(#mask0_7150_2605)">
<path d="M293.084 33.2157C292.756 33.2157 292.476 31.9579 292.148 31.9579C291.82 31.9579 291.54 32.4739 291.212 32.4739C290.885 32.4739 290.604 32.8932 290.276 32.8932C289.294 32.8932 288.451 33.0544 287.468 33.0544C287.141 33.0544 286.86 33.2157 286.533 33.2157C286.205 33.2157 285.924 32.2804 285.597 32.2804C285.269 32.2804 284.988 32.1191 284.661 32.1191C284.333 32.1191 284.052 30.3131 283.725 30.3131C282.742 30.3131 281.9 30.2808 280.917 30.2808C280.59 30.2808 280.309 28.9263 279.981 28.9263C279.654 28.9263 279.373 29.5068 279.045 29.5068C278.718 29.5068 278.437 27.733 278.109 27.733C277.782 27.733 277.501 29.1521 277.173 29.1521C276.191 29.1521 275.348 28.7005 274.366 28.7005C274.038 28.7005 273.757 28.4103 273.43 28.4103C273.102 28.4103 272.821 28.3458 272.494 28.3458C272.166 28.3458 271.885 27.0557 271.558 27.0557C271.23 27.0557 270.95 27.4105 270.622 27.4105C269.312 27.4105 268.189 28.0878 266.878 28.0878C266.551 28.0878 266.27 28.765 265.942 28.765C265.615 28.765 265.334 26.701 265.007 26.701C264.679 26.701 264.398 25.2819 264.071 25.2819C263.088 25.2819 262.246 25.7335 261.263 25.7335C260.935 25.7335 260.655 25.7335 260.327 25.7335C259.999 25.7335 259.719 26.959 259.391 26.959C259.063 26.959 258.783 26.2817 258.455 26.2817C258.128 26.2817 257.847 24.2499 257.519 24.2499C256.536 24.2499 255.694 25.8947 254.711 25.8947C254.384 25.8947 254.103 29.8616 253.776 29.8616C253.448 29.8616 253.167 28.507 252.84 28.507C252.512 28.507 252.231 26.443 251.904 26.443C251.576 26.443 251.295 24.5402 250.968 24.5402C249.985 24.5402 249.143 24.7982 248.16 24.7982C247.832 24.7982 247.552 22.6696 247.224 22.6696C246.897 22.6696 246.616 24.1209 246.288 24.1209C245.961 24.1209 245.68 22.8309 245.352 22.8309C245.025 22.8309 244.744 23.9597 244.416 23.9597C243.434 23.9597 242.591 21.7343 241.609 21.7343C241.281 21.7343 241 26.0882 240.673 26.0882C240.345 26.0882 240.064 24.7982 239.737 24.7982C239.409 24.7982 239.128 24.3144 238.801 24.3144C238.473 24.3144 238.193 23.9919 237.865 23.9919C236.896 23.9919 236.065 22.0891 235.096 22.0891C234.769 22.0891 234.488 21.3473 234.16 21.3473C233.833 21.3473 233.552 21.8956 233.224 21.8956C232.897 21.8956 232.616 21.8311 232.288 21.8311C231.961 21.8311 231.68 22.3794 231.353 22.3794C230.37 22.3794 229.528 21.1216 228.545 21.1216C228.217 21.1216 227.936 22.3794 227.609 22.3794C227.281 22.3794 227.001 25.1207 226.673 25.1207C226.345 25.1207 226.065 24.7014 225.737 24.7014C224.427 24.7014 223.304 25.8947 221.993 25.8947C221.666 25.8947 221.385 27.862 221.057 27.862C220.73 27.862 220.449 26.572 220.122 26.572C219.794 26.572 219.513 24.8304 219.186 24.8304C218.858 24.8304 218.577 26.0237 218.25 26.0237C217.267 26.0237 216.425 27.1202 215.442 27.1202C215.114 27.1202 214.834 23.8952 214.506 23.8952C214.178 23.8952 213.898 25.3464 213.57 25.3464C213.243 25.3464 212.962 26.8945 212.634 26.8945C212.307 26.8945 212.026 26.4107 211.698 26.4107C210.716 26.4107 209.873 27.8298 208.891 27.8298C208.563 27.8298 208.282 28.5393 207.955 28.5393C207.627 28.5393 207.346 26.185 207.019 26.185C206.691 26.185 206.41 25.7657 206.083 25.7657C205.755 25.7657 205.474 24.7337 205.147 24.7337C204.164 24.7337 203.322 24.8304 202.339 24.8304C202.012 24.8304 201.731 24.1209 201.403 24.1209C201.076 24.1209 200.795 24.1532 200.467 24.1532C200.14 24.1532 199.859 25.5722 199.531 25.5722C199.204 25.5722 198.923 27.862 198.595 27.862C197.613 27.862 196.77 28.1523 195.788 28.1523C195.46 28.1523 195.179 27.6685 194.852 27.6685C194.524 27.6685 194.243 28.1523 193.916 28.1523C193.588 28.1523 193.308 30.0873 192.98 30.0873C192.652 30.0873 192.372 29.1843 192.044 29.1843C191.061 29.1843 190.219 29.0876 189.236 29.0876C188.909 29.0876 188.628 28.765 188.3 28.765C187.973 28.765 187.692 28.6683 187.365 28.6683C187.037 28.6683 186.756 29.7971 186.429 29.7971C186.101 29.7971 185.82 32.0546 185.493 32.0546C184.51 32.0546 183.668 29.7971 182.685 29.7971C182.357 29.7971 182.077 29.7971 181.749 29.7971C181.421 29.7971 181.141 29.2488 180.813 29.2488C180.486 29.2488 180.205 31.3129 179.877 31.3129C179.55 31.3129 179.269 31.1194 178.941 31.1194C177.631 31.1194 176.508 29.6681 175.198 29.6681C174.87 29.6681 174.589 32.1191 174.262 32.1191C173.934 32.1191 173.653 32.8932 173.326 32.8932C172.998 32.8932 172.717 36.86 172.39 36.86C171.407 36.86 170.565 35.2797 169.582 35.2797C169.255 35.2797 168.974 34.0219 168.646 34.0219C168.319 34.0219 168.038 30.8291 167.71 30.8291C167.383 30.8291 167.102 32.0224 166.774 32.0224C166.447 32.0224 166.166 30.9581 165.838 30.9581C164.856 30.9581 164.013 32.6352 163.031 32.6352C162.703 32.6352 162.422 30.5711 162.095 30.5711C161.767 30.5711 161.486 30.5066 161.159 30.5066C160.831 30.5066 160.551 30.8936 160.223 30.8936C159.895 30.8936 159.615 28.5715 159.287 28.5715C158.304 28.5715 157.462 27.7975 156.479 27.7975C156.152 27.7975 155.871 26.959 155.543 26.959C155.216 26.959 154.935 29.8616 154.607 29.8616C154.28 29.8616 153.999 32.3126 153.672 32.3126C153.344 32.3126 153.063 31.2161 152.736 31.2161C151.753 31.2161 150.911 33.5704 149.928 33.5704C149.6 33.5704 149.32 32.8287 148.992 32.8287C148.664 32.8287 148.384 31.7321 148.056 31.7321C147.728 31.7321 147.448 32.5062 147.12 32.5062C146.793 32.5062 146.512 28.636 146.184 28.636C145.202 28.636 144.359 29.2166 143.376 29.2166C143.049 29.2166 142.768 28.1845 142.441 28.1845C141.785 28.1845 141.224 28.12 140.569 28.12C140.241 28.12 139.96 31.8611 139.633 31.8611C138.65 31.8611 137.808 34.8927 136.825 34.8927C136.497 34.8927 136.217 34.8605 135.889 34.8605C135.562 34.8605 135.281 35.6345 134.953 35.6345C134.626 35.6345 134.345 35.828 134.017 35.828C133.69 35.828 133.409 34.1832 133.081 34.1832C132.099 34.1832 131.256 34.9895 130.274 34.9895C129.946 34.9895 129.665 34.1832 129.338 34.1832C129.01 34.1832 128.729 31.6676 128.402 31.6676C128.074 31.6676 127.793 30.1841 127.466 30.1841C127.138 30.1841 126.858 31.8289 126.53 31.8289C125.547 31.8289 124.705 34.2155 123.722 34.2155C123.395 34.2155 123.114 36.215 122.786 36.215C122.459 36.215 122.178 35.2152 121.85 35.2152C121.523 35.2152 121.242 33.2157 120.915 33.2157C120.587 33.2157 120.306 30.1841 119.979 30.1841C118.996 30.1841 118.154 33.0222 117.171 33.0222C116.843 33.0222 116.562 33.4414 116.235 33.4414C115.907 33.4414 115.627 34.0542 115.299 34.0542C114.971 34.0542 114.691 34.409 114.363 34.409C114.036 34.409 113.755 29.7648 113.427 29.7648C112.444 29.7648 111.602 29.3778 110.619 29.3778C110.292 29.3778 110.011 28.636 109.684 28.636C109.356 28.636 109.075 28.1845 108.748 28.1845C108.42 28.1845 108.139 27.733 107.812 27.733C107.484 27.733 107.203 27.7653 106.876 27.7653C105.893 27.7653 105.051 28.9586 104.068 28.9586C103.74 28.9586 103.46 29.5068 103.132 29.5068C102.805 29.5068 102.524 26.8945 102.196 26.8945C101.869 26.8945 101.588 24.5079 101.26 24.5079C100.933 24.5079 100.652 24.0242 100.324 24.0242C99.3416 24.0242 98.4993 23.6371 97.5166 23.6371C97.189 23.6371 96.9082 24.1854 96.5807 24.1854C96.2531 24.1854 95.9723 23.8952 95.6448 23.8952C95.3172 23.8952 95.0364 24.9917 94.7088 24.9917C94.3813 24.9917 94.1005 28.9908 93.7729 28.9908C92.7902 28.9908 91.9479 28.7973 90.9652 28.7973C90.6376 28.7973 90.3569 29.6358 90.0293 29.6358C89.7017 29.6358 89.4209 29.9583 89.0934 29.9583C88.7658 29.9583 88.485 31.5709 88.1575 31.5709C87.8299 31.5709 87.5491 32.1836 87.2215 32.1836C85.9113 32.1836 84.7881 31.6676 83.4778 31.6676C83.1503 31.6676 82.8695 28.9908 82.5419 28.9908C82.2144 28.9908 81.9336 27.2815 81.606 27.2815C81.2785 27.2815 80.9977 28.3458 80.6701 28.3458C79.6874 28.3458 78.8451 29.4101 77.8624 29.4101C77.5348 29.4101 77.254 28.4425 76.9265 28.4425C76.5989 28.4425 76.3181 28.4748 75.9905 28.4748C75.663 28.4748 75.3822 27.217 75.0546 27.217C74.7271 27.217 74.4463 25.5077 74.1187 25.5077C73.136 25.5077 72.2937 25.2819 71.311 25.2819C70.9834 25.2819 70.7026 27.991 70.3751 27.991C70.0475 27.991 69.7667 26.2172 69.4391 26.2172C69.1115 26.2172 68.8308 21.6698 68.5032 21.6698C68.1756 21.6698 67.8949 23.9274 67.5673 23.9274C66.5846 23.9274 65.7422 25.2819 64.7595 25.2819C64.432 25.2819 64.1512 26.9267 63.8236 26.9267C63.4961 26.9267 63.2153 28.12 62.8877 28.12C62.5602 28.12 62.2794 27.2492 61.9518 27.2492C61.6242 27.2492 61.3435 28.4103 61.0159 28.4103C60.0332 28.4103 59.1909 27.8298 58.2081 27.8298C57.8806 27.8298 57.5998 27.991 57.2722 27.991C56.9447 27.991 56.6639 27.8943 56.3363 27.8943C56.0087 27.8943 55.728 27.6363 55.4004 27.6363C55.0728 27.6363 54.7921 28.3135 54.4645 28.3135C53.4818 28.3135 52.6394 29.0876 51.6567 29.0876C51.3291 29.0876 51.0484 30.8614 50.7208 30.8614C50.3932 30.8614 50.1125 31.4096 49.7849 31.4096C49.4573 31.4096 49.1765 30.5388 48.849 30.5388C48.5214 30.5388 48.2406 30.0228 47.9131 30.0228C46.9303 30.0228 46.088 28.765 45.1053 28.765C44.7777 28.765 44.497 25.8302 44.1694 25.8302C43.8418 25.8302 43.5611 25.1852 43.2335 25.1852C42.9059 25.1852 42.6252 25.0562 42.2976 25.0562C41.97 25.0562 41.6892 25.8302 41.3617 25.8302C40.379 25.8302 39.5366 25.0239 38.5539 25.0239C38.2263 25.0239 37.9456 25.6044 37.618 25.6044C37.2904 25.6044 37.0096 25.4432 36.6821 25.4432C36.3545 25.4432 36.0737 25.3142 35.7462 25.3142C35.4186 25.3142 35.1378 23.3469 34.8102 23.3469C33.1587 23.3469 31.7432 23.3146 30.0917 23.3146C29.7641 23.3146 29.4833 22.2181 29.1558 22.2181C28.8282 22.2181 28.5474 22.1213 28.2198 22.1213C27.2372 22.1213 26.3948 22.6051 25.4121 22.6051C25.0845 22.6051 24.8037 22.1213 24.4762 22.1213C24.1486 22.1213 23.8678 25.0884 23.5403 25.0884C23.2127 25.0884 22.9319 26.6687 22.6043 26.6687C22.2768 26.6687 21.996 26.9267 21.6684 26.9267C20.6857 26.9267 19.8434 27.5718 18.8607 27.5718C18.5331 27.5718 18.2523 28.0878 17.9248 28.0878C17.5972 28.0878 17.3164 29.0876 16.9889 29.0876C16.6613 29.0876 16.3805 27.7653 16.0529 27.7653C15.7254 27.7653 15.4446 27.733 15.117 27.733C14.1343 27.733 13.292 26.8622 12.3093 26.8622C11.9817 26.8622 11.701 27.7653 11.3734 27.7653C11.0458 27.7653 10.765 27.1202 10.4374 27.1202C9.78229 27.1202 9.22073 25.3142 8.56558 25.3142C7.58289 25.3142 6.74057 25.6367 5.75784 25.6367C5.4303 25.6367 5.14951 26.0237 4.82193 26.0237C4.49438 26.0237 4.21359 23.7661 3.88602 23.7661C3.55847 23.7661 3.27768 23.0889 2.9501 23.0889C2.62256 23.0889 2.34177 21.4118 2.01419 21.4118C1.03149 21.4118 0.189178 21.1216 -0.793549 21.1216C-1.12112 21.1216 -1.40189 19.1865 -1.72946 19.1865C-2.05704 19.1865 -2.3378 18.864 -2.66537 18.864C-2.99295 18.864 -3.27371 19.7025 -3.60129 19.7025C-3.92886 19.7025 -4.20963 18.606 -4.5372 18.606C-5.5199 18.606 -6.36227 17.7352 -7.34497 17.7352C-7.67255 17.7352 -7.95331 18.4125 -8.28088 18.4125C-8.60846 18.4125 -8.88922 17.058 -9.2168 17.058C-9.54437 17.058 -9.82513 18.4447 -10.1527 18.4447C-10.4803 18.4447 -10.761 11.8978 -11.0886 11.8978C-12.0714 11.8978 -12.9137 12.3493 -13.8964 12.3493C-14.2239 12.3493 -14.5047 12.1236 -14.8323 12.1236C-15.1599 12.1236 -15.4406 10.1885 -15.7682 10.1885C-16.0958 10.1885 -16.3765 10.898 -16.7041 10.898C-17.0317 10.898 -17.3124 11.414 -17.64 11.414C-18.6227 11.414 -19.4651 11.9946 -20.4478 11.9946C-21.1029 11.9946 -21.6645 11.93 -22.3196 11.93C-22.6472 11.93 -22.928 12.7363 -23.2555 12.7363C-23.5831 12.7363 -23.8639 14.0264 -24.1915 14.0264C-25.1742 14.0264 -26.0165 11.5108 -26.9992 11.5108C-27.6543 11.5108 -28.2159 9.38222 -28.871 9.38222C-29.1986 9.38222 -29.4794 11.285 -29.8069 11.285C-30.1345 11.285 -30.4153 10.0595 -30.7429 10.0595C-31.7256 10.0595 -32.5679 10.6723 -33.5506 10.6723C-33.8782 10.6723 -34.1589 10.0272 -34.4865 10.0272C-34.8141 10.0272 -35.0948 8.35019 -35.4224 8.35019C-35.75 8.35019 -36.0308 8.4792 -36.3583 8.4792C-36.6859 8.4792 -36.9667 10.1885 -37.2943 10.1885C-38.277 10.1885 -39.1193 9.96274 -40.102 9.96274C-40.4296 9.96274 -40.7104 9.99499 -41.0379 9.99499C-41.3655 9.99499 -41.6463 10.8658 -41.9738 10.8658C-42.3014 10.8658 -42.5822 11.3495 -42.9098 11.3495C-43.2373 11.3495 -43.5181 10.5433 -43.8457 10.5433C-45.1559 10.5433 -46.2791 10.64 -47.5893 10.64C-47.9169 10.64 -48.1977 9.67248 -48.5252 9.67248C-48.8528 9.67248 -49.1336 10.1562 -49.4612 10.1562C-49.7887 10.1562 -50.0695 9.44672 -50.3971 9.44672C-51.3798 9.44672 -52.2221 9.70473 -53.2048 9.70473C-53.5324 9.70473 -53.8131 8.80171 -54.1407 8.80171C-54.4683 8.80171 -54.7491 10.6723 -55.0766 10.6723C-55.4042 10.6723 -55.685 11.027 -56.0125 11.027C-56.3401 11.027 -56.6209 9.38222 -56.9485 9.38222C-57.9312 9.38222 -58.7735 10.1562 -59.7563 10.1562C-60.0838 10.1562 -60.3646 8.83396 -60.6922 8.83396C-61.0197 8.83396 -61.3005 9.18872 -61.6281 9.18872C-61.9556 9.18872 -62.2364 10.253 -62.564 10.253C-62.8915 10.253 -63.1723 6.86665 -63.4999 6.86665C-64.4826 6.86665 -65.3249 8.41469 -66.3076 8.41469C-66.6352 8.41469 -66.916 7.60842 -67.2436 7.60842C-67.5711 7.60842 -67.8519 7.86643 -68.1795 7.86643C-68.507 7.86643 -68.7878 8.51145 -69.1154 8.51145C-69.443 8.51145 -69.7237 8.44695 -70.0513 8.44695C-71.3616 8.44695 -72.4847 7.28591 -73.795 7.28591C-74.1226 7.28591 -74.4033 7.99543 -74.7309 7.99543C-75.0585 7.99543 -75.3392 9.38222 -75.6668 9.38222C-75.9944 9.38222 -76.2751 8.70495 -76.6027 8.70495C-77.5854 8.70495 -78.4278 10.124 -79.4105 10.124C-79.738 10.124 -80.0188 8.57595 -80.3464 8.57595C-80.674 8.57595 -80.9547 5.3186 -81.2823 5.3186C-81.2823 5.3186 -81.2823 5.31861 -81.2823 42.7297H293.084V33.2157Z" fill="url(#paint0_linear_7150_2605)"/>
</g>
<mask id="mask1_7150_2605" style="mask-type:luminance" maskUnits="userSpaceOnUse" x="-84" y="3" width="219" height="40">
<path d="M-83.5 3.5V42.5H134.074V3.5H-83.5Z" fill="white" stroke="white"/>
</mask>
<g mask="url(#mask1_7150_2605)">
<path d="M293.083 33.3027C292.756 33.3027 292.476 32.0266 292.149 32.0266C291.822 32.0266 291.541 32.5501 291.214 32.5501C290.887 32.5501 290.607 32.9755 290.28 32.9755C289.299 32.9755 288.458 33.1391 287.477 33.1391C287.15 33.1391 286.869 33.3027 286.542 33.3027C286.215 33.3027 285.935 32.3538 285.608 32.3538C285.281 32.3538 285.001 32.1902 284.674 32.1902C284.347 32.1902 284.066 30.3579 283.739 30.3579C282.758 30.3579 281.917 30.3252 280.936 30.3252C280.609 30.3252 280.329 28.9509 280.002 28.9509C279.675 28.9509 279.395 29.5399 279.068 29.5399C278.741 29.5399 278.46 27.7403 278.133 27.7403C277.806 27.7403 277.526 29.18 277.199 29.18C276.218 29.18 275.377 28.7219 274.396 28.7219C274.069 28.7219 273.788 28.4274 273.461 28.4274C273.134 28.4274 272.854 28.362 272.527 28.362C272.2 28.362 271.92 27.0532 271.593 27.0532C271.266 27.0532 270.985 27.4131 270.658 27.4131C269.35 27.4131 268.229 28.1002 266.921 28.1002C266.594 28.1002 266.313 28.7873 265.986 28.7873C265.659 28.7873 265.379 26.6933 265.052 26.6933C264.725 26.6933 264.445 25.2536 264.118 25.2536C263.137 25.2536 262.296 25.7117 261.315 25.7117C260.988 25.7117 260.707 25.7117 260.38 25.7117C260.053 25.7117 259.773 26.955 259.446 26.955C259.119 26.955 258.839 26.2679 258.511 26.2679C258.184 26.2679 257.904 24.2065 257.577 24.2065C256.596 24.2065 255.755 25.8753 254.774 25.8753C254.447 25.8753 254.167 29.8998 253.84 29.8998C253.513 29.8998 253.232 28.5256 252.905 28.5256C252.578 28.5256 252.298 26.4315 251.971 26.4315C251.644 26.4315 251.364 24.501 251.037 24.501C250.055 24.501 249.215 24.7628 248.233 24.7628C247.906 24.7628 247.626 22.6033 247.299 22.6033C246.972 22.6033 246.692 24.0757 246.365 24.0757C246.038 24.0757 245.757 22.7669 245.43 22.7669C245.103 22.7669 244.823 23.9121 244.496 23.9121C243.515 23.9121 242.674 21.6544 241.693 21.6544C241.366 21.6544 241.086 26.0716 240.759 26.0716C240.432 26.0716 240.151 24.7628 239.824 24.7628C239.497 24.7628 239.217 24.272 238.89 24.272C238.563 24.272 238.282 23.9448 237.955 23.9448C236.988 23.9448 236.159 22.0143 235.191 22.0143C234.864 22.0143 234.584 21.2618 234.257 21.2618C233.93 21.2618 233.65 21.818 233.323 21.818C232.996 21.818 232.715 21.7526 232.388 21.7526C232.061 21.7526 231.781 22.3088 231.454 22.3088C230.473 22.3088 229.632 21.0327 228.651 21.0327C228.324 21.0327 228.043 22.3088 227.716 22.3088C227.389 22.3088 227.109 25.09 226.782 25.09C226.455 25.09 226.175 24.6646 225.848 24.6646C224.54 24.6646 223.418 25.8753 222.11 25.8753C221.783 25.8753 221.503 27.8712 221.176 27.8712C220.849 27.8712 220.568 26.5624 220.241 26.5624C219.914 26.5624 219.634 24.7955 219.307 24.7955C218.98 24.7955 218.7 26.0061 218.373 26.0061C217.392 26.0061 216.551 27.1186 215.57 27.1186C215.243 27.1186 214.962 23.8466 214.635 23.8466C214.308 23.8466 214.028 25.319 213.701 25.319C213.374 25.319 213.094 26.8896 212.767 26.8896C212.44 26.8896 212.159 26.3988 211.832 26.3988C210.851 26.3988 210.01 27.8384 209.029 27.8384C208.702 27.8384 208.422 28.5583 208.095 28.5583C207.768 28.5583 207.487 26.1697 207.16 26.1697C206.833 26.1697 206.553 25.7444 206.226 25.7444C205.899 25.7444 205.619 24.6973 205.292 24.6973C204.311 24.6973 203.47 24.7955 202.489 24.7955C202.161 24.7955 201.881 24.0757 201.554 24.0757C201.227 24.0757 200.947 24.1084 200.62 24.1084C200.293 24.1084 200.012 25.5481 199.685 25.5481C199.358 25.5481 199.078 27.8712 198.751 27.8712C197.77 27.8712 196.929 28.1656 195.948 28.1656C195.621 28.1656 195.341 27.6748 195.014 27.6748C194.687 27.6748 194.406 28.1656 194.079 28.1656C193.752 28.1656 193.472 30.1288 193.145 30.1288C192.818 30.1288 192.538 29.2127 192.211 29.2127C191.229 29.2127 190.388 29.1145 189.407 29.1145C189.08 29.1145 188.8 28.7873 188.473 28.7873C188.146 28.7873 187.866 28.6892 187.539 28.6892C187.212 28.6892 186.931 29.8344 186.604 29.8344C186.277 29.8344 185.997 32.1247 185.67 32.1247C184.689 32.1247 183.848 29.8344 182.867 29.8344C182.54 29.8344 182.26 29.8344 181.932 29.8344C181.605 29.8344 181.325 29.2781 180.998 29.2781C180.671 29.2781 180.391 31.3722 180.064 31.3722C179.737 31.3722 179.456 31.1759 179.129 31.1759C177.821 31.1759 176.7 29.7035 175.392 29.7035C175.065 29.7035 174.785 32.1902 174.458 32.1902C174.131 32.1902 173.85 32.9755 173.523 32.9755C173.196 32.9755 172.916 37 172.589 37C171.608 37 170.767 35.3967 169.786 35.3967C169.459 35.3967 169.178 34.1207 168.851 34.1207C168.524 34.1207 168.244 30.8814 167.917 30.8814C167.59 30.8814 167.31 32.092 166.983 32.092C166.656 32.092 166.375 31.0123 166.048 31.0123C165.067 31.0123 164.226 32.7137 163.245 32.7137C162.918 32.7137 162.638 30.6196 162.311 30.6196C161.984 30.6196 161.703 30.5542 161.376 30.5542C161.049 30.5542 160.769 30.9468 160.442 30.9468C160.115 30.9468 159.835 28.591 159.508 28.591C158.527 28.591 157.686 27.8057 156.705 27.8057C156.378 27.8057 156.097 26.955 155.77 26.955C155.443 26.955 155.163 29.8998 154.836 29.8998C154.509 29.8998 154.229 32.3865 153.902 32.3865C153.575 32.3865 153.294 31.274 152.967 31.274C151.986 31.274 151.145 33.6626 150.164 33.6626C149.837 33.6626 149.557 32.91 149.23 32.91C148.903 32.91 148.622 31.7975 148.295 31.7975C147.968 31.7975 147.688 32.5828 147.361 32.5828C147.034 32.5828 146.754 28.6564 146.427 28.6564C145.446 28.6564 144.605 29.2454 143.624 29.2454C143.296 29.2454 143.016 28.1984 142.689 28.1984C142.035 28.1984 141.474 28.1329 140.82 28.1329C140.493 28.1329 140.213 31.9284 139.886 31.9284C138.905 31.9284 138.064 35.0041 137.083 35.0041C136.756 35.0041 136.476 34.9714 136.149 34.9714C135.822 34.9714 135.541 35.7566 135.214 35.7566C134.887 35.7566 134.607 35.953 134.28 35.953C133.953 35.953 133.673 34.2843 133.346 34.2843C132.364 34.2843 131.523 35.1022 130.542 35.1022C130.215 35.1022 129.935 34.2843 129.608 34.2843C129.281 34.2843 129.001 31.7321 128.674 31.7321C128.347 31.7321 128.066 30.227 127.739 30.227C127.412 30.227 127.132 31.8957 126.805 31.8957C125.824 31.8957 124.983 34.317 124.002 34.317C123.675 34.317 123.395 36.3456 123.067 36.3456C122.74 36.3456 122.46 35.3313 122.133 35.3313C121.806 35.3313 121.526 33.3027 121.199 33.3027C120.872 33.3027 120.591 30.227 120.264 30.227C119.283 30.227 118.442 33.1063 117.461 33.1063C117.134 33.1063 116.854 33.5317 116.527 33.5317C116.2 33.5317 115.92 34.1534 115.593 34.1534C115.266 34.1534 114.985 34.5133 114.658 34.5133C114.331 34.5133 114.051 29.8016 113.724 29.8016C112.743 29.8016 111.902 29.409 110.921 29.409C110.594 29.409 110.313 28.6564 109.986 28.6564C109.659 28.6564 109.379 28.1984 109.052 28.1984C108.725 28.1984 108.445 27.7403 108.118 27.7403C107.791 27.7403 107.51 27.773 107.183 27.773C106.202 27.773 105.361 28.9836 104.38 28.9836C104.053 28.9836 103.773 29.5399 103.446 29.5399C103.119 29.5399 102.838 26.8896 102.511 26.8896C102.184 26.8896 101.904 24.4683 101.577 24.4683C101.25 24.4683 100.97 23.9775 100.643 23.9775C99.6616 23.9775 98.8207 23.5849 97.8396 23.5849C97.5126 23.5849 97.2323 24.1411 96.9053 24.1411C96.5782 24.1411 96.2979 23.8466 95.9709 23.8466C95.6439 23.8466 95.3636 24.9591 95.0365 24.9591C94.7095 24.9591 94.4292 29.0164 94.1022 29.0164C93.1211 29.0164 92.2802 28.82 91.2991 28.82C90.972 28.82 90.6917 29.6708 90.3647 29.6708C90.0377 29.6708 89.7574 29.998 89.4303 29.998C89.1033 29.998 88.823 31.6339 88.496 31.6339C88.169 31.6339 87.8887 32.2556 87.5616 32.2556C86.2535 32.2556 85.1322 31.7321 83.8241 31.7321C83.4971 31.7321 83.2168 29.0164 82.8898 29.0164C82.5627 29.0164 82.2824 27.2822 81.9554 27.2822C81.6284 27.2822 81.3481 28.362 81.021 28.362C80.04 28.362 79.199 29.4417 78.218 29.4417C77.8909 29.4417 77.6106 28.4601 77.2836 28.4601C76.9566 28.4601 76.6763 28.4928 76.3492 28.4928C76.0222 28.4928 75.7419 27.2168 75.4149 27.2168C75.0878 27.2168 74.8075 25.4826 74.4805 25.4826C73.4994 25.4826 72.6585 25.2536 71.6774 25.2536C71.3504 25.2536 71.0701 28.002 70.7431 28.002C70.416 28.002 70.1357 26.2025 69.8087 26.2025C69.4816 26.2025 69.2013 21.589 68.8743 21.589C68.5473 21.589 68.267 23.8793 67.9399 23.8793C66.9588 23.8793 66.1179 25.2536 65.1368 25.2536C64.8098 25.2536 64.5295 26.9223 64.2025 26.9223C63.8754 26.9223 63.5951 28.1329 63.2681 28.1329C62.9411 28.1329 62.6608 27.2495 62.3337 27.2495C62.0067 27.2495 61.7264 28.4274 61.3994 28.4274C60.4183 28.4274 59.5774 27.8384 58.5963 27.8384C58.2693 27.8384 57.989 28.002 57.6619 28.002C57.3349 28.002 57.0546 27.9039 56.7276 27.9039C56.4005 27.9039 56.1202 27.6421 55.7932 27.6421C55.4662 27.6421 55.1859 28.3292 54.8588 28.3292C53.8778 28.3292 53.0368 29.1145 52.0557 29.1145C51.7287 29.1145 51.4484 30.9141 51.1214 30.9141C50.7943 30.9141 50.514 31.4703 50.187 31.4703C49.86 31.4703 49.5797 30.5869 49.2526 30.5869C48.9256 30.5869 48.6453 30.0634 48.3183 30.0634C47.3372 30.0634 46.4963 28.7873 45.5152 28.7873C45.1881 28.7873 44.9078 25.8098 44.5808 25.8098C44.2538 25.8098 43.9735 25.1554 43.6465 25.1554C43.3194 25.1554 43.0391 25.0245 42.7121 25.0245C42.3851 25.0245 42.1048 25.8098 41.7777 25.8098C40.7966 25.8098 39.9557 24.9918 38.9746 24.9918C38.6476 24.9918 38.3673 25.5808 38.0403 25.5808C37.7132 25.5808 37.4329 25.4172 37.1059 25.4172C36.7788 25.4172 36.4985 25.2863 36.1715 25.2863C35.8445 25.2863 35.5642 23.2904 35.2371 23.2904C33.5884 23.2904 32.1752 23.2577 30.5264 23.2577C30.1994 23.2577 29.9191 22.1452 29.5921 22.1452C29.265 22.1452 28.9847 22.047 28.6577 22.047C27.6766 22.047 26.8356 22.5378 25.8546 22.5378C25.5275 22.5378 25.2472 22.047 24.9202 22.047C24.5932 22.047 24.3129 25.0573 23.9858 25.0573C23.6588 25.0573 23.3785 26.6605 23.0515 26.6605C22.7244 26.6605 22.4441 26.9223 22.1171 26.9223C21.136 26.9223 20.2951 27.5767 19.314 27.5767C18.987 27.5767 18.7067 28.1002 18.3797 28.1002C18.0526 28.1002 17.7723 29.1145 17.4453 29.1145C17.1183 29.1145 16.838 27.773 16.5109 27.773C16.1839 27.773 15.9036 27.7403 15.5766 27.7403C14.5955 27.7403 13.7546 26.8569 12.7735 26.8569C12.4465 26.8569 12.1661 27.773 11.8391 27.773C11.5121 27.773 11.2317 27.1186 10.9047 27.1186C10.2507 27.1186 9.69005 25.2863 9.03599 25.2863C8.05491 25.2863 7.21399 25.6135 6.2329 25.6135C5.90587 25.6135 5.62557 26.0061 5.29854 26.0061C4.97151 26.0061 4.6912 23.7157 4.36418 23.7157C4.03715 23.7157 3.75684 23.0286 3.42981 23.0286C3.10279 23.0286 2.82248 21.3272 2.49545 21.3272C1.51437 21.3272 0.673445 21.0327 -0.307639 21.0327C-0.634666 21.0327 -0.914974 19.0695 -1.242 19.0695C-1.56903 19.0695 -1.84934 18.7423 -2.17636 18.7423C-2.50339 18.7423 -2.7837 19.593 -3.11073 19.593C-3.43776 19.593 -3.71806 18.4806 -4.04509 18.4806C-5.02617 18.4806 -5.86713 17.5971 -6.84822 17.5971C-7.17524 17.5971 -7.45555 18.2843 -7.78258 18.2843C-8.10961 18.2843 -8.38991 16.91 -8.71694 16.91C-9.04397 16.91 -9.32428 18.317 -9.65131 18.317C-9.97833 18.317 -10.2586 11.6748 -10.5857 11.6748C-11.5668 11.6748 -12.4077 12.1329 -13.3888 12.1329C-13.7158 12.1329 -13.9961 11.9039 -14.3231 11.9039C-14.6501 11.9039 -14.9305 9.9407 -15.2575 9.9407C-15.5845 9.9407 -15.8648 10.6605 -16.1918 10.6605C-16.5189 10.6605 -16.7992 11.184 -17.1262 11.184C-18.1073 11.184 -18.9482 11.773 -19.9293 11.773C-20.5834 11.773 -21.144 11.7076 -21.7981 11.7076C-22.1251 11.7076 -22.4054 12.5256 -22.7324 12.5256C-23.0595 12.5256 -23.3398 13.8344 -23.6668 13.8344C-24.6479 13.8344 -25.4888 11.2822 -26.4699 11.2822C-27.1239 11.2822 -27.6845 9.1227 -28.3386 9.1227C-28.6656 9.1227 -28.9459 11.0532 -29.273 11.0532C-29.6 11.0532 -29.8803 9.80982 -30.2073 9.80982C-31.1884 9.80982 -32.0293 10.4315 -33.0104 10.4315C-33.3374 10.4315 -33.6178 9.7771 -33.9448 9.7771C-34.2718 9.7771 -34.5521 8.07566 -34.8791 8.07566C-35.2062 8.07566 -35.4865 8.20654 -35.8135 8.20654C-36.1405 8.20654 -36.4209 9.9407 -36.7479 9.9407C-37.729 9.9407 -38.5699 9.71166 -39.551 9.71166C-39.878 9.71166 -40.1583 9.74438 -40.4854 9.74438C-40.8124 9.74438 -41.0927 10.6278 -41.4197 10.6278C-41.7467 10.6278 -42.0271 11.1186 -42.3541 11.1186C-42.6811 11.1186 -42.9614 10.3006 -43.2884 10.3006C-44.5966 10.3006 -45.7178 10.3988 -47.0259 10.3988C-47.3529 10.3988 -47.6332 9.41718 -47.9603 9.41718C-48.2873 9.41718 -48.5676 9.90798 -48.8946 9.90798C-49.2217 9.90798 -49.502 9.18814 -49.829 9.18814C-50.8101 9.18814 -51.651 9.4499 -52.6321 9.4499C-52.9591 9.4499 -53.2394 8.53374 -53.5664 8.53374C-53.8935 8.53374 -54.1738 10.4315 -54.5008 10.4315C-54.8278 10.4315 -55.1081 10.7914 -55.4352 10.7914C-55.7622 10.7914 -56.0425 9.1227 -56.3695 9.1227C-57.3506 9.1227 -58.1916 9.90798 -59.1727 9.90798C-59.4997 9.90798 -59.78 8.56646 -60.107 8.56646C-60.434 8.56646 -60.7144 8.92638 -61.0414 8.92638C-61.3684 8.92638 -61.6487 10.0061 -61.9757 10.0061C-62.3028 10.0061 -62.5831 6.57055 -62.9101 6.57055C-63.8912 6.57055 -64.7321 8.1411 -65.7132 8.1411C-66.0402 8.1411 -66.3205 7.32311 -66.6476 7.32311C-66.9746 7.32311 -67.2549 7.58487 -67.5819 7.58487C-67.909 7.58487 -68.1893 8.23926 -68.5163 8.23926C-68.8433 8.23926 -69.1236 8.17382 -69.4506 8.17382C-70.7588 8.17382 -71.88 6.99591 -73.1881 6.99591C-73.5152 6.99591 -73.7955 7.71575 -74.1225 7.71575C-74.4495 7.71575 -74.7298 9.1227 -75.0569 9.1227C-75.3839 9.1227 -75.6642 8.43558 -75.9912 8.43558C-76.9723 8.43558 -77.8132 9.87526 -78.7943 9.87526C-79.1213 9.87526 -79.4017 8.3047 -79.7287 8.3047C-80.0557 8.3047 -80.336 5 -80.663 5" stroke="#FF4023"/>
</g>
</g>
<defs>
<linearGradient id="paint0_linear_7150_2605" x1="293.084" y1="5.3186" x2="293.084" y2="42.7297" gradientUnits="userSpaceOnUse">
<stop stop-color="#FF4023"/>
<stop offset="1" stop-color="white" stop-opacity="0.81"/>
</linearGradient>
<clipPath id="clip0_7150_2605">
<rect width="132" height="47" fill="white"/>
</clipPath>
</defs>
</svg>
