<svg width="132" height="47" viewBox="0 0 132 47" fill="none" xmlns="http://www.w3.org/2000/svg">
<g clip-path="url(#clip0_7150_2567)">
<mask id="mask0_7150_2567" style="mask-type:luminance" maskUnits="userSpaceOnUse" x="-76" y="3" width="207" height="41">
<path d="M130.783 3.49146H-75.7715V43.2669H130.783V3.49146Z" fill="white"/>
</mask>
<g mask="url(#mask0_7150_2567)">
<path d="M-95.001 33.2157C-94.8047 33.2157 -94.6364 31.9579 -94.44 31.9579C-94.2437 31.9579 -94.0754 32.4739 -93.8791 32.4739C-93.6828 32.4739 -93.5145 32.8932 -93.3182 32.8932C-92.7292 32.8932 -92.2244 33.0544 -91.6354 33.0544C-91.4391 33.0544 -91.2708 33.2157 -91.0745 33.2157C-90.8781 33.2157 -90.7099 32.2804 -90.5135 32.2804C-90.3172 32.2804 -90.1489 32.1191 -89.9526 32.1191C-89.7563 32.1191 -89.588 30.3131 -89.3917 30.3131C-88.8027 30.3131 -88.2979 30.2808 -87.7089 30.2808C-87.5126 30.2808 -87.3443 28.9263 -87.148 28.9263C-86.9516 28.9263 -86.7834 29.5068 -86.587 29.5068C-86.3907 29.5068 -86.2224 27.733 -86.0261 27.733C-85.8298 27.733 -85.6615 29.1521 -85.4652 29.1521C-84.8762 29.1521 -84.3714 28.7005 -83.7824 28.7005C-83.5861 28.7005 -83.4178 28.4103 -83.2215 28.4103C-83.0251 28.4103 -82.8569 28.3458 -82.6605 28.3458C-82.4642 28.3458 -82.2959 27.0557 -82.0996 27.0557C-81.9033 27.0557 -81.735 27.4105 -81.5387 27.4105C-80.7534 27.4105 -80.0803 28.0878 -79.295 28.0878C-79.0986 28.0878 -78.9304 28.765 -78.734 28.765C-78.5377 28.765 -78.3694 26.701 -78.1731 26.701C-77.9768 26.701 -77.8085 25.2819 -77.6122 25.2819C-77.0232 25.2819 -76.5184 25.7335 -75.9294 25.7335C-75.7331 25.7335 -75.5648 25.7335 -75.3685 25.7335C-75.1721 25.7335 -75.0038 26.959 -74.8075 26.959C-74.6112 26.959 -74.4429 26.2817 -74.2466 26.2817C-74.0503 26.2817 -73.882 24.2499 -73.6857 24.2499C-73.0967 24.2499 -72.5919 25.8947 -72.0029 25.8947C-71.8065 25.8947 -71.6383 29.8616 -71.4419 29.8616C-71.2456 29.8616 -71.0773 28.507 -70.881 28.507C-70.6847 28.507 -70.5164 26.443 -70.3201 26.443C-70.1238 26.443 -69.9555 24.5402 -69.7592 24.5402C-69.1702 24.5402 -68.6653 24.7982 -68.0764 24.7982C-67.88 24.7982 -67.7118 22.6696 -67.5154 22.6696C-67.3191 22.6696 -67.1508 24.1209 -66.9545 24.1209C-66.7582 24.1209 -66.5899 22.8309 -66.3936 22.8309C-66.1973 22.8309 -66.029 23.9597 -65.8327 23.9597C-65.2437 23.9597 -64.7388 21.7343 -64.1499 21.7343C-63.9535 21.7343 -63.7853 26.0882 -63.5889 26.0882C-63.3926 26.0882 -63.2243 24.7982 -63.028 24.7982C-62.8317 24.7982 -62.6634 24.3144 -62.4671 24.3144C-62.2707 24.3144 -62.1025 23.9919 -61.9061 23.9919C-61.3253 23.9919 -60.8275 22.0891 -60.2467 22.0891C-60.0504 22.0891 -59.8821 21.3473 -59.6858 21.3473C-59.4895 21.3473 -59.3212 21.8956 -59.1249 21.8956C-58.9285 21.8956 -58.7603 21.8311 -58.5639 21.8311C-58.3676 21.8311 -58.1993 22.3794 -58.003 22.3794C-57.414 22.3794 -56.9092 21.1216 -56.3202 21.1216C-56.1239 21.1216 -55.9556 22.3794 -55.7593 22.3794C-55.563 22.3794 -55.3947 25.1207 -55.1984 25.1207C-55.002 25.1207 -54.8338 24.7014 -54.6374 24.7014C-53.8521 24.7014 -53.179 25.8947 -52.3937 25.8947C-52.1974 25.8947 -52.0291 27.862 -51.8328 27.862C-51.6365 27.862 -51.4682 26.572 -51.2719 26.572C-51.0755 26.572 -50.9073 24.8304 -50.7109 24.8304C-50.5146 24.8304 -50.3463 26.0237 -50.15 26.0237C-49.561 26.0237 -49.0562 27.1202 -48.4672 27.1202C-48.2709 27.1202 -48.1026 23.8952 -47.9063 23.8952C-47.71 23.8952 -47.5417 25.3464 -47.3454 25.3464C-47.149 25.3464 -46.9808 26.8945 -46.7844 26.8945C-46.5881 26.8945 -46.4198 26.4107 -46.2235 26.4107C-45.6345 26.4107 -45.1297 27.8298 -44.5407 27.8298C-44.3444 27.8298 -44.1761 28.5393 -43.9798 28.5393C-43.7835 28.5393 -43.6152 26.185 -43.4188 26.185C-43.2225 26.185 -43.0542 25.7657 -42.8579 25.7657C-42.6616 25.7657 -42.4933 24.7337 -42.297 24.7337C-41.708 24.7337 -41.2032 24.8304 -40.6142 24.8304C-40.4179 24.8304 -40.2496 24.1209 -40.0533 24.1209C-39.8569 24.1209 -39.6887 24.1532 -39.4923 24.1532C-39.296 24.1532 -39.1277 25.5722 -38.9314 25.5722C-38.7351 25.5722 -38.5668 27.862 -38.3705 27.862C-37.7815 27.862 -37.2767 28.1523 -36.6877 28.1523C-36.4914 28.1523 -36.3231 27.6685 -36.1268 27.6685C-35.9304 27.6685 -35.7622 28.1523 -35.5658 28.1523C-35.3695 28.1523 -35.2012 30.0873 -35.0049 30.0873C-34.8086 30.0873 -34.6403 29.1843 -34.444 29.1843C-33.855 29.1843 -33.3502 29.0876 -32.7612 29.0876C-32.5649 29.0876 -32.3966 28.765 -32.2003 28.765C-32.0039 28.765 -31.8357 28.6683 -31.6393 28.6683C-31.443 28.6683 -31.2747 29.7971 -31.0784 29.7971C-30.8821 29.7971 -30.7138 32.0546 -30.5175 32.0546C-29.9285 32.0546 -29.4237 29.7971 -28.8347 29.7971C-28.6384 29.7971 -28.4701 29.7971 -28.2738 29.7971C-28.0774 29.7971 -27.9092 29.2488 -27.7128 29.2488C-27.5165 29.2488 -27.3482 31.3129 -27.1519 31.3129C-26.9556 31.3129 -26.7873 31.1194 -26.591 31.1194C-25.8057 31.1194 -25.1326 29.6681 -24.3473 29.6681C-24.1509 29.6681 -23.9827 32.1191 -23.7863 32.1191C-23.59 32.1191 -23.4217 32.8932 -23.2254 32.8932C-23.0291 32.8932 -22.8608 36.86 -22.6645 36.86C-22.0755 36.86 -21.5707 35.2797 -20.9817 35.2797C-20.7854 35.2797 -20.6171 34.0219 -20.4207 34.0219C-20.2244 34.0219 -20.0561 30.8291 -19.8598 30.8291C-19.6635 30.8291 -19.4952 32.0224 -19.2989 32.0224C-19.1026 32.0224 -18.9343 30.9581 -18.738 30.9581C-18.149 30.9581 -17.6441 32.6352 -17.0552 32.6352C-16.8588 32.6352 -16.6906 30.5711 -16.4942 30.5711C-16.2979 30.5711 -16.1296 30.5066 -15.9333 30.5066C-15.737 30.5066 -15.5687 30.8936 -15.3724 30.8936C-15.1761 30.8936 -15.0078 28.5715 -14.8115 28.5715C-14.2225 28.5715 -13.7176 27.7975 -13.1287 27.7975C-12.9323 27.7975 -12.7641 26.959 -12.5677 26.959C-12.3714 26.959 -12.2031 29.8616 -12.0068 29.8616C-11.8105 29.8616 -11.6422 32.3126 -11.4459 32.3126C-11.2495 32.3126 -11.0813 31.2161 -10.8849 31.2161C-10.296 31.2161 -9.79114 33.5704 -9.20216 33.5704C-9.00584 33.5704 -8.83755 32.8287 -8.64123 32.8287C-8.44491 32.8287 -8.27663 31.7321 -8.08031 31.7321C-7.88398 31.7321 -7.7157 32.5062 -7.51937 32.5062C-7.32304 32.5062 -7.15477 28.636 -6.95844 28.636C-6.36947 28.636 -5.86463 29.2166 -5.27565 29.2166C-5.07933 29.2166 -4.91105 28.1845 -4.71472 28.1845C-4.32207 28.1845 -3.98552 28.12 -3.59286 28.12C-3.39655 28.12 -3.22826 31.8611 -3.03194 31.8611C-2.44296 31.8611 -1.93813 34.8927 -1.34916 34.8927C-1.15283 34.8927 -0.984543 34.8605 -0.788216 34.8605C-0.591888 34.8605 -0.423615 35.6345 -0.227287 35.6345C-0.0309601 35.6345 0.137314 35.828 0.333641 35.828C0.529968 35.828 0.698242 34.1832 0.894569 34.1832C1.48354 34.1832 1.98839 34.9895 2.57736 34.9895C2.77369 34.9895 2.94196 34.1832 3.13829 34.1832C3.33462 34.1832 3.50289 31.6676 3.69922 31.6676C3.89555 31.6676 4.06382 30.1841 4.26015 30.1841C4.45647 30.1841 4.62475 31.8289 4.82108 31.8289C5.41005 31.8289 5.91489 34.2155 6.50386 34.2155C6.70019 34.2155 6.86846 36.215 7.06479 36.215C7.26112 36.215 7.42939 35.2152 7.62572 35.2152C7.82204 35.2152 7.99032 33.2157 8.18665 33.2157C8.38297 33.2157 8.55125 30.1841 8.74757 30.1841C9.33655 30.1841 9.84139 33.0222 10.4304 33.0222C10.6267 33.0222 10.795 33.4414 10.9913 33.4414C11.1876 33.4414 11.3559 34.0542 11.5522 34.0542C11.7486 34.0542 11.9168 34.409 12.1132 34.409C12.3095 34.409 12.4778 29.7648 12.6741 29.7648C13.2631 29.7648 13.7679 29.3778 14.3569 29.3778C14.5532 29.3778 14.7215 28.636 14.9178 28.636C15.1141 28.636 15.2824 28.1845 15.4787 28.1845C15.6751 28.1845 15.8433 27.733 16.0397 27.733C16.236 27.733 16.4043 27.7653 16.6006 27.7653C17.1896 27.7653 17.6944 28.9586 18.2834 28.9586C18.4797 28.9586 18.648 29.5068 18.8443 29.5068C19.0406 29.5068 19.2089 26.8945 19.4052 26.8945C19.6016 26.8945 19.7699 24.5079 19.9662 24.5079C20.1625 24.5079 20.3308 24.0242 20.5271 24.0242C21.1161 24.0242 21.6209 23.6371 22.2099 23.6371C22.4062 23.6371 22.5745 24.1854 22.7708 24.1854C22.9671 24.1854 23.1354 23.8952 23.3317 23.8952C23.5281 23.8952 23.6964 24.9917 23.8927 24.9917C24.089 24.9917 24.2573 28.9908 24.4536 28.9908C25.0426 28.9908 25.5474 28.7973 26.1364 28.7973C26.3327 28.7973 26.501 29.6358 26.6973 29.6358C26.8936 29.6358 27.0619 29.9583 27.2582 29.9583C27.4546 29.9583 27.6228 31.5709 27.8192 31.5709C28.0155 31.5709 28.1838 32.1836 28.3801 32.1836C29.1654 32.1836 29.8385 31.6676 30.6238 31.6676C30.8202 31.6676 30.9884 28.9908 31.1848 28.9908C31.3811 28.9908 31.5494 27.2815 31.7457 27.2815C31.942 27.2815 32.1103 28.3458 32.3066 28.3458C32.8956 28.3458 33.4004 29.4101 33.9894 29.4101C34.1857 29.4101 34.354 28.4425 34.5503 28.4425C34.7467 28.4425 34.9149 28.4748 35.1113 28.4748C35.3076 28.4748 35.4759 27.217 35.6722 27.217C35.8685 27.217 36.0368 25.5077 36.2331 25.5077C36.8221 25.5077 37.3269 25.2819 37.9159 25.2819C38.1122 25.2819 38.2805 27.991 38.4768 27.991C38.6732 27.991 38.8414 26.2172 39.0378 26.2172C39.2341 26.2172 39.4024 21.6698 39.5987 21.6698C39.795 21.6698 39.9633 23.9274 40.1596 23.9274C40.7486 23.9274 41.2534 25.2819 41.8424 25.2819C42.0387 25.2819 42.207 26.9267 42.4034 26.9267C42.5997 26.9267 42.7679 28.12 42.9643 28.12C43.1606 28.12 43.3289 27.2492 43.5252 27.2492C43.7215 27.2492 43.8898 28.4103 44.0861 28.4103C44.6751 28.4103 45.1799 27.8298 45.7689 27.8298C45.9652 27.8298 46.1335 27.991 46.3298 27.991C46.5262 27.991 46.6944 27.8943 46.8908 27.8943C47.0871 27.8943 47.2554 27.6363 47.4517 27.6363C47.648 27.6363 47.8163 28.3135 48.0126 28.3135C48.6016 28.3135 49.1065 29.0876 49.6954 29.0876C49.8918 29.0876 50.06 30.8614 50.2564 30.8614C50.4527 30.8614 50.621 31.4096 50.8173 31.4096C51.0136 31.4096 51.1819 30.5388 51.3782 30.5388C51.5745 30.5388 51.7428 30.0228 51.9391 30.0228C52.5281 30.0228 53.0329 28.765 53.6219 28.765C53.8183 28.765 53.9865 25.8302 54.1829 25.8302C54.3792 25.8302 54.5475 25.1852 54.7438 25.1852C54.9401 25.1852 55.1084 25.0562 55.3047 25.0562C55.501 25.0562 55.6693 25.8302 55.8656 25.8302C56.4546 25.8302 56.9594 25.0239 57.5484 25.0239C57.7448 25.0239 57.913 25.6044 58.1093 25.6044C58.3057 25.6044 58.474 25.4432 58.6703 25.4432C58.8666 25.4432 59.0349 25.3142 59.2312 25.3142C59.4276 25.3142 59.5958 23.3469 59.7922 23.3469C60.782 23.3469 61.6304 23.3146 62.6202 23.3146C62.8165 23.3146 62.9848 22.2181 63.1811 22.2181C63.3774 22.2181 63.5457 22.1213 63.742 22.1213C64.331 22.1213 64.8358 22.6051 65.4248 22.6051C65.6212 22.6051 65.7894 22.1213 65.9857 22.1213C66.1821 22.1213 66.3504 25.0884 66.5467 25.0884C66.743 25.0884 66.9113 26.6687 67.1076 26.6687C67.3039 26.6687 67.4722 26.9267 67.6685 26.9267C68.2575 26.9267 68.7623 27.5718 69.3513 27.5718C69.5476 27.5718 69.7159 28.0878 69.9122 28.0878C70.1086 28.0878 70.2769 29.0876 70.4732 29.0876C70.6695 29.0876 70.8378 27.7653 71.0341 27.7653C71.2304 27.7653 71.3987 27.733 71.595 27.733C72.184 27.733 72.6888 26.8622 73.2778 26.8622C73.4741 26.8622 73.6424 27.7653 73.8387 27.7653C74.0351 27.7653 74.2034 27.1202 74.3997 27.1202C74.7923 27.1202 75.1289 25.3142 75.5215 25.3142C76.1105 25.3142 76.6154 25.6367 77.2043 25.6367C77.4007 25.6367 77.5689 26.0237 77.7653 26.0237C77.9616 26.0237 78.1299 23.7661 78.3262 23.7661C78.5225 23.7661 78.6908 23.0889 78.8871 23.0889C79.0835 23.0889 79.2517 21.4118 79.448 21.4118C80.037 21.4118 80.5419 21.1216 81.1308 21.1216C81.3272 21.1216 81.4954 19.1865 81.6918 19.1865C81.8881 19.1865 82.0564 18.864 82.2527 18.864C82.449 18.864 82.6173 19.7025 82.8136 19.7025C83.0099 19.7025 83.1782 18.606 83.3745 18.606C83.9635 18.606 84.4684 17.7352 85.0573 17.7352C85.2537 17.7352 85.422 18.4125 85.6183 18.4125C85.8146 18.4125 85.9829 17.058 86.1792 17.058C86.3755 17.058 86.5438 18.4447 86.7401 18.4447C86.9365 18.4447 87.1047 11.8978 87.3011 11.8978C87.89 11.8978 88.3949 12.3493 88.9838 12.3493C89.1802 12.3493 89.3484 12.1236 89.5448 12.1236C89.7411 12.1236 89.9094 10.1885 90.1057 10.1885C90.302 10.1885 90.4703 10.898 90.6666 10.898C90.863 10.898 91.0312 11.414 91.2276 11.414C91.8165 11.414 92.3214 11.9946 92.9103 11.9946C93.303 11.9946 93.6396 11.93 94.0322 11.93C94.2285 11.93 94.3968 12.7363 94.5932 12.7363C94.7895 12.7363 94.9577 14.0264 95.1541 14.0264C95.7431 14.0264 96.2479 11.5108 96.8369 11.5108C97.2295 11.5108 97.5661 9.38222 97.9587 9.38222C98.155 9.38222 98.3233 11.285 98.5196 11.285C98.716 11.285 98.8842 10.0595 99.0806 10.0595C99.6696 10.0595 100.174 10.6723 100.763 10.6723C100.96 10.6723 101.128 10.0272 101.324 10.0272C101.521 10.0272 101.689 8.35019 101.885 8.35019C102.082 8.35019 102.25 8.4792 102.446 8.4792C102.642 8.4792 102.811 10.1885 103.007 10.1885C103.596 10.1885 104.101 9.96274 104.69 9.96274C104.886 9.96274 105.054 9.99499 105.251 9.99499C105.447 9.99499 105.615 10.8658 105.812 10.8658C106.008 10.8658 106.176 11.3495 106.373 11.3495C106.569 11.3495 106.737 10.5433 106.934 10.5433C107.719 10.5433 108.392 10.64 109.177 10.64C109.374 10.64 109.542 9.67248 109.738 9.67248C109.935 9.67248 110.103 10.1562 110.299 10.1562C110.495 10.1562 110.664 9.44672 110.86 9.44672C111.449 9.44672 111.954 9.70473 112.543 9.70473C112.739 9.70473 112.907 8.80171 113.104 8.80171C113.3 8.80171 113.468 10.6723 113.665 10.6723C113.861 10.6723 114.029 11.027 114.226 11.027C114.422 11.027 114.59 9.38222 114.787 9.38222C115.376 9.38222 115.88 10.1562 116.469 10.1562C116.666 10.1562 116.834 8.83396 117.03 8.83396C117.227 8.83396 117.395 9.18872 117.591 9.18872C117.788 9.18872 117.956 10.253 118.152 10.253C118.348 10.253 118.517 6.86665 118.713 6.86665C119.302 6.86665 119.807 8.41469 120.396 8.41469C120.592 8.41469 120.76 7.60842 120.957 7.60842C121.153 7.60842 121.321 7.86643 121.518 7.86643C121.714 7.86643 121.882 8.51145 122.079 8.51145C122.275 8.51145 122.443 8.44695 122.64 8.44695C123.425 8.44695 124.098 7.28591 124.883 7.28591C125.08 7.28591 125.248 7.99543 125.444 7.99543C125.641 7.99543 125.809 9.38222 126.005 9.38222C126.202 9.38222 126.37 8.70495 126.566 8.70495C127.155 8.70495 127.66 10.124 128.249 10.124C128.445 10.124 128.613 8.57595 128.81 8.57595C129.006 8.57595 129.174 5.3186 129.371 5.3186C129.371 5.3186 129.371 5.31861 129.371 42.7297H-95.001V33.2157Z" fill="url(#paint0_linear_7150_2567)"/>
</g>
<mask id="mask1_7150_2567" style="mask-type:luminance" maskUnits="userSpaceOnUse" x="0" y="3" width="131" height="40">
<path d="M131 3H0V43H131V3Z" fill="white"/>
</mask>
<g mask="url(#mask1_7150_2567)">
<path d="M-95 33.3027C-94.804 33.3027 -94.636 32.0266 -94.44 32.0266C-94.244 32.0266 -94.076 32.5501 -93.88 32.5501C-93.684 32.5501 -93.516 32.9755 -93.32 32.9755C-92.732 32.9755 -92.228 33.1391 -91.64 33.1391C-91.444 33.1391 -91.276 33.3027 -91.08 33.3027C-90.884 33.3027 -90.716 32.3538 -90.52 32.3538C-90.324 32.3538 -90.156 32.1902 -89.96 32.1902C-89.764 32.1902 -89.596 30.3579 -89.4 30.3579C-88.812 30.3579 -88.308 30.3252 -87.72 30.3252C-87.524 30.3252 -87.356 28.9509 -87.16 28.9509C-86.964 28.9509 -86.796 29.5399 -86.6 29.5399C-86.404 29.5399 -86.236 27.7403 -86.04 27.7403C-85.844 27.7403 -85.676 29.18 -85.48 29.18C-84.892 29.18 -84.388 28.7219 -83.8 28.7219C-83.604 28.7219 -83.436 28.4274 -83.24 28.4274C-83.044 28.4274 -82.876 28.362 -82.68 28.362C-82.484 28.362 -82.316 27.0532 -82.12 27.0532C-81.924 27.0532 -81.756 27.4131 -81.56 27.4131C-80.776 27.4131 -80.104 28.1002 -79.32 28.1002C-79.124 28.1002 -78.956 28.7873 -78.76 28.7873C-78.564 28.7873 -78.396 26.6933 -78.2 26.6933C-78.004 26.6933 -77.836 25.2536 -77.64 25.2536C-77.052 25.2536 -76.548 25.7117 -75.96 25.7117C-75.764 25.7117 -75.596 25.7117 -75.4 25.7117C-75.204 25.7117 -75.036 26.955 -74.84 26.955C-74.644 26.955 -74.476 26.2679 -74.28 26.2679C-74.084 26.2679 -73.916 24.2065 -73.72 24.2065C-73.132 24.2065 -72.628 25.8753 -72.04 25.8753C-71.844 25.8753 -71.676 29.8998 -71.48 29.8998C-71.284 29.8998 -71.116 28.5256 -70.92 28.5256C-70.724 28.5256 -70.556 26.4315 -70.36 26.4315C-70.164 26.4315 -69.996 24.501 -69.8 24.501C-69.212 24.501 -68.708 24.7628 -68.12 24.7628C-67.924 24.7628 -67.756 22.6033 -67.56 22.6033C-67.364 22.6033 -67.196 24.0757 -67 24.0757C-66.804 24.0757 -66.636 22.7669 -66.44 22.7669C-66.244 22.7669 -66.076 23.9121 -65.88 23.9121C-65.292 23.9121 -64.788 21.6544 -64.2 21.6544C-64.004 21.6544 -63.836 26.0716 -63.64 26.0716C-63.444 26.0716 -63.276 24.7628 -63.08 24.7628C-62.884 24.7628 -62.716 24.272 -62.52 24.272C-62.324 24.272 -62.156 23.9448 -61.96 23.9448C-61.3802 23.9448 -60.8832 22.0143 -60.3033 22.0143C-60.1073 22.0143 -59.9393 21.2618 -59.7433 21.2618C-59.5473 21.2618 -59.3793 21.818 -59.1833 21.818C-58.9873 21.818 -58.8193 21.7526 -58.6233 21.7526C-58.4273 21.7526 -58.2593 22.3088 -58.0633 22.3088C-57.4753 22.3088 -56.9713 21.0327 -56.3833 21.0327C-56.1873 21.0327 -56.0193 22.3088 -55.8233 22.3088C-55.6273 22.3088 -55.4593 25.09 -55.2633 25.09C-55.0673 25.09 -54.8993 24.6646 -54.7033 24.6646C-53.9193 24.6646 -53.2473 25.8753 -52.4633 25.8753C-52.2673 25.8753 -52.0993 27.8712 -51.9033 27.8712C-51.7073 27.8712 -51.5393 26.5624 -51.3433 26.5624C-51.1473 26.5624 -50.9793 24.7955 -50.7833 24.7955C-50.5873 24.7955 -50.4193 26.0061 -50.2233 26.0061C-49.6353 26.0061 -49.1313 27.1186 -48.5433 27.1186C-48.3473 27.1186 -48.1793 23.8466 -47.9833 23.8466C-47.7873 23.8466 -47.6193 25.319 -47.4233 25.319C-47.2273 25.319 -47.0593 26.8896 -46.8633 26.8896C-46.6673 26.8896 -46.4993 26.3988 -46.3033 26.3988C-45.7153 26.3988 -45.2113 27.8384 -44.6233 27.8384C-44.4273 27.8384 -44.2593 28.5583 -44.0633 28.5583C-43.8673 28.5583 -43.6993 26.1697 -43.5033 26.1697C-43.3073 26.1697 -43.1393 25.7444 -42.9433 25.7444C-42.7473 25.7444 -42.5793 24.6973 -42.3833 24.6973C-41.7953 24.6973 -41.2913 24.7955 -40.7033 24.7955C-40.5073 24.7955 -40.3393 24.0757 -40.1433 24.0757C-39.9473 24.0757 -39.7793 24.1084 -39.5833 24.1084C-39.3873 24.1084 -39.2193 25.5481 -39.0233 25.5481C-38.8273 25.5481 -38.6593 27.8712 -38.4633 27.8712C-37.8753 27.8712 -37.3713 28.1656 -36.7833 28.1656C-36.5873 28.1656 -36.4193 27.6748 -36.2233 27.6748C-36.0273 27.6748 -35.8593 28.1656 -35.6633 28.1656C-35.4673 28.1656 -35.2993 30.1288 -35.1033 30.1288C-34.9073 30.1288 -34.7393 29.2127 -34.5433 29.2127C-33.9553 29.2127 -33.4513 29.1145 -32.8633 29.1145C-32.6673 29.1145 -32.4993 28.7873 -32.3033 28.7873C-32.1073 28.7873 -31.9393 28.6892 -31.7433 28.6892C-31.5473 28.6892 -31.3793 29.8344 -31.1833 29.8344C-30.9873 29.8344 -30.8193 32.1247 -30.6233 32.1247C-30.0353 32.1247 -29.5313 29.8344 -28.9433 29.8344C-28.7473 29.8344 -28.5793 29.8344 -28.3833 29.8344C-28.1873 29.8344 -28.0193 29.2781 -27.8233 29.2781C-27.6273 29.2781 -27.4593 31.3722 -27.2633 31.3722C-27.0673 31.3722 -26.8993 31.1759 -26.7033 31.1759C-25.9193 31.1759 -25.2473 29.7035 -24.4633 29.7035C-24.2673 29.7035 -24.0993 32.1902 -23.9033 32.1902C-23.7073 32.1902 -23.5393 32.9755 -23.3433 32.9755C-23.1473 32.9755 -22.9793 37 -22.7833 37C-22.1953 37 -21.6913 35.3967 -21.1033 35.3967C-20.9073 35.3967 -20.7393 34.1207 -20.5433 34.1207C-20.3473 34.1207 -20.1793 30.8814 -19.9833 30.8814C-19.7873 30.8814 -19.6193 32.092 -19.4233 32.092C-19.2273 32.092 -19.0593 31.0123 -18.8633 31.0123C-18.2753 31.0123 -17.7713 32.7137 -17.1833 32.7137C-16.9873 32.7137 -16.8193 30.6196 -16.6233 30.6196C-16.4273 30.6196 -16.2593 30.5542 -16.0633 30.5542C-15.8673 30.5542 -15.6993 30.9468 -15.5033 30.9468C-15.3073 30.9468 -15.1393 28.591 -14.9433 28.591C-14.3553 28.591 -13.8513 27.8057 -13.2633 27.8057C-13.0673 27.8057 -12.8993 26.955 -12.7033 26.955C-12.5073 26.955 -12.3393 29.8998 -12.1433 29.8998C-11.9473 29.8998 -11.7793 32.3865 -11.5833 32.3865C-11.3873 32.3865 -11.2193 31.274 -11.0233 31.274C-10.4353 31.274 -9.93133 33.6626 -9.34333 33.6626C-9.14733 33.6626 -8.97933 32.91 -8.78333 32.91C-8.58733 32.91 -8.41933 31.7975 -8.22333 31.7975C-8.02733 31.7975 -7.85933 32.5828 -7.66333 32.5828C-7.46733 32.5828 -7.29933 28.6564 -7.10333 28.6564C-6.51533 28.6564 -6.01133 29.2454 -5.42333 29.2454C-5.22733 29.2454 -5.05933 28.1984 -4.86333 28.1984C-4.47133 28.1984 -4.13533 28.1329 -3.74333 28.1329C-3.54733 28.1329 -3.37933 31.9284 -3.18333 31.9284C-2.59533 31.9284 -2.09134 35.0041 -1.50334 35.0041C-1.30734 35.0041 -1.13933 34.9714 -0.943328 34.9714C-0.747328 34.9714 -0.579329 35.7566 -0.383329 35.7566C-0.187329 35.7566 -0.0193304 35.953 0.17667 35.953C0.37267 35.953 0.540668 34.2843 0.736668 34.2843C1.32467 34.2843 1.82868 35.1022 2.41668 35.1022C2.61268 35.1022 2.78067 34.2843 2.97667 34.2843C3.17267 34.2843 3.34067 31.7321 3.53667 31.7321C3.73267 31.7321 3.90067 30.227 4.09667 30.227C4.29267 30.227 4.46067 31.8957 4.65667 31.8957C5.24467 31.8957 5.74867 34.317 6.33667 34.317C6.53267 34.317 6.70067 36.3456 6.89667 36.3456C7.09267 36.3456 7.26066 35.3313 7.45666 35.3313C7.65266 35.3313 7.82066 33.3027 8.01666 33.3027C8.21266 33.3027 8.38066 30.227 8.57666 30.227C9.16466 30.227 9.66867 33.1063 10.2567 33.1063C10.4527 33.1063 10.6207 33.5317 10.8167 33.5317C11.0127 33.5317 11.1807 34.1534 11.3767 34.1534C11.5727 34.1534 11.7407 34.5133 11.9367 34.5133C12.1327 34.5133 12.3007 29.8016 12.4967 29.8016C13.0847 29.8016 13.5887 29.409 14.1767 29.409C14.3727 29.409 14.5407 28.6564 14.7367 28.6564C14.9327 28.6564 15.1007 28.1984 15.2967 28.1984C15.4927 28.1984 15.6607 27.7403 15.8567 27.7403C16.0527 27.7403 16.2207 27.773 16.4167 27.773C17.0047 27.773 17.5087 28.9836 18.0967 28.9836C18.2927 28.9836 18.4607 29.5399 18.6567 29.5399C18.8527 29.5399 19.0207 26.8896 19.2167 26.8896C19.4127 26.8896 19.5807 24.4683 19.7767 24.4683C19.9727 24.4683 20.1407 23.9775 20.3367 23.9775C20.9247 23.9775 21.4287 23.5849 22.0167 23.5849C22.2127 23.5849 22.3807 24.1411 22.5767 24.1411C22.7727 24.1411 22.9407 23.8466 23.1367 23.8466C23.3327 23.8466 23.5007 24.9591 23.6967 24.9591C23.8927 24.9591 24.0607 29.0164 24.2567 29.0164C24.8447 29.0164 25.3487 28.82 25.9367 28.82C26.1327 28.82 26.3007 29.6708 26.4967 29.6708C26.6927 29.6708 26.8607 29.998 27.0567 29.998C27.2527 29.998 27.4207 31.6339 27.6167 31.6339C27.8127 31.6339 27.9807 32.2556 28.1767 32.2556C28.9607 32.2556 29.6327 31.7321 30.4167 31.7321C30.6127 31.7321 30.7807 29.0164 30.9767 29.0164C31.1727 29.0164 31.3407 27.2822 31.5367 27.2822C31.7327 27.2822 31.9007 28.362 32.0967 28.362C32.6847 28.362 33.1887 29.4417 33.7767 29.4417C33.9727 29.4417 34.1407 28.4601 34.3367 28.4601C34.5327 28.4601 34.7007 28.4928 34.8967 28.4928C35.0927 28.4928 35.2607 27.2168 35.4567 27.2168C35.6527 27.2168 35.8207 25.4826 36.0167 25.4826C36.6047 25.4826 37.1087 25.2536 37.6967 25.2536C37.8927 25.2536 38.0607 28.002 38.2567 28.002C38.4527 28.002 38.6207 26.2025 38.8167 26.2025C39.0127 26.2025 39.1807 21.589 39.3767 21.589C39.5727 21.589 39.7407 23.8793 39.9367 23.8793C40.5247 23.8793 41.0287 25.2536 41.6167 25.2536C41.8127 25.2536 41.9807 26.9223 42.1767 26.9223C42.3727 26.9223 42.5407 28.1329 42.7367 28.1329C42.9327 28.1329 43.1007 27.2495 43.2967 27.2495C43.4927 27.2495 43.6607 28.4274 43.8567 28.4274C44.4447 28.4274 44.9487 27.8384 45.5367 27.8384C45.7327 27.8384 45.9007 28.002 46.0967 28.002C46.2927 28.002 46.4607 27.9039 46.6567 27.9039C46.8527 27.9039 47.0207 27.6421 47.2167 27.6421C47.4127 27.6421 47.5807 28.3292 47.7767 28.3292C48.3647 28.3292 48.8687 29.1145 49.4567 29.1145C49.6527 29.1145 49.8207 30.9141 50.0167 30.9141C50.2127 30.9141 50.3807 31.4703 50.5767 31.4703C50.7727 31.4703 50.9407 30.5869 51.1367 30.5869C51.3327 30.5869 51.5007 30.0634 51.6967 30.0634C52.2847 30.0634 52.7887 28.7873 53.3767 28.7873C53.5727 28.7873 53.7407 25.8098 53.9367 25.8098C54.1327 25.8098 54.3007 25.1554 54.4967 25.1554C54.6927 25.1554 54.8607 25.0245 55.0567 25.0245C55.2527 25.0245 55.4207 25.8098 55.6167 25.8098C56.2047 25.8098 56.7087 24.9918 57.2967 24.9918C57.4927 24.9918 57.6607 25.5808 57.8567 25.5808C58.0527 25.5808 58.2207 25.4172 58.4167 25.4172C58.6127 25.4172 58.7807 25.2863 58.9767 25.2863C59.1727 25.2863 59.3407 23.2904 59.5367 23.2904C60.5248 23.2904 61.3718 23.2577 62.36 23.2577C62.556 23.2577 62.724 22.1452 62.92 22.1452C63.116 22.1452 63.284 22.047 63.48 22.047C64.068 22.047 64.572 22.5378 65.16 22.5378C65.356 22.5378 65.524 22.047 65.72 22.047C65.916 22.047 66.084 25.0573 66.28 25.0573C66.476 25.0573 66.644 26.6605 66.84 26.6605C67.036 26.6605 67.204 26.9223 67.4 26.9223C67.988 26.9223 68.492 27.5767 69.08 27.5767C69.276 27.5767 69.444 28.1002 69.64 28.1002C69.836 28.1002 70.004 29.1145 70.2 29.1145C70.396 29.1145 70.564 27.773 70.76 27.773C70.956 27.773 71.124 27.7403 71.32 27.7403C71.908 27.7403 72.412 26.8569 73 26.8569C73.196 26.8569 73.364 27.773 73.56 27.773C73.756 27.773 73.924 27.1186 74.12 27.1186C74.512 27.1186 74.848 25.2863 75.24 25.2863C75.828 25.2863 76.332 25.6135 76.92 25.6135C77.116 25.6135 77.284 26.0061 77.48 26.0061C77.676 26.0061 77.844 23.7157 78.04 23.7157C78.236 23.7157 78.404 23.0286 78.6 23.0286C78.796 23.0286 78.964 21.3272 79.16 21.3272C79.748 21.3272 80.252 21.0327 80.84 21.0327C81.036 21.0327 81.204 19.0695 81.4 19.0695C81.596 19.0695 81.764 18.7423 81.96 18.7423C82.156 18.7423 82.324 19.593 82.52 19.593C82.716 19.593 82.884 18.4806 83.08 18.4806C83.668 18.4806 84.172 17.5971 84.76 17.5971C84.956 17.5971 85.124 18.2843 85.32 18.2843C85.516 18.2843 85.684 16.91 85.88 16.91C86.076 16.91 86.244 18.317 86.44 18.317C86.636 18.317 86.804 11.6748 87 11.6748C87.588 11.6748 88.092 12.1329 88.68 12.1329C88.876 12.1329 89.044 11.9039 89.24 11.9039C89.436 11.9039 89.604 9.9407 89.8 9.9407C89.996 9.9407 90.164 10.6605 90.36 10.6605C90.556 10.6605 90.724 11.184 90.92 11.184C91.508 11.184 92.012 11.773 92.6 11.773C92.992 11.773 93.328 11.7076 93.72 11.7076C93.916 11.7076 94.084 12.5256 94.28 12.5256C94.476 12.5256 94.644 13.8344 94.84 13.8344C95.428 13.8344 95.932 11.2822 96.52 11.2822C96.912 11.2822 97.248 9.1227 97.64 9.1227C97.836 9.1227 98.004 11.0532 98.2 11.0532C98.396 11.0532 98.564 9.80982 98.76 9.80982C99.348 9.80982 99.852 10.4315 100.44 10.4315C100.636 10.4315 100.804 9.7771 101 9.7771C101.196 9.7771 101.364 8.07566 101.56 8.07566C101.756 8.07566 101.924 8.20654 102.12 8.20654C102.316 8.20654 102.484 9.9407 102.68 9.9407C103.268 9.9407 103.772 9.71166 104.36 9.71166C104.556 9.71166 104.724 9.74438 104.92 9.74438C105.116 9.74438 105.284 10.6278 105.48 10.6278C105.676 10.6278 105.844 11.1186 106.04 11.1186C106.236 11.1186 106.404 10.3006 106.6 10.3006C107.384 10.3006 108.056 10.3988 108.84 10.3988C109.036 10.3988 109.204 9.41718 109.4 9.41718C109.596 9.41718 109.764 9.90798 109.96 9.90798C110.156 9.90798 110.324 9.18814 110.52 9.18814C111.108 9.18814 111.612 9.4499 112.2 9.4499C112.396 9.4499 112.564 8.53374 112.76 8.53374C112.956 8.53374 113.124 10.4315 113.32 10.4315C113.516 10.4315 113.684 10.7914 113.88 10.7914C114.076 10.7914 114.244 9.1227 114.44 9.1227C115.028 9.1227 115.532 9.90798 116.12 9.90798C116.316 9.90798 116.484 8.56646 116.68 8.56646C116.876 8.56646 117.044 8.92638 117.24 8.92638C117.436 8.92638 117.604 10.0061 117.8 10.0061C117.996 10.0061 118.164 6.57055 118.36 6.57055C118.948 6.57055 119.452 8.1411 120.04 8.1411C120.236 8.1411 120.404 7.32311 120.6 7.32311C120.796 7.32311 120.964 7.58487 121.16 7.58487C121.356 7.58487 121.524 8.23926 121.72 8.23926C121.916 8.23926 122.084 8.17382 122.28 8.17382C123.064 8.17382 123.736 6.99591 124.52 6.99591C124.716 6.99591 124.884 7.71575 125.08 7.71575C125.276 7.71575 125.444 9.1227 125.64 9.1227C125.836 9.1227 126.004 8.43558 126.2 8.43558C126.788 8.43558 127.292 9.87526 127.88 9.87526C128.076 9.87526 128.244 8.3047 128.44 8.3047C128.636 8.3047 128.804 5 129 5" stroke="#008FFB"/>
</g>
</g>
<defs>
<linearGradient id="paint0_linear_7150_2567" x1="-95.001" y1="5.3186" x2="-95.001" y2="42.7297" gradientUnits="userSpaceOnUse">
<stop stop-color="#008FFB" stop-opacity="0.49"/>
<stop offset="1" stop-color="white" stop-opacity="0.81"/>
</linearGradient>
<clipPath id="clip0_7150_2567">
<rect width="132" height="47" fill="white"/>
</clipPath>
</defs>
</svg>
