<svg width="132" height="47" viewBox="0 0 132 47" fill="none" xmlns="http://www.w3.org/2000/svg">
<g clip-path="url(#clip0_7150_2530)">
<mask id="mask0_7150_2530" style="mask-type:luminance" maskUnits="userSpaceOnUse" x="-38" y="3" width="169" height="41">
<path d="M130.822 3.49146H-38V43.2669H130.822V3.49146Z" fill="white"/>
</mask>
<g mask="url(#mask0_7150_2530)">
<path d="M-53.7168 33.2157C-53.5563 33.2157 -53.4188 31.9579 -53.2583 31.9579C-53.0979 31.9579 -52.9603 32.4739 -52.7999 32.4739C-52.6394 32.4739 -52.5019 32.8932 -52.3414 32.8932C-51.86 32.8932 -51.4474 33.0544 -50.966 33.0544C-50.8056 33.0544 -50.668 33.2157 -50.5076 33.2157C-50.3471 33.2157 -50.2096 32.2804 -50.0491 32.2804C-49.8886 32.2804 -49.7511 32.1191 -49.5906 32.1191C-49.4302 32.1191 -49.2926 30.3131 -49.1322 30.3131C-48.6508 30.3131 -48.2382 30.2808 -47.7568 30.2808C-47.5963 30.2808 -47.4588 28.9263 -47.2983 28.9263C-47.1378 28.9263 -47.0003 29.5068 -46.8398 29.5068C-46.6794 29.5068 -46.5418 27.733 -46.3814 27.733C-46.2209 27.733 -46.0834 29.1521 -45.9229 29.1521C-45.4415 29.1521 -45.0289 28.7005 -44.5475 28.7005C-44.3871 28.7005 -44.2495 28.4103 -44.0891 28.4103C-43.9286 28.4103 -43.7911 28.3458 -43.6306 28.3458C-43.4701 28.3458 -43.3326 27.0557 -43.1721 27.0557C-43.0117 27.0557 -42.8741 27.4105 -42.7137 27.4105C-42.0718 27.4105 -41.5217 28.0878 -40.8798 28.0878C-40.7194 28.0878 -40.5818 28.765 -40.4214 28.765C-40.2609 28.765 -40.1234 26.701 -39.9629 26.701C-39.8024 26.701 -39.6649 25.2819 -39.5044 25.2819C-39.023 25.2819 -38.6104 25.7335 -38.129 25.7335C-37.9686 25.7335 -37.831 25.7335 -37.6706 25.7335C-37.5101 25.7335 -37.3726 26.959 -37.2121 26.959C-37.0517 26.959 -36.9141 26.2817 -36.7537 26.2817C-36.5932 26.2817 -36.4557 24.2499 -36.2952 24.2499C-35.8138 24.2499 -35.4012 25.8947 -34.9198 25.8947C-34.7593 25.8947 -34.6218 29.8616 -34.4613 29.8616C-34.3009 29.8616 -34.1633 28.507 -34.0029 28.507C-33.8424 28.507 -33.7049 26.443 -33.5444 26.443C-33.384 26.443 -33.2464 24.5402 -33.0859 24.5402C-32.6046 24.5402 -32.1919 24.7982 -31.7106 24.7982C-31.5501 24.7982 -31.4126 22.6696 -31.2521 22.6696C-31.0916 22.6696 -30.9541 24.1209 -30.7936 24.1209C-30.6332 24.1209 -30.4956 22.8309 -30.3352 22.8309C-30.1747 22.8309 -30.0372 23.9597 -29.8767 23.9597C-29.3953 23.9597 -28.9827 21.7343 -28.5013 21.7343C-28.3409 21.7343 -28.2033 26.0882 -28.0429 26.0882C-27.8824 26.0882 -27.7449 24.7982 -27.5844 24.7982C-27.4239 24.7982 -27.2864 24.3144 -27.1259 24.3144C-26.9655 24.3144 -26.8279 23.9919 -26.6675 23.9919C-26.1928 23.9919 -25.7859 22.0891 -25.3112 22.0891C-25.1507 22.0891 -25.0132 21.3473 -24.8527 21.3473C-24.6923 21.3473 -24.5547 21.8956 -24.3943 21.8956C-24.2338 21.8956 -24.0962 21.8311 -23.9358 21.8311C-23.7753 21.8311 -23.6378 22.3794 -23.4773 22.3794C-22.9959 22.3794 -22.5833 21.1216 -22.1019 21.1216C-21.9415 21.1216 -21.8039 22.3794 -21.6435 22.3794C-21.483 22.3794 -21.3455 25.1207 -21.185 25.1207C-21.0245 25.1207 -20.887 24.7014 -20.7265 24.7014C-20.0847 24.7014 -19.5345 25.8947 -18.8927 25.8947C-18.7322 25.8947 -18.5947 27.862 -18.4342 27.862C-18.2738 27.862 -18.1362 26.572 -17.9758 26.572C-17.8153 26.572 -17.6778 24.8304 -17.5173 24.8304C-17.3568 24.8304 -17.2193 26.0237 -17.0588 26.0237C-16.5774 26.0237 -16.1648 27.1202 -15.6834 27.1202C-15.523 27.1202 -15.3854 23.8952 -15.225 23.8952C-15.0645 23.8952 -14.927 25.3464 -14.7665 25.3464C-14.6061 25.3464 -14.4685 26.8945 -14.3081 26.8945C-14.1476 26.8945 -14.0101 26.4107 -13.8496 26.4107C-13.3682 26.4107 -12.9556 27.8298 -12.4742 27.8298C-12.3137 27.8298 -12.1762 28.5393 -12.0157 28.5393C-11.8553 28.5393 -11.7177 26.185 -11.5573 26.185C-11.3968 26.185 -11.2593 25.7657 -11.0988 25.7657C-10.9384 25.7657 -10.8008 24.7337 -10.6404 24.7337C-10.159 24.7337 -9.74635 24.8304 -9.26496 24.8304C-9.1045 24.8304 -8.96696 24.1209 -8.8065 24.1209C-8.64604 24.1209 -8.5085 24.1532 -8.34803 24.1532C-8.18757 24.1532 -8.05003 25.5722 -7.88957 25.5722C-7.72911 25.5722 -7.59157 27.862 -7.43111 27.862C-6.94972 27.862 -6.53711 28.1523 -6.05572 28.1523C-5.89526 28.1523 -5.75772 27.6685 -5.59726 27.6685C-5.43679 27.6685 -5.29926 28.1523 -5.13879 28.1523C-4.97833 28.1523 -4.84079 30.0873 -4.68032 30.0873C-4.51986 30.0873 -4.38232 29.1843 -4.22186 29.1843C-3.74048 29.1843 -3.32786 29.0876 -2.84648 29.0876C-2.68601 29.0876 -2.54848 28.765 -2.38802 28.765C-2.22755 28.765 -2.09002 28.6683 -1.92955 28.6683C-1.76909 28.6683 -1.63155 29.7971 -1.47108 29.7971C-1.31062 29.7971 -1.17308 32.0546 -1.01262 32.0546C-0.531235 32.0546 -0.118618 29.7971 0.36277 29.7971C0.523232 29.7971 0.660767 29.7971 0.821232 29.7971C0.981693 29.7971 1.11923 29.2488 1.27969 29.2488C1.44016 29.2488 1.5777 31.3129 1.73816 31.3129C1.89862 31.3129 2.03616 31.1194 2.19662 31.1194C2.83847 31.1194 3.38863 29.6681 4.03048 29.6681C4.19094 29.6681 4.32848 32.1191 4.48894 32.1191C4.6494 32.1191 4.78694 32.8932 4.9474 32.8932C5.10786 32.8932 5.2454 36.86 5.40586 36.86C5.88725 36.86 6.29987 35.2797 6.78125 35.2797C6.94172 35.2797 7.07925 34.0219 7.23972 34.0219C7.40018 34.0219 7.53772 30.8291 7.69818 30.8291C7.85864 30.8291 7.99618 32.0224 8.15664 32.0224C8.31711 32.0224 8.45464 30.9581 8.61511 30.9581C9.09649 30.9581 9.50911 32.6352 9.9905 32.6352C10.151 32.6352 10.2885 30.5711 10.449 30.5711C10.6094 30.5711 10.747 30.5066 10.9074 30.5066C11.0679 30.5066 11.2054 30.8936 11.3659 30.8936C11.5263 30.8936 11.6639 28.5715 11.8243 28.5715C12.3057 28.5715 12.7184 27.7975 13.1997 27.7975C13.3602 27.7975 13.4977 26.959 13.6582 26.959C13.8187 26.959 13.9562 29.8616 14.1167 29.8616C14.2771 29.8616 14.4147 32.3126 14.5751 32.3126C14.7356 32.3126 14.8731 31.2161 15.0336 31.2161C15.515 31.2161 15.9276 33.5704 16.409 33.5704C16.5694 33.5704 16.707 32.8287 16.8674 32.8287C17.0279 32.8287 17.1654 31.7321 17.3259 31.7321C17.4864 31.7321 17.6239 32.5062 17.7844 32.5062C17.9448 32.5062 18.0824 28.636 18.2428 28.636C18.7242 28.636 19.1368 29.2166 19.6182 29.2166C19.7787 29.2166 19.9162 28.1845 20.0767 28.1845C20.3976 28.1845 20.6727 28.12 20.9936 28.12C21.1541 28.12 21.2916 31.8611 21.4521 31.8611C21.9335 31.8611 22.3461 34.8927 22.8275 34.8927C22.9879 34.8927 23.1255 34.8605 23.2859 34.8605C23.4464 34.8605 23.5839 35.6345 23.7444 35.6345C23.9049 35.6345 24.0424 35.828 24.2029 35.828C24.3633 35.828 24.5009 34.1832 24.6613 34.1832C25.1427 34.1832 25.5553 34.9895 26.0367 34.9895C26.1972 34.9895 26.3347 34.1832 26.4952 34.1832C26.6556 34.1832 26.7932 31.6676 26.9536 31.6676C27.1141 31.6676 27.2516 30.1841 27.4121 30.1841C27.5726 30.1841 27.7101 31.8289 27.8706 31.8289C28.352 31.8289 28.7646 34.2155 29.2459 34.2155C29.4064 34.2155 29.544 36.215 29.7044 36.215C29.8649 36.215 30.0024 35.2152 30.1629 35.2152C30.3233 35.2152 30.4609 33.2157 30.6213 33.2157C30.7818 33.2157 30.9193 30.1841 31.0798 30.1841C31.5612 30.1841 31.9738 33.0222 32.4552 33.0222C32.6157 33.0222 32.7532 33.4414 32.9137 33.4414C33.0741 33.4414 33.2117 34.0542 33.3721 34.0542C33.5326 34.0542 33.6701 34.409 33.8306 34.409C33.9911 34.409 34.1286 29.7648 34.2891 29.7648C34.7704 29.7648 35.1831 29.3778 35.6644 29.3778C35.8249 29.3778 35.9624 28.636 36.1229 28.636C36.2834 28.636 36.4209 28.1845 36.5814 28.1845C36.7418 28.1845 36.8794 27.733 37.0398 27.733C37.2003 27.733 37.3378 27.7653 37.4983 27.7653C37.9797 27.7653 38.3923 28.9586 38.8737 28.9586C39.0341 28.9586 39.1717 29.5068 39.3321 29.5068C39.4926 29.5068 39.6301 26.8945 39.7906 26.8945C39.9511 26.8945 40.0886 24.5079 40.2491 24.5079C40.4095 24.5079 40.5471 24.0242 40.7075 24.0242C41.1889 24.0242 41.6015 23.6371 42.0829 23.6371C42.2434 23.6371 42.3809 24.1854 42.5414 24.1854C42.7019 24.1854 42.8394 23.8952 42.9999 23.8952C43.1603 23.8952 43.2979 24.9917 43.4583 24.9917C43.6188 24.9917 43.7563 28.9908 43.9168 28.9908C44.3982 28.9908 44.8108 28.7973 45.2922 28.7973C45.4526 28.7973 45.5902 29.6358 45.7506 29.6358C45.9111 29.6358 46.0486 29.9583 46.2091 29.9583C46.3696 29.9583 46.5071 31.5709 46.6676 31.5709C46.828 31.5709 46.9656 32.1836 47.126 32.1836C47.7679 32.1836 48.318 31.6676 48.9599 31.6676C49.1203 31.6676 49.2579 28.9908 49.4183 28.9908C49.5788 28.9908 49.7163 27.2815 49.8768 27.2815C50.0373 27.2815 50.1748 28.3458 50.3353 28.3458C50.8167 28.3458 51.2293 29.4101 51.7107 29.4101C51.8711 29.4101 52.0087 28.4425 52.1691 28.4425C52.3296 28.4425 52.4671 28.4748 52.6276 28.4748C52.788 28.4748 52.9256 27.217 53.086 27.217C53.2465 27.217 53.384 25.5077 53.5445 25.5077C54.0259 25.5077 54.4385 25.2819 54.9199 25.2819C55.0804 25.2819 55.2179 27.991 55.3784 27.991C55.5388 27.991 55.6764 26.2172 55.8368 26.2172C55.9973 26.2172 56.1348 21.6698 56.2953 21.6698C56.4558 21.6698 56.5933 23.9274 56.7538 23.9274C57.2351 23.9274 57.6478 25.2819 58.1291 25.2819C58.2896 25.2819 58.4271 26.9267 58.5876 26.9267C58.7481 26.9267 58.8856 28.12 59.0461 28.12C59.2065 28.12 59.3441 27.2492 59.5045 27.2492C59.665 27.2492 59.8025 28.4103 59.963 28.4103C60.4444 28.4103 60.857 27.8298 61.3384 27.8298C61.4988 27.8298 61.6364 27.991 61.7968 27.991C61.9573 27.991 62.0948 27.8943 62.2553 27.8943C62.4158 27.8943 62.5533 27.6363 62.7138 27.6363C62.8742 27.6363 63.0118 28.3135 63.1722 28.3135C63.6536 28.3135 64.0662 29.0876 64.5476 29.0876C64.7081 29.0876 64.8456 30.8614 65.0061 30.8614C65.1666 30.8614 65.3041 31.4096 65.4646 31.4096C65.625 31.4096 65.7626 30.5388 65.923 30.5388C66.0835 30.5388 66.221 30.0228 66.3815 30.0228C66.8629 30.0228 67.2755 28.765 67.7569 28.765C67.9173 28.765 68.0549 25.8302 68.2153 25.8302C68.3758 25.8302 68.5133 25.1852 68.6738 25.1852C68.8343 25.1852 68.9718 25.0562 69.1323 25.0562C69.2927 25.0562 69.4303 25.8302 69.5907 25.8302C70.0721 25.8302 70.4847 25.0239 70.9661 25.0239C71.1266 25.0239 71.2641 25.6044 71.4246 25.6044C71.585 25.6044 71.7226 25.4432 71.883 25.4432C72.0435 25.4432 72.181 25.3142 72.3415 25.3142C72.502 25.3142 72.6395 23.3469 72.8 23.3469C73.609 23.3469 74.3024 23.3146 75.1114 23.3146C75.2718 23.3146 75.4094 22.2181 75.5698 22.2181C75.7303 22.2181 75.8678 22.1213 76.0283 22.1213C76.5097 22.1213 76.9223 22.6051 77.4037 22.6051C77.5642 22.6051 77.7017 22.1213 77.8622 22.1213C78.0226 22.1213 78.1602 25.0884 78.3206 25.0884C78.4811 25.0884 78.6186 26.6687 78.7791 26.6687C78.9396 26.6687 79.0771 26.9267 79.2376 26.9267C79.7189 26.9267 80.1316 27.5718 80.6129 27.5718C80.7734 27.5718 80.9109 28.0878 81.0714 28.0878C81.2319 28.0878 81.3694 29.0876 81.5299 29.0876C81.6903 29.0876 81.8279 27.7653 81.9883 27.7653C82.1488 27.7653 82.2863 27.733 82.4468 27.733C82.9282 27.733 83.3408 26.8622 83.8222 26.8622C83.9826 26.8622 84.1202 27.7653 84.2806 27.7653C84.4411 27.7653 84.5787 27.1202 84.7391 27.1202C85.06 27.1202 85.3351 25.3142 85.6561 25.3142C86.1374 25.3142 86.55 25.6367 87.0314 25.6367C87.1919 25.6367 87.3294 26.0237 87.4899 26.0237C87.6504 26.0237 87.7879 23.7661 87.9484 23.7661C88.1088 23.7661 88.2464 23.0889 88.4068 23.0889C88.5673 23.0889 88.7048 21.4118 88.8653 21.4118C89.3467 21.4118 89.7593 21.1216 90.2407 21.1216C90.4011 21.1216 90.5387 19.1865 90.6991 19.1865C90.8596 19.1865 90.9971 18.864 91.1576 18.864C91.3181 18.864 91.4556 19.7025 91.6161 19.7025C91.7765 19.7025 91.9141 18.606 92.0745 18.606C92.5559 18.606 92.9685 17.7352 93.4499 17.7352C93.6104 17.7352 93.7479 18.4125 93.9084 18.4125C94.0688 18.4125 94.2064 17.058 94.3669 17.058C94.5273 17.058 94.6648 18.4447 94.8253 18.4447C94.9858 18.4447 95.1233 11.8978 95.2838 11.8978C95.7652 11.8978 96.1778 12.3493 96.6592 12.3493C96.8196 12.3493 96.9572 12.1236 97.1176 12.1236C97.2781 12.1236 97.4156 10.1885 97.5761 10.1885C97.7365 10.1885 97.8741 10.898 98.0345 10.898C98.195 10.898 98.3326 11.414 98.493 11.414C98.9744 11.414 99.387 11.9946 99.8684 11.9946C100.189 11.9946 100.464 11.93 100.785 11.93C100.946 11.93 101.083 12.7363 101.244 12.7363C101.404 12.7363 101.542 14.0264 101.702 14.0264C102.184 14.0264 102.596 11.5108 103.078 11.5108C103.399 11.5108 103.674 9.38222 103.995 9.38222C104.155 9.38222 104.293 11.285 104.453 11.285C104.613 11.285 104.751 10.0595 104.911 10.0595C105.393 10.0595 105.805 10.6723 106.287 10.6723C106.447 10.6723 106.585 10.0272 106.745 10.0272C106.906 10.0272 107.043 8.35019 107.204 8.35019C107.364 8.35019 107.502 8.4792 107.662 8.4792C107.823 8.4792 107.96 10.1885 108.121 10.1885C108.602 10.1885 109.015 9.96274 109.496 9.96274C109.657 9.96274 109.794 9.99499 109.955 9.99499C110.115 9.99499 110.253 10.8658 110.413 10.8658C110.574 10.8658 110.711 11.3495 110.872 11.3495C111.032 11.3495 111.17 10.5433 111.33 10.5433C111.972 10.5433 112.522 10.64 113.164 10.64C113.324 10.64 113.462 9.67248 113.622 9.67248C113.783 9.67248 113.92 10.1562 114.081 10.1562C114.241 10.1562 114.379 9.44672 114.539 9.44672C115.021 9.44672 115.433 9.70473 115.915 9.70473C116.075 9.70473 116.213 8.80171 116.373 8.80171C116.534 8.80171 116.671 10.6723 116.832 10.6723C116.992 10.6723 117.13 11.027 117.29 11.027C117.45 11.027 117.588 9.38222 117.748 9.38222C118.23 9.38222 118.642 10.1562 119.124 10.1562C119.284 10.1562 119.422 8.83396 119.582 8.83396C119.743 8.83396 119.88 9.18872 120.041 9.18872C120.201 9.18872 120.339 10.253 120.499 10.253C120.66 10.253 120.797 6.86665 120.958 6.86665C121.439 6.86665 121.852 8.41469 122.333 8.41469C122.494 8.41469 122.631 7.60842 122.792 7.60842C122.952 7.60842 123.09 7.86643 123.25 7.86643C123.41 7.86643 123.548 8.51145 123.708 8.51145C123.869 8.51145 124.006 8.44695 124.167 8.44695C124.809 8.44695 125.359 7.28591 126.001 7.28591C126.161 7.28591 126.299 7.99543 126.459 7.99543C126.62 7.99543 126.757 9.38222 126.918 9.38222C127.078 9.38222 127.216 8.70495 127.376 8.70495C127.858 8.70495 128.27 10.124 128.752 10.124C128.912 10.124 129.05 8.57595 129.21 8.57595C129.371 8.57595 129.508 5.3186 129.669 5.3186C129.669 5.3186 129.669 5.31861 129.669 42.7297H-53.7168V33.2157Z" fill="url(#paint0_linear_7150_2530)"/>
</g>
<mask id="mask1_7150_2530" style="mask-type:luminance" maskUnits="userSpaceOnUse" x="23" y="3" width="108" height="40">
<path d="M131 3H23.9297V43H131V3Z" fill="white"/>
</mask>
<g mask="url(#mask1_7150_2530)">
<path d="M-53.7168 33.3027C-53.5566 33.3027 -53.4193 32.0266 -53.2591 32.0266C-53.0989 32.0266 -52.9616 32.5501 -52.8014 32.5501C-52.6412 32.5501 -52.5039 32.9755 -52.3437 32.9755C-51.8631 32.9755 -51.4512 33.1391 -50.9706 33.1391C-50.8104 33.1391 -50.6731 33.3027 -50.5129 33.3027C-50.3527 33.3027 -50.2154 32.3538 -50.0552 32.3538C-49.895 32.3538 -49.7577 32.1902 -49.5975 32.1902C-49.4373 32.1902 -49.3 30.3579 -49.1398 30.3579C-48.6592 30.3579 -48.2472 30.3252 -47.7666 30.3252C-47.6065 30.3252 -47.4691 28.9509 -47.3089 28.9509C-47.1487 28.9509 -47.0114 29.5399 -46.8512 29.5399C-46.691 29.5399 -46.5537 27.7403 -46.3935 27.7403C-46.2333 27.7403 -46.096 29.18 -45.9358 29.18C-45.4552 29.18 -45.0433 28.7219 -44.5627 28.7219C-44.4025 28.7219 -44.2652 28.4274 -44.105 28.4274C-43.9448 28.4274 -43.8075 28.362 -43.6473 28.362C-43.4871 28.362 -43.3498 27.0532 -43.1896 27.0532C-43.0294 27.0532 -42.8921 27.4131 -42.7319 27.4131C-42.0911 27.4131 -41.5419 28.1002 -40.9011 28.1002C-40.7409 28.1002 -40.6036 28.7873 -40.4434 28.7873C-40.2832 28.7873 -40.1459 26.6933 -39.9857 26.6933C-39.8255 26.6933 -39.6882 25.2536 -39.528 25.2536C-39.0474 25.2536 -38.6355 25.7117 -38.1549 25.7117C-37.9947 25.7117 -37.8574 25.7117 -37.6972 25.7117C-37.537 25.7117 -37.3997 26.955 -37.2395 26.955C-37.0793 26.955 -36.942 26.2679 -36.7818 26.2679C-36.6216 26.2679 -36.4843 24.2065 -36.3241 24.2065C-35.8435 24.2065 -35.4315 25.8753 -34.9509 25.8753C-34.7907 25.8753 -34.6534 29.8998 -34.4932 29.8998C-34.333 29.8998 -34.1957 28.5256 -34.0355 28.5256C-33.8753 28.5256 -33.738 26.4315 -33.5778 26.4315C-33.4176 26.4315 -33.2803 24.501 -33.1201 24.501C-32.6395 24.501 -32.2276 24.7628 -31.747 24.7628C-31.5868 24.7628 -31.4495 22.6033 -31.2893 22.6033C-31.1291 22.6033 -30.9918 24.0757 -30.8316 24.0757C-30.6714 24.0757 -30.5341 22.7669 -30.3739 22.7669C-30.2137 22.7669 -30.0764 23.9121 -29.9162 23.9121C-29.4356 23.9121 -29.0237 21.6544 -28.5431 21.6544C-28.3829 21.6544 -28.2456 26.0716 -28.0854 26.0716C-27.9252 26.0716 -27.7879 24.7628 -27.6277 24.7628C-27.4675 24.7628 -27.3302 24.272 -27.17 24.272C-27.0098 24.272 -26.8725 23.9448 -26.7123 23.9448C-26.2384 23.9448 -25.8322 22.0143 -25.3582 22.0143C-25.198 22.0143 -25.0607 21.2618 -24.9005 21.2618C-24.7403 21.2618 -24.603 21.818 -24.4428 21.818C-24.2826 21.818 -24.1453 21.7526 -23.9851 21.7526C-23.8249 21.7526 -23.6876 22.3088 -23.5274 22.3088C-23.0468 22.3088 -22.6349 21.0327 -22.1543 21.0327C-21.9941 21.0327 -21.8568 22.3088 -21.6966 22.3088C-21.5364 22.3088 -21.3991 25.09 -21.2389 25.09C-21.0787 25.09 -20.9414 24.6646 -20.7812 24.6646C-20.1404 24.6646 -19.5912 25.8753 -18.9504 25.8753C-18.7902 25.8753 -18.6529 27.8712 -18.4927 27.8712C-18.3325 27.8712 -18.1952 26.5624 -18.035 26.5624C-17.8748 26.5624 -17.7375 24.7955 -17.5773 24.7955C-17.4171 24.7955 -17.2798 26.0061 -17.1196 26.0061C-16.639 26.0061 -16.227 27.1186 -15.7465 27.1186C-15.5863 27.1186 -15.449 23.8466 -15.2888 23.8466C-15.1286 23.8466 -14.9913 25.319 -14.8311 25.319C-14.6709 25.319 -14.5335 26.8896 -14.3734 26.8896C-14.2132 26.8896 -14.0758 26.3988 -13.9156 26.3988C-13.4351 26.3988 -13.0231 27.8384 -12.5425 27.8384C-12.3823 27.8384 -12.245 28.5583 -12.0848 28.5583C-11.9246 28.5583 -11.7873 26.1697 -11.6271 26.1697C-11.4669 26.1697 -11.3296 25.7444 -11.1694 25.7444C-11.0092 25.7444 -10.8719 24.6973 -10.7117 24.6973C-10.2311 24.6973 -9.8192 24.7955 -9.33861 24.7955C-9.17841 24.7955 -9.0411 24.0757 -8.88091 24.0757C-8.72071 24.0757 -8.5834 24.1084 -8.4232 24.1084C-8.263 24.1084 -8.12569 25.5481 -7.9655 25.5481C-7.8053 25.5481 -7.66799 27.8712 -7.50779 27.8712C-7.02721 27.8712 -6.61527 28.1656 -6.13469 28.1656C-5.97449 28.1656 -5.83718 27.6748 -5.67698 27.6748C-5.51678 27.6748 -5.37947 28.1656 -5.21928 28.1656C-5.05908 28.1656 -4.92177 30.1288 -4.76157 30.1288C-4.60137 30.1288 -4.46406 29.2127 -4.30387 29.2127C-3.82328 29.2127 -3.41135 29.1145 -2.93076 29.1145C-2.77056 29.1145 -2.63325 28.7873 -2.47306 28.7873C-2.31286 28.7873 -2.17555 28.6892 -2.01535 28.6892C-1.85516 28.6892 -1.71784 29.8344 -1.55765 29.8344C-1.39745 29.8344 -1.26014 32.1247 -1.09994 32.1247C-0.619355 32.1247 -0.20742 29.8344 0.273169 29.8344C0.433365 29.8344 0.570675 29.8344 0.730872 29.8344C0.891068 29.8344 1.02838 29.2781 1.18857 29.2781C1.34877 29.2781 1.48609 31.3722 1.64628 31.3722C1.80648 31.3722 1.94379 31.1759 2.10398 31.1759C2.74477 31.1759 3.29401 29.7035 3.9348 29.7035C4.095 29.7035 4.23231 32.1902 4.3925 32.1902C4.5527 32.1902 4.69001 32.9755 4.8502 32.9755C5.0104 32.9755 5.14771 37 5.30791 37C5.7885 37 6.20043 35.3967 6.68102 35.3967C6.84122 35.3967 6.97853 34.1207 7.13872 34.1207C7.29892 34.1207 7.43623 30.8814 7.59643 30.8814C7.75663 30.8814 7.89394 32.092 8.05413 32.092C8.21433 32.092 8.35164 31.0123 8.51183 31.0123C8.99242 31.0123 9.40436 32.7137 9.88495 32.7137C10.0451 32.7137 10.1825 30.6196 10.3426 30.6196C10.5028 30.6196 10.6402 30.5542 10.8004 30.5542C10.9605 30.5542 11.0979 30.9468 11.2581 30.9468C11.4183 30.9468 11.5556 28.591 11.7158 28.591C12.1964 28.591 12.6083 27.8057 13.0889 27.8057C13.2491 27.8057 13.3864 26.955 13.5466 26.955C13.7068 26.955 13.8441 29.8998 14.0043 29.8998C14.1645 29.8998 14.3018 32.3865 14.462 32.3865C14.6222 32.3865 14.7595 31.274 14.9197 31.274C15.4003 31.274 15.8122 33.6626 16.2928 33.6626C16.453 33.6626 16.5903 32.91 16.7505 32.91C16.9107 32.91 17.048 31.7975 17.2082 31.7975C17.3684 31.7975 17.5057 32.5828 17.6659 32.5828C17.8261 32.5828 17.9634 28.6564 18.1236 28.6564C18.6042 28.6564 19.0161 29.2454 19.4967 29.2454C19.6569 29.2454 19.7942 28.1984 19.9544 28.1984C20.2748 28.1984 20.5494 28.1329 20.8698 28.1329C21.03 28.1329 21.1673 31.9284 21.3275 31.9284C21.8081 31.9284 22.2201 35.0041 22.7006 35.0041C22.8608 35.0041 22.9982 34.9714 23.1584 34.9714C23.3186 34.9714 23.4559 35.7566 23.6161 35.7566C23.7763 35.7566 23.9136 35.953 24.0738 35.953C24.234 35.953 24.3713 34.2843 24.5315 34.2843C25.0121 34.2843 25.424 35.1022 25.9046 35.1022C26.0648 35.1022 26.2021 34.2843 26.3623 34.2843C26.5225 34.2843 26.6598 31.7321 26.82 31.7321C26.9802 31.7321 27.1175 30.227 27.2777 30.227C27.4379 30.227 27.5752 31.8957 27.7354 31.8957C28.216 31.8957 28.6279 34.317 29.1085 34.317C29.2687 34.317 29.406 36.3456 29.5662 36.3456C29.7264 36.3456 29.8637 35.3313 30.0239 35.3313C30.1841 35.3313 30.3214 33.3027 30.4816 33.3027C30.6418 33.3027 30.7791 30.227 30.9393 30.227C31.4199 30.227 31.8318 33.1063 32.3124 33.1063C32.4726 33.1063 32.6099 33.5317 32.7701 33.5317C32.9303 33.5317 33.0676 34.1534 33.2278 34.1534C33.388 34.1534 33.5253 34.5133 33.6855 34.5133C33.8457 34.5133 33.983 29.8016 34.1432 29.8016C34.6238 29.8016 35.0358 29.409 35.5164 29.409C35.6766 29.409 35.8139 28.6564 35.9741 28.6564C36.1343 28.6564 36.2716 28.1984 36.4318 28.1984C36.592 28.1984 36.7293 27.7403 36.8895 27.7403C37.0497 27.7403 37.187 27.773 37.3472 27.773C37.8278 27.773 38.2397 28.9836 38.7203 28.9836C38.8805 28.9836 39.0178 29.5399 39.178 29.5399C39.3382 29.5399 39.4755 26.8896 39.6357 26.8896C39.7959 26.8896 39.9332 24.4683 40.0934 24.4683C40.2536 24.4683 40.3909 23.9775 40.5511 23.9775C41.0317 23.9775 41.4436 23.5849 41.9242 23.5849C42.0844 23.5849 42.2217 24.1411 42.3819 24.1411C42.5421 24.1411 42.6794 23.8466 42.8396 23.8466C42.9998 23.8466 43.1371 24.9591 43.2973 24.9591C43.4575 24.9591 43.5948 29.0164 43.755 29.0164C44.2356 29.0164 44.6475 28.82 45.1281 28.82C45.2883 28.82 45.4256 29.6708 45.5858 29.6708C45.746 29.6708 45.8833 29.998 46.0435 29.998C46.2037 29.998 46.341 31.6339 46.5012 31.6339C46.6614 31.6339 46.7987 32.2556 46.9589 32.2556C47.5997 32.2556 48.149 31.7321 48.7898 31.7321C48.95 31.7321 49.0873 29.0164 49.2475 29.0164C49.4077 29.0164 49.545 27.2822 49.7052 27.2822C49.8654 27.2822 50.0027 28.362 50.1629 28.362C50.6435 28.362 51.0554 29.4417 51.536 29.4417C51.6962 29.4417 51.8335 28.4601 51.9937 28.4601C52.1539 28.4601 52.2912 28.4928 52.4514 28.4928C52.6116 28.4928 52.7489 27.2168 52.9091 27.2168C53.0693 27.2168 53.2066 25.4826 53.3668 25.4826C53.8474 25.4826 54.2593 25.2536 54.7399 25.2536C54.9001 25.2536 55.0374 28.002 55.1976 28.002C55.3578 28.002 55.4951 26.2025 55.6553 26.2025C55.8155 26.2025 55.9528 21.589 56.113 21.589C56.2732 21.589 56.4105 23.8793 56.5707 23.8793C57.0513 23.8793 57.4632 25.2536 57.9438 25.2536C58.104 25.2536 58.2413 26.9223 58.4015 26.9223C58.5617 26.9223 58.699 28.1329 58.8592 28.1329C59.0194 28.1329 59.1567 27.2495 59.3169 27.2495C59.4771 27.2495 59.6145 28.4274 59.7746 28.4274C60.2552 28.4274 60.6672 27.8384 61.1478 27.8384C61.308 27.8384 61.4453 28.002 61.6055 28.002C61.7657 28.002 61.903 27.9039 62.0632 27.9039C62.2234 27.9039 62.3607 27.6421 62.5209 27.6421C62.6811 27.6421 62.8184 28.3292 62.9786 28.3292C63.4592 28.3292 63.8711 29.1145 64.3517 29.1145C64.5119 29.1145 64.6492 30.9141 64.8094 30.9141C64.9696 30.9141 65.1069 31.4703 65.2671 31.4703C65.4273 31.4703 65.5646 30.5869 65.7248 30.5869C65.885 30.5869 66.0223 30.0634 66.1825 30.0634C66.6631 30.0634 67.075 28.7873 67.5556 28.7873C67.7158 28.7873 67.8531 25.8098 68.0133 25.8098C68.1735 25.8098 68.3108 25.1554 68.471 25.1554C68.6312 25.1554 68.7685 25.0245 68.9287 25.0245C69.0889 25.0245 69.2262 25.8098 69.3864 25.8098C69.867 25.8098 70.2789 24.9918 70.7595 24.9918C70.9197 24.9918 71.057 25.5808 71.2172 25.5808C71.3774 25.5808 71.5148 25.4172 71.675 25.4172C71.8351 25.4172 71.9725 25.2863 72.1327 25.2863C72.2929 25.2863 72.4302 23.2904 72.5904 23.2904C73.398 23.2904 74.0903 23.2577 74.8979 23.2577C75.0581 23.2577 75.1954 22.1452 75.3556 22.1452C75.5158 22.1452 75.6531 22.047 75.8133 22.047C76.2939 22.047 76.7059 22.5378 77.1865 22.5378C77.3467 22.5378 77.484 22.047 77.6442 22.047C77.8044 22.047 77.9417 25.0573 78.1019 25.0573C78.2621 25.0573 78.3994 26.6605 78.5596 26.6605C78.7198 26.6605 78.8571 26.9223 79.0173 26.9223C79.4979 26.9223 79.9098 27.5767 80.3904 27.5767C80.5506 27.5767 80.6879 28.1002 80.8481 28.1002C81.0083 28.1002 81.1456 29.1145 81.3058 29.1145C81.466 29.1145 81.6033 27.773 81.7635 27.773C81.9237 27.773 82.061 27.7403 82.2212 27.7403C82.7018 27.7403 83.1137 26.8569 83.5943 26.8569C83.7545 26.8569 83.8918 27.773 84.052 27.773C84.2122 27.773 84.3495 27.1186 84.5097 27.1186C84.8301 27.1186 85.1047 25.2863 85.4251 25.2863C85.9057 25.2863 86.3177 25.6135 86.7982 25.6135C86.9584 25.6135 87.0957 26.0061 87.2559 26.0061C87.4161 26.0061 87.5535 23.7157 87.7136 23.7157C87.8738 23.7157 88.0112 23.0286 88.1713 23.0286C88.3315 23.0286 88.4689 21.3272 88.6291 21.3272C89.1096 21.3272 89.5216 21.0327 90.0022 21.0327C90.1624 21.0327 90.2997 19.0695 90.4599 19.0695C90.6201 19.0695 90.7574 18.7423 90.9176 18.7423C91.0778 18.7423 91.2151 19.593 91.3753 19.593C91.5355 19.593 91.6728 18.4806 91.833 18.4806C92.3136 18.4806 92.7255 17.5971 93.2061 17.5971C93.3663 17.5971 93.5036 18.2843 93.6638 18.2843C93.824 18.2843 93.9613 16.91 94.1215 16.91C94.2817 16.91 94.419 18.317 94.5792 18.317C94.7394 18.317 94.8767 11.6748 95.0369 11.6748C95.5175 11.6748 95.9294 12.1329 96.41 12.1329C96.5702 12.1329 96.7075 11.9039 96.8677 11.9039C97.0279 11.9039 97.1652 9.9407 97.3254 9.9407C97.4856 9.9407 97.6229 10.6605 97.7831 10.6605C97.9433 10.6605 98.0806 11.184 98.2408 11.184C98.7214 11.184 99.1333 11.773 99.6139 11.773C99.9343 11.773 100.209 11.7076 100.529 11.7076C100.69 11.7076 100.827 12.5256 100.987 12.5256C101.147 12.5256 101.285 13.8344 101.445 13.8344C101.925 13.8344 102.337 11.2822 102.818 11.2822C103.138 11.2822 103.413 9.1227 103.733 9.1227C103.893 9.1227 104.031 11.0532 104.191 11.0532C104.351 11.0532 104.488 9.80982 104.649 9.80982C105.129 9.80982 105.541 10.4315 106.022 10.4315C106.182 10.4315 106.319 9.7771 106.479 9.7771C106.64 9.7771 106.777 8.07566 106.937 8.07566C107.097 8.07566 107.235 8.20654 107.395 8.20654C107.555 8.20654 107.692 9.9407 107.853 9.9407C108.333 9.9407 108.745 9.71166 109.226 9.71166C109.386 9.71166 109.523 9.74438 109.683 9.74438C109.844 9.74438 109.981 10.6278 110.141 10.6278C110.301 10.6278 110.439 11.1186 110.599 11.1186C110.759 11.1186 110.896 10.3006 111.057 10.3006C111.697 10.3006 112.247 10.3988 112.887 10.3988C113.048 10.3988 113.185 9.41718 113.345 9.41718C113.505 9.41718 113.643 9.90798 113.803 9.90798C113.963 9.90798 114.1 9.18814 114.26 9.18814C114.741 9.18814 115.153 9.4499 115.634 9.4499C115.794 9.4499 115.931 8.53374 116.091 8.53374C116.251 8.53374 116.389 10.4315 116.549 10.4315C116.709 10.4315 116.846 10.7914 117.007 10.7914C117.167 10.7914 117.304 9.1227 117.464 9.1227C117.945 9.1227 118.357 9.90798 118.837 9.90798C118.998 9.90798 119.135 8.56646 119.295 8.56646C119.455 8.56646 119.593 8.92638 119.753 8.92638C119.913 8.92638 120.05 10.0061 120.211 10.0061C120.371 10.0061 120.508 6.57055 120.668 6.57055C121.149 6.57055 121.561 8.1411 122.041 8.1411C122.202 8.1411 122.339 7.32311 122.499 7.32311C122.659 7.32311 122.797 7.58487 122.957 7.58487C123.117 7.58487 123.254 8.23926 123.415 8.23926C123.575 8.23926 123.712 8.17382 123.872 8.17382C124.513 8.17382 125.062 6.99591 125.703 6.99591C125.863 6.99591 126.001 7.71575 126.161 7.71575C126.321 7.71575 126.458 9.1227 126.618 9.1227C126.779 9.1227 126.916 8.43558 127.076 8.43558C127.557 8.43558 127.969 9.87526 128.449 9.87526C128.609 9.87526 128.747 8.3047 128.907 8.3047C129.067 8.3047 129.204 5 129.365 5" stroke="#008FFB"/>
</g>
</g>
<defs>
<linearGradient id="paint0_linear_7150_2530" x1="-53.7168" y1="5.3186" x2="-53.7168" y2="42.7297" gradientUnits="userSpaceOnUse">
<stop stop-color="#008FFB" stop-opacity="0.49"/>
<stop offset="1" stop-color="white" stop-opacity="0.81"/>
</linearGradient>
<clipPath id="clip0_7150_2530">
<rect width="132" height="47" fill="white"/>
</clipPath>
</defs>
</svg>
