<svg width="132" height="47" viewBox="0 0 132 47" fill="none" xmlns="http://www.w3.org/2000/svg">
<g clip-path="url(#clip0_7150_2306)">
<mask id="mask0_7150_2306" style="mask-type:luminance" maskUnits="userSpaceOnUse" x="-64" y="3" width="345" height="41">
<path d="M-63.1377 3.99146V42.7668H280.5V3.99146H-63.1377Z" fill="white" stroke="white"/>
</mask>
<g mask="url(#mask0_7150_2306)">
<path d="M313.084 33.2157C312.756 33.2157 312.476 31.9579 312.148 31.9579C311.82 31.9579 311.54 32.4739 311.212 32.4739C310.885 32.4739 310.604 32.8932 310.276 32.8932C309.294 32.8932 308.451 33.0544 307.468 33.0544C307.141 33.0544 306.86 33.2157 306.533 33.2157C306.205 33.2157 305.924 32.2804 305.597 32.2804C305.269 32.2804 304.988 32.1191 304.661 32.1191C304.333 32.1191 304.052 30.3131 303.725 30.3131C302.742 30.3131 301.9 30.2808 300.917 30.2808C300.59 30.2808 300.309 28.9263 299.981 28.9263C299.654 28.9263 299.373 29.5068 299.045 29.5068C298.718 29.5068 298.437 27.733 298.109 27.733C297.782 27.733 297.501 29.1521 297.173 29.1521C296.191 29.1521 295.348 28.7005 294.366 28.7005C294.038 28.7005 293.757 28.4103 293.43 28.4103C293.102 28.4103 292.821 28.3458 292.494 28.3458C292.166 28.3458 291.885 27.0557 291.558 27.0557C291.23 27.0557 290.95 27.4105 290.622 27.4105C289.312 27.4105 288.189 28.0878 286.878 28.0878C286.551 28.0878 286.27 28.765 285.942 28.765C285.615 28.765 285.334 26.701 285.007 26.701C284.679 26.701 284.398 25.2819 284.071 25.2819C283.088 25.2819 282.246 25.7335 281.263 25.7335C280.935 25.7335 280.655 25.7335 280.327 25.7335C279.999 25.7335 279.719 26.959 279.391 26.959C279.063 26.959 278.783 26.2817 278.455 26.2817C278.128 26.2817 277.847 24.2499 277.519 24.2499C276.536 24.2499 275.694 25.8947 274.711 25.8947C274.384 25.8947 274.103 29.8616 273.776 29.8616C273.448 29.8616 273.167 28.507 272.84 28.507C272.512 28.507 272.231 26.443 271.904 26.443C271.576 26.443 271.295 24.5402 270.968 24.5402C269.985 24.5402 269.143 24.7982 268.16 24.7982C267.832 24.7982 267.552 22.6696 267.224 22.6696C266.897 22.6696 266.616 24.1209 266.288 24.1209C265.961 24.1209 265.68 22.8309 265.352 22.8309C265.025 22.8309 264.744 23.9597 264.416 23.9597C263.434 23.9597 262.591 21.7343 261.609 21.7343C261.281 21.7343 261 26.0882 260.673 26.0882C260.345 26.0882 260.064 24.7982 259.737 24.7982C259.409 24.7982 259.128 24.3144 258.801 24.3144C258.473 24.3144 258.193 23.9919 257.865 23.9919C256.896 23.9919 256.065 22.0891 255.096 22.0891C254.769 22.0891 254.488 21.3473 254.16 21.3473C253.833 21.3473 253.552 21.8956 253.224 21.8956C252.897 21.8956 252.616 21.8311 252.288 21.8311C251.961 21.8311 251.68 22.3794 251.353 22.3794C250.37 22.3794 249.528 21.1216 248.545 21.1216C248.217 21.1216 247.936 22.3794 247.609 22.3794C247.281 22.3794 247.001 25.1207 246.673 25.1207C246.345 25.1207 246.065 24.7014 245.737 24.7014C244.427 24.7014 243.304 25.8947 241.993 25.8947C241.666 25.8947 241.385 27.862 241.057 27.862C240.73 27.862 240.449 26.572 240.122 26.572C239.794 26.572 239.513 24.8304 239.186 24.8304C238.858 24.8304 238.577 26.0237 238.25 26.0237C237.267 26.0237 236.425 27.1202 235.442 27.1202C235.114 27.1202 234.834 23.8952 234.506 23.8952C234.178 23.8952 233.898 25.3464 233.57 25.3464C233.243 25.3464 232.962 26.8945 232.634 26.8945C232.307 26.8945 232.026 26.4107 231.698 26.4107C230.716 26.4107 229.873 27.8298 228.891 27.8298C228.563 27.8298 228.282 28.5393 227.955 28.5393C227.627 28.5393 227.346 26.185 227.019 26.185C226.691 26.185 226.41 25.7657 226.083 25.7657C225.755 25.7657 225.474 24.7337 225.147 24.7337C224.164 24.7337 223.322 24.8304 222.339 24.8304C222.012 24.8304 221.731 24.1209 221.403 24.1209C221.076 24.1209 220.795 24.1532 220.467 24.1532C220.14 24.1532 219.859 25.5722 219.531 25.5722C219.204 25.5722 218.923 27.862 218.595 27.862C217.613 27.862 216.77 28.1523 215.788 28.1523C215.46 28.1523 215.179 27.6685 214.852 27.6685C214.524 27.6685 214.243 28.1523 213.916 28.1523C213.588 28.1523 213.308 30.0873 212.98 30.0873C212.652 30.0873 212.372 29.1843 212.044 29.1843C211.061 29.1843 210.219 29.0876 209.236 29.0876C208.909 29.0876 208.628 28.765 208.3 28.765C207.973 28.765 207.692 28.6683 207.365 28.6683C207.037 28.6683 206.756 29.7971 206.429 29.7971C206.101 29.7971 205.82 32.0546 205.493 32.0546C204.51 32.0546 203.668 29.7971 202.685 29.7971C202.357 29.7971 202.077 29.7971 201.749 29.7971C201.421 29.7971 201.141 29.2488 200.813 29.2488C200.486 29.2488 200.205 31.3129 199.877 31.3129C199.55 31.3129 199.269 31.1194 198.941 31.1194C197.631 31.1194 196.508 29.6681 195.198 29.6681C194.87 29.6681 194.589 32.1191 194.262 32.1191C193.934 32.1191 193.653 32.8932 193.326 32.8932C192.998 32.8932 192.717 36.86 192.39 36.86C191.407 36.86 190.565 35.2797 189.582 35.2797C189.255 35.2797 188.974 34.0219 188.646 34.0219C188.319 34.0219 188.038 30.8291 187.71 30.8291C187.383 30.8291 187.102 32.0224 186.774 32.0224C186.447 32.0224 186.166 30.9581 185.838 30.9581C184.856 30.9581 184.013 32.6352 183.031 32.6352C182.703 32.6352 182.422 30.5711 182.095 30.5711C181.767 30.5711 181.486 30.5066 181.159 30.5066C180.831 30.5066 180.551 30.8936 180.223 30.8936C179.895 30.8936 179.615 28.5715 179.287 28.5715C178.304 28.5715 177.462 27.7975 176.479 27.7975C176.152 27.7975 175.871 26.959 175.543 26.959C175.216 26.959 174.935 29.8616 174.607 29.8616C174.28 29.8616 173.999 32.3126 173.672 32.3126C173.344 32.3126 173.063 31.2161 172.736 31.2161C171.753 31.2161 170.911 33.5704 169.928 33.5704C169.6 33.5704 169.32 32.8287 168.992 32.8287C168.664 32.8287 168.384 31.7321 168.056 31.7321C167.728 31.7321 167.448 32.5062 167.12 32.5062C166.793 32.5062 166.512 28.636 166.184 28.636C165.202 28.636 164.359 29.2166 163.376 29.2166C163.049 29.2166 162.768 28.1845 162.441 28.1845C161.785 28.1845 161.224 28.12 160.569 28.12C160.241 28.12 159.96 31.8611 159.633 31.8611C158.65 31.8611 157.808 34.8927 156.825 34.8927C156.497 34.8927 156.217 34.8605 155.889 34.8605C155.562 34.8605 155.281 35.6345 154.953 35.6345C154.626 35.6345 154.345 35.828 154.017 35.828C153.69 35.828 153.409 34.1832 153.081 34.1832C152.099 34.1832 151.256 34.9895 150.274 34.9895C149.946 34.9895 149.665 34.1832 149.338 34.1832C149.01 34.1832 148.729 31.6676 148.402 31.6676C148.074 31.6676 147.793 30.1841 147.466 30.1841C147.138 30.1841 146.858 31.8289 146.53 31.8289C145.547 31.8289 144.705 34.2155 143.722 34.2155C143.395 34.2155 143.114 36.215 142.786 36.215C142.459 36.215 142.178 35.2152 141.85 35.2152C141.523 35.2152 141.242 33.2157 140.915 33.2157C140.587 33.2157 140.306 30.1841 139.979 30.1841C138.996 30.1841 138.154 33.0222 137.171 33.0222C136.843 33.0222 136.562 33.4414 136.235 33.4414C135.907 33.4414 135.627 34.0542 135.299 34.0542C134.971 34.0542 134.691 34.409 134.363 34.409C134.036 34.409 133.755 29.7648 133.427 29.7648C132.444 29.7648 131.602 29.3778 130.619 29.3778C130.292 29.3778 130.011 28.636 129.684 28.636C129.356 28.636 129.075 28.1845 128.748 28.1845C128.42 28.1845 128.139 27.733 127.812 27.733C127.484 27.733 127.203 27.7653 126.876 27.7653C125.893 27.7653 125.051 28.9586 124.068 28.9586C123.74 28.9586 123.46 29.5068 123.132 29.5068C122.805 29.5068 122.524 26.8945 122.196 26.8945C121.869 26.8945 121.588 24.5079 121.26 24.5079C120.933 24.5079 120.652 24.0242 120.324 24.0242C119.342 24.0242 118.499 23.6371 117.517 23.6371C117.189 23.6371 116.908 24.1854 116.581 24.1854C116.253 24.1854 115.972 23.8952 115.645 23.8952C115.317 23.8952 115.036 24.9917 114.709 24.9917C114.381 24.9917 114.101 28.9908 113.773 28.9908C112.79 28.9908 111.948 28.7973 110.965 28.7973C110.638 28.7973 110.357 29.6358 110.029 29.6358C109.702 29.6358 109.421 29.9583 109.093 29.9583C108.766 29.9583 108.485 31.5709 108.157 31.5709C107.83 31.5709 107.549 32.1836 107.222 32.1836C105.911 32.1836 104.788 31.6676 103.478 31.6676C103.15 31.6676 102.87 28.9908 102.542 28.9908C102.214 28.9908 101.934 27.2815 101.606 27.2815C101.278 27.2815 100.998 28.3458 100.67 28.3458C99.6874 28.3458 98.8451 29.4101 97.8624 29.4101C97.5348 29.4101 97.254 28.4425 96.9265 28.4425C96.5989 28.4425 96.3181 28.4748 95.9905 28.4748C95.663 28.4748 95.3822 27.217 95.0546 27.217C94.7271 27.217 94.4463 25.5077 94.1187 25.5077C93.136 25.5077 92.2937 25.2819 91.311 25.2819C90.9834 25.2819 90.7026 27.991 90.3751 27.991C90.0475 27.991 89.7667 26.2172 89.4391 26.2172C89.1115 26.2172 88.8308 21.6698 88.5032 21.6698C88.1756 21.6698 87.8949 23.9274 87.5673 23.9274C86.5846 23.9274 85.7422 25.2819 84.7595 25.2819C84.432 25.2819 84.1512 26.9267 83.8236 26.9267C83.4961 26.9267 83.2153 28.12 82.8877 28.12C82.5602 28.12 82.2794 27.2492 81.9518 27.2492C81.6242 27.2492 81.3435 28.4103 81.0159 28.4103C80.0332 28.4103 79.1909 27.8298 78.2081 27.8298C77.8806 27.8298 77.5998 27.991 77.2722 27.991C76.9447 27.991 76.6639 27.8943 76.3363 27.8943C76.0087 27.8943 75.728 27.6363 75.4004 27.6363C75.0728 27.6363 74.7921 28.3135 74.4645 28.3135C73.4818 28.3135 72.6394 29.0876 71.6567 29.0876C71.3291 29.0876 71.0484 30.8614 70.7208 30.8614C70.3932 30.8614 70.1125 31.4096 69.7849 31.4096C69.4573 31.4096 69.1765 30.5388 68.849 30.5388C68.5214 30.5388 68.2406 30.0228 67.9131 30.0228C66.9303 30.0228 66.088 28.765 65.1053 28.765C64.7777 28.765 64.497 25.8302 64.1694 25.8302C63.8418 25.8302 63.5611 25.1852 63.2335 25.1852C62.9059 25.1852 62.6252 25.0562 62.2976 25.0562C61.97 25.0562 61.6892 25.8302 61.3617 25.8302C60.379 25.8302 59.5366 25.0239 58.5539 25.0239C58.2263 25.0239 57.9456 25.6044 57.618 25.6044C57.2904 25.6044 57.0096 25.4432 56.6821 25.4432C56.3545 25.4432 56.0737 25.3142 55.7462 25.3142C55.4186 25.3142 55.1378 23.3469 54.8102 23.3469C53.1587 23.3469 51.7432 23.3146 50.0917 23.3146C49.7641 23.3146 49.4833 22.2181 49.1558 22.2181C48.8282 22.2181 48.5474 22.1213 48.2198 22.1213C47.2372 22.1213 46.3948 22.6051 45.4121 22.6051C45.0845 22.6051 44.8037 22.1213 44.4762 22.1213C44.1486 22.1213 43.8678 25.0884 43.5403 25.0884C43.2127 25.0884 42.9319 26.6687 42.6043 26.6687C42.2768 26.6687 41.996 26.9267 41.6684 26.9267C40.6857 26.9267 39.8434 27.5718 38.8607 27.5718C38.5331 27.5718 38.2523 28.0878 37.9248 28.0878C37.5972 28.0878 37.3164 29.0876 36.9889 29.0876C36.6613 29.0876 36.3805 27.7653 36.0529 27.7653C35.7254 27.7653 35.4446 27.733 35.117 27.733C34.1343 27.733 33.292 26.8622 32.3093 26.8622C31.9817 26.8622 31.701 27.7653 31.3734 27.7653C31.0458 27.7653 30.765 27.1202 30.4374 27.1202C29.7823 27.1202 29.2207 25.3142 28.5656 25.3142C27.5829 25.3142 26.7406 25.6367 25.7578 25.6367C25.4303 25.6367 25.1495 26.0237 24.8219 26.0237C24.4944 26.0237 24.2136 23.7661 23.886 23.7661C23.5585 23.7661 23.2777 23.0889 22.9501 23.0889C22.6226 23.0889 22.3418 21.4118 22.0142 21.4118C21.0315 21.4118 20.1892 21.1216 19.2065 21.1216C18.8789 21.1216 18.5981 19.1865 18.2705 19.1865C17.943 19.1865 17.6622 18.864 17.3346 18.864C17.007 18.864 16.7263 19.7025 16.3987 19.7025C16.0711 19.7025 15.7904 18.606 15.4628 18.606C14.4801 18.606 13.6377 17.7352 12.655 17.7352C12.3275 17.7352 12.0467 18.4125 11.7191 18.4125C11.3915 18.4125 11.1108 17.058 10.7832 17.058C10.4556 17.058 10.1749 18.4447 9.84729 18.4447C9.51971 18.4447 9.23895 11.8978 8.91138 11.8978C7.92865 11.8978 7.08633 12.3493 6.10364 12.3493C5.77606 12.3493 5.4953 12.1236 5.16772 12.1236C4.84015 12.1236 4.55939 10.1885 4.23181 10.1885C3.90424 10.1885 3.62347 10.898 3.2959 10.898C2.96832 10.898 2.68756 11.414 2.35999 11.414C1.37726 11.414 0.534943 11.9946 -0.447754 11.9946C-1.10291 11.9946 -1.66449 11.93 -2.31961 11.93C-2.64719 11.93 -2.92798 12.7363 -3.25552 12.7363C-3.5831 12.7363 -3.86389 14.0264 -4.19147 14.0264C-5.17416 14.0264 -6.01648 11.5108 -6.99921 11.5108C-7.65433 11.5108 -8.21588 9.38222 -8.87103 9.38222C-9.19858 9.38222 -9.47937 11.285 -9.80695 11.285C-10.1345 11.285 -10.4153 10.0595 -10.7429 10.0595C-11.7256 10.0595 -12.5679 10.6723 -13.5506 10.6723C-13.8782 10.6723 -14.1589 10.0272 -14.4865 10.0272C-14.8141 10.0272 -15.0948 8.35019 -15.4224 8.35019C-15.75 8.35019 -16.0308 8.4792 -16.3583 8.4792C-16.6859 8.4792 -16.9667 10.1885 -17.2943 10.1885C-18.277 10.1885 -19.1193 9.96274 -20.102 9.96274C-20.4296 9.96274 -20.7104 9.99499 -21.0379 9.99499C-21.3655 9.99499 -21.6463 10.8658 -21.9738 10.8658C-22.3014 10.8658 -22.5822 11.3495 -22.9098 11.3495C-23.2373 11.3495 -23.5181 10.5433 -23.8457 10.5433C-25.1559 10.5433 -26.2791 10.64 -27.5893 10.64C-27.9169 10.64 -28.1977 9.67248 -28.5252 9.67248C-28.8528 9.67248 -29.1336 10.1562 -29.4612 10.1562C-29.7887 10.1562 -30.0695 9.44672 -30.3971 9.44672C-31.3798 9.44672 -32.2221 9.70473 -33.2048 9.70473C-33.5324 9.70473 -33.8131 8.80171 -34.1407 8.80171C-34.4683 8.80171 -34.7491 10.6723 -35.0766 10.6723C-35.4042 10.6723 -35.685 11.027 -36.0125 11.027C-36.3401 11.027 -36.6209 9.38222 -36.9485 9.38222C-37.9312 9.38222 -38.7735 10.1562 -39.7563 10.1562C-40.0838 10.1562 -40.3646 8.83396 -40.6922 8.83396C-41.0197 8.83396 -41.3005 9.18872 -41.6281 9.18872C-41.9556 9.18872 -42.2364 10.253 -42.564 10.253C-42.8915 10.253 -43.1723 6.86665 -43.4999 6.86665C-44.4826 6.86665 -45.3249 8.41469 -46.3076 8.41469C-46.6352 8.41469 -46.916 7.60842 -47.2436 7.60842C-47.5711 7.60842 -47.8519 7.86643 -48.1795 7.86643C-48.507 7.86643 -48.7878 8.51145 -49.1154 8.51145C-49.443 8.51145 -49.7237 8.44695 -50.0513 8.44695C-51.3616 8.44695 -52.4847 7.28591 -53.795 7.28591C-54.1226 7.28591 -54.4033 7.99543 -54.7309 7.99543C-55.0585 7.99543 -55.3392 9.38222 -55.6668 9.38222C-55.9944 9.38222 -56.2751 8.70495 -56.6027 8.70495C-57.5854 8.70495 -58.4278 10.124 -59.4105 10.124C-59.738 10.124 -60.0188 8.57595 -60.3464 8.57595C-60.674 8.57595 -60.9547 5.3186 -61.2823 5.3186C-61.2823 5.3186 -61.2823 5.31861 -61.2823 42.7297H313.084V33.2157Z" fill="url(#paint0_linear_7150_2306)"/>
</g>
<mask id="mask1_7150_2306" style="mask-type:luminance" maskUnits="userSpaceOnUse" x="-64" y="3" width="219" height="40">
<path d="M-63.5 3.5V42.5H154.074V3.5H-63.5Z" fill="white" stroke="white"/>
</mask>
<g mask="url(#mask1_7150_2306)">
<path d="M313.083 33.3027C312.756 33.3027 312.476 32.0266 312.149 32.0266C311.822 32.0266 311.541 32.5501 311.214 32.5501C310.887 32.5501 310.607 32.9755 310.28 32.9755C309.299 32.9755 308.458 33.1391 307.477 33.1391C307.15 33.1391 306.869 33.3027 306.542 33.3027C306.215 33.3027 305.935 32.3538 305.608 32.3538C305.281 32.3538 305.001 32.1902 304.674 32.1902C304.347 32.1902 304.066 30.3579 303.739 30.3579C302.758 30.3579 301.917 30.3252 300.936 30.3252C300.609 30.3252 300.329 28.9509 300.002 28.9509C299.675 28.9509 299.395 29.5399 299.068 29.5399C298.741 29.5399 298.46 27.7403 298.133 27.7403C297.806 27.7403 297.526 29.18 297.199 29.18C296.218 29.18 295.377 28.7219 294.396 28.7219C294.069 28.7219 293.788 28.4274 293.461 28.4274C293.134 28.4274 292.854 28.362 292.527 28.362C292.2 28.362 291.92 27.0532 291.593 27.0532C291.266 27.0532 290.985 27.4131 290.658 27.4131C289.35 27.4131 288.229 28.1002 286.921 28.1002C286.594 28.1002 286.313 28.7873 285.986 28.7873C285.659 28.7873 285.379 26.6933 285.052 26.6933C284.725 26.6933 284.445 25.2536 284.118 25.2536C283.137 25.2536 282.296 25.7117 281.315 25.7117C280.988 25.7117 280.707 25.7117 280.38 25.7117C280.053 25.7117 279.773 26.955 279.446 26.955C279.119 26.955 278.839 26.2679 278.511 26.2679C278.184 26.2679 277.904 24.2065 277.577 24.2065C276.596 24.2065 275.755 25.8753 274.774 25.8753C274.447 25.8753 274.167 29.8998 273.84 29.8998C273.513 29.8998 273.232 28.5256 272.905 28.5256C272.578 28.5256 272.298 26.4315 271.971 26.4315C271.644 26.4315 271.364 24.501 271.037 24.501C270.055 24.501 269.215 24.7628 268.233 24.7628C267.906 24.7628 267.626 22.6033 267.299 22.6033C266.972 22.6033 266.692 24.0757 266.365 24.0757C266.038 24.0757 265.757 22.7669 265.43 22.7669C265.103 22.7669 264.823 23.9121 264.496 23.9121C263.515 23.9121 262.674 21.6544 261.693 21.6544C261.366 21.6544 261.086 26.0716 260.759 26.0716C260.432 26.0716 260.151 24.7628 259.824 24.7628C259.497 24.7628 259.217 24.272 258.89 24.272C258.563 24.272 258.282 23.9448 257.955 23.9448C256.988 23.9448 256.159 22.0143 255.191 22.0143C254.864 22.0143 254.584 21.2618 254.257 21.2618C253.93 21.2618 253.65 21.818 253.323 21.818C252.996 21.818 252.715 21.7526 252.388 21.7526C252.061 21.7526 251.781 22.3088 251.454 22.3088C250.473 22.3088 249.632 21.0327 248.651 21.0327C248.324 21.0327 248.043 22.3088 247.716 22.3088C247.389 22.3088 247.109 25.09 246.782 25.09C246.455 25.09 246.175 24.6646 245.848 24.6646C244.54 24.6646 243.418 25.8753 242.11 25.8753C241.783 25.8753 241.503 27.8712 241.176 27.8712C240.849 27.8712 240.568 26.5624 240.241 26.5624C239.914 26.5624 239.634 24.7955 239.307 24.7955C238.98 24.7955 238.7 26.0061 238.373 26.0061C237.392 26.0061 236.551 27.1186 235.57 27.1186C235.243 27.1186 234.962 23.8466 234.635 23.8466C234.308 23.8466 234.028 25.319 233.701 25.319C233.374 25.319 233.094 26.8896 232.767 26.8896C232.44 26.8896 232.159 26.3988 231.832 26.3988C230.851 26.3988 230.01 27.8384 229.029 27.8384C228.702 27.8384 228.422 28.5583 228.095 28.5583C227.768 28.5583 227.487 26.1697 227.16 26.1697C226.833 26.1697 226.553 25.7444 226.226 25.7444C225.899 25.7444 225.619 24.6973 225.292 24.6973C224.311 24.6973 223.47 24.7955 222.489 24.7955C222.161 24.7955 221.881 24.0757 221.554 24.0757C221.227 24.0757 220.947 24.1084 220.62 24.1084C220.293 24.1084 220.012 25.5481 219.685 25.5481C219.358 25.5481 219.078 27.8712 218.751 27.8712C217.77 27.8712 216.929 28.1656 215.948 28.1656C215.621 28.1656 215.341 27.6748 215.014 27.6748C214.687 27.6748 214.406 28.1656 214.079 28.1656C213.752 28.1656 213.472 30.1288 213.145 30.1288C212.818 30.1288 212.538 29.2127 212.211 29.2127C211.229 29.2127 210.388 29.1145 209.407 29.1145C209.08 29.1145 208.8 28.7873 208.473 28.7873C208.146 28.7873 207.866 28.6892 207.539 28.6892C207.212 28.6892 206.931 29.8344 206.604 29.8344C206.277 29.8344 205.997 32.1247 205.67 32.1247C204.689 32.1247 203.848 29.8344 202.867 29.8344C202.54 29.8344 202.26 29.8344 201.932 29.8344C201.605 29.8344 201.325 29.2781 200.998 29.2781C200.671 29.2781 200.391 31.3722 200.064 31.3722C199.737 31.3722 199.456 31.1759 199.129 31.1759C197.821 31.1759 196.7 29.7035 195.392 29.7035C195.065 29.7035 194.785 32.1902 194.458 32.1902C194.131 32.1902 193.85 32.9755 193.523 32.9755C193.196 32.9755 192.916 37 192.589 37C191.608 37 190.767 35.3967 189.786 35.3967C189.459 35.3967 189.178 34.1207 188.851 34.1207C188.524 34.1207 188.244 30.8814 187.917 30.8814C187.59 30.8814 187.31 32.092 186.983 32.092C186.656 32.092 186.375 31.0123 186.048 31.0123C185.067 31.0123 184.226 32.7137 183.245 32.7137C182.918 32.7137 182.638 30.6196 182.311 30.6196C181.984 30.6196 181.703 30.5542 181.376 30.5542C181.049 30.5542 180.769 30.9468 180.442 30.9468C180.115 30.9468 179.835 28.591 179.508 28.591C178.527 28.591 177.686 27.8057 176.705 27.8057C176.378 27.8057 176.097 26.955 175.77 26.955C175.443 26.955 175.163 29.8998 174.836 29.8998C174.509 29.8998 174.229 32.3865 173.902 32.3865C173.575 32.3865 173.294 31.274 172.967 31.274C171.986 31.274 171.145 33.6626 170.164 33.6626C169.837 33.6626 169.557 32.91 169.23 32.91C168.903 32.91 168.622 31.7975 168.295 31.7975C167.968 31.7975 167.688 32.5828 167.361 32.5828C167.034 32.5828 166.754 28.6564 166.427 28.6564C165.446 28.6564 164.605 29.2454 163.624 29.2454C163.296 29.2454 163.016 28.1984 162.689 28.1984C162.035 28.1984 161.474 28.1329 160.82 28.1329C160.493 28.1329 160.213 31.9284 159.886 31.9284C158.905 31.9284 158.064 35.0041 157.083 35.0041C156.756 35.0041 156.476 34.9714 156.149 34.9714C155.822 34.9714 155.541 35.7566 155.214 35.7566C154.887 35.7566 154.607 35.953 154.28 35.953C153.953 35.953 153.673 34.2843 153.346 34.2843C152.364 34.2843 151.523 35.1022 150.542 35.1022C150.215 35.1022 149.935 34.2843 149.608 34.2843C149.281 34.2843 149.001 31.7321 148.674 31.7321C148.347 31.7321 148.066 30.227 147.739 30.227C147.412 30.227 147.132 31.8957 146.805 31.8957C145.824 31.8957 144.983 34.317 144.002 34.317C143.675 34.317 143.395 36.3456 143.067 36.3456C142.74 36.3456 142.46 35.3313 142.133 35.3313C141.806 35.3313 141.526 33.3027 141.199 33.3027C140.872 33.3027 140.591 30.227 140.264 30.227C139.283 30.227 138.442 33.1063 137.461 33.1063C137.134 33.1063 136.854 33.5317 136.527 33.5317C136.2 33.5317 135.92 34.1534 135.593 34.1534C135.266 34.1534 134.985 34.5133 134.658 34.5133C134.331 34.5133 134.051 29.8016 133.724 29.8016C132.743 29.8016 131.902 29.409 130.921 29.409C130.594 29.409 130.313 28.6564 129.986 28.6564C129.659 28.6564 129.379 28.1984 129.052 28.1984C128.725 28.1984 128.445 27.7403 128.118 27.7403C127.791 27.7403 127.51 27.773 127.183 27.773C126.202 27.773 125.361 28.9836 124.38 28.9836C124.053 28.9836 123.773 29.5399 123.446 29.5399C123.119 29.5399 122.838 26.8896 122.511 26.8896C122.184 26.8896 121.904 24.4683 121.577 24.4683C121.25 24.4683 120.97 23.9775 120.643 23.9775C119.662 23.9775 118.821 23.5849 117.84 23.5849C117.513 23.5849 117.232 24.1411 116.905 24.1411C116.578 24.1411 116.298 23.8466 115.971 23.8466C115.644 23.8466 115.364 24.9591 115.037 24.9591C114.709 24.9591 114.429 29.0164 114.102 29.0164C113.121 29.0164 112.28 28.82 111.299 28.82C110.972 28.82 110.692 29.6708 110.365 29.6708C110.038 29.6708 109.757 29.998 109.43 29.998C109.103 29.998 108.823 31.6339 108.496 31.6339C108.169 31.6339 107.889 32.2556 107.562 32.2556C106.254 32.2556 105.132 31.7321 103.824 31.7321C103.497 31.7321 103.217 29.0164 102.89 29.0164C102.563 29.0164 102.282 27.2822 101.955 27.2822C101.628 27.2822 101.348 28.362 101.021 28.362C100.04 28.362 99.199 29.4417 98.218 29.4417C97.8909 29.4417 97.6106 28.4601 97.2836 28.4601C96.9566 28.4601 96.6763 28.4928 96.3492 28.4928C96.0222 28.4928 95.7419 27.2168 95.4149 27.2168C95.0878 27.2168 94.8075 25.4826 94.4805 25.4826C93.4994 25.4826 92.6585 25.2536 91.6774 25.2536C91.3504 25.2536 91.0701 28.002 90.7431 28.002C90.416 28.002 90.1357 26.2025 89.8087 26.2025C89.4816 26.2025 89.2013 21.589 88.8743 21.589C88.5473 21.589 88.267 23.8793 87.9399 23.8793C86.9588 23.8793 86.1179 25.2536 85.1368 25.2536C84.8098 25.2536 84.5295 26.9223 84.2025 26.9223C83.8754 26.9223 83.5951 28.1329 83.2681 28.1329C82.9411 28.1329 82.6608 27.2495 82.3337 27.2495C82.0067 27.2495 81.7264 28.4274 81.3994 28.4274C80.4183 28.4274 79.5774 27.8384 78.5963 27.8384C78.2693 27.8384 77.989 28.002 77.6619 28.002C77.3349 28.002 77.0546 27.9039 76.7276 27.9039C76.4005 27.9039 76.1202 27.6421 75.7932 27.6421C75.4662 27.6421 75.1859 28.3292 74.8588 28.3292C73.8778 28.3292 73.0368 29.1145 72.0557 29.1145C71.7287 29.1145 71.4484 30.9141 71.1214 30.9141C70.7943 30.9141 70.514 31.4703 70.187 31.4703C69.86 31.4703 69.5797 30.5869 69.2526 30.5869C68.9256 30.5869 68.6453 30.0634 68.3183 30.0634C67.3372 30.0634 66.4963 28.7873 65.5152 28.7873C65.1881 28.7873 64.9078 25.8098 64.5808 25.8098C64.2538 25.8098 63.9735 25.1554 63.6465 25.1554C63.3194 25.1554 63.0391 25.0245 62.7121 25.0245C62.3851 25.0245 62.1048 25.8098 61.7777 25.8098C60.7966 25.8098 59.9557 24.9918 58.9746 24.9918C58.6476 24.9918 58.3673 25.5808 58.0403 25.5808C57.7132 25.5808 57.4329 25.4172 57.1059 25.4172C56.7788 25.4172 56.4985 25.2863 56.1715 25.2863C55.8445 25.2863 55.5642 23.2904 55.2371 23.2904C53.5884 23.2904 52.1752 23.2577 50.5264 23.2577C50.1994 23.2577 49.9191 22.1452 49.5921 22.1452C49.265 22.1452 48.9847 22.047 48.6577 22.047C47.6766 22.047 46.8356 22.5378 45.8546 22.5378C45.5275 22.5378 45.2472 22.047 44.9202 22.047C44.5932 22.047 44.3129 25.0573 43.9858 25.0573C43.6588 25.0573 43.3785 26.6605 43.0515 26.6605C42.7244 26.6605 42.4441 26.9223 42.1171 26.9223C41.136 26.9223 40.2951 27.5767 39.314 27.5767C38.987 27.5767 38.7067 28.1002 38.3797 28.1002C38.0526 28.1002 37.7723 29.1145 37.4453 29.1145C37.1183 29.1145 36.838 27.773 36.5109 27.773C36.1839 27.773 35.9036 27.7403 35.5766 27.7403C34.5955 27.7403 33.7546 26.8569 32.7735 26.8569C32.4465 26.8569 32.1661 27.773 31.8391 27.773C31.5121 27.773 31.2317 27.1186 30.9047 27.1186C30.2507 27.1186 29.69 25.2863 29.036 25.2863C28.0549 25.2863 27.214 25.6135 26.2329 25.6135C25.9059 25.6135 25.6256 26.0061 25.2985 26.0061C24.9715 26.0061 24.6912 23.7157 24.3642 23.7157C24.0371 23.7157 23.7568 23.0286 23.4298 23.0286C23.1028 23.0286 22.8225 21.3272 22.4955 21.3272C21.5144 21.3272 20.6734 21.0327 19.6924 21.0327C19.3653 21.0327 19.085 19.0695 18.758 19.0695C18.431 19.0695 18.1507 18.7423 17.8236 18.7423C17.4966 18.7423 17.2163 19.593 16.8893 19.593C16.5622 19.593 16.2819 18.4806 15.9549 18.4806C14.9738 18.4806 14.1329 17.5971 13.1518 17.5971C12.8248 17.5971 12.5444 18.2843 12.2174 18.2843C11.8904 18.2843 11.6101 16.91 11.2831 16.91C10.956 16.91 10.6757 18.317 10.3487 18.317C10.0217 18.317 9.74136 11.6748 9.41433 11.6748C8.43325 11.6748 7.59233 12.1329 6.61124 12.1329C6.28421 12.1329 6.00391 11.9039 5.67688 11.9039C5.34985 11.9039 5.06954 9.9407 4.74252 9.9407C4.41549 9.9407 4.13518 10.6605 3.80815 10.6605C3.48113 10.6605 3.20082 11.184 2.87379 11.184C1.89271 11.184 1.05178 11.773 0.0707012 11.773C-0.583354 11.773 -1.14401 11.7076 -1.79806 11.7076C-2.12509 11.7076 -2.4054 12.5256 -2.73242 12.5256C-3.05945 12.5256 -3.33976 13.8344 -3.66679 13.8344C-4.64787 13.8344 -5.48879 11.2822 -6.46988 11.2822C-7.12393 11.2822 -7.68455 9.1227 -8.3386 9.1227C-8.66563 9.1227 -8.94594 11.0532 -9.27297 11.0532C-9.59999 11.0532 -9.8803 9.80982 -10.2073 9.80982C-11.1884 9.80982 -12.0293 10.4315 -13.0104 10.4315C-13.3374 10.4315 -13.6178 9.7771 -13.9448 9.7771C-14.2718 9.7771 -14.5521 8.07566 -14.8791 8.07566C-15.2062 8.07566 -15.4865 8.20654 -15.8135 8.20654C-16.1405 8.20654 -16.4209 9.9407 -16.7479 9.9407C-17.729 9.9407 -18.5699 9.71166 -19.551 9.71166C-19.878 9.71166 -20.1583 9.74438 -20.4854 9.74438C-20.8124 9.74438 -21.0927 10.6278 -21.4197 10.6278C-21.7467 10.6278 -22.0271 11.1186 -22.3541 11.1186C-22.6811 11.1186 -22.9614 10.3006 -23.2884 10.3006C-24.5966 10.3006 -25.7178 10.3988 -27.0259 10.3988C-27.3529 10.3988 -27.6332 9.41718 -27.9603 9.41718C-28.2873 9.41718 -28.5676 9.90798 -28.8946 9.90798C-29.2217 9.90798 -29.502 9.18814 -29.829 9.18814C-30.8101 9.18814 -31.651 9.4499 -32.6321 9.4499C-32.9591 9.4499 -33.2394 8.53374 -33.5664 8.53374C-33.8935 8.53374 -34.1738 10.4315 -34.5008 10.4315C-34.8278 10.4315 -35.1081 10.7914 -35.4352 10.7914C-35.7622 10.7914 -36.0425 9.1227 -36.3695 9.1227C-37.3506 9.1227 -38.1916 9.90798 -39.1727 9.90798C-39.4997 9.90798 -39.78 8.56646 -40.107 8.56646C-40.434 8.56646 -40.7144 8.92638 -41.0414 8.92638C-41.3684 8.92638 -41.6487 10.0061 -41.9757 10.0061C-42.3028 10.0061 -42.5831 6.57055 -42.9101 6.57055C-43.8912 6.57055 -44.7321 8.1411 -45.7132 8.1411C-46.0402 8.1411 -46.3205 7.32311 -46.6476 7.32311C-46.9746 7.32311 -47.2549 7.58487 -47.5819 7.58487C-47.909 7.58487 -48.1893 8.23926 -48.5163 8.23926C-48.8433 8.23926 -49.1236 8.17382 -49.4506 8.17382C-50.7588 8.17382 -51.88 6.99591 -53.1881 6.99591C-53.5152 6.99591 -53.7955 7.71575 -54.1225 7.71575C-54.4495 7.71575 -54.7298 9.1227 -55.0569 9.1227C-55.3839 9.1227 -55.6642 8.43558 -55.9912 8.43558C-56.9723 8.43558 -57.8132 9.87526 -58.7943 9.87526C-59.1213 9.87526 -59.4017 8.3047 -59.7287 8.3047C-60.0557 8.3047 -60.336 5 -60.663 5" stroke="#FF4023"/>
</g>
</g>
<defs>
<linearGradient id="paint0_linear_7150_2306" x1="313.084" y1="5.3186" x2="313.084" y2="42.7297" gradientUnits="userSpaceOnUse">
<stop stop-color="#FF4023"/>
<stop offset="1" stop-color="white" stop-opacity="0.81"/>
</linearGradient>
<clipPath id="clip0_7150_2306">
<rect width="132" height="47" fill="white"/>
</clipPath>
</defs>
</svg>
