<svg width="40" height="40" viewBox="0 0 40 40" fill="none" xmlns="http://www.w3.org/2000/svg">
<g clip-path="url(#clip0_7150_3161)">
<mask id="mask0_7150_3161" style="mask-type:luminance" maskUnits="userSpaceOnUse" x="0" y="0" width="69" height="40">
<path d="M68.5598 0H0V40H68.5598V0Z" fill="white"/>
</mask>
<g mask="url(#mask0_7150_3161)">
<path d="M68.5598 0H0V40H68.5598V0Z" fill="#180087"/>
<path d="M18.0392 24.4944L19.0811 27.763L22.268 26.5373L20.3886 29.3769L23.3099 31.1134L19.9187 31.4198L20.3886 34.7906L18.0392 32.3187L15.6899 34.7906L16.1598 31.4198L12.7686 31.1134L15.6899 29.3769L13.8104 26.5373L16.9974 27.763L18.0392 24.4944Z" fill="white"/>
<path d="M15.0358 0V6.00613H0V12.0327H15.0358V18.0388H21.0419V12.0327H36.0776V6.00613H21.0419V0H15.0358Z" fill="white"/>
<path d="M0 0V2.02247L32.0531 18.0388H36.0776V16.0163L4.04494 0H0Z" fill="white"/>
<path d="M32.0531 0L0 16.0163V18.0388H4.04494L36.0776 2.02247V0H32.0531Z" fill="white"/>
<path d="M16.2411 0V7.21144H0V10.8274H16.2411V18.0388H19.8366V10.8274H36.0776V7.21144H19.8366V0H16.2411Z" fill="#EA0020"/>
<path d="M0 0V1.34831L9.33606 6.00613H12.0327L0 0ZM33.381 0L21.3687 6.00613H24.0449L36.0776 0H33.381Z" fill="#EA0020"/>
<path d="M12.0327 12.0327L0 18.0388H2.69663L14.7089 12.0327H12.0327ZM24.0449 12.0327L36.0776 18.0388V16.6905L26.7416 12.0327H24.0449Z" fill="#EA0020"/>
</g>
</g>
<defs>
<clipPath id="clip0_7150_3161">
<rect width="40" height="40" rx="20" fill="white"/>
</clipPath>
</defs>
</svg>
