<svg width="40" height="40" viewBox="0 0 40 40" fill="none" xmlns="http://www.w3.org/2000/svg">
<g clip-path="url(#clip0_7150_3197)">
<mask id="mask0_7150_3197" style="mask-type:luminance" maskUnits="userSpaceOnUse" x="0" y="0" width="40" height="40">
<path d="M40 0H0V40H40V0Z" fill="white"/>
</mask>
<g mask="url(#mask0_7150_3197)">
<path d="M10 0H0V45H10V0Z" fill="#EA0020"/>
<path d="M40 0H30V41H40V0Z" fill="#EA0020"/>
<path d="M30 0H10V44H30V0Z" fill="white"/>
<mask id="mask1_7150_3197" style="mask-type:luminance" maskUnits="userSpaceOnUse" x="0" y="0" width="40" height="40">
<path d="M40 0H0V40H40V0Z" fill="white"/>
</mask>
<g mask="url(#mask1_7150_3197)">
<path d="M19.8246 13L18.5233 15.26C18.3663 15.51 18.1083 15.48 17.839 15.34L16.8967 14.89L17.6035 18.37C17.7493 19 17.2669 19 17.0314 18.73L15.3823 17.01L15.1131 17.88C15.0943 17.9511 15.0451 18.0129 14.976 18.0522C14.9068 18.0914 14.8232 18.105 14.7429 18.09L12.6676 17.68L13.2061 19.53C13.3295 19.94 13.4192 20.11 13.0939 20.22L12.3535 20.54L15.9432 23.25C16.0145 23.3063 16.0668 23.3791 16.0945 23.4603C16.1223 23.5414 16.1242 23.6279 16.1003 23.71L15.7862 24.71L19.3647 24.32C19.4768 24.32 19.6675 24.41 19.6563 24.53L19.4993 28.04H20.0714L20.0041 24.46C20.0041 24.35 20.1723 24.25 20.2733 24.25L23.863 24.64L23.5489 23.64C23.5249 23.5579 23.5269 23.4714 23.5547 23.3903C23.5824 23.3091 23.6347 23.2363 23.706 23.18L27.2957 20.47L26.5553 20.15C26.23 20.04 26.3197 19.87 26.4431 19.46L26.9928 17.61L24.8951 18.02C24.8296 18.0301 24.7623 18.022 24.7022 17.997C24.642 17.972 24.5919 17.9312 24.5585 17.88L24.3005 17.01L22.6066 18.73C22.3823 19 21.8999 19 22.0457 18.37L22.7524 14.89L21.8102 15.34C21.5409 15.48 21.2829 15.51 21.1371 15.26L19.8246 13Z" fill="#EA0020"/>
</g>
</g>
</g>
<defs>
<clipPath id="clip0_7150_3197">
<rect width="40" height="40" rx="20" fill="white"/>
</clipPath>
</defs>
</svg>
