<svg width="40" height="40" viewBox="0 0 40 40" fill="none" xmlns="http://www.w3.org/2000/svg">
<g clip-path="url(#clip0_7150_3228)">
<mask id="mask0_7150_3228" style="mask-type:luminance" maskUnits="userSpaceOnUse" x="0" y="0" width="79" height="46">
<path d="M78.8437 0H0V46H78.8437V0Z" fill="white"/>
</mask>
<g mask="url(#mask0_7150_3228)">
<path d="M78.8437 0H0V46H78.8437V0Z" fill="#22368F"/>
<path d="M20.0002 7L19.484 8.25732H17.8184L19.1791 9.0339L18.6629 10.2727L20.0002 9.49615L21.3609 10.2727L20.8448 9.0339L22.182 8.25732H20.5163L20.0002 7Z" fill="#F3D02F"/>
<path d="M13.9996 9.18188L13.6125 10.4392H12.3633L13.3838 11.1973L12.9967 12.4546L13.9996 11.678L15.0202 12.4546L14.6331 11.1973L15.636 10.4392H14.3867L13.9996 9.18188Z" fill="#F3D02F"/>
<path d="M10.1935 14.6365L9.68012 15.8938H8L9.35343 16.6519L8.84006 17.9092L10.1935 17.1326L11.5236 17.9092L11.0102 16.6519L12.3636 15.8938H10.6835L10.1935 14.6365Z" fill="#F3D02F"/>
<path d="M10.1935 21.1819L9.68012 22.4392H8L9.35343 23.1973L8.84006 24.4546L10.1935 23.6965L11.5236 24.4546L11.0102 23.1973L12.3636 22.4392H10.6835L10.1935 21.1819Z" fill="#F3D02F"/>
<path d="M13.9996 26.6365L13.6125 27.8753H12.3633L13.3838 28.6704L12.9967 29.9092L13.9996 29.1326L15.0202 29.9092L14.6331 28.6704L15.636 27.8753H14.3867L13.9996 26.6365Z" fill="#F3D02F"/>
<path d="M20.0002 27.7273L19.484 29.4037H17.8184L19.1791 30.4392L18.6629 32.0909L20.0002 31.0555L21.3609 32.0909L20.8448 30.4392L22.182 29.4037H20.5163L20.0002 27.7273Z" fill="#F3D02F"/>
<path d="M26.5451 26.6365L26.029 27.8753H24.3633L25.7005 28.6704L25.1844 29.9092L26.5451 29.1326L27.8823 29.9092L27.3662 28.6704L28.7269 27.8753H27.0612L26.5451 26.6365Z" fill="#F3D02F"/>
<path d="M30.3727 14.6365L29.9701 15.8938H28.7275L29.7426 16.6519L29.3576 17.9092L30.3727 17.1326L31.3702 17.9092L30.9852 16.6519L32.0003 15.8938H30.7402L30.3727 14.6365Z" fill="#F3D02F"/>
<path d="M30.3727 21.1819L29.9701 22.4392H28.7275L29.7426 23.1973L29.3576 24.4546L30.3727 23.6965L31.3702 24.4546L30.9852 23.1973L32.0003 22.4392H30.7402L30.3727 21.1819Z" fill="#F3D02F"/>
<path d="M26.5451 9.18188L26.029 10.4392H24.3633L25.7005 11.1973L25.1844 12.4546L26.5451 11.678L27.8823 12.4546L27.3662 11.1973L28.7269 10.4392H27.0612L26.5451 9.18188Z" fill="#F3D02F"/>
</g>
</g>
<defs>
<clipPath id="clip0_7150_3228">
<rect width="40" height="40" rx="20" fill="white"/>
</clipPath>
</defs>
</svg>
