<svg width="20" height="20" viewBox="0 0 20 20" fill="none" xmlns="http://www.w3.org/2000/svg">
<g clip-path="url(#clip0_184_293)">
<path d="M14.1603 16.9877C14.1249 16.9877 14.0903 16.9763 14.0617 16.9552C14.0332 16.9342 14.012 16.9045 14.0015 16.8707C13.9909 16.8368 13.9914 16.8004 14.003 16.7668C14.0145 16.7333 14.0365 16.7043 14.0657 16.6841L17.0307 14.6354C17.0255 14.6022 17.0305 14.5681 17.045 14.5378C17.0595 14.5074 17.0829 14.4822 17.112 14.4654L18.123 13.8817C18.1602 13.8614 18.2037 13.856 18.2446 13.8666C18.2856 13.8772 18.321 13.903 18.3437 13.9388C18.3663 13.9746 18.3745 14.0176 18.3666 14.0592C18.3587 14.1008 18.3352 14.1378 18.301 14.1627L17.639 14.6204L18.6323 14.0471C18.6513 14.035 18.6725 14.0269 18.6947 14.0232C18.7169 14.0196 18.7396 14.0205 18.7614 14.0258C18.7832 14.0312 18.8038 14.0409 18.8218 14.0544C18.8397 14.0679 18.8548 14.0848 18.8661 14.1043C18.8773 14.1238 18.8845 14.1453 18.8872 14.1676C18.8899 14.1899 18.8881 14.2126 18.8818 14.2341C18.8756 14.2557 18.865 14.2758 18.8508 14.2932C18.8365 14.3106 18.8189 14.325 18.799 14.3354L14.2437 16.9664C14.2182 16.9807 14.1895 16.988 14.1603 16.9877Z" fill="#A6725C"/>
<path d="M11.806 16.1564C11.7693 16.1564 11.7337 16.1443 11.7045 16.122C11.6754 16.0996 11.6545 16.0683 11.645 16.0329C11.6355 15.9974 11.638 15.9599 11.652 15.926C11.6661 15.8921 11.6909 15.8637 11.7227 15.8454L14.367 14.3187C14.4019 14.2989 14.4428 14.2922 14.4822 14.3001C14.5215 14.308 14.5567 14.3298 14.5813 14.3615C14.6059 14.3933 14.6182 14.4328 14.6159 14.4729C14.6137 14.513 14.597 14.5509 14.569 14.5797L13.9283 15.2301L15.218 14.4857C15.2541 14.465 15.2966 14.4586 15.3372 14.4677C15.3778 14.4768 15.4136 14.5007 15.4374 14.5348C15.4613 14.5689 15.4715 14.6106 15.4661 14.6519C15.4608 14.6932 15.4401 14.7309 15.4083 14.7577L15.2607 14.8811L15.5233 14.7294C15.5574 14.7097 15.5972 14.7027 15.6359 14.7096C15.6746 14.7164 15.7096 14.7368 15.7348 14.767C15.76 14.7971 15.7737 14.8353 15.7734 14.8746C15.7732 14.9139 15.7592 14.9518 15.7337 14.9817L15.4097 15.3624L15.654 15.2214C15.673 15.2093 15.6942 15.2012 15.7164 15.1976C15.7385 15.1939 15.7612 15.1948 15.7831 15.2002C15.8049 15.2055 15.8254 15.2152 15.8434 15.2287C15.8614 15.2422 15.8765 15.2592 15.8877 15.2786C15.899 15.2981 15.9062 15.3196 15.9089 15.342C15.9116 15.3643 15.9097 15.3869 15.9035 15.4085C15.8972 15.4301 15.8867 15.4502 15.8724 15.4676C15.8582 15.485 15.8406 15.4993 15.8207 15.5097L14.7397 16.1331C14.7057 16.1525 14.6659 16.1594 14.6274 16.1525C14.5888 16.1456 14.5539 16.1253 14.5288 16.0953C14.5037 16.0652 14.49 16.0272 14.4901 15.9881C14.4902 15.9489 14.5041 15.911 14.5293 15.8811L14.8537 15.5004L13.757 16.1337C13.7209 16.1541 13.6785 16.1603 13.6381 16.1511C13.5978 16.1419 13.5622 16.118 13.5385 16.084C13.5148 16.05 13.5046 16.0085 13.5098 15.9674C13.5151 15.9263 13.5355 15.8886 13.567 15.8617L13.7137 15.7394L13.03 16.1331C12.9951 16.1532 12.9541 16.16 12.9146 16.1522C12.8751 16.1445 12.8397 16.1226 12.815 16.0908C12.7903 16.059 12.778 16.0193 12.7803 15.9791C12.7827 15.9389 12.7995 15.9008 12.8277 15.8721L13.4683 15.2214L11.8893 16.1331C11.8641 16.148 11.8354 16.1561 11.806 16.1564Z" fill="#A6725C"/>
<path d="M12.8 19.8147C12.7646 19.8147 12.7301 19.8033 12.7016 19.7824C12.673 19.7615 12.6519 19.732 12.6413 19.6982C12.6306 19.6645 12.631 19.6282 12.6423 19.5946C12.6536 19.5611 12.6754 19.5321 12.7043 19.5117L13.7883 18.751L12.1357 19.705C12.0981 19.7251 12.0542 19.7301 12.0131 19.7189C11.972 19.7077 11.9368 19.6811 11.9146 19.6447C11.8925 19.6083 11.8851 19.5648 11.894 19.5231C11.903 19.4815 11.9275 19.4448 11.9627 19.4207L12.737 18.9237L11.6703 19.5394C11.6328 19.5597 11.5888 19.5649 11.5476 19.5538C11.5063 19.5428 11.4709 19.5163 11.4486 19.4798C11.4263 19.4434 11.4189 19.3998 11.4278 19.358C11.4368 19.3162 11.4614 19.2795 11.4967 19.2554L13.1463 18.192L11.1413 19.3497C11.1052 19.3704 11.0627 19.3768 11.0221 19.3677C10.9815 19.3587 10.9457 19.3347 10.9219 19.3006C10.898 19.2666 10.8878 19.2248 10.8932 19.1835C10.8986 19.1423 10.9192 19.1045 10.951 19.0777L11.7203 18.4334L10.5177 19.1277C10.4818 19.1483 10.4396 19.1548 10.3992 19.1459C10.3588 19.1371 10.3231 19.1136 10.2991 19.0799C10.2751 19.0463 10.2644 19.0049 10.2692 18.9638C10.274 18.9227 10.2939 18.8849 10.325 18.8577L11.3583 17.9577L9.78532 18.8657C9.74926 18.8867 9.70664 18.8933 9.6659 18.8844C9.62515 18.8755 9.58924 18.8516 9.56525 18.8174C9.54125 18.7833 9.53093 18.7414 9.53632 18.7001C9.5417 18.6587 9.5624 18.6209 9.59432 18.594L10.754 17.6134L9.04599 18.6C9.00895 18.6215 8.96507 18.6279 8.92344 18.6179C8.88181 18.6079 8.84563 18.5822 8.8224 18.5463C8.79916 18.5103 8.79066 18.4668 8.79866 18.4247C8.80665 18.3827 8.83052 18.3453 8.86532 18.3204L9.17032 18.1014L8.58999 18.4334C8.57139 18.4449 8.55069 18.4527 8.52909 18.4562C8.50749 18.4597 8.4854 18.459 8.46409 18.454C8.44278 18.449 8.42266 18.4398 8.40489 18.4271C8.38711 18.4143 8.37202 18.3981 8.36049 18.3795C8.34896 18.3609 8.3412 18.3402 8.33766 18.3186C8.33412 18.297 8.33488 18.2749 8.33988 18.2536C8.34997 18.2106 8.37675 18.1733 8.41432 18.15L9.73332 17.277L8.05832 18.2437C8.02071 18.2656 7.97603 18.2719 7.93383 18.2612C7.89163 18.2506 7.85526 18.2239 7.8325 18.1868C7.80973 18.1497 7.80238 18.1052 7.812 18.0628C7.82162 18.0203 7.84746 17.9833 7.88399 17.9597L8.25066 17.7214L7.53332 18.1354C7.49617 18.1564 7.45235 18.1624 7.4109 18.1521C7.36944 18.1419 7.33353 18.116 7.31056 18.08C7.28759 18.044 7.27933 18.0006 7.28747 17.9586C7.29561 17.9167 7.31955 17.8795 7.35432 17.8547L9.64832 16.2474L6.36866 18.1407C6.33151 18.1618 6.28768 18.1678 6.24623 18.1575C6.20478 18.1472 6.16886 18.1214 6.14589 18.0854C6.12293 18.0493 6.11466 18.0059 6.1228 17.964C6.13095 17.922 6.15488 17.8848 6.18966 17.86L8.74066 16.0684L5.42666 17.982C5.38928 18.0024 5.34552 18.0078 5.30435 17.9969C5.26317 17.9861 5.22771 17.9599 5.20523 17.9237C5.18276 17.8876 5.17498 17.8442 5.18348 17.8024C5.19199 17.7607 5.21615 17.7238 5.25099 17.6994L6.76466 16.6914L5.42666 17.464C5.38962 17.4855 5.34573 17.4919 5.30411 17.4819C5.26248 17.4719 5.2263 17.4462 5.20306 17.4103C5.17983 17.3743 5.17133 17.3308 5.17932 17.2887C5.18731 17.2467 5.21119 17.2093 5.24599 17.1844L7.46032 15.592L5.42666 16.7667C5.3892 16.788 5.34494 16.794 5.30317 16.7833C5.26141 16.7727 5.22538 16.7463 5.20265 16.7097C5.17992 16.6731 5.17226 16.6291 5.18127 16.587C5.19028 16.5448 5.21527 16.5078 5.25099 16.4837L5.38066 16.3974C5.34836 16.4048 5.31459 16.4024 5.28366 16.3905C5.25272 16.3786 5.22603 16.3578 5.20699 16.3307C5.18311 16.2966 5.17285 16.2548 5.17821 16.2136C5.18358 16.1723 5.20419 16.1345 5.23599 16.1077L5.64666 15.761L5.42666 15.888C5.39112 15.9086 5.34926 15.9152 5.30909 15.9068C5.26893 15.8984 5.23328 15.8754 5.20899 15.8424C5.18463 15.8092 5.17336 15.7683 5.17736 15.7274C5.18136 15.6865 5.20034 15.6485 5.23066 15.6207L5.34366 15.5177C5.31838 15.5177 5.29343 15.5119 5.27071 15.5008C5.24799 15.4897 5.22809 15.4736 5.21251 15.4537C5.19694 15.4338 5.18609 15.4106 5.18081 15.3859C5.17552 15.3612 5.17592 15.3356 5.18199 15.311L5.27699 14.927C5.2443 14.913 5.21713 14.8887 5.19966 14.8577C5.17763 14.8195 5.17165 14.7741 5.18302 14.7315C5.1944 14.6889 5.22219 14.6525 5.26032 14.6304L5.42699 14.534C5.45527 14.5177 5.48775 14.51 5.52037 14.5119C5.55299 14.5139 5.58432 14.5253 5.61046 14.5449C5.63661 14.5646 5.65641 14.5914 5.66741 14.6222C5.67841 14.653 5.68012 14.6863 5.67232 14.718L5.59966 15.0107L6.42566 14.534C6.46114 14.514 6.50275 14.5076 6.54259 14.5162C6.58244 14.5247 6.61778 14.5476 6.64192 14.5804C6.66605 14.6133 6.67732 14.6538 6.67359 14.6944C6.66985 14.735 6.65138 14.7728 6.62166 14.8007L6.58432 14.834L7.10632 14.534C7.14234 14.5135 7.18471 14.5071 7.22517 14.5162C7.26563 14.5252 7.30127 14.549 7.32513 14.5829C7.34899 14.6168 7.35936 14.6584 7.35422 14.6995C7.34908 14.7406 7.32879 14.7784 7.29732 14.8054L6.88666 15.1517L9.65999 13.5517C9.69749 13.5294 9.74222 13.5227 9.7846 13.5331C9.82697 13.5434 9.8636 13.5699 9.88664 13.607C9.90967 13.644 9.91727 13.6886 9.9078 13.7312C9.89833 13.7737 9.87255 13.8109 9.83599 13.8347L9.80266 13.857L10.1857 13.636C10.2227 13.6146 10.2666 13.6082 10.3082 13.6182C10.3498 13.6282 10.386 13.6538 10.4092 13.6898C10.4325 13.7257 10.441 13.7693 10.433 13.8113C10.425 13.8534 10.4011 13.8908 10.3663 13.9157L8.15232 15.5077L11.127 13.79C11.1645 13.7687 11.2087 13.7628 11.2505 13.7734C11.2922 13.784 11.3283 13.8104 11.351 13.847C11.3737 13.8836 11.3814 13.9276 11.3724 13.9698C11.3634 14.0119 11.3384 14.0489 11.3027 14.073L9.78832 15.081L11.8263 13.9047C11.8635 13.8836 11.9073 13.8776 11.9488 13.8879C11.9902 13.8982 12.0261 13.924 12.0491 13.96C12.0721 13.996 12.0803 14.0395 12.0722 14.0814C12.064 14.1234 12.0401 14.1606 12.0053 14.1854L9.45466 15.977L12.775 14.06C12.8121 14.039 12.856 14.0329 12.8974 14.0432C12.9389 14.0535 12.9748 14.0794 12.9978 14.1154C13.0207 14.1514 13.029 14.1948 13.0208 14.2368C13.0127 14.2787 12.9888 14.3159 12.954 14.3407L10.6597 15.9467L13.6747 14.2057C13.7124 14.1826 13.7577 14.1754 13.8007 14.1857C13.8437 14.196 13.8809 14.223 13.904 14.2607C13.9271 14.2984 13.9343 14.3437 13.924 14.3868C13.9137 14.4298 13.8867 14.4669 13.849 14.49L13.4823 14.728L14.2297 14.2967C14.2671 14.276 14.311 14.2705 14.3524 14.2814C14.3937 14.2922 14.4294 14.3185 14.4519 14.3548C14.4744 14.3912 14.4821 14.4348 14.4734 14.4766C14.4646 14.5185 14.4402 14.5554 14.405 14.5797L12.0607 16.1334C12.0867 16.1468 12.1087 16.1668 12.1247 16.1914C12.1479 16.2273 12.1565 16.2708 12.1486 16.3129C12.1406 16.355 12.1168 16.3924 12.082 16.4174L11.7773 16.6364L12.2013 16.3917C12.2373 16.3712 12.2797 16.3648 12.3202 16.3738C12.3606 16.3829 12.3963 16.4067 12.4201 16.4406C12.444 16.4745 12.4544 16.516 12.4492 16.5572C12.4441 16.5983 12.4238 16.636 12.3923 16.663L11.2333 17.6444L12.689 16.804C12.7249 16.7831 12.7673 16.7764 12.8078 16.7851C12.8484 16.7938 12.8843 16.8174 12.9085 16.8511C12.9326 16.8849 12.9433 16.9265 12.9384 16.9677C12.9335 17.0089 12.9134 17.0468 12.882 17.074L11.8487 17.974L13.2 17.192C13.2361 17.1713 13.2786 17.1649 13.3192 17.174C13.3598 17.1831 13.3956 17.207 13.4194 17.2411C13.4433 17.2752 13.4535 17.3169 13.4481 17.3582C13.4427 17.3995 13.4221 17.4372 13.3903 17.464L12.622 18.11L18.8967 14.4877C18.9342 14.4673 18.9781 14.4621 19.0194 14.4732C19.0606 14.4843 19.0961 14.5108 19.1184 14.5472C19.1406 14.5837 19.1481 14.6273 19.1391 14.669C19.1302 14.7108 19.1056 14.7476 19.0703 14.7717L17.4237 15.8334L18.7333 15.0777C18.771 15.0556 18.8159 15.0492 18.8583 15.0599C18.9007 15.0706 18.9372 15.0975 18.9599 15.1348C18.9827 15.1721 18.9898 15.2169 18.9799 15.2595C18.9699 15.3021 18.9436 15.339 18.9067 15.3624L17.0333 16.5634C17.0669 16.5764 17.0955 16.5997 17.115 16.63C17.1379 16.6662 17.1461 16.7099 17.1377 16.7519C17.1293 16.7939 17.1051 16.8311 17.07 16.8557L14.806 18.4447C14.8153 18.4548 14.8232 18.466 14.8297 18.478C14.8517 18.5162 14.8577 18.5616 14.8463 18.6042C14.8349 18.6468 14.8071 18.6832 14.769 18.7054L12.8833 19.7924C12.858 19.8071 12.8293 19.8148 12.8 19.8147Z" fill="#A6725C"/>
<path d="M0.822339 18.4908C0.786878 18.4908 0.752345 18.4794 0.723761 18.4585C0.695177 18.4375 0.674032 18.4079 0.6634 18.3741C0.652768 18.3403 0.653203 18.3039 0.664642 18.2704C0.676081 18.2368 0.697927 18.2077 0.727005 18.1874L2.41501 17.0064L0.427672 18.1538C0.390603 18.1749 0.346835 18.181 0.305387 18.1709C0.26394 18.1607 0.227971 18.135 0.204894 18.0991C0.181817 18.0632 0.173389 18.0199 0.181348 17.9779C0.189306 17.936 0.213045 17.8987 0.247672 17.8738L2.50901 16.2634L0.426672 17.4671C0.389413 17.4888 0.345203 17.4952 0.303324 17.485C0.261446 17.4748 0.225157 17.4487 0.202077 17.4123C0.178998 17.3759 0.170923 17.3319 0.179549 17.2897C0.188175 17.2475 0.212831 17.2102 0.248339 17.1858L1.24834 16.4921L0.426672 16.9648C0.389811 16.9859 0.346279 16.9921 0.30497 16.9822C0.263661 16.9723 0.227693 16.947 0.204415 16.9115C0.181137 16.876 0.172306 16.8329 0.179726 16.791C0.187147 16.7492 0.210258 16.7118 0.244339 16.6864L1.20001 15.9821L0.426672 16.4284C0.390626 16.4487 0.34833 16.4549 0.308004 16.4457C0.267678 16.4365 0.232203 16.4127 0.208473 16.3788C0.184743 16.3449 0.174453 16.3035 0.179603 16.2624C0.184753 16.2214 0.204975 16.1837 0.236339 16.1568L1.08934 15.4408L0.426672 15.8234C0.392276 15.8426 0.352208 15.849 0.313569 15.8414C0.27493 15.8338 0.240215 15.8129 0.215575 15.7821C0.190936 15.7514 0.177964 15.713 0.178958 15.6736C0.179952 15.6343 0.194848 15.5965 0.221005 15.5671L0.710339 15.0368L0.426672 15.2004C0.394987 15.2186 0.358205 15.2259 0.321983 15.2211C0.285761 15.2164 0.252107 15.1999 0.226199 15.1741C0.20029 15.1483 0.183563 15.1148 0.178589 15.0786C0.173615 15.0424 0.180672 15.0056 0.198672 14.9738L0.335672 14.7331C0.301675 14.7278 0.270166 14.712 0.245471 14.6881C0.220776 14.6641 0.204106 14.6331 0.197751 14.5992C0.191395 14.5654 0.195666 14.5305 0.209976 14.4992C0.224286 14.4679 0.247933 14.4418 0.277672 14.4244L0.666672 14.2004C0.69833 14.1822 0.735103 14.1749 0.771332 14.1796C0.807561 14.1843 0.84124 14.2008 0.867186 14.2265C0.893133 14.2522 0.90991 14.2858 0.914936 14.3219C0.919963 14.3581 0.91296 14.395 0.895005 14.4268L0.795005 14.6044L1.49501 14.2004C1.52948 14.1809 1.56981 14.1742 1.60874 14.1817C1.64768 14.1892 1.68267 14.2103 1.70745 14.2412C1.73222 14.2722 1.74514 14.311 1.7439 14.3506C1.74266 14.3902 1.72733 14.4281 1.70067 14.4574L1.20867 14.9871L2.57301 14.2004C2.60905 14.1802 2.65135 14.174 2.69167 14.1832C2.732 14.1924 2.76747 14.2162 2.7912 14.2501C2.81493 14.284 2.82522 14.3254 2.82007 14.3665C2.81492 14.4075 2.7947 14.4452 2.76334 14.4721L1.91067 15.1871L3.62067 14.1998C3.65753 14.1787 3.70107 14.1724 3.74237 14.1823C3.78368 14.1922 3.81965 14.2175 3.84293 14.2531C3.86621 14.2886 3.87504 14.3317 3.86762 14.3735C3.8602 14.4153 3.83709 14.4528 3.80301 14.4781L2.84734 15.1824L4.54934 14.2004C4.58654 14.1791 4.63055 14.1729 4.67219 14.1832C4.71384 14.1934 4.74993 14.2194 4.77294 14.2556C4.79596 14.2918 4.80413 14.3355 4.79576 14.3775C4.78739 14.4196 4.76312 14.4568 4.72801 14.4814L3.72801 15.1754L5.37267 14.2261C5.40974 14.205 5.45351 14.1988 5.49496 14.209C5.5364 14.2192 5.57237 14.2449 5.59545 14.2808C5.61853 14.3167 5.62696 14.36 5.619 14.402C5.61104 14.4439 5.5873 14.4812 5.55267 14.5061L3.29134 16.1158L5.57334 14.7984C5.61047 14.7779 5.65404 14.7723 5.69517 14.7827C5.73629 14.7932 5.77188 14.819 5.79467 14.8548C5.81746 14.8906 5.82574 14.9337 5.81781 14.9754C5.80988 15.0171 5.78635 15.0542 5.75201 15.0791L4.06467 16.2591L5.57334 15.3884C5.60982 15.3678 5.65273 15.3617 5.69351 15.3713C5.7343 15.3809 5.76998 15.4055 5.79343 15.4403C5.81689 15.475 5.8264 15.5173 5.82009 15.5587C5.81377 15.6001 5.79208 15.6376 5.75934 15.6638L4.05367 17.0004L5.57334 16.1231C5.60932 16.1023 5.65178 16.0957 5.69237 16.1046C5.73297 16.1135 5.76877 16.1373 5.79277 16.1712C5.81677 16.2051 5.82722 16.2468 5.82209 16.288C5.81695 16.3293 5.79659 16.3671 5.76501 16.3941L4.73167 17.2771L5.57201 16.7921C5.60544 16.7731 5.64444 16.7662 5.68237 16.7726C5.72031 16.7791 5.75485 16.7984 5.78013 16.8274C5.80541 16.8565 5.81987 16.8933 5.82107 16.9318C5.82226 16.9702 5.81011 17.0079 5.78667 17.0384L5.23334 17.7538L5.57401 17.5574C5.60625 17.5394 5.64358 17.5326 5.68013 17.5381C5.71667 17.5435 5.75036 17.561 5.77589 17.5877C5.80142 17.6144 5.81735 17.6489 5.82117 17.6856C5.82499 17.7224 5.81649 17.7594 5.79701 17.7908L5.69701 17.9428C5.72647 17.9539 5.75217 17.9732 5.77113 17.9984C5.79008 18.0236 5.80151 18.0536 5.80409 18.085C5.80667 18.1164 5.8003 18.1479 5.78571 18.1758C5.77113 18.2037 5.74892 18.227 5.72167 18.2428L5.33501 18.4661C5.30276 18.4842 5.26543 18.491 5.22889 18.4855C5.19234 18.48 5.15866 18.4625 5.13312 18.4358C5.10759 18.4091 5.09166 18.3747 5.08784 18.3379C5.08402 18.3012 5.09252 18.2642 5.11201 18.2328L5.13767 18.1934L4.66167 18.4678C4.62823 18.4868 4.58924 18.4937 4.5513 18.4873C4.51337 18.4808 4.47883 18.4615 4.45355 18.4324C4.42827 18.4034 4.4138 18.3666 4.41261 18.3281C4.41142 18.2897 4.42357 18.252 4.44701 18.2214L5.00234 17.5068L3.33567 18.4678C3.29973 18.4885 3.25735 18.495 3.21683 18.4862C3.1763 18.4773 3.14055 18.4536 3.11654 18.4198C3.09254 18.386 3.08202 18.3444 3.08704 18.3032C3.09206 18.262 3.11225 18.2242 3.14367 18.1971L4.17701 17.3138L2.17701 18.4678C2.14052 18.4884 2.09762 18.4945 2.05683 18.4849C2.01604 18.4753 1.98037 18.4507 1.95691 18.416C1.93346 18.3812 1.92394 18.339 1.93026 18.2975C1.93658 18.2561 1.95827 18.2186 1.99101 18.1924L3.69601 16.8561L0.905672 18.4671C0.880511 18.4823 0.851733 18.4905 0.822339 18.4908Z" fill="#EB6575"/>
<path d="M6.15699 3.15684C6.12134 3.15693 6.0866 3.14558 6.05788 3.12446C6.02915 3.10334 6.00796 3.07357 5.9974 3.03952C5.98685 3.00547 5.98749 2.96893 5.99923 2.93527C6.01098 2.90161 6.03321 2.8726 6.06265 2.85251L6.32199 2.67518L5.52665 3.13351C5.49033 3.15405 5.44762 3.16022 5.40697 3.1508C5.36632 3.14138 5.33068 3.11705 5.3071 3.08262C5.28352 3.04819 5.27371 3.00617 5.27961 2.96486C5.28552 2.92355 5.3067 2.88595 5.33899 2.85951L6.94132 1.57184L4.23565 3.13351C4.19889 3.15427 4.15561 3.1603 4.11457 3.15039C4.07353 3.14048 4.03778 3.11535 4.01454 3.0801C3.99131 3.04484 3.98232 3.00208 3.98939 2.96046C3.99647 2.91883 4.01908 2.88144 4.05265 2.85584L5.32199 1.91018L3.19999 3.13351C3.16346 3.15425 3.12045 3.16043 3.07956 3.15082C3.03868 3.14121 3.00293 3.11651 2.97946 3.08168C2.956 3.04684 2.94656 3.00443 2.95302 2.96293C2.95948 2.92143 2.98137 2.8839 3.01432 2.85784L4.51999 1.68251L2.00765 3.13351C1.97102 3.15385 1.92808 3.15964 1.88737 3.14974C1.84666 3.13984 1.81117 3.11498 1.78797 3.08009C1.76477 3.04521 1.75556 3.00286 1.76217 2.96149C1.76878 2.92012 1.79073 2.88276 1.82365 2.85684L3.22032 1.79351L0.933319 3.11451C0.896056 3.13829 0.850872 3.1463 0.807707 3.13676C0.764543 3.12723 0.726933 3.10094 0.703152 3.06368C0.679371 3.02641 0.671366 2.98123 0.680899 2.93807C0.690433 2.8949 0.716722 2.85729 0.753985 2.83351L1.09699 2.59684L0.579652 2.89684C0.542452 2.91948 0.497868 2.92666 0.455441 2.91685C0.413014 2.90703 0.376113 2.881 0.352634 2.84433C0.329156 2.80765 0.320965 2.76324 0.329815 2.7206C0.338664 2.67796 0.363851 2.64048 0.399985 2.61618L1.05699 2.14284L0.428652 2.50484C0.39239 2.52593 0.34951 2.53257 0.30857 2.52343C0.267629 2.5143 0.231639 2.49006 0.207782 2.45556C0.183925 2.42105 0.173955 2.37882 0.179863 2.3373C0.18577 2.29577 0.20712 2.25799 0.239652 2.23151L1.12565 1.50484L0.425652 1.90818C0.390173 1.92795 0.348695 1.93409 0.30901 1.92544C0.269325 1.91679 0.234165 1.89394 0.210136 1.86119C0.186108 1.82844 0.174865 1.78805 0.17852 1.7476C0.182175 1.70715 0.200476 1.66942 0.229985 1.64151L0.648652 1.26018L0.426652 1.38851C0.393645 1.40741 0.355164 1.41446 0.317601 1.40847C0.280037 1.40249 0.245651 1.38384 0.220151 1.35561C0.194652 1.32739 0.179574 1.29129 0.177422 1.25331C0.175269 1.21534 0.186172 1.17777 0.208318 1.14684L0.436652 0.829843C0.400267 0.829216 0.365088 0.816698 0.336486 0.7942C0.307884 0.771703 0.287431 0.740463 0.27825 0.70525C0.269069 0.670038 0.271664 0.632788 0.285641 0.599189C0.299617 0.56559 0.324206 0.537489 0.355652 0.519176L0.908652 0.200176C0.941625 0.181413 0.980014 0.174461 1.01747 0.180468C1.05493 0.186476 1.08922 0.205084 1.11467 0.233218C1.14013 0.261351 1.15522 0.297327 1.15746 0.335199C1.1597 0.373071 1.14895 0.410574 1.12699 0.44151L0.933319 0.711843L1.82032 0.200176C1.8558 0.180402 1.89728 0.174264 1.93696 0.182916C1.97665 0.191567 2.01181 0.214413 2.03583 0.247161C2.05986 0.279908 2.07111 0.320303 2.06745 0.360755C2.0638 0.401207 2.04549 0.438933 2.01599 0.466843L1.59799 0.847176L2.72032 0.200176C2.75654 0.179199 2.79933 0.172619 2.84018 0.181742C2.88103 0.190866 2.91695 0.215026 2.9408 0.24942C2.96465 0.283814 2.97469 0.325924 2.96892 0.367381C2.96315 0.408837 2.94199 0.446605 2.90965 0.473176L2.02332 1.20018L3.75665 0.200176C3.79362 0.179455 3.83709 0.173595 3.87823 0.183788C3.91937 0.193981 3.95507 0.219462 3.97809 0.255048C4.00111 0.290633 4.0097 0.33365 4.00213 0.375348C3.99455 0.417045 3.97138 0.454291 3.93732 0.47951L3.28032 0.95151L4.58332 0.200176C4.62053 0.179683 4.66415 0.17417 4.70529 0.184763C4.74643 0.195356 4.78196 0.221256 4.80465 0.257171C4.82733 0.293087 4.83544 0.336307 4.82732 0.378003C4.81921 0.419698 4.79548 0.456722 4.76099 0.48151L4.41765 0.71751L5.31465 0.200176C5.3513 0.179441 5.39443 0.173344 5.43539 0.18311C5.47634 0.192876 5.51209 0.217781 5.53543 0.25282C5.55878 0.287859 5.568 0.330436 5.56123 0.371994C5.55447 0.413552 5.53223 0.451011 5.49899 0.476843L4.10232 1.54118L6.42532 0.200176C6.46186 0.179017 6.50507 0.172515 6.54621 0.181983C6.58736 0.191451 6.62338 0.216184 6.647 0.251186C6.67062 0.286187 6.68007 0.328847 6.67344 0.370548C6.66682 0.412248 6.64462 0.449881 6.61132 0.475843L5.10532 1.65051L7.61899 0.200176C7.65575 0.179416 7.69903 0.173383 7.74007 0.183297C7.78111 0.193211 7.81686 0.218333 7.8401 0.253588C7.86333 0.288843 7.87232 0.331602 7.86525 0.373228C7.85817 0.414854 7.83556 0.452243 7.80199 0.477843L6.53332 1.42351L8.65332 0.200176C8.68964 0.179634 8.73235 0.173464 8.773 0.182887C8.81365 0.19231 8.84929 0.21664 8.87287 0.251069C8.89645 0.285498 8.90626 0.327519 8.90036 0.368829C8.89445 0.410139 8.87327 0.447732 8.84099 0.474176L7.23865 1.76118L9.94432 0.200176C9.98158 0.179454 10.0254 0.1738 10.0667 0.184376C10.108 0.194953 10.1437 0.220955 10.1664 0.257036C10.1891 0.293116 10.1971 0.33653 10.1888 0.378346C10.1805 0.420162 10.1564 0.457201 10.1217 0.481843L9.86265 0.659176L10.658 0.200176C10.6951 0.179031 10.7388 0.172911 10.7803 0.183077C10.8217 0.193243 10.8577 0.218921 10.8808 0.254819C10.9038 0.290717 10.9123 0.3341 10.9043 0.376027C10.8964 0.417955 10.8726 0.455232 10.838 0.480176L9.97399 1.09418L11.5243 0.200176C11.5613 0.179164 11.6048 0.173057 11.6461 0.183102C11.6874 0.193148 11.7233 0.218588 11.7465 0.25422C11.7696 0.289853 11.7783 0.332986 11.7707 0.3748C11.7631 0.416615 11.7399 0.453951 11.7057 0.479176L10.624 1.26684L12.4707 0.200176C12.5077 0.179988 12.551 0.174586 12.5918 0.185059C12.6327 0.195533 12.668 0.221102 12.6908 0.256615C12.7135 0.292127 12.722 0.334941 12.7144 0.376428C12.7068 0.417914 12.6838 0.454988 12.65 0.480176L11.8833 1.02151L13.307 0.200176C13.3441 0.179813 13.3875 0.174308 13.4285 0.184779C13.4695 0.19525 13.5049 0.220912 13.5277 0.256564C13.5505 0.292215 13.5588 0.335189 13.5511 0.376774C13.5433 0.418359 13.5201 0.455443 13.486 0.48051L12.8117 0.952843L14.1173 0.200176C14.1543 0.178949 14.198 0.172708 14.2395 0.182738C14.2809 0.192769 14.317 0.218307 14.3401 0.254098C14.3633 0.289888 14.3719 0.333207 14.3641 0.375138C14.3564 0.417069 14.3328 0.454423 14.2983 0.47951L13.2543 1.23351L15.0483 0.200176C15.0848 0.17968 15.1276 0.173626 15.1683 0.183216C15.209 0.192806 15.2446 0.217339 15.268 0.251949C15.2915 0.28656 15.301 0.32872 15.2949 0.370068C15.2887 0.411416 15.2672 0.448932 15.2347 0.475176L13.6927 1.68984L16.2747 0.200176C16.3111 0.179414 16.354 0.173131 16.3948 0.18258C16.4356 0.192029 16.4714 0.216515 16.495 0.25116C16.5186 0.285805 16.5282 0.328065 16.5221 0.36952C16.5159 0.410974 16.4943 0.44858 16.4617 0.474843L14.9 1.71218L17.5207 0.200176C17.5576 0.179455 17.6011 0.173595 17.6422 0.183788C17.6834 0.193981 17.7191 0.219462 17.7421 0.255048C17.7651 0.290633 17.7737 0.33365 17.7661 0.375348C17.7586 0.417045 17.7354 0.454291 17.7013 0.47951L16.711 1.19284L18.431 0.200176C18.4675 0.17916 18.5106 0.172739 18.5516 0.182204C18.5927 0.191669 18.6286 0.216318 18.6522 0.251195C18.6758 0.286072 18.6853 0.328592 18.6788 0.370206C18.6724 0.41182 18.6504 0.449443 18.6173 0.47551L17.1017 1.66051L19.3477 0.364176C19.3849 0.343153 19.4288 0.337244 19.4702 0.34767C19.5117 0.358096 19.5476 0.384061 19.5704 0.420194C19.5933 0.456327 19.6014 0.499864 19.5931 0.541801C19.5847 0.583738 19.5606 0.620868 19.5257 0.64551L19.3023 0.799843L19.5427 0.661176C19.5791 0.640292 19.6221 0.633944 19.663 0.643402C19.704 0.65286 19.7398 0.677427 19.7634 0.712186C19.787 0.746945 19.7966 0.789332 19.7903 0.830864C19.784 0.872396 19.7622 0.910009 19.7293 0.936176L18.749 1.71384L19.5733 1.23818C19.6095 1.21791 19.652 1.21188 19.6924 1.22125C19.7328 1.23062 19.7683 1.25473 19.7918 1.28885C19.8154 1.32298 19.8254 1.36467 19.8199 1.40579C19.8144 1.4469 19.7937 1.48448 19.762 1.51118L19.3857 1.81918L19.5733 1.71118C19.6073 1.69147 19.6471 1.68439 19.6858 1.69117C19.7244 1.69796 19.7595 1.71817 19.7847 1.74825C19.8099 1.77834 19.8237 1.81636 19.8236 1.85561C19.8236 1.89487 19.8096 1.93285 19.7843 1.96284L19.4403 2.37084L19.5633 2.30018C19.6016 2.27842 19.6469 2.27269 19.6894 2.28422C19.7318 2.29575 19.768 2.32361 19.79 2.36173C19.812 2.39984 19.8181 2.44511 19.8068 2.48766C19.7956 2.53021 19.768 2.56658 19.73 2.58884L18.7847 3.13351C18.7507 3.15321 18.7109 3.1603 18.6722 3.15351C18.6335 3.14673 18.5985 3.12651 18.5733 3.09643C18.5481 3.06635 18.5343 3.02833 18.5343 2.98907C18.5344 2.94981 18.5483 2.91184 18.5737 2.88184L18.9173 2.47384L17.7743 3.13351C17.7381 3.15377 17.6957 3.15981 17.6553 3.15044C17.6148 3.14107 17.5794 3.11696 17.5558 3.08283C17.5322 3.04871 17.5222 3.00701 17.5277 2.9659C17.5332 2.92478 17.5539 2.88721 17.5857 2.86051L17.9617 2.55251L16.9553 3.13351C16.9189 3.1539 16.8762 3.1599 16.8356 3.15032C16.795 3.14074 16.7595 3.11629 16.736 3.08179C16.7126 3.04728 16.7029 3.00524 16.709 2.96396C16.715 2.92269 16.7363 2.88518 16.7687 2.85884L17.749 2.08084L15.9257 3.13351C15.8885 3.1538 15.845 3.15919 15.804 3.14859C15.763 3.13799 15.7276 3.11218 15.705 3.07642C15.6823 3.04066 15.6741 2.99761 15.6821 2.95603C15.69 2.91444 15.7134 2.87743 15.7477 2.85251L15.9733 2.69618L15.2153 3.13351C15.1788 3.15412 15.1359 3.16024 15.0951 3.15064C15.0544 3.14103 15.0187 3.11642 14.9952 3.0817C14.9718 3.04698 14.9623 3.0047 14.9686 2.96327C14.9749 2.92185 14.9966 2.88433 15.0293 2.85818L16.545 1.67251L14.0133 3.13351C13.9764 3.15423 13.9329 3.16009 13.8917 3.1499C13.8506 3.1397 13.8149 3.11422 13.7919 3.07864C13.7689 3.04305 13.7603 3.00004 13.7678 2.95834C13.7754 2.91664 13.7986 2.87939 13.8327 2.85418L14.8223 2.14151L13.1033 3.13351C13.0669 3.15427 13.024 3.16055 12.9832 3.15111C12.9424 3.14166 12.9066 3.11717 12.883 3.08253C12.8594 3.04788 12.8497 3.00562 12.8559 2.96417C12.8621 2.92271 12.8837 2.88511 12.9163 2.85884L14.4783 1.62051L11.857 3.13351C11.8205 3.15401 11.7777 3.16006 11.737 3.15047C11.6964 3.14088 11.6607 3.11635 11.6373 3.08174C11.6138 3.04713 11.6043 3.00497 11.6104 2.96362C11.6166 2.92227 11.6381 2.88475 11.6707 2.85851L13.2127 1.64318L10.6307 3.13351C10.5937 3.15474 10.5499 3.16098 10.5085 3.15095C10.467 3.14092 10.431 3.11538 10.4078 3.07959C10.3846 3.0438 10.376 3.00048 10.3838 2.95855C10.3916 2.91662 10.4152 2.87926 10.4497 2.85418L11.4933 2.10018L9.69999 3.13351C9.66291 3.15387 9.61948 3.15938 9.5785 3.14891C9.53751 3.13844 9.50204 3.11277 9.47928 3.07712C9.45651 3.04147 9.44816 2.9985 9.4559 2.95691C9.46365 2.91533 9.48691 2.87824 9.52099 2.85318L10.1953 2.38018L8.88932 3.13351C8.85229 3.1537 8.80899 3.1591 8.76814 3.14863C8.72729 3.13815 8.69193 3.11258 8.66919 3.07707C8.64644 3.04156 8.638 2.99874 8.64557 2.95726C8.65315 2.91577 8.67616 2.8787 8.70999 2.85351L9.47665 2.31218L8.05299 3.13351C8.01605 3.15452 7.97248 3.16063 7.93118 3.15058C7.88989 3.14054 7.854 3.1151 7.83084 3.07947C7.80768 3.04383 7.79901 3.0007 7.80659 2.95889C7.81418 2.91707 7.83745 2.87973 7.87165 2.85451L8.95332 2.06684L7.10665 3.13351C7.06958 3.15466 7.02582 3.16078 6.98437 3.15061C6.94292 3.14044 6.90695 3.11477 6.88387 3.07887C6.8608 3.04297 6.85237 2.99959 6.86033 2.95766C6.86829 2.91573 6.89203 2.87845 6.92665 2.85351L7.79065 2.23884L6.24032 3.13351C6.21508 3.14849 6.18633 3.15654 6.15699 3.15684Z" fill="#C1DADC"/>
<path d="M5.99999 10.8229C5.96381 10.823 5.92858 10.8113 5.89962 10.7896C5.87067 10.768 5.84955 10.7374 5.83946 10.7027C5.82937 10.668 5.83086 10.6309 5.84371 10.5971C5.85655 10.5632 5.88005 10.5345 5.91065 10.5152L8.64832 8.78189L5.15232 10.7996C5.11448 10.8214 5.06958 10.8275 5.0273 10.8165C4.98501 10.8056 4.94871 10.7785 4.92621 10.741C4.90371 10.7036 4.89681 10.6588 4.90699 10.6163C4.91717 10.5738 4.94363 10.5371 4.98065 10.5139L7.19499 9.13389L4.50599 10.6862C4.46854 10.7053 4.42528 10.7094 4.38487 10.698C4.34446 10.6865 4.30989 10.6601 4.28806 10.6242C4.26624 10.5883 4.25877 10.5455 4.26717 10.5044C4.27556 10.4632 4.29919 10.4267 4.33332 10.4022L9.26065 7.25656L4.42732 10.0476C4.40854 10.0588 4.38773 10.0662 4.36608 10.0695C4.34442 10.0727 4.32235 10.0716 4.30111 10.0662C4.27988 10.0609 4.2599 10.0515 4.24232 10.0384C4.22474 10.0254 4.2099 10.009 4.19865 9.99022C4.1874 9.97144 4.17996 9.95063 4.17676 9.92898C4.17355 9.90732 4.17464 9.88525 4.17996 9.86401C4.18529 9.84278 4.19474 9.8228 4.20778 9.80522C4.22083 9.78764 4.23721 9.77281 4.25599 9.76155L7.06665 8.01122L4.42665 9.53522C4.38888 9.55513 4.3449 9.55978 4.3038 9.54821C4.2627 9.53665 4.2276 9.50975 4.20575 9.47306C4.1839 9.43638 4.17697 9.3927 4.18638 9.35105C4.19579 9.3094 4.22082 9.27295 4.25632 9.24922L5.52099 8.47056L4.42665 9.10222C4.38879 9.12355 4.3441 9.12925 4.30209 9.1181C4.26009 9.10695 4.2241 9.07984 4.2018 9.04254C4.1795 9.00524 4.17265 8.96071 4.18271 8.91843C4.19277 8.87615 4.21894 8.83948 4.25565 8.81622L6.79365 7.23989L4.42699 8.60655C4.38945 8.62693 4.34551 8.63212 4.30426 8.62104C4.263 8.60996 4.22758 8.58347 4.20529 8.54702C4.18301 8.51058 4.17557 8.46697 4.1845 8.4252C4.19344 8.38343 4.21807 8.34669 4.25332 8.32256L9.19665 5.12589L4.42665 7.87989C4.3891 7.90124 4.34473 7.90717 4.30289 7.89644C4.26105 7.88572 4.22501 7.85917 4.20236 7.82239C4.17972 7.78561 4.17223 7.74147 4.18149 7.69928C4.19075 7.65709 4.21602 7.62014 4.25199 7.59622L8.63332 4.72056L4.42665 7.14856C4.38917 7.16952 4.34503 7.17521 4.30345 7.16442C4.26188 7.15364 4.22607 7.12722 4.20349 7.09068C4.18092 7.05413 4.17333 7.01029 4.1823 6.96828C4.19128 6.92627 4.21612 6.88935 4.25165 6.86522L7.62832 4.64122L4.42665 6.48922C4.38892 6.51079 4.34424 6.51676 4.30217 6.50586C4.26009 6.49496 4.22393 6.46806 4.20141 6.43088C4.17889 6.3937 4.17178 6.3492 4.1816 6.30686C4.19142 6.26452 4.2174 6.22769 4.25399 6.20422L5.18732 5.60989L4.42665 6.04822C4.38917 6.06834 4.34541 6.07336 4.30434 6.06226C4.26328 6.05116 4.22801 6.02478 4.20576 5.98852C4.18352 5.95225 4.17599 5.90886 4.1847 5.86722C4.19342 5.82558 4.21773 5.78885 4.25265 5.76456L5.51932 4.94056L4.42665 5.57089C4.38901 5.59232 4.34451 5.59825 4.30257 5.58743C4.26063 5.57661 4.22455 5.54988 4.20197 5.51292C4.17939 5.47596 4.17209 5.43165 4.18162 5.3894C4.19114 5.34715 4.21674 5.31026 4.25299 5.28656L4.51732 5.11589L4.42665 5.16789C4.38953 5.18929 4.34559 5.19558 4.30396 5.18544C4.26233 5.1753 4.2262 5.14951 4.20308 5.11344C4.17996 5.07736 4.17162 5.03377 4.17979 4.9917C4.18797 4.94964 4.21203 4.91234 4.24699 4.88756L6.06232 3.59956L4.42665 4.54422C4.39033 4.56476 4.34762 4.57093 4.30697 4.56151C4.26632 4.55209 4.23068 4.52776 4.2071 4.49333C4.18352 4.4589 4.17371 4.41688 4.17962 4.37557C4.18552 4.33426 4.20671 4.29667 4.23899 4.27022L5.94099 2.90356L4.42665 3.77622C4.39082 3.79704 4.34851 3.80377 4.30798 3.79508C4.26745 3.78639 4.23162 3.76291 4.20747 3.72923C4.18332 3.69554 4.17259 3.65407 4.17737 3.6129C4.18215 3.57172 4.2021 3.53381 4.23332 3.50656L5.19632 2.66122L4.42665 3.10522C4.39309 3.12435 4.35392 3.13123 4.31585 3.12468C4.27777 3.11813 4.24316 3.09855 4.21792 3.0693C4.19269 3.04005 4.1784 3.00293 4.1775 2.96431C4.1766 2.92569 4.18914 2.88795 4.21299 2.85756L4.68899 2.25756L4.42665 2.40922C4.39791 2.42583 4.36487 2.43348 4.33175 2.43118C4.29864 2.42889 4.26696 2.41676 4.24078 2.39635C4.21461 2.37594 4.19512 2.34817 4.18482 2.31661C4.17453 2.28506 4.17389 2.25114 4.18299 2.21922L4.26765 1.92189C4.23873 1.90698 4.21493 1.88377 4.19932 1.85522C4.1773 1.81701 4.17132 1.77163 4.18269 1.72902C4.19406 1.68641 4.22186 1.65004 4.25999 1.62789L4.42665 1.53156C4.45537 1.51488 4.48842 1.50717 4.52155 1.50941C4.55468 1.51165 4.58639 1.52373 4.61261 1.54411C4.63883 1.56449 4.65836 1.59224 4.6687 1.62379C4.67905 1.65535 4.67972 1.68928 4.67065 1.72122L4.61599 1.91356L5.27932 1.53289C5.31288 1.51376 5.35205 1.50688 5.39013 1.51343C5.4282 1.51998 5.46282 1.53956 5.48805 1.56881C5.51329 1.59807 5.52758 1.63518 5.52848 1.6738C5.52938 1.71242 5.51683 1.75016 5.49299 1.78056L5.01665 2.38056L6.48932 1.53056C6.52511 1.50988 6.5673 1.50324 6.60771 1.51193C6.64812 1.52061 6.68385 1.544 6.70799 1.57756C6.7321 1.61115 6.74286 1.65252 6.73818 1.69361C6.7335 1.7347 6.71371 1.77258 6.68265 1.79989L5.72065 2.64456L7.65399 1.52889C7.69031 1.50835 7.73302 1.50218 7.77367 1.5116C7.81432 1.52102 7.84996 1.54535 7.87354 1.57978C7.89712 1.61421 7.90693 1.65623 7.90103 1.69754C7.89512 1.73885 7.87393 1.77644 7.84165 1.80289L6.13799 3.17156L8.98465 1.52789C9.02178 1.50648 9.06571 1.5002 9.10735 1.51034C9.14898 1.52048 9.18511 1.54626 9.20823 1.58234C9.23135 1.61842 9.23969 1.66201 9.23151 1.70407C9.22334 1.74614 9.19927 1.78343 9.16432 1.80822L7.34832 3.09656L10.0667 1.52689C10.1044 1.50381 10.1497 1.49666 10.1927 1.50701C10.2356 1.51736 10.2727 1.54435 10.2958 1.58206C10.3189 1.61976 10.326 1.66509 10.3157 1.70806C10.3054 1.75104 10.2784 1.78815 10.2407 1.81122L9.97599 1.98222L10.7667 1.52622C10.8042 1.50523 10.8485 1.49958 10.8901 1.51047C10.9318 1.52136 10.9676 1.54794 10.9901 1.58465C11.0126 1.62135 11.02 1.66533 11.0108 1.70738C11.0015 1.74943 10.9764 1.78628 10.9407 1.81022L9.67732 2.63289L11.594 1.52656C11.6318 1.50361 11.6771 1.49663 11.7201 1.50713C11.763 1.51763 11.8 1.54476 11.823 1.58256C11.8459 1.62035 11.8529 1.66571 11.8424 1.70865C11.8319 1.7516 11.8048 1.78861 11.767 1.81156L10.831 2.40822L12.359 1.52589C12.3776 1.51438 12.3983 1.50664 12.4199 1.50314C12.4416 1.49963 12.4636 1.50041 12.485 1.50544C12.5063 1.51047 12.5264 1.51965 12.5441 1.53245C12.5619 1.54525 12.577 1.56143 12.5885 1.58006C12.6 1.59868 12.6077 1.61939 12.6112 1.64101C12.6147 1.66262 12.614 1.68471 12.6089 1.70602C12.6039 1.72733 12.5947 1.74745 12.5819 1.76521C12.5691 1.78297 12.5529 1.79804 12.5343 1.80956L9.15965 4.03289L13.5027 1.52389C13.5402 1.50254 13.5846 1.49661 13.6264 1.50733C13.6683 1.51806 13.7043 1.54461 13.7269 1.58139C13.7496 1.61817 13.7571 1.66231 13.7478 1.7045C13.7386 1.74669 13.7133 1.78364 13.6773 1.80756L9.29665 4.68322L14.771 1.52256C14.8087 1.49948 14.854 1.49233 14.897 1.50268C14.94 1.51302 14.9771 1.54002 15.0002 1.57772C15.0232 1.61543 15.0304 1.66075 15.02 1.70373C15.0097 1.74671 14.9827 1.78381 14.945 1.80689L9.99999 5.00389L15.5733 1.78589C15.6112 1.76456 15.6559 1.75886 15.6979 1.77001C15.7399 1.78116 15.7759 1.80827 15.7982 1.84557C15.8205 1.88287 15.8273 1.9274 15.8173 1.96968C15.8072 2.01196 15.781 2.04863 15.7443 2.07189L13.2063 3.64822L15.573 2.28156C15.6108 2.26165 15.6547 2.257 15.6958 2.26856C15.7369 2.28013 15.772 2.30703 15.7939 2.34372C15.8157 2.3804 15.8227 2.42407 15.8133 2.46572C15.8039 2.50737 15.7788 2.54382 15.7433 2.56756L14.4867 3.34222L15.5733 2.71489C15.6108 2.69625 15.654 2.69242 15.6942 2.70415C15.7344 2.71588 15.7687 2.74232 15.7903 2.7782C15.8119 2.81408 15.8192 2.85678 15.8107 2.89779C15.8023 2.93881 15.7787 2.97514 15.7447 2.99956L12.9277 4.75356L15.5733 3.22756C15.611 3.20716 15.655 3.20203 15.6963 3.21322C15.7376 3.2244 15.773 3.25106 15.7952 3.28765C15.8174 3.32425 15.8247 3.36798 15.8155 3.40979C15.8064 3.4516 15.7815 3.48827 15.746 3.51222L10.8227 6.65522L15.5733 3.91222C15.5921 3.90097 15.6129 3.89353 15.6346 3.89032C15.6562 3.88712 15.6783 3.88821 15.6995 3.89353C15.7208 3.89885 15.7407 3.90831 15.7583 3.92135C15.7759 3.9344 15.7907 3.95078 15.802 3.96956C15.8132 3.98833 15.8207 4.00915 15.8239 4.0308C15.8271 4.05245 15.826 4.07453 15.8207 4.09576C15.8154 4.117 15.8059 4.13697 15.7929 4.15455C15.7798 4.17213 15.7634 4.18697 15.7447 4.19822L13.523 5.58289L15.5733 4.39956C15.6112 4.3767 15.6565 4.36982 15.6994 4.38041C15.7424 4.39101 15.7793 4.41822 15.8022 4.45606C15.825 4.49389 15.8319 4.53926 15.8213 4.58217C15.8107 4.62509 15.7835 4.66204 15.7457 4.68489L13.006 6.41822L15.5727 4.93622C15.6103 4.91583 15.6543 4.91069 15.6956 4.92188C15.7369 4.93307 15.7724 4.95972 15.7946 4.99632C15.8168 5.03291 15.824 5.07665 15.8149 5.11845C15.8057 5.16026 15.7808 5.19694 15.7453 5.22089L13.4537 6.68056L15.5727 5.45722C15.61 5.43592 15.6542 5.4299 15.6959 5.44041C15.7376 5.45092 15.7736 5.47715 15.7965 5.51362C15.8193 5.55008 15.8271 5.59396 15.8183 5.63607C15.8095 5.67818 15.7848 5.71526 15.7493 5.73956L12.153 8.17289L15.5733 6.19956C15.6109 6.17918 15.6548 6.17399 15.6961 6.18507C15.7373 6.19615 15.7727 6.22264 15.795 6.25909C15.8173 6.29553 15.8247 6.33914 15.8158 6.38091C15.8069 6.42268 15.7822 6.45942 15.747 6.48356L14.721 7.14589L15.5733 6.65389C15.6107 6.63259 15.6549 6.62657 15.6966 6.63708C15.7383 6.64759 15.7743 6.67382 15.7971 6.71028C15.82 6.74675 15.8278 6.79062 15.819 6.83273C15.8102 6.87484 15.7855 6.91192 15.75 6.93622L13.9633 8.14256L15.5733 7.21322C15.6103 7.19166 15.6541 7.18514 15.6957 7.19501C15.7374 7.20488 15.7736 7.23038 15.797 7.26624C15.8203 7.3021 15.829 7.34556 15.8212 7.38763C15.8134 7.42969 15.7897 7.46714 15.755 7.49222L13.76 8.94522L15.5733 7.89856C15.6097 7.87751 15.6527 7.87099 15.6937 7.8803C15.7346 7.8896 15.7706 7.91404 15.7943 7.94873C15.8181 7.98341 15.8278 8.02578 15.8216 8.06735C15.8154 8.10891 15.7938 8.14661 15.761 8.17289L14.1943 9.43456L15.5733 8.63856C15.6092 8.61773 15.6515 8.61101 15.692 8.6197C15.7325 8.62839 15.7684 8.65187 15.7925 8.68555C15.8167 8.71924 15.8274 8.76071 15.8226 8.80188C15.8178 8.84305 15.7979 8.88097 15.7667 8.90822L14.9 9.66789L15.5723 9.27989C15.6078 9.2611 15.6488 9.25572 15.6879 9.26474C15.7269 9.27376 15.7615 9.29657 15.7851 9.32898C15.8087 9.3614 15.8198 9.40124 15.8165 9.44121C15.8131 9.48117 15.7954 9.51858 15.7667 9.54656L15.589 9.70555C15.6205 9.69178 15.6554 9.68807 15.6891 9.69493C15.7228 9.70179 15.7535 9.71889 15.7771 9.74389C15.8006 9.76889 15.8159 9.80056 15.8208 9.83457C15.8257 9.86858 15.8199 9.90327 15.8043 9.93389L15.6377 10.2646H15.6393C15.6759 10.2647 15.7114 10.2768 15.7404 10.2992C15.7694 10.3215 15.7902 10.3527 15.7997 10.388C15.8092 10.4234 15.8068 10.4608 15.7929 10.4947C15.7789 10.5285 15.7543 10.5568 15.7227 10.5752L15.336 10.7986C15.3049 10.8171 15.2686 10.825 15.2326 10.821C15.1966 10.8171 15.1629 10.8015 15.1365 10.7767C15.1102 10.7519 15.0926 10.7191 15.0865 10.6835C15.0804 10.6478 15.086 10.6111 15.1027 10.5789L15.253 10.2832L14.361 10.7996C14.3256 10.8183 14.2845 10.8237 14.2454 10.8147C14.2064 10.8057 14.1719 10.7829 14.1482 10.7505C14.1246 10.718 14.1135 10.6782 14.1169 10.6382C14.1202 10.5983 14.1379 10.5609 14.1667 10.5329L14.3407 10.3772L13.6073 10.8012C13.5715 10.8217 13.5294 10.8281 13.4892 10.8193C13.4489 10.8105 13.4133 10.7872 13.3893 10.7537C13.3653 10.7202 13.3545 10.679 13.359 10.638C13.3636 10.5971 13.3832 10.5593 13.414 10.5319L14.2807 9.77155L12.495 10.7996C12.4587 10.8201 12.416 10.8263 12.3753 10.8168C12.3347 10.8074 12.299 10.7831 12.2754 10.7487C12.2519 10.7142 12.242 10.6722 12.248 10.6309C12.2539 10.5896 12.275 10.552 12.3073 10.5256L13.874 9.26389L11.2137 10.7996C11.1767 10.8211 11.1329 10.8276 11.0912 10.8178C11.0496 10.8079 11.0134 10.7824 10.99 10.7465C10.9667 10.7107 10.958 10.6672 10.9658 10.6252C10.9736 10.5831 10.9973 10.5456 11.032 10.5206L13.0267 9.06622L10.0267 10.7996C9.98937 10.82 9.94567 10.8254 9.90452 10.8147C9.86337 10.804 9.82787 10.7779 9.8053 10.7419C9.78272 10.7059 9.77477 10.6626 9.78308 10.6208C9.79139 10.5791 9.81533 10.5422 9.84999 10.5176L11.637 9.31089L9.05632 10.7996C9.01874 10.8206 8.9745 10.8262 8.93286 10.8153C8.89121 10.8044 8.8554 10.7778 8.83291 10.7411C8.81043 10.7044 8.80301 10.6604 8.81222 10.6184C8.82143 10.5764 8.84655 10.5395 8.88232 10.5156L9.90899 9.85322L8.26932 10.7996C8.23201 10.8205 8.18804 10.8264 8.14655 10.8158C8.10506 10.8053 8.06922 10.7791 8.04646 10.7429C8.0237 10.7066 8.01577 10.663 8.02431 10.621C8.03284 10.5791 8.0572 10.542 8.09232 10.5176L11.6877 8.08422L6.98565 10.7996C6.94799 10.8206 6.90362 10.8262 6.86189 10.8152C6.82016 10.8043 6.78432 10.7775 6.76191 10.7406C6.7395 10.7038 6.73226 10.6596 6.74173 10.6175C6.75119 10.5754 6.77662 10.5386 6.81265 10.5149L9.10899 9.05222L6.08232 10.7996C6.05737 10.8144 6.029 10.8224 5.99999 10.8229Z" fill="#2AA084"/>
<path d="M10.2257 9.46835C10.1934 9.46833 10.1618 9.45892 10.1347 9.44126C10.1077 9.42361 10.0863 9.39848 10.0733 9.36892C10.0603 9.33936 10.0561 9.30665 10.0613 9.27477C10.0665 9.24289 10.0809 9.21321 10.1027 9.18935L10.4667 8.78935L9.51634 9.33802C9.48054 9.35877 9.4383 9.36547 9.39784 9.3568C9.35738 9.34813 9.32159 9.32473 9.29743 9.29113C9.27328 9.25753 9.26248 9.21615 9.26715 9.17504C9.27181 9.13392 9.2916 9.09601 9.32268 9.06868L9.89301 8.56668L9.10001 9.02535C9.06363 9.04639 9.02065 9.05291 8.97967 9.04361C8.93868 9.03431 8.90273 9.00987 8.879 8.97518C8.85528 8.9405 8.84553 8.89813 8.85171 8.85656C8.85789 8.81499 8.87955 8.7773 8.91234 8.75102L9.24934 8.48168L8.88268 8.69402C8.84775 8.71416 8.8067 8.72095 8.76715 8.71315C8.7276 8.70534 8.69221 8.68346 8.66755 8.65156C8.6429 8.61966 8.63064 8.57991 8.63305 8.53966C8.63546 8.49942 8.65238 8.46141 8.68068 8.43268L9.54734 7.55868L8.76667 8.00702C8.73209 8.02706 8.69145 8.034 8.65218 8.02658C8.6129 8.01916 8.5776 7.99787 8.55271 7.9666C8.52782 7.93532 8.515 7.89614 8.51658 7.8562C8.51816 7.81626 8.53405 7.77822 8.56134 7.74902L8.96134 7.32102C8.92649 7.31704 8.89377 7.30217 8.86786 7.27852C8.84195 7.25487 8.82416 7.22364 8.81703 7.18929C8.8099 7.15494 8.8138 7.11921 8.82816 7.0872C8.84252 7.0552 8.86661 7.02853 8.89701 7.01102L9.68901 6.55368C9.72363 6.53364 9.7643 6.52671 9.8036 6.53417C9.8429 6.54163 9.87821 6.56298 9.90308 6.59432C9.92794 6.62565 9.94071 6.66489 9.93904 6.70485C9.93738 6.74482 9.92139 6.78286 9.89401 6.81202L9.57068 7.15768L10.4523 6.64835C10.4873 6.62821 10.5283 6.62141 10.5679 6.62922C10.6074 6.63703 10.6428 6.65891 10.6675 6.69081C10.6921 6.72271 10.7044 6.76246 10.702 6.80271C10.6996 6.84295 10.6826 6.88096 10.6543 6.90968L9.78768 7.78435L10.99 7.09035C11.0264 7.06931 11.0694 7.06279 11.1104 7.07209C11.1513 7.08139 11.1873 7.10584 11.211 7.14052C11.2347 7.17521 11.2445 7.21757 11.2383 7.25914C11.2321 7.30071 11.2105 7.33841 11.1777 7.36468L10.8413 7.63135L11.169 7.44268C11.2048 7.42193 11.247 7.41523 11.2875 7.4239C11.328 7.43257 11.3638 7.45598 11.3879 7.48957C11.4121 7.52317 11.4229 7.56455 11.4182 7.60566C11.4135 7.64678 11.3937 7.68469 11.3627 7.71202L10.7927 8.21435L11.2333 7.96335C11.2678 7.94377 11.308 7.93707 11.3469 7.94446C11.3858 7.95185 11.4208 7.97285 11.4456 8.00369C11.4704 8.03453 11.4835 8.0732 11.4824 8.11278C11.4813 8.15236 11.4662 8.19025 11.4397 8.21968L11.021 8.67802C11.0574 8.67887 11.0924 8.69159 11.1209 8.71424C11.1493 8.73688 11.1696 8.76821 11.1786 8.80344C11.1876 8.83867 11.1848 8.87588 11.1707 8.90938C11.1565 8.94289 11.1318 8.97085 11.1003 8.98902L10.3087 9.44602C10.2835 9.46075 10.2548 9.46847 10.2257 9.46835Z" fill="#1D7765"/>
<path d="M10.4827 5.45526C10.4481 5.45523 10.4143 5.44444 10.3861 5.42438C10.358 5.40432 10.3367 5.37599 10.3254 5.34331C10.314 5.31063 10.3131 5.27522 10.3228 5.24201C10.3324 5.20879 10.3522 5.1794 10.3793 5.15793L11.5153 4.25959L9.50366 5.42126C9.46666 5.4431 9.42264 5.4498 9.38081 5.43996C9.33898 5.43013 9.30256 5.40451 9.27917 5.36847C9.25577 5.33243 9.2472 5.28874 9.25524 5.24653C9.26328 5.20432 9.28732 5.16684 9.32233 5.14193L10.9117 3.98993L8.77533 5.22326C8.73799 5.24493 8.69369 5.25127 8.65176 5.24093C8.60984 5.23059 8.57357 5.20439 8.55058 5.16783C8.5276 5.13128 8.51969 5.08724 8.52854 5.04497C8.53738 5.00271 8.56228 4.96553 8.598 4.94126L9.907 4.04826L8.27833 4.98826C8.24121 5.00967 8.19727 5.01595 8.15564 5.00581C8.114 4.99567 8.07788 4.96989 8.05475 4.93381C8.03163 4.89773 8.02329 4.85414 8.03147 4.81207C8.03965 4.77001 8.06371 4.73271 8.09866 4.70793L9.671 3.59226L7.80666 4.66859C7.76971 4.69015 7.72587 4.69668 7.68424 4.68681C7.6426 4.67694 7.60636 4.65143 7.58301 4.61558C7.55967 4.57972 7.551 4.53626 7.55882 4.49419C7.56663 4.45212 7.59033 4.41467 7.625 4.38959L9.01233 3.37826L7.41233 4.30226C7.37521 4.32367 7.33127 4.32995 7.28964 4.31981C7.248 4.30967 7.21188 4.28389 7.18875 4.24781C7.16563 4.21173 7.15729 4.16814 7.16547 4.12608C7.17365 4.08401 7.19771 4.04672 7.23266 4.02193L7.79333 3.62559L7.15333 3.99493C7.11652 4.01586 7.07312 4.02199 7.03195 4.01208C6.99078 4.00216 6.95492 3.97695 6.93167 3.94156C6.90842 3.90617 6.89951 3.86326 6.90675 3.82153C6.91399 3.77981 6.93684 3.74241 6.97066 3.71693L7.585 3.25993L6.92166 3.64293C6.88652 3.66319 6.8452 3.66995 6.80544 3.66193C6.76568 3.6539 6.73021 3.63166 6.70567 3.59935C6.68114 3.56705 6.66923 3.52691 6.67217 3.48645C6.67512 3.446 6.69271 3.408 6.72166 3.37959L7.64333 2.47559L6.64566 3.05159C6.6117 3.07217 6.57151 3.07994 6.53232 3.07351C6.49314 3.06707 6.45754 3.04686 6.43193 3.01652C6.40632 2.98617 6.3924 2.94767 6.39265 2.90796C6.39291 2.86826 6.40733 2.82994 6.43333 2.79993L6.862 2.28426L6.49366 2.49993C6.46654 2.51553 6.43556 2.52318 6.40429 2.522C6.37302 2.52083 6.34271 2.51087 6.31684 2.49327C6.29096 2.47567 6.27056 2.45114 6.25797 2.42249C6.24539 2.39384 6.24112 2.36222 6.24566 2.33126L6.30466 1.93326C6.27281 1.92475 6.2442 1.90698 6.22245 1.8822C6.2007 1.85743 6.18678 1.82676 6.18247 1.79407C6.17815 1.76139 6.18362 1.72815 6.19819 1.69858C6.21277 1.66901 6.23578 1.64442 6.26433 1.62793L6.42733 1.53359C6.45448 1.51796 6.48549 1.5103 6.5168 1.51149C6.54811 1.51268 6.57845 1.52266 6.60434 1.54031C6.63023 1.55795 6.65062 1.58253 6.66318 1.61124C6.67573 1.63994 6.67995 1.67161 6.67533 1.70259L6.626 2.03893L7.504 1.53226C7.53785 1.51292 7.57741 1.50606 7.6158 1.51287C7.65419 1.51968 7.68897 1.53974 7.7141 1.56954C7.73923 1.59935 7.75312 1.63703 7.75334 1.67601C7.75357 1.715 7.74012 1.75283 7.71533 1.78293L7.287 2.29659L8.61633 1.52993C8.65147 1.50966 8.69279 1.50291 8.73255 1.51093C8.77231 1.51895 8.80779 1.5412 8.83232 1.5735C8.85685 1.6058 8.86876 1.64594 8.86582 1.6864C8.86288 1.72686 8.84528 1.76485 8.81633 1.79326L7.894 2.69659L9.91966 1.52726C9.95648 1.50633 9.99988 1.5002 10.041 1.51011C10.0822 1.52002 10.1181 1.54524 10.1413 1.58063C10.1646 1.61602 10.1735 1.65893 10.1662 1.70065C10.159 1.74238 10.1362 1.77978 10.1023 1.80526L9.487 2.26226L10.7627 1.52593C10.7998 1.50452 10.8437 1.49824 10.8854 1.50838C10.927 1.51852 10.9631 1.5443 10.9862 1.58038C11.0094 1.61645 11.0177 1.66005 11.0095 1.70211C11.0013 1.74418 10.9773 1.78147 10.9423 1.80626L10.381 2.20326L11.556 1.52493C11.593 1.50337 11.6368 1.49685 11.6784 1.50672C11.7201 1.51659 11.7563 1.54209 11.7796 1.57795C11.803 1.6138 11.8117 1.65726 11.8038 1.69933C11.796 1.7414 11.7723 1.77885 11.7377 1.80393L10.3513 2.81459L12.588 1.52326C12.6251 1.50186 12.6691 1.49557 12.7107 1.50571C12.7523 1.51585 12.7885 1.54163 12.8116 1.57771C12.8347 1.61379 12.843 1.65738 12.8349 1.69945C12.8267 1.74151 12.8026 1.77881 12.7677 1.80359L11.195 2.91959L13.5723 1.54726C13.6096 1.52654 13.6534 1.52088 13.6947 1.53146C13.736 1.54204 13.7717 1.56804 13.7944 1.60412C13.8171 1.6402 13.8251 1.68361 13.8168 1.72543C13.8085 1.76725 13.7845 1.80429 13.7497 1.82893L12.441 2.72226L13.528 2.09459C13.565 2.07275 13.609 2.06605 13.6509 2.07589C13.6927 2.08573 13.7291 2.11134 13.7525 2.14738C13.7759 2.18343 13.7845 2.22711 13.7764 2.26933C13.7684 2.31154 13.7443 2.34901 13.7093 2.37393L12.1197 3.52593L13.3303 2.82593C13.3668 2.80395 13.4104 2.7968 13.452 2.80594C13.4937 2.81508 13.5302 2.83983 13.5541 2.87508C13.5781 2.91034 13.5876 2.95344 13.5808 2.9955C13.5739 3.03757 13.5512 3.07542 13.5173 3.10126L12.381 3.99993L12.8117 3.75159C12.8498 3.73167 12.8941 3.72723 12.9354 3.73921C12.9766 3.75118 13.0117 3.77865 13.0332 3.81587C13.0547 3.85308 13.061 3.89717 13.0508 3.93893C13.0406 3.98068 13.0146 4.01687 12.9783 4.03993L10.5667 5.43326C10.5412 5.44802 10.5121 5.45562 10.4827 5.45526Z" fill="#1D7765"/>
<path d="M12.9 10.8331C12.8659 10.8331 12.8327 10.8225 12.8047 10.803C12.7768 10.7835 12.7555 10.7558 12.7438 10.7238C12.7321 10.6918 12.7304 10.657 12.7391 10.624C12.7478 10.591 12.7664 10.5615 12.7923 10.5394L14.145 9.39111L12.8377 10.1458C12.8011 10.1674 12.7577 10.1743 12.7163 10.165C12.6748 10.1557 12.6385 10.1309 12.6147 10.0957C12.5909 10.0605 12.5815 10.0176 12.5883 9.97563C12.5951 9.9337 12.6176 9.89596 12.6513 9.87011L13.697 9.05111L13.1283 9.37944C13.092 9.40077 13.0489 9.40755 13.0078 9.39839C12.9666 9.38924 12.9305 9.36484 12.9066 9.33011C12.8828 9.29538 12.8729 9.25289 12.8791 9.21121C12.8853 9.16952 12.9071 9.13173 12.94 9.10544L13.5253 8.63211C13.5019 8.61629 13.4828 8.59477 13.47 8.56956C13.4571 8.54434 13.4509 8.51628 13.4519 8.488C13.4529 8.45972 13.4611 8.43216 13.4757 8.40792C13.4903 8.38368 13.5108 8.36355 13.5353 8.34944L14.7323 7.65811C14.7686 7.6373 14.8114 7.6309 14.8522 7.64018C14.893 7.64946 14.9288 7.67375 14.9525 7.70821C14.9763 7.74267 14.9861 7.78479 14.9802 7.82621C14.9743 7.86763 14.9531 7.90531 14.9207 7.93177L14.8 8.02944L15.575 7.58211C15.6115 7.56149 15.6544 7.55538 15.6952 7.56498C15.736 7.57458 15.7717 7.5992 15.7951 7.63392C15.8186 7.66864 15.8281 7.71092 15.8218 7.75234C15.8154 7.79377 15.7938 7.83129 15.761 7.85744L14.716 8.67611L15.575 8.18044C15.611 8.16031 15.6531 8.15422 15.6933 8.16334C15.7335 8.17247 15.7689 8.19617 15.7927 8.22986C15.8164 8.26355 15.8268 8.30484 15.8219 8.34577C15.817 8.38669 15.7971 8.42434 15.766 8.45144L14.4113 9.59977L15.5733 8.92911C15.6096 8.9083 15.6524 8.9019 15.6932 8.91118C15.734 8.92046 15.7698 8.94475 15.7935 8.97921C15.8173 9.01367 15.8272 9.05579 15.8212 9.09721C15.8153 9.13863 15.7941 9.17631 15.7617 9.20277L15.4353 9.46744L15.5733 9.38811C15.6056 9.36991 15.643 9.36297 15.6796 9.36839C15.7163 9.3738 15.75 9.39126 15.7757 9.41802C15.8013 9.44477 15.8172 9.47929 15.821 9.51612C15.8248 9.55296 15.8163 9.59002 15.7967 9.62144L15.4437 10.1664L15.5733 10.0918C15.6116 10.07 15.6569 10.0643 15.6994 10.0758C15.7419 10.0873 15.7781 10.1152 15.8001 10.1533C15.8221 10.1914 15.8281 10.2367 15.8169 10.2793C15.8056 10.3218 15.778 10.3582 15.74 10.3804L15.01 10.8014C14.9778 10.8196 14.9404 10.8266 14.9037 10.8212C14.8671 10.8157 14.8333 10.7983 14.8077 10.7715C14.7821 10.7448 14.7661 10.7103 14.7623 10.6734C14.7585 10.6366 14.7671 10.5995 14.7867 10.5681L15.1397 10.0244L13.7823 10.8081C13.746 10.8293 13.7031 10.836 13.662 10.8269C13.621 10.8177 13.5849 10.7934 13.5611 10.7588C13.5372 10.7242 13.5273 10.6818 13.5334 10.6402C13.5394 10.5986 13.5609 10.5608 13.5937 10.5344L13.92 10.2701L12.9817 10.8114C12.9568 10.8257 12.9287 10.8332 12.9 10.8331Z" fill="#1D7765"/>
<path d="M5.33701 10.8235C5.30298 10.8235 5.26978 10.8131 5.24185 10.7936C5.21392 10.7742 5.19261 10.7467 5.18078 10.7148C5.16895 10.6829 5.16717 10.6481 5.17567 10.6152C5.18417 10.5823 5.20255 10.5527 5.22834 10.5305L5.50834 10.2892L4.65201 10.7838C4.61654 10.8034 4.57518 10.8093 4.53565 10.8005C4.49612 10.7918 4.46113 10.769 4.43721 10.7363C4.41329 10.7036 4.40207 10.6634 4.40565 10.6231C4.40923 10.5827 4.42737 10.5451 4.45667 10.5172L5.36667 9.69151L4.42667 10.2335C4.39028 10.2539 4.34756 10.2599 4.30696 10.2503C4.26635 10.2407 4.23082 10.2163 4.20737 10.1818C4.18392 10.1473 4.17426 10.1052 4.18031 10.064C4.18635 10.0227 4.20765 9.98517 4.24001 9.95884L4.491 9.75884L4.42667 9.79584C4.39061 9.8168 4.34799 9.82347 4.30725 9.81454C4.2665 9.8056 4.23059 9.78172 4.20659 9.74759C4.1826 9.71347 4.17228 9.67159 4.17766 9.63023C4.18305 9.58886 4.20375 9.55102 4.23567 9.52417L4.51834 9.28484L4.42667 9.33784C4.39329 9.35712 4.35426 9.36423 4.31623 9.35796C4.27819 9.35169 4.24351 9.33243 4.21808 9.30347C4.19264 9.2745 4.17804 9.23761 4.17675 9.19908C4.17546 9.16056 4.18757 9.12278 4.21101 9.09217L4.72434 8.42151L4.42667 8.59284C4.39889 8.60887 4.36708 8.61654 4.33505 8.61494C4.30302 8.61334 4.27213 8.60253 4.24609 8.5838C4.22005 8.56508 4.19996 8.53925 4.18824 8.5094C4.17652 8.47954 4.17366 8.44694 4.18001 8.41551L4.28001 7.92551C4.24615 7.91166 4.21787 7.88691 4.19967 7.85517C4.17752 7.81697 4.17142 7.77154 4.18274 7.72886C4.19405 7.68617 4.22184 7.64972 4.26 7.62751L4.41567 7.53717C4.44346 7.52104 4.47531 7.51329 4.5074 7.51484C4.53949 7.5164 4.57045 7.52719 4.59654 7.54593C4.62264 7.56466 4.64277 7.59054 4.6545 7.62045C4.66623 7.65036 4.66907 7.68302 4.66267 7.71451L4.58067 8.11951L5.28067 7.71517C5.31405 7.6959 5.35308 7.68879 5.39112 7.69505C5.42915 7.70132 5.46384 7.72058 5.48927 7.74955C5.5147 7.77852 5.5293 7.8154 5.53059 7.85393C5.53188 7.89246 5.51978 7.93024 5.49634 7.96084L4.98301 8.63351L5.95834 8.07051C5.99436 8.04998 6.03673 8.04362 6.07719 8.05265C6.11764 8.06169 6.15328 8.08548 6.17714 8.11938C6.201 8.15327 6.21138 8.19485 6.20624 8.23598C6.20109 8.27712 6.18081 8.31486 6.14934 8.34184L5.86667 8.58151L6.28834 8.33817C6.32475 8.31741 6.36764 8.31113 6.40847 8.32058C6.44931 8.33003 6.48508 8.35451 6.50867 8.38916C6.53226 8.4238 6.54192 8.46606 6.53575 8.50752C6.52957 8.54897 6.508 8.58658 6.47534 8.61284L6.22601 8.81084L6.55567 8.62017C6.59114 8.60066 6.6325 8.59472 6.67203 8.60347C6.71155 8.61222 6.74654 8.63505 6.77047 8.66771C6.79439 8.70037 6.80561 8.74062 6.80203 8.78094C6.79844 8.82127 6.78031 8.85891 6.75101 8.88684L5.84034 9.71117L6.88301 9.10917C6.91896 9.08812 6.9615 9.08129 7.00223 9.09004C7.04297 9.0988 7.07895 9.12249 7.10309 9.15645C7.12722 9.19042 7.13776 9.23219 7.13263 9.27354C7.12749 9.31489 7.10705 9.35281 7.07534 9.37984L6.79367 9.62184L7.05101 9.47351C7.08545 9.45392 7.12574 9.44725 7.16465 9.45469C7.20357 9.46212 7.23856 9.48317 7.26336 9.51407C7.28816 9.54497 7.30114 9.58369 7.29998 9.62329C7.29881 9.66289 7.28358 9.70079 7.25701 9.73017L7.03967 9.96684L7.17101 9.89151C7.19824 9.87579 7.22936 9.86809 7.26077 9.86931C7.29219 9.87053 7.32262 9.88061 7.34856 9.89838C7.37449 9.91616 7.39487 9.94091 7.40733 9.96977C7.4198 9.99864 7.42384 10.0304 7.41901 10.0615L7.36634 10.3948C7.39841 10.403 7.42732 10.4206 7.44937 10.4453C7.47143 10.47 7.48563 10.5007 7.49017 10.5335C7.49471 10.5662 7.48939 10.5996 7.47487 10.6294C7.46036 10.6591 7.43731 10.6839 7.40867 10.7005L7.24001 10.7978C7.21277 10.8136 7.18165 10.8213 7.15024 10.82C7.11882 10.8188 7.08839 10.8087 7.06245 10.791C7.03652 10.7732 7.01614 10.7484 7.00368 10.7196C6.99121 10.6907 6.98717 10.6589 6.99201 10.6278L7.03501 10.3528L6.26434 10.8002C6.2299 10.8198 6.18961 10.8264 6.15069 10.819C6.11178 10.8116 6.07678 10.7905 6.05198 10.7596C6.02718 10.7287 6.0142 10.69 6.01537 10.6504C6.01653 10.6108 6.03177 10.5729 6.05834 10.5435L6.27567 10.3068L5.42034 10.8002C5.39514 10.8153 5.36637 10.8233 5.33701 10.8235Z" fill="#1D7765"/>
<path d="M17.9923 0.145637H6.17366C4.62933 0.484971 0.375331 -0.865029 0.0876644 1.1643C-0.520336 4.08597 2.29766 2.99964 4.092 3.18697C4.18233 13.6663 2.48033 10.2093 12.444 10.7663C12.5167 10.8856 12.7467 10.869 12.854 10.7663C13.754 10.5596 15.7977 11.3606 15.9083 10.0426C15.9083 7.75664 15.9083 5.47153 15.9083 3.1873C17.139 2.94997 19.7453 3.95897 19.9127 2.13764C20.1607 0.572971 19.6 -0.108363 17.9923 0.145637ZM6.098 1.84564C6.21066 6.58697 13.672 6.46764 13.8947 1.84564H15.4253V7.49597C14.6405 7.56311 13.9061 7.91017 13.3559 8.47382C12.8057 9.03746 12.4765 9.78012 12.4283 10.5663H7.57266C7.55292 9.77656 7.23099 9.02448 6.67322 8.46504C6.11545 7.9056 5.36434 7.58142 4.57466 7.5593V1.8453L6.098 1.84564ZM6.58933 1.84564H13.418C13.2253 6.3213 6.9 6.18664 6.58933 1.84564ZM5.396 10.5663C3.93733 10.894 4.78666 8.65364 4.57466 7.80964C5.24684 7.90867 5.86399 8.23738 6.32125 8.73991C6.77851 9.24244 7.04767 9.88779 7.083 10.5663H5.396ZM15.2533 10.5663H12.9163C12.9278 9.8863 13.1902 9.23452 13.653 8.73617C14.1158 8.23781 14.7464 7.92802 15.4237 7.8663C15.3818 8.68801 15.3823 9.51133 15.4253 10.333C15.4503 10.5863 15.5353 10.5663 15.2533 10.5663ZM19.42 2.14164C19.3617 3.5083 16.8577 2.55364 15.9067 2.81364V1.84697C16.2547 1.7923 18.9117 2.06564 18.0197 1.48897H12.5953C11.2157 1.41197 -3.511 1.48897 4.092 1.84697V2.81364C2.992 2.6803 1.66333 3.10097 0.682665 2.6183C0.342998 0.641971 0.408331 0.351971 2.45666 0.520304H18.803C19.6567 0.499637 19.3877 1.57364 19.4213 2.1403L19.42 2.14164Z" fill="#262626"/>
<path d="M9.41134 9.40348C11.8907 10.1701 12.421 6.16481 9.73901 6.54281C8.25534 6.74281 7.93334 8.92348 9.41134 9.40348ZM9.60834 6.88048C11.298 6.34281 11.657 9.41381 9.85301 9.15548C8.77134 8.95548 8.56168 7.28515 9.60834 6.88048Z" fill="#262626"/>
<path d="M17.6503 14.0711C17.079 14.4377 16.5433 14.8777 15.995 15.2771C15.9183 13.8261 10.7683 13.8811 9.441 13.5244C8.088 13.8637 7.50333 14.8711 5.88733 14.5204C5.003 13.6231 2.20267 14.3854 0.853999 14.1454C-0.402668 14.1024 0.232332 15.7787 0.0893322 16.5611C0.202999 17.1881 -0.277334 18.4314 0.649666 18.5217C2.109 18.2884 4.81633 19.0377 5.873 18.1444C8.3 17.7777 10.309 19.5954 12.6317 19.8141C15.0827 19.1671 16.8173 16.8337 18.876 15.4114C19.8827 14.5887 18.579 13.3601 17.6503 14.0711ZM13.3947 17.1711C12.9757 16.8854 12.5983 16.4637 12.182 16.1484C13.0553 16.1461 13.9283 16.1527 14.8013 16.1454C14.3333 16.4861 13.8603 16.8361 13.3947 17.1724V17.1711ZM5.30233 18.1444C4.48967 17.9407 0.148666 18.7004 0.578666 17.5971C0.741999 16.7864 0.225332 14.9661 0.794332 14.5217C2.28967 14.5301 3.8 14.5094 5.287 14.5217C5.59667 14.8037 5.34333 15.4257 5.42033 15.8251C5.32567 16.5531 5.61667 17.5364 5.30233 18.1457V18.1444ZM18.5357 15.2671C10.2413 22.3451 14.5173 18.4417 5.916 17.8481C5.94933 16.8384 5.89133 15.8257 5.91167 14.8147C7.701 15.1937 8.304 13.9147 9.76567 13.8481C10.8033 14.3147 16.2067 14.0814 15.402 15.7051C13.846 16.0911 12.0523 15.7254 10.4203 15.8384C9.36267 16.2144 11.2033 16.1751 11.5123 16.1534C12.051 16.5457 12.4987 17.1244 13.0833 17.4444C14.019 17.9027 19.5683 11.8417 18.537 15.2671H18.5357Z" fill="#262626"/>
</g>
<defs>
<clipPath id="clip0_184_293">
<rect width="20" height="20" fill="white"/>
</clipPath>
</defs>
</svg>
