<svg width="60" height="57" viewBox="0 0 60 57" fill="none" xmlns="http://www.w3.org/2000/svg">
<g clip-path="url(#clip0_7188_821)">
<path d="M56.7075 28.7547C56.9067 13.1208 44.3944 0.285548 28.7605 0.0863472C13.1266 -0.112854 0.291332 12.3994 0.0921305 28.0334C-0.10707 43.6673 12.4052 56.5025 28.0391 56.7017C43.6731 56.901 56.5083 44.3886 56.7075 28.7547Z" fill="url(#paint0_linear_7188_821)"/>
<path d="M28.4 56.8C22.783 56.8 17.2922 55.1344 12.6218 52.0137C7.95146 48.8931 4.31136 44.4576 2.16183 39.2682C0.0123053 34.0788 -0.55011 28.3685 0.545711 22.8594C1.64153 17.3504 4.34637 12.29 8.31818 8.31818C12.29 4.34637 17.3504 1.64153 22.8594 0.545711C28.3685 -0.55011 34.0788 0.0123053 39.2682 2.16183C44.4576 4.31136 48.8931 7.95146 52.0137 12.6218C55.1344 17.2922 56.8 22.783 56.8 28.4C56.7921 35.9297 53.7974 43.1488 48.4731 48.4731C43.1488 53.7974 35.9297 56.7921 28.4 56.8ZM28.4 0.170013C22.8166 0.170013 17.3587 1.82567 12.7163 4.92763C8.07386 8.02958 4.45555 12.4385 2.31889 17.5969C0.182232 22.7552 -0.376817 28.4313 0.712444 33.9074C1.80171 39.3835 4.49035 44.4136 8.43839 48.3616C12.3864 52.3097 17.4165 54.9983 22.8926 56.0876C28.3687 57.1768 34.0448 56.6178 39.2032 54.4811C44.3615 52.3445 48.7704 48.7262 51.8724 44.0838C54.9743 39.4414 56.63 33.9834 56.63 28.4C56.6221 20.9154 53.6453 13.7396 48.3529 8.44716C43.0604 3.15473 35.8846 0.177954 28.4 0.170013Z" fill="url(#paint1_linear_7188_821)"/>
<path d="M59.5004 28.4C59.5004 34.0011 57.8394 39.4765 54.7276 44.1337C51.6157 48.7909 47.1928 52.4207 42.018 54.5642C36.8432 56.7077 31.1489 57.2685 25.6554 56.1758C20.1619 55.0831 15.1157 52.3858 11.1551 48.4252C7.19448 44.4646 4.49726 39.4185 3.40453 33.9249C2.31179 28.4314 2.87262 22.7372 5.0161 17.5624C7.15957 12.3876 10.7894 7.96458 15.4466 4.85274C20.1038 1.74089 25.5792 0.0799561 31.1804 0.0799561C34.8994 0.0799561 38.582 0.812474 42.018 2.23569C45.4539 3.6589 48.5759 5.74494 51.2056 8.37469C53.8354 11.0044 55.9214 14.1264 57.3446 17.5624C58.7678 20.9983 59.5004 24.6809 59.5004 28.4Z" fill="#F9B233"/>
<path d="M56.9399 28.3999C56.9419 33.4952 55.4328 38.4766 52.6035 42.7141C49.7741 46.9516 45.7516 50.2549 41.0448 52.2062C36.3379 54.1574 31.1581 54.669 26.1605 53.6762C21.1629 52.6833 16.572 50.2307 12.9684 46.6285C9.3648 43.0263 6.9104 38.4363 5.91564 33.4391C4.92087 28.4419 5.43042 23.2619 7.37984 18.5543C9.32926 13.8467 12.631 9.82293 16.8674 6.99194C21.1038 4.16095 26.0847 2.6499 31.1799 2.6499C34.5623 2.64859 37.9118 3.31366 41.0371 4.60714C44.1624 5.90061 47.0022 7.79713 49.3944 10.1884C51.7866 12.5796 53.6842 15.4187 54.9789 18.5435C56.2736 21.6683 56.9399 25.0175 56.9399 28.3999Z" fill="#D28C2C"/>
<path d="M52.0004 28.5999C52.0004 32.7129 50.781 36.7336 48.4964 40.1537C46.2117 43.5738 42.9644 46.2398 39.1648 47.8147C35.3653 49.3896 31.1841 49.8027 27.1499 49.0017C23.1156 48.2008 19.4094 46.2217 16.4996 43.3148C13.5899 40.4079 11.6073 36.7035 10.8025 32.6701C9.99768 28.6366 10.4067 24.455 11.978 20.654C13.5492 16.8529 16.2121 13.603 19.63 11.3151C23.0479 9.02715 27.0674 7.80389 31.1804 7.79994C33.9136 7.79731 36.6205 8.33338 39.1464 9.3775C41.6722 10.4216 43.9676 11.9533 45.9012 13.885C47.8347 15.8168 49.3686 18.1106 50.4152 20.6355C51.4617 23.1604 52.0004 25.8668 52.0004 28.5999Z" fill="#FAB600"/>
<path d="M34.1805 30.84L34.2005 30.28L42.2405 13.44L40.7505 12.83L34.0605 12.94L29.8605 21.28L25.8205 13.38L24.8005 12.64H17.3105L25.7405 29.78L26.2305 30.97L23.2005 31.03L23.1105 34.3L24.6005 34.92L26.1105 34.89V35.3L23.0805 35.35L22.9905 38.63L24.4805 39.24L25.9905 39.22L25.8805 43.07L27.3705 43.68L33.8205 43.51L33.9505 39.08L37.0405 39.03L37.1405 35.75L35.6505 35.14L34.0605 35.16L34.0705 34.76L37.1605 34.71L37.2605 31.43L35.7705 30.82L34.1805 30.84Z" fill="#402A00"/>
<path d="M34.2698 30.25L42.2798 13.38H35.2098L30.5498 22.63L25.8198 13.38H18.8398L27.4598 30.25V31.45H24.2698V34.76H27.4598V35.82H24.2698V39.13H27.4598V43.66L34.2698 43.59V39.13H37.5498V35.82H34.2698V34.76H37.5498V31.45H34.2698V30.25Z" fill="#B97C26"/>
<path d="M35.4204 13.75L30.5404 23.45L25.5904 13.75H19.4404L27.8204 30.16V43.28L33.9004 43.23V30.16L41.6804 13.75H35.4204Z" fill="#FFEA0C"/>
<path d="M37.1699 31.8199H24.6299V34.3899H37.1699V31.8199Z" fill="#FFEA0C"/>
<path d="M37.1699 36.1899H24.6299V38.7599H37.1699V36.1899Z" fill="#FFEA0C"/>
</g>
<defs>
<linearGradient id="paint0_linear_7188_821" x1="0.0114341" y1="28.4015" x2="56.6341" y2="28.5567" gradientUnits="userSpaceOnUse">
<stop stop-color="#200900"/>
<stop offset="1" stop-color="#C37406"/>
</linearGradient>
<linearGradient id="paint1_linear_7188_821" x1="1.27761e-05" y1="28.4" x2="56.8" y2="28.4" gradientUnits="userSpaceOnUse">
<stop stop-color="#200900"/>
<stop offset="1" stop-color="#C37406"/>
</linearGradient>
<clipPath id="clip0_7188_821">
<rect width="59.5" height="56.8" fill="white"/>
</clipPath>
</defs>
</svg>
