<svg width="60" height="57" viewBox="0 0 60 57" fill="none" xmlns="http://www.w3.org/2000/svg">
<g clip-path="url(#clip0_7188_834)">
<path d="M56.7103 28.4C56.7103 34.0015 55.0491 39.4773 51.9368 44.1347C48.8246 48.7922 44.401 52.422 39.2256 54.5652C34.0502 56.7084 28.3555 57.2686 22.8617 56.1751C17.3679 55.0815 12.3218 52.3833 8.36153 48.4217C4.4013 44.4601 1.70487 39.413 0.613267 33.9188C-0.478336 28.4246 0.0839207 22.7301 2.22893 17.5554C4.37394 12.3808 8.00534 7.95852 12.6639 4.84788C17.3224 1.73724 22.7987 0.0779799 28.4003 0.0799578C35.9095 0.0826094 43.1103 3.06749 48.4191 8.37823C53.728 13.689 56.7103 20.8908 56.7103 28.4Z" fill="url(#paint0_linear_7188_834)"/>
<path d="M28.4 56.79C22.7826 56.79 17.2914 55.1241 12.6208 52.003C7.95021 48.882 4.31011 44.4459 2.16088 39.2559C0.0116425 34.0659 -0.550188 28.3551 0.546443 22.8458C1.64307 17.3364 4.34891 12.276 8.32172 8.30463C12.2945 4.33322 17.3559 1.62917 22.8656 0.534482C28.3753 -0.560208 34.0859 0.00363326 39.2752 2.1547C44.4644 4.30576 48.8992 7.94741 52.0186 12.6191C55.138 17.2908 56.802 22.7826 56.8 28.4C56.7921 35.9288 53.7971 43.1468 48.4725 48.4695C43.1479 53.7922 35.9288 56.7847 28.4 56.79ZM28.4 0.170003C22.8166 0.170003 17.3587 1.82566 12.7163 4.92762C8.07386 8.02957 4.45555 12.4385 2.31889 17.5969C0.18223 22.7552 -0.376818 28.4313 0.712443 33.9074C1.8017 39.3835 4.49035 44.4136 8.43839 48.3616C12.3864 52.3097 17.4165 54.9983 22.8926 56.0876C28.3687 57.1768 34.0448 56.6178 39.2032 54.4811C44.3615 52.3445 48.7704 48.7262 51.8724 44.0838C54.9743 39.4414 56.63 33.9834 56.63 28.4C56.6221 20.9154 53.6453 13.7396 48.3529 8.44715C43.0604 3.15472 35.8846 0.177944 28.4 0.170003Z" fill="url(#paint1_linear_7188_834)"/>
<path d="M59.5004 28.4C59.5004 34.0015 57.8392 39.4773 54.7269 44.1347C51.6146 48.7922 47.191 52.422 42.0157 54.5652C36.8403 56.7084 31.1455 57.2686 25.6517 56.1751C20.1579 55.0815 15.1118 52.3833 11.1516 48.4217C7.19134 44.4601 4.49491 39.413 3.40331 33.9188C2.3117 28.4246 2.87396 22.7301 5.01897 17.5554C7.16397 12.3808 10.7954 7.95852 15.4539 4.84788C20.1124 1.73724 25.5888 0.0779799 31.1904 0.0799578C38.6996 0.0826094 45.9003 3.06749 51.2092 8.37823C56.518 13.689 59.5004 20.8908 59.5004 28.4Z" fill="#F9B233"/>
<path d="M56.9333 28.7224C57.1145 14.5023 45.7336 2.82765 31.5134 2.64646C17.2932 2.46527 5.61863 13.8461 5.43744 28.0663C5.25626 42.2865 16.6371 53.9611 30.8573 54.1423C45.0775 54.3235 56.7521 42.9426 56.9333 28.7224Z" fill="#D28C2C"/>
<path d="M31.1896 49.4001C42.6772 49.4001 51.9897 40.0876 51.9897 28.6C51.9897 17.1125 42.6772 7.80005 31.1896 7.80005C19.7021 7.80005 10.3896 17.1125 10.3896 28.6C10.3896 40.0876 19.7021 49.4001 31.1896 49.4001Z" fill="#FAB600"/>
<path d="M40.4497 28.51C39.7051 27.6385 38.7667 26.9536 37.7097 26.51C38.767 25.9549 39.6522 25.1209 40.2692 24.0985C40.8862 23.076 41.2114 21.9042 41.2097 20.71C41.2342 19.5329 40.9264 18.3728 40.3214 17.3628C39.7165 16.3528 38.839 15.5339 37.7897 15C37.2889 14.7014 36.7596 14.4535 36.2097 14.26L35.1497 13.89C34.2251 13.5697 33.2645 13.3648 32.2897 13.28V11.4L31.1197 11H28.3197V13.1H27.5997H26.7597H26.0697L24.2297 13.24H24.0097L23.4897 13.3H23.2697H23.0597L22.5797 13.36L22.1997 13.42L21.7697 13.48L21.4397 13.54H21.3897H21.2797H21.1697H21.0197L20.5697 13.64L20.4297 41.01V41.1L21.5797 41.51L21.9797 41.57C23.8146 41.7902 25.6617 41.8938 27.5097 41.88H28.3097V43.8L29.4797 44.22H32.2897V41.9C34.7902 41.7418 37.194 40.8746 39.2197 39.4C40.1526 38.6531 40.9062 37.7067 41.4254 36.6304C41.9445 35.554 42.216 34.375 42.2197 33.18C42.2165 31.46 41.5874 29.8 40.4497 28.51ZM32.9997 21.38V21.43C32.9997 21.49 32.9997 21.55 32.9997 21.61C32.9997 21.66 32.9997 21.72 32.9997 21.77C32.9877 21.8279 32.9709 21.8848 32.9497 21.94L32.8897 22.08L32.8197 22.23L32.7397 22.36L32.6297 22.5C32.5889 22.5489 32.5455 22.5957 32.4997 22.64C32.4611 22.6849 32.4175 22.7251 32.3697 22.76V19.41C32.607 19.6364 32.7877 19.9156 32.8972 20.2248C33.0066 20.534 33.0417 20.8647 32.9997 21.19C33.0044 21.2532 33.0044 21.3168 32.9997 21.38ZM33.5797 32.67V32.87C33.5846 32.9098 33.5846 32.9502 33.5797 32.99V33.06C33.5797 33.06 33.5797 33.14 33.5797 33.17C33.5797 33.2 33.5797 33.17 33.5797 33.23C33.5797 33.23 33.5797 33.3 33.5797 33.33C33.5856 33.353 33.5856 33.377 33.5797 33.4C33.5853 33.4331 33.5853 33.4669 33.5797 33.5C33.584 33.5198 33.584 33.5402 33.5797 33.56C33.5853 33.5931 33.5853 33.6269 33.5797 33.66C33.5835 33.6899 33.5835 33.7201 33.5797 33.75C33.5836 33.7899 33.5836 33.8301 33.5797 33.87C33.5625 33.9195 33.5389 33.9665 33.5097 34.01C33.5132 34.0432 33.5132 34.0768 33.5097 34.11V34.19L33.4597 34.26V34.32L33.3997 34.38L33.3397 34.44L33.2697 34.5L33.1397 34.6L33.0197 34.68H32.9297V29.58C33.3627 29.9518 33.6624 30.4548 33.7833 31.0125C33.9043 31.5703 33.8398 32.1523 33.5997 32.67H33.5797Z" fill="#402A00"/>
<path d="M40.8305 28.71C40.015 27.7682 38.9865 27.0345 37.8305 26.57C38.9276 26.0798 39.8635 25.2887 40.5295 24.2885C41.1956 23.2883 41.5647 22.1198 41.594 20.9184C41.6233 19.7171 41.3116 18.532 40.6951 17.5004C40.0786 16.4689 39.1824 15.6332 38.1105 15.09C36.3476 14.1295 34.3778 13.6113 32.3705 13.58V11.41H29.5905V13.51C26.9959 13.4886 24.404 13.6792 21.8405 14.08L21.4805 14.15V41.51L21.8605 41.57C24.0813 41.8653 26.3202 42.0023 28.5605 41.98H29.5605V44.1H32.2905V41.8C35.5005 41.48 37.8505 40.7 39.4605 39.42C40.3972 38.7059 41.1556 37.7843 41.6761 36.7276C42.1967 35.6709 42.4651 34.508 42.4605 33.33C42.4914 31.644 41.9126 30.0034 40.8305 28.71ZM28.4405 24.44V19C28.7205 19 29.0905 18.94 29.5905 18.92V24.47L28.4405 24.44ZM29.5905 29.72V36.53C29.1505 36.53 28.7705 36.53 28.4405 36.53V29.72H29.5905ZM32.3205 29.96C33.7105 30.31 35.1405 31.14 35.1405 33.09C35.1513 33.8814 34.8693 34.6488 34.3489 35.2449C33.8284 35.8411 33.106 36.224 32.3205 36.32V29.96ZM32.3205 24.13V19.05C32.9311 19.1175 33.4941 19.412 33.8979 19.875C34.3017 20.3381 34.5167 20.9359 34.5005 21.55C34.4883 22.1649 34.265 22.7569 33.8681 23.2267C33.4711 23.6965 32.9247 24.0154 32.3205 24.13Z" fill="url(#paint2_linear_7188_834)"/>
<path d="M36.6299 26.66V26.58C39.6899 25.45 41.0899 23.2 41.0899 20.79C41.0971 19.6899 40.7966 18.6097 40.2223 17.6714C39.648 16.7331 38.8228 15.9741 37.8399 15.48C35.9956 14.4914 33.9323 13.9825 31.8399 14V11.86H29.9999V14H29.7999C27.1491 13.9727 24.5005 14.16 21.8799 14.56V41.16C24.0812 41.4475 26.2999 41.5812 28.5199 41.56C29.0299 41.56 29.5199 41.56 29.9999 41.56V43.69H31.8299V41.39C35.3099 41.1 37.6399 40.29 39.1699 39.07C40.0511 38.3951 40.7648 37.5262 41.2556 36.5307C41.7464 35.5352 42.0011 34.4399 41.9999 33.33C42.0106 31.7697 41.4819 30.2535 40.5034 29.0381C39.5249 27.8227 38.1565 26.9826 36.6299 26.66ZM34.9999 21.55C34.9999 23.13 33.9299 24.29 31.9199 24.71V18.51C33.8499 18.8 34.9999 19.84 34.9999 21.55ZM27.9999 18.55C28.6628 18.4614 29.331 18.418 29.9999 18.42V24.89H27.9999V18.55ZM27.9999 36.9V29.27H29.9999V37C29.3317 37.0115 28.6636 36.9781 27.9999 36.9ZM31.8799 36.9V29.41C34.0499 29.78 35.5999 30.91 35.5999 33.09C35.5999 35.27 33.9999 36.53 31.8699 36.87L31.8799 36.9Z" fill="#FFEA0C"/>
</g>
<defs>
<linearGradient id="paint0_linear_7188_834" x1="0.0803253" y1="28.4" x2="56.7103" y2="28.4" gradientUnits="userSpaceOnUse">
<stop stop-color="#200900"/>
<stop offset="1" stop-color="#C37406"/>
</linearGradient>
<linearGradient id="paint1_linear_7188_834" x1="1.09985e-05" y1="28.4" x2="56.8" y2="28.4" gradientUnits="userSpaceOnUse">
<stop stop-color="#200900"/>
<stop offset="1" stop-color="#C37406"/>
</linearGradient>
<linearGradient id="paint2_linear_7188_834" x1="36.1905" y1="41.73" x2="25.1405" y2="15.22" gradientUnits="userSpaceOnUse">
<stop stop-color="#BE530E"/>
<stop offset="0.49" stop-color="#F8D53A"/>
<stop offset="0.99" stop-color="#984D00"/>
</linearGradient>
<clipPath id="clip0_7188_834">
<rect width="59.5" height="56.79" fill="white"/>
</clipPath>
</defs>
</svg>
