<svg width="60" height="57" viewBox="0 0 60 57" fill="none" xmlns="http://www.w3.org/2000/svg">
<g clip-path="url(#clip0_7188_867)">
<path d="M56.7099 28.4C56.7079 33.9987 55.0458 39.4712 51.9339 44.1254C48.822 48.7797 44.3998 52.4067 39.2267 54.5479C34.0535 56.689 28.3617 57.2482 22.8707 56.1548C17.3798 55.0613 12.3364 52.3642 8.37813 48.4046C4.4199 44.445 1.72463 39.4006 0.633094 33.9093C-0.458443 28.418 0.102773 22.7263 2.24578 17.5539C4.38879 12.3815 8.01736 7.96066 12.6727 4.85036C17.328 1.74006 22.8011 0.0799564 28.3999 0.0799561C35.9091 0.0826076 43.1098 3.06748 48.4187 8.37823C53.7275 13.689 56.7099 20.8908 56.7099 28.4Z" fill="url(#paint0_linear_7188_867)"/>
<path d="M28.4002 56.79C22.7824 56.792 17.2902 55.1278 12.6183 52.0079C7.9464 48.888 4.30475 44.4527 2.15398 39.2628C0.00321364 34.073 -0.560044 28.3619 0.535458 22.8519C1.63096 17.3419 4.336 12.2806 8.30841 8.30817C12.2808 4.33576 17.3421 1.63071 22.8521 0.535214C28.3621 -0.560288 34.0732 0.0029695 39.2631 2.15374C44.4529 4.30451 48.8883 7.94616 52.0081 12.618C55.128 17.2899 56.7922 22.7822 56.7902 28.4C56.7823 35.9271 53.7887 43.1436 48.4662 48.466C43.1438 53.7884 35.9273 56.7821 28.4002 56.79ZM28.4002 0.170001C22.8169 0.170001 17.3589 1.82566 12.7165 4.92761C8.0741 8.02957 4.45579 12.4385 2.31913 17.5968C0.182464 22.7552 -0.376584 28.4313 0.712677 33.9074C1.80194 39.3835 4.49058 44.4136 8.43862 48.3616C12.3867 52.3097 17.4168 54.9983 22.8928 56.0876C28.3689 57.1768 34.045 56.6178 39.2034 54.4811C44.3618 52.3445 48.7707 48.7261 51.8726 44.0837C54.9746 39.4413 56.6302 33.9834 56.6302 28.4C56.6223 20.9154 53.6455 13.7396 48.3531 8.44715C43.0607 3.15472 35.8849 0.177942 28.4002 0.170001Z" fill="url(#paint1_linear_7188_867)"/>
<path d="M59.5004 28.4C59.5004 34.0011 57.8394 39.4765 54.7276 44.1337C51.6157 48.7909 47.1928 52.4207 42.018 54.5642C36.8432 56.7077 31.1489 57.2685 25.6554 56.1758C20.1619 55.0831 15.1157 52.3858 11.1551 48.4252C7.19448 44.4646 4.49726 39.4185 3.40453 33.9249C2.31179 28.4314 2.87262 22.7372 5.0161 17.5624C7.15957 12.3876 10.7894 7.96458 15.4466 4.85274C20.1038 1.74089 25.5792 0.0799561 31.1804 0.0799561C34.8994 0.0799561 38.582 0.812474 42.018 2.23569C45.4539 3.6589 48.5759 5.74494 51.2056 8.37469C53.8354 11.0044 55.9214 14.1264 57.3446 17.5624C58.7678 20.9983 59.5004 24.6809 59.5004 28.4Z" fill="#F9B233"/>
<path d="M56.9404 28.4C56.9404 33.4925 55.4305 38.4706 52.6015 42.7049C49.7725 46.9393 45.7515 50.2397 41.0468 52.189C36.3422 54.1382 31.1653 54.6487 26.1705 53.656C21.1758 52.6632 16.5876 50.2118 12.986 46.6116C9.38438 43.0114 6.93114 38.4241 5.93644 33.4297C4.94174 28.4354 5.45025 23.2582 7.39767 18.5529C9.3451 13.8475 12.644 9.82519 16.8772 6.99454C21.1105 4.1639 26.088 2.652 31.1804 2.65003C34.5628 2.64871 37.9123 3.31379 41.0376 4.60726C44.1629 5.90073 47.0027 7.79725 49.3949 10.1885C51.7871 12.5797 53.6847 15.4188 54.9794 18.5436C56.2741 21.6684 56.9404 25.0176 56.9404 28.4Z" fill="#D28C2C"/>
<path d="M52.0004 28.6001C52.0004 32.7131 50.781 36.7337 48.4964 40.1538C46.2117 43.5739 42.9644 46.2399 39.1648 47.8148C35.3653 49.3897 31.1841 49.8028 27.1499 49.0018C23.1156 48.2009 19.4094 46.2219 16.4996 43.3149C13.5899 40.408 11.6073 36.7037 10.8025 32.6702C9.99768 28.6367 10.4067 24.4551 11.978 20.6541C13.5492 16.853 16.2121 13.6031 19.63 11.3152C23.0479 9.02727 27.0674 7.80401 31.1804 7.80006C33.9136 7.79743 36.6205 8.3335 39.1464 9.37762C41.6722 10.4217 43.9676 11.9534 45.9012 13.8852C47.8347 15.8169 49.3686 18.1107 50.4152 20.6356C51.4617 23.1605 52.0004 25.8669 52.0004 28.6001Z" fill="#FAB600"/>
<path d="M42.5904 37.43C42.4732 36.7504 42.1441 36.1252 41.6502 35.6438C41.1563 35.1625 40.5229 34.8496 39.8404 34.75L37.4004 34.5H37.0104C36.5803 34.5174 36.1569 34.6123 35.7604 34.78L35.6304 34.84C34.3762 35.4828 32.9897 35.8251 31.5804 35.84H31.5004C30.1041 35.5331 28.822 34.8401 27.8004 33.84L37.2204 33.59V28.74L34.7504 28.48L25.6304 28.72C25.6304 28.52 25.6304 28.32 25.6304 28.11L37.2504 27.81V23L34.7804 22.74L27.1804 22.94C27.9892 21.9086 29.0258 21.0785 30.209 20.5146C31.3922 19.9508 32.6899 19.6685 34.0004 19.69C34.3169 19.7603 34.6278 19.8539 34.9304 19.97C35.1622 20.0504 35.3892 20.1439 35.6104 20.25H35.7004H35.8104C35.9735 20.2995 36.1409 20.333 36.3104 20.35L38.6604 20.59H38.7504C38.9002 20.6009 39.0506 20.6009 39.2004 20.59C40.0021 20.5482 40.7632 20.2241 41.3489 19.675C41.9346 19.126 42.3071 18.3874 42.4004 17.59C42.6871 16.7744 42.6513 15.8801 42.3004 15.09C42.0334 14.5681 41.655 14.1112 41.1919 13.7518C40.7287 13.3924 40.1923 13.1391 39.6204 13.01C38.4535 12.5998 37.2414 12.3312 36.0104 12.21H36.0804L33.5904 12C32.926 11.9327 32.2579 11.9093 31.5904 11.93H31.0004H30.5804L30.1504 11.98H30.0504H29.6504L29.2304 12.05H29.1304L28.7304 12.13L28.3204 12.22H28.2204L27.8404 12.32L27.4404 12.44H27.3404L26.9804 12.56L26.5904 12.7H26.5004L26.1504 12.84L25.7704 13H25.6804L25.3404 13.15C25.2104 13.21 25.0904 13.26 24.9704 13.33H24.8804L24.5704 13.5H24.5204L24.0404 13.77H23.9904L23.5304 14.06H23.4804L23.0304 14.36H22.9804L22.5404 14.68H22.4904C22.3438 14.7813 22.2035 14.8915 22.0704 15.01H22.0104L21.6104 15.35L21.5504 15.4L21.1604 15.76L20.7804 16.13L20.4404 16.49V16.55L20.1104 16.92L19.7804 17.32L19.4704 17.72C19.3704 17.85 19.2704 17.99 19.1804 18.13V18.19C19.0904 18.32 18.9904 18.46 18.9104 18.6L18.8604 18.67L18.6104 19.08V19.15L18.3604 19.58V19.65L18.2404 19.87L18.1804 19.98L18.0804 20.19L18.0304 20.29L17.9104 20.54V20.61C17.8604 20.72 17.8104 20.82 17.7704 20.93V20.99C17.7704 21.08 17.7004 21.17 17.6604 21.26V21.36L17.5704 21.59C17.5731 21.6266 17.5731 21.6634 17.5704 21.7L17.4904 21.93V22.03L17.3704 22.37L14.3704 22.44V27.3L16.6304 27.53C16.6304 27.7433 16.6304 27.9533 16.6304 28.16L13.6904 29V33.86L16.1604 34.11H17.2604C18.3149 36.4279 19.9355 38.4433 21.9731 39.9706C24.0107 41.4979 26.3998 42.4881 28.9204 42.85L29.5604 42.93L32.0304 43.18C32.7116 43.247 33.3961 43.2737 34.0804 43.26C36.0349 43.1907 37.96 42.7636 39.7604 42C40.8203 41.661 41.7223 40.9508 42.3004 40C42.7298 39.2143 42.8339 38.2916 42.5904 37.43Z" fill="#402A00"/>
<path d="M42.27 37.5499C42.1521 36.8015 41.7809 36.1161 41.2186 35.6083C40.6562 35.1005 39.9366 34.8011 39.18 34.7599C38.7549 34.7675 38.3348 34.8522 37.94 35.0099L37.81 35.0699C36.567 35.6875 35.198 36.0092 33.81 36.0099C32.6623 36.0489 31.5188 35.8515 30.4505 35.43C29.3822 35.0086 28.412 34.372 27.6 33.5599H36.96V28.6899H25.44C25.44 28.3899 25.39 28.0799 25.39 27.7699H36.93V22.9099H26.69C27.4912 21.7954 28.5616 20.9018 29.8013 20.3125C31.041 19.7232 32.4098 19.4575 33.78 19.5399C35.1675 19.535 36.537 19.8534 37.78 20.4699L37.87 20.5199H37.98C38.2775 20.6142 38.5879 20.6614 38.9 20.6599C39.7055 20.6361 40.4742 20.3175 41.0603 19.7645C41.6465 19.2115 42.0093 18.4627 42.08 17.6599C42.3668 16.8451 42.3346 15.952 41.99 15.1599C41.7254 14.6298 41.3502 14.1627 40.8895 13.79C40.4289 13.4174 39.8937 13.148 39.32 12.9999C37.3389 12.2586 35.2275 11.9285 33.1147 12.0297C31.0018 12.1308 28.9317 12.6612 27.0305 13.5884C25.1292 14.5157 23.4367 15.8203 22.0561 17.4229C20.6755 19.0255 19.6357 20.8924 19 22.9099H16V27.7699H18.24C18.24 28.0799 18.24 28.3899 18.24 28.6899H16V33.5599H19.42C20.5991 36.3978 22.5921 38.823 25.1476 40.5297C27.7032 42.2364 30.7069 43.1481 33.78 43.1499C35.7199 43.1571 37.6437 42.7975 39.45 42.0899C40.5029 41.7881 41.4096 41.1125 42 40.1899C42.4352 39.3801 42.5322 38.4311 42.27 37.5499Z" fill="#B97C26"/>
<path d="M36.3701 23.5H16.6201V27.17H36.3701V23.5Z" fill="#FFEA0C"/>
<path d="M36.3701 29.29H16.6201V32.96H36.3701V29.29Z" fill="#FFEA0C"/>
<path d="M41.7202 37.6899C41.627 37.0749 41.328 36.5097 40.8721 36.0865C40.4163 35.6633 39.8304 35.4072 39.2102 35.3599C38.8679 35.3691 38.5296 35.4367 38.2102 35.5599H38.1302C36.7968 36.2206 35.3283 36.5629 33.8402 36.5599C28.4602 36.5599 24.8402 32.9499 24.8402 27.5599C24.8402 22.1699 28.3702 18.8999 33.8402 18.8999C35.318 18.9023 36.7756 19.2445 38.1002 19.8999H38.1602H38.2202C38.4555 19.9777 38.7024 20.0149 38.9502 20.0099C39.4502 20.0099 41.1002 19.8299 41.5702 17.4899C41.8102 16.8058 41.7852 16.0566 41.5002 15.3899C41.2655 14.9348 40.9362 14.5352 40.5343 14.2178C40.1324 13.9004 39.6673 13.6727 39.1702 13.5499C36.8903 12.6607 34.4274 12.3428 31.9965 12.624C29.5655 12.9051 27.2403 13.7768 25.2235 15.1629C23.2067 16.549 21.5597 18.4075 20.4261 20.5762C19.2925 22.745 18.7068 25.1582 18.7199 27.6053C18.7331 30.0525 19.3448 32.4592 20.5016 34.6157C21.6585 36.7721 23.3254 38.6128 25.357 39.9771C27.3885 41.3415 29.723 42.188 32.1569 42.443C34.5907 42.698 37.05 42.3536 39.3202 41.4399C40.2261 41.1854 41.0082 40.6095 41.5202 39.8199C41.8609 39.1629 41.9326 38.399 41.7202 37.6899Z" fill="#FFEA0C"/>
</g>
<defs>
<linearGradient id="paint0_linear_7188_867" x1="0.0898547" y1="28.4" x2="56.7099" y2="28.4" gradientUnits="userSpaceOnUse">
<stop stop-color="#200900"/>
<stop offset="1" stop-color="#C37406"/>
</linearGradient>
<linearGradient id="paint1_linear_7188_867" x1="0.000245426" y1="28.4" x2="56.7902" y2="28.4" gradientUnits="userSpaceOnUse">
<stop stop-color="#200900"/>
<stop offset="1" stop-color="#C37406"/>
</linearGradient>
<clipPath id="clip0_7188_867">
<rect width="59.5" height="56.79" fill="white"/>
</clipPath>
</defs>
</svg>
