<svg width="60" height="57" viewBox="0 0 60 57" fill="none" xmlns="http://www.w3.org/2000/svg">
<g clip-path="url(#clip0_7188_856)">
<path d="M56.7075 28.7547C56.9067 13.1208 44.3944 0.285548 28.7605 0.0863472C13.1266 -0.112854 0.291332 12.3994 0.0921305 28.0334C-0.10707 43.6673 12.4052 56.5025 28.0391 56.7017C43.6731 56.901 56.5083 44.3886 56.7075 28.7547Z" fill="url(#paint0_linear_7188_856)"/>
<path d="M28.4002 56.8C22.7828 56.802 17.291 55.138 12.6193 52.0186C7.94766 48.8992 4.306 44.4644 2.15494 39.2752C0.0038774 34.0859 -0.559964 28.3753 0.534727 22.8656C1.62942 17.3559 4.33347 12.2945 8.30488 8.32172C12.2763 4.34891 17.3367 1.64307 22.846 0.546443C28.3553 -0.550188 34.0661 0.0116425 39.2561 2.16088C44.4462 4.31011 48.8822 7.95021 52.0033 12.6208C55.1244 17.2914 56.7902 22.7826 56.7902 28.4C56.7823 35.928 53.789 43.1455 48.4669 48.4695C43.1447 53.7936 35.9282 56.7894 28.4002 56.8ZM28.4002 0.170011C22.8169 0.170011 17.3589 1.82567 12.7165 4.92762C8.0741 8.02958 4.45579 12.4385 2.31913 17.5969C0.182466 22.7552 -0.376582 28.4313 0.712679 33.9074C1.80194 39.3835 4.49059 44.4136 8.43862 48.3616C12.3867 52.3097 17.4168 54.9983 22.8928 56.0876C28.3689 57.1768 34.045 56.6178 39.2034 54.4811C44.3618 52.3445 48.7707 48.7262 51.8726 44.0838C54.9746 39.4414 56.6302 33.9834 56.6302 28.4C56.6223 20.9154 53.6455 13.7396 48.3531 8.44716C43.0607 3.15473 35.8849 0.177952 28.4002 0.170011Z" fill="url(#paint1_linear_7188_856)"/>
<path d="M59.5004 28.4C59.5004 34.0011 57.8394 39.4765 54.7276 44.1337C51.6157 48.7909 47.1928 52.4207 42.018 54.5642C36.8432 56.7077 31.1489 57.2685 25.6554 56.1758C20.1619 55.0831 15.1157 52.3858 11.1551 48.4252C7.19448 44.4646 4.49726 39.4185 3.40453 33.9249C2.31179 28.4314 2.87262 22.7372 5.0161 17.5624C7.15957 12.3876 10.7894 7.96458 15.4466 4.85274C20.1038 1.74089 25.5792 0.0799561 31.1804 0.0799561C34.8994 0.0799561 38.582 0.812474 42.018 2.23569C45.4539 3.6589 48.5759 5.74494 51.2056 8.37469C53.8354 11.0044 55.9214 14.1264 57.3446 17.5624C58.7678 20.9983 59.5004 24.6809 59.5004 28.4Z" fill="#F9B233"/>
<path d="M56.9399 28.3999C56.9419 33.4952 55.4328 38.4766 52.6035 42.7141C49.7741 46.9516 45.7516 50.2549 41.0448 52.2062C36.3379 54.1574 31.1581 54.669 26.1605 53.6762C21.1629 52.6833 16.572 50.2307 12.9684 46.6285C9.3648 43.0263 6.9104 38.4363 5.91564 33.4391C4.92087 28.4419 5.43042 23.2619 7.37984 18.5543C9.32926 13.8467 12.631 9.82293 16.8674 6.99194C21.1038 4.16095 26.0847 2.6499 31.1799 2.6499C34.5623 2.64859 37.9118 3.31366 41.0371 4.60714C44.1624 5.90061 47.0022 7.79713 49.3944 10.1884C51.7866 12.5796 53.6842 15.4187 54.9789 18.5435C56.2736 21.6683 56.9399 25.0175 56.9399 28.3999Z" fill="#D28C2C"/>
<path d="M52.0004 28.5999C52.0004 32.7129 50.781 36.7336 48.4964 40.1537C46.2117 43.5738 42.9644 46.2398 39.1648 47.8147C35.3653 49.3896 31.1841 49.8027 27.1499 49.0017C23.1156 48.2008 19.4094 46.2217 16.4996 43.3148C13.5899 40.4079 11.6073 36.7035 10.8025 32.6701C9.99768 28.6366 10.4067 24.455 11.978 20.654C13.5492 16.8529 16.2121 13.603 19.63 11.3151C23.0479 9.02715 27.0674 7.80389 31.1804 7.79994C33.9136 7.79731 36.6205 8.33338 39.1464 9.3775C41.6722 10.4216 43.9676 11.9533 45.9012 13.885C47.8347 15.8168 49.3686 18.1106 50.4152 20.6355C51.4617 23.1604 52.0004 25.8668 52.0004 28.5999Z" fill="#FAB600"/>
<path d="M42.0001 13.4L40.3201 12.6L19.7401 12.79L19.7001 19L21.5401 19.8L25.8801 19.67H26.5101H27.1001L19.6201 19.87V25L21.2901 25.8L27.8601 25.59L27.8001 25.64L27.6801 25.73C27.6007 25.7923 27.5172 25.8491 27.4301 25.9H27.3601L27.1601 26.02H27.0801L26.9301 26.1H26.8401L26.6601 26.18H26.5801L26.3101 26.28L26.0401 26.38H25.9501L25.7401 26.44H25.6301H25.4401H25.3101H25.1301H24.9901H24.8001H24.6601H24.4601H24.3201H24.1001H24.0001H23.7601H23.6401H23.2701L19.0801 26.24V31.66L19.4401 32.07C23.1701 36.28 26.4401 39.63 29.5801 43.68L30.1901 44.54L32.0401 45.18L39.2101 44.76L37.4601 43C36.1301 41.25 34.7601 39.47 33.3901 37.73C33.0601 37.3 32.7201 36.88 32.3901 36.45C32.0501 36.03 31.7201 35.61 31.3901 35.2L30.3001 34L29.3001 32.8C30.5389 32.4839 31.7201 31.9743 32.8001 31.29C33.1498 31.0736 33.4839 30.833 33.8001 30.57C34.5912 29.9172 35.2673 29.1364 35.8001 28.26C35.9301 28.05 36.0601 27.82 36.1701 27.6C36.4082 27.1389 36.6121 26.6609 36.7801 26.17C36.8601 25.92 36.9301 25.67 37.0001 25.41L41.7201 25.26L41.8801 20.16L40.2101 19.35L36.8301 19.46V19.31L36.7601 19.12L36.6801 18.93L36.6001 18.75L41.9401 18.57L42.0001 13.4Z" fill="#402A00"/>
<path d="M37.0001 25.3599H42.0001V20.1899H36.9301C36.7837 19.6319 36.5757 19.092 36.3101 18.5799H42.0001V13.3999H20.3301V19.2499H25.0001C26.4552 19.1501 27.9078 19.4768 29.1801 20.1899H20.3301V25.3599H30.0001C29.7391 25.7585 29.3987 26.099 29.0001 26.3599C27.5738 27.1967 25.9307 27.5901 24.2801 27.4899H20.3301V32.3099L20.7301 32.7399C24.8601 37.1599 28.1001 40.9999 31.6001 45.2399L32.0501 45.7699H40.1301L38.1301 43.3599C35.1301 39.7199 32.0101 35.9299 29.0101 32.6399C30.7221 32.2894 32.3345 31.5618 33.7301 30.5099C35.3864 29.2263 36.5429 27.4049 37.0001 25.3599Z" fill="#B97C26"/>
<path d="M36.42 24.48H41.37V20.89H36.37C36.1475 19.6936 35.6398 18.5685 34.89 17.61H41.35V14H21V18.27H24.87C28.04 18.27 30.06 19.14 30.87 20.87H21V24.46H31.2C30.57 26.93 28.11 28.28 24.2 28.28H21V32L21.18 32.19C25.38 36.66 28.67 40.57 32.18 44.86L32.38 45.1H38.5L37.61 44C34.25 39.87 30.7 35.6 27.39 32.06C29.5255 31.8714 31.5674 31.0962 33.29 29.82C34.9719 28.5006 36.0906 26.5922 36.42 24.48Z" fill="#FFEA0C"/>
</g>
<defs>
<linearGradient id="paint0_linear_7188_856" x1="0.0114341" y1="28.4015" x2="56.6341" y2="28.5567" gradientUnits="userSpaceOnUse">
<stop stop-color="#200900"/>
<stop offset="1" stop-color="#C37406"/>
</linearGradient>
<linearGradient id="paint1_linear_7188_856" x1="0.000247203" y1="28.4" x2="56.7902" y2="28.4" gradientUnits="userSpaceOnUse">
<stop stop-color="#200900"/>
<stop offset="1" stop-color="#C37406"/>
</linearGradient>
<clipPath id="clip0_7188_856">
<rect width="59.5" height="56.8" fill="white"/>
</clipPath>
</defs>
</svg>
