<svg width="60" height="57" viewBox="0 0 60 57" fill="none" xmlns="http://www.w3.org/2000/svg">
<g clip-path="url(#clip0_7188_845)">
<path d="M56.7103 28.4C56.7103 34.0015 55.0491 39.4773 51.9368 44.1347C48.8246 48.7922 44.401 52.422 39.2256 54.5652C34.0502 56.7084 28.3555 57.2686 22.8617 56.1751C17.3679 55.0815 12.3218 52.3833 8.36153 48.4217C4.4013 44.4601 1.70487 39.413 0.613267 33.9188C-0.478336 28.4246 0.0839207 22.7301 2.22893 17.5554C4.37394 12.3808 8.00534 7.95852 12.6639 4.84788C17.3224 1.73724 22.7987 0.0779799 28.4003 0.0799578C35.9095 0.0826094 43.1103 3.06749 48.4191 8.37823C53.728 13.689 56.7103 20.8908 56.7103 28.4Z" fill="url(#paint0_linear_7188_845)"/>
<path d="M28.4002 56.79C22.7824 56.792 17.2902 55.1278 12.6183 52.0079C7.9464 48.888 4.30475 44.4527 2.15398 39.2628C0.00321364 34.073 -0.560044 28.3619 0.535458 22.8519C1.63096 17.3419 4.336 12.2806 8.30841 8.30817C12.2808 4.33576 17.3421 1.63071 22.8521 0.535214C28.3621 -0.560288 34.0732 0.0029695 39.2631 2.15374C44.4529 4.30451 48.8883 7.94616 52.0081 12.618C55.128 17.2899 56.7922 22.7822 56.7902 28.4C56.7823 35.9271 53.7887 43.1436 48.4662 48.466C43.1438 53.7884 35.9273 56.7821 28.4002 56.79ZM28.4002 0.170001C22.8169 0.170001 17.3589 1.82566 12.7165 4.92761C8.0741 8.02957 4.45579 12.4385 2.31913 17.5968C0.182464 22.7552 -0.376584 28.4313 0.712677 33.9074C1.80194 39.3835 4.49058 44.4136 8.43862 48.3616C12.3867 52.3097 17.4168 54.9983 22.8928 56.0876C28.3689 57.1768 34.045 56.6178 39.2034 54.4811C44.3618 52.3445 48.7707 48.7261 51.8726 44.0837C54.9746 39.4413 56.6302 33.9834 56.6302 28.4C56.6223 20.9154 53.6455 13.7396 48.3531 8.44715C43.0607 3.15472 35.8849 0.177942 28.4002 0.170001Z" fill="url(#paint1_linear_7188_845)"/>
<path d="M59.5004 28.4C59.5004 34.0015 57.8392 39.4773 54.7269 44.1347C51.6146 48.7922 47.191 52.422 42.0157 54.5652C36.8403 56.7084 31.1455 57.2686 25.6517 56.1751C20.1579 55.0815 15.1118 52.3833 11.1516 48.4217C7.19134 44.4601 4.49491 39.413 3.40331 33.9188C2.3117 28.4246 2.87396 22.7301 5.01897 17.5554C7.16397 12.3808 10.7954 7.95852 15.4539 4.84788C20.1124 1.73724 25.5888 0.0779799 31.1904 0.0799578C38.6996 0.0826094 45.9003 3.06749 51.2092 8.37823C56.518 13.689 59.5004 20.8908 59.5004 28.4Z" fill="#F9B233"/>
<path d="M56.9399 28.4C56.9419 33.4957 55.4325 38.4775 52.6028 42.7153C49.773 46.953 45.7499 50.2563 41.0425 52.2072C36.335 54.1582 31.1547 54.6692 26.1569 53.6755C21.159 52.6819 16.5681 50.2283 12.9649 46.6251C9.36166 43.0219 6.90805 38.431 5.91442 33.4331C4.92078 28.4352 5.43176 23.2549 7.38271 18.5475C9.33366 13.84 12.6369 9.81699 16.8747 6.9872C21.1124 4.15742 26.0942 2.64805 31.1899 2.65003C38.0193 2.65003 44.5689 5.36297 49.3979 10.192C54.227 15.0211 56.9399 21.5707 56.9399 28.4Z" fill="#D28C2C"/>
<path d="M31.1906 49.4001C42.6781 49.4001 51.9906 40.0876 51.9906 28.6C51.9906 17.1125 42.6781 7.80005 31.1906 7.80005C19.7031 7.80005 10.3906 17.1125 10.3906 28.6C10.3906 40.0876 19.7031 49.4001 31.1906 49.4001Z" fill="#FAB600"/>
<path d="M46.5898 27.24L49.9898 19.12L48.1598 18.72L42.2298 18.71L38.5698 27.38L37.0398 27.4L34.2998 19.12L33.1698 18.35L29.0998 18.37L26.2098 27.6L23.9898 27.62L20.0698 19.12L18.8398 18.38L12.7598 18.37L16.5698 27.28L13.4198 27.31V30.02L14.7398 30.59H18.0098L18.3898 31.61H13.4198V33.98L14.7398 34.53H19.6098L21.4298 39.38L22.9398 40.03H28.1598L30.0498 34.24L32.8498 34.26L34.4698 39.78L35.9998 40.03H41.2198L43.7598 33.98H49.1198V31.61L47.0698 31.17L44.9498 31.21L45.4198 30.02H49.1198V27.65L47.1498 27.23L46.5898 27.24Z" fill="#402A00"/>
<path d="M50.0002 19.12H43.7702L40.0502 27.65H37.1502L34.3002 19.12H29.8502L27.0002 27.65H24.0002L20.0802 19.12H14.2002L17.7702 27.65H14.7702V30H18.7702L19.4302 31.59H14.7302V34H20.4102L22.9402 40H28.1602L30.1602 33.95H34.0002L36.0002 40H41.2202L43.7502 34H49.1202V31.61H44.7502L45.4202 30H49.1202V27.65H46.4102L50.0002 19.12ZM25.0802 30H26.2202C26.0598 30.5228 25.9263 31.0535 25.8202 31.59L25.0802 30ZM30.9102 31.59L31.2402 30.59V30.45C31.2402 30.3 31.3302 30.16 31.3702 30.02H32.7002C32.7002 30.21 32.8002 30.39 32.8602 30.57L33.2002 31.57L30.9102 31.59ZM38.3302 31.59C38.2274 31.0537 38.0972 30.523 37.9402 30H39.0002L38.3302 31.59Z" fill="#B97C26"/>
<path d="M48.5898 20.1H44.1998L40.6098 28.1H36.5198L33.9998 20H30.3498L27.6898 28.12H23.3898L19.7298 20H15.2598L18.7598 28.12H15.2598V29.6H19.4098L20.4698 32H15.2598V33.51H21.1198L23.4798 39H27.4798L29.2098 33.53H34.7198L36.3798 39H40.5498L42.8698 33.53H48.3698V32H43.5098L44.5098 29.56H48.3298V28.08H45.1998L48.5898 20.1ZM32.0998 24.52L33.0998 28.08H30.9998L32.0998 24.52ZM24.0998 29.6H27.1998L26.3998 32H25.1798L24.0998 29.6ZM25.9098 33.6V33.54H25.9598L25.9098 33.6ZM29.7198 32L30.4998 29.56H33.5898L34.3198 32H29.7198ZM38.8298 32H37.7598L36.9998 29.6H39.9398L38.8298 32Z" fill="#FFEA0C"/>
</g>
<defs>
<linearGradient id="paint0_linear_7188_845" x1="0.0803253" y1="28.4" x2="56.7103" y2="28.4" gradientUnits="userSpaceOnUse">
<stop stop-color="#200900"/>
<stop offset="1" stop-color="#C37406"/>
</linearGradient>
<linearGradient id="paint1_linear_7188_845" x1="0.000245426" y1="28.4" x2="56.7902" y2="28.4" gradientUnits="userSpaceOnUse">
<stop stop-color="#200900"/>
<stop offset="1" stop-color="#C37406"/>
</linearGradient>
<clipPath id="clip0_7188_845">
<rect width="59.5" height="56.79" fill="white"/>
</clipPath>
</defs>
</svg>
