<svg width="20" height="20" viewBox="0 0 20 20" fill="none" xmlns="http://www.w3.org/2000/svg">
<g clip-path="url(#clip0_184_261)">
<path d="M2.39765 7.8331C2.36145 7.833 2.32626 7.82112 2.29741 7.79924C2.26856 7.77737 2.24762 7.74669 2.23776 7.71186C2.22789 7.67702 2.22964 7.63992 2.24273 7.60617C2.25582 7.57242 2.27955 7.54384 2.31032 7.52477L4.77199 6.00177L1.76365 7.73877C1.72634 7.75976 1.68238 7.76558 1.64088 7.75503C1.59939 7.74448 1.56355 7.71836 1.54079 7.6821C1.51803 7.64584 1.5101 7.60221 1.51864 7.56026C1.52718 7.51831 1.55153 7.48125 1.58665 7.45677L2.46732 6.85677L1.78765 7.2491C1.74956 7.26903 1.70525 7.27347 1.66396 7.26149C1.62268 7.24951 1.58762 7.22205 1.5661 7.18483C1.54459 7.14761 1.53829 7.10352 1.54852 7.06177C1.55874 7.02002 1.58471 6.98383 1.62099 6.96077L6.18765 4.32544C6.22489 4.30521 6.26843 4.29992 6.30942 4.31066C6.35042 4.32139 6.38578 4.34733 6.40833 4.38321C6.43088 4.41909 6.43891 4.46221 6.4308 4.5038C6.42268 4.54539 6.39903 4.58233 6.36465 4.6071L5.48565 5.2071L14.1257 0.216771C14.1635 0.19544 14.2082 0.189742 14.2502 0.20089C14.2922 0.212039 14.3282 0.239152 14.3505 0.276451C14.3728 0.31375 14.3797 0.358284 14.3696 0.400561C14.3595 0.442838 14.3334 0.479514 14.2967 0.502771L11.835 2.02544L14.6177 0.419104C14.6554 0.399196 14.6994 0.394546 14.7405 0.406112C14.7816 0.417679 14.8167 0.444579 14.8386 0.481265C14.8604 0.517951 14.8673 0.561623 14.8579 0.603273C14.8485 0.644923 14.8235 0.681373 14.788 0.705104L13.8457 1.28344L14.8887 0.681437C14.9264 0.660625 14.9708 0.655276 15.0125 0.666515C15.0541 0.677754 15.0898 0.704705 15.112 0.741701C15.1342 0.778698 15.1412 0.822857 15.1315 0.864893C15.1218 0.90693 15.0961 0.943568 15.06 0.967104L12.8523 2.33844L15.1033 1.03844C15.1412 1.01711 15.1859 1.01141 15.2279 1.02256C15.2699 1.03371 15.3059 1.06082 15.3282 1.09812C15.3505 1.13542 15.3573 1.17995 15.3473 1.22223C15.3372 1.2645 15.311 1.30118 15.2743 1.32444L13.646 2.3361L15.2953 1.38377C15.3328 1.3628 15.3769 1.35712 15.4185 1.3679C15.4601 1.37868 15.4959 1.4051 15.5185 1.44165C15.5411 1.47819 15.5486 1.52204 15.5397 1.56405C15.5307 1.60605 15.5059 1.64297 15.4703 1.6671L10.839 4.72277L15.618 1.96377C15.6554 1.94363 15.6991 1.93853 15.7401 1.94951C15.7811 1.96049 15.8164 1.98673 15.8388 2.02285C15.8611 2.05898 15.8688 2.10228 15.8603 2.1439C15.8518 2.18551 15.8277 2.22231 15.793 2.24677L12.0667 4.70377L15.9083 2.48544C15.946 2.46333 15.9909 2.45693 16.0333 2.46762C16.0757 2.4783 16.1122 2.50521 16.1349 2.54255C16.1577 2.57989 16.1648 2.62467 16.1549 2.66723C16.1449 2.7098 16.1186 2.74674 16.0817 2.7701L14.159 4.0051L16.123 2.87177C16.1603 2.85046 16.2044 2.84436 16.246 2.85475C16.2877 2.86514 16.3238 2.89122 16.3467 2.92755C16.3696 2.96388 16.3776 3.00765 16.369 3.04973C16.3604 3.09182 16.336 3.12897 16.3007 3.15344L13.0173 5.41244L16.438 3.4381C16.4755 3.41676 16.5199 3.41082 16.5617 3.42155C16.6036 3.43228 16.6396 3.45883 16.6623 3.49561C16.6849 3.53239 16.6924 3.57652 16.6832 3.61871C16.6739 3.6609 16.6486 3.69785 16.6127 3.72177L15.4527 4.4791L16.637 3.79544C16.6743 3.77475 16.7182 3.76919 16.7595 3.77989C16.8008 3.79059 16.8365 3.81674 16.8591 3.85295C16.8817 3.88915 16.8896 3.93266 16.8811 3.97449C16.8725 4.01632 16.8483 4.05329 16.8133 4.07777L15.287 5.10577L16.8607 4.19744C16.898 4.17675 16.9419 4.17119 16.9832 4.18189C17.0245 4.19259 17.0602 4.21874 17.0828 4.25495C17.1054 4.29115 17.1132 4.33466 17.1047 4.37649C17.0962 4.41832 17.072 4.45529 17.037 4.47977L16.0607 5.13877L17.0627 4.56044C17.0993 4.53942 17.1425 4.53308 17.1836 4.5427C17.2247 4.55232 17.2606 4.57718 17.2841 4.61226C17.3076 4.64735 17.3169 4.69003 17.3101 4.7317C17.3034 4.77338 17.281 4.81093 17.2477 4.83677L15.4143 6.24144L17.3687 5.1131C17.4055 5.09218 17.4489 5.08604 17.49 5.09596C17.5312 5.10587 17.5671 5.13108 17.5903 5.16647C17.6136 5.20186 17.6225 5.24478 17.6152 5.2865C17.608 5.32822 17.5851 5.36562 17.5513 5.3911L16.6333 6.07477L17.597 5.51844C17.6331 5.49833 17.6754 5.49237 17.7157 5.5017C17.7559 5.51103 17.7913 5.53499 17.8149 5.56893C17.8385 5.60286 17.8486 5.64436 17.8433 5.68535C17.8381 5.72635 17.8177 5.76392 17.7863 5.79077L16.9023 6.5241L17.8513 5.97644C17.8871 5.95625 17.9292 5.95001 17.9693 5.95893C18.0094 5.96785 18.0449 5.99129 18.0688 6.02474C18.0927 6.0582 18.1034 6.09931 18.0988 6.14017C18.0942 6.18103 18.0747 6.21876 18.044 6.2461L17.5737 6.65677L18.0703 6.36977C18.104 6.35031 18.1435 6.34326 18.1818 6.34983C18.2202 6.35641 18.255 6.3762 18.2803 6.40577C18.3057 6.4353 18.3199 6.47277 18.3205 6.51167C18.3211 6.55057 18.308 6.58846 18.2837 6.61877L17.9213 7.06644L18.3273 6.8331C18.3604 6.81388 18.399 6.8066 18.4368 6.81248C18.4746 6.81837 18.5092 6.83706 18.5348 6.86542C18.5604 6.89379 18.5755 6.9301 18.5776 6.96828C18.5796 7.00646 18.5685 7.04417 18.546 7.0751L18.425 7.24177C18.4546 7.25267 18.4805 7.27175 18.4997 7.29679C18.5189 7.32184 18.5306 7.35181 18.5334 7.38323C18.5362 7.41465 18.5301 7.44623 18.5157 7.47429C18.5012 7.50236 18.4792 7.52576 18.452 7.54177L18.003 7.80077C17.9699 7.81982 17.9314 7.82696 17.8937 7.821C17.856 7.81504 17.8215 7.79634 17.796 7.76802C17.7705 7.73971 17.7554 7.70349 17.7533 7.6654C17.7513 7.62732 17.7623 7.58968 17.7847 7.55877L17.821 7.5081L17.3137 7.80077C17.28 7.82003 17.2407 7.82695 17.2025 7.82033C17.1642 7.81371 17.1295 7.79398 17.1043 7.76453C17.0791 7.73508 17.0649 7.69775 17.0642 7.65898C17.0636 7.6202 17.0765 7.58241 17.1007 7.5521L17.4623 7.10377L16.253 7.80144C16.2172 7.82163 16.1751 7.82786 16.135 7.81894C16.0949 7.81003 16.0594 7.78659 16.0355 7.75313C16.0116 7.71968 16.0009 7.67857 16.0055 7.6377C16.0101 7.59684 16.0296 7.55911 16.0603 7.53177L16.53 7.12177L15.3517 7.8021C15.3155 7.82253 15.2731 7.82875 15.2326 7.81953C15.1921 7.81032 15.1566 7.78634 15.1328 7.75228C15.1091 7.71822 15.099 7.67654 15.1044 7.63539C15.1097 7.59423 15.1303 7.55657 15.162 7.52977L16.046 6.79644L14.3053 7.8031C14.2685 7.82403 14.2251 7.83016 14.1839 7.82025C14.1428 7.81034 14.1069 7.78513 14.0837 7.74974C14.0604 7.71435 14.0515 7.67143 14.0587 7.62971C14.066 7.58799 14.0888 7.55059 14.1227 7.5251L15.0427 6.8411L13.376 7.80377C13.3394 7.82479 13.2961 7.83113 13.255 7.82151C13.2139 7.81189 13.178 7.78703 13.1545 7.75194C13.131 7.71686 13.1217 7.67418 13.1285 7.6325C13.1353 7.59083 13.1576 7.55328 13.191 7.52744L15.0243 6.1221L12.1103 7.80444C12.073 7.82512 12.0291 7.83069 11.9878 7.81999C11.9465 7.80929 11.9108 7.78314 11.8882 7.74693C11.8656 7.71072 11.8577 7.66722 11.8663 7.62538C11.8748 7.58355 11.899 7.54659 11.934 7.5221L12.9093 6.86377L11.2787 7.8051C11.2412 7.8268 11.1968 7.83309 11.1548 7.82264C11.1128 7.81219 11.0766 7.78583 11.0537 7.74912C11.0308 7.71241 11.023 7.66824 11.0321 7.62593C11.0412 7.58363 11.0664 7.54652 11.1023 7.52244L12.6293 6.4941L10.3573 7.80577C10.3197 7.82765 10.275 7.83394 10.2328 7.82331C10.1906 7.81268 10.1543 7.78597 10.1315 7.74889C10.1087 7.7118 10.1014 7.66728 10.111 7.62484C10.1206 7.5824 10.1465 7.54541 10.183 7.52177L11.3453 6.7631L9.53665 7.8061C9.49937 7.82742 9.45529 7.83352 9.41362 7.82312C9.37194 7.81273 9.33589 7.78665 9.31298 7.75033C9.29006 7.714 9.28206 7.67023 9.29063 7.62814C9.2992 7.58606 9.32369 7.54891 9.35899 7.52444L12.6413 5.26644L8.24132 7.80744C8.22263 7.81884 8.20187 7.82645 8.18024 7.82983C8.15861 7.83321 8.13652 7.8323 8.11524 7.82715C8.09396 7.822 8.07391 7.8127 8.05622 7.7998C8.03853 7.78689 8.02356 7.77063 8.01215 7.75194C8.00075 7.73325 7.99314 7.71249 7.98976 7.69086C7.98638 7.66923 7.98729 7.64714 7.99244 7.62586C7.99759 7.60458 8.00689 7.58452 8.01979 7.56683C8.0327 7.54915 8.04896 7.53417 8.06765 7.52277L9.99065 6.28777L7.35732 7.8081C7.31983 7.82907 7.2757 7.83476 7.23412 7.82397C7.19254 7.81319 7.15673 7.78677 7.13416 7.75023C7.11159 7.71368 7.104 7.66983 7.11297 7.62783C7.12194 7.58582 7.14679 7.5489 7.18232 7.52477L10.9087 5.06877L6.16232 7.80877C6.12483 7.82974 6.0807 7.83542 6.03912 7.82464C5.99754 7.81386 5.96173 7.78744 5.93916 7.75089C5.91659 7.71435 5.909 7.6705 5.91797 7.6285C5.92694 7.58649 5.95179 7.54957 5.98732 7.52544L10.6207 4.46977L4.83332 7.80944C4.79539 7.83216 4.75 7.83888 4.70711 7.82813C4.66423 7.81738 4.62737 7.79003 4.60465 7.7521C4.58193 7.71418 4.57521 7.66878 4.58596 7.6259C4.59671 7.58301 4.62406 7.54616 4.66199 7.52344L6.29532 6.50944L4.04299 7.80944C4.00506 7.83216 3.95966 7.83888 3.91678 7.82813C3.8739 7.81738 3.83704 7.79003 3.81432 7.7521C3.7916 7.71418 3.78488 7.66878 3.79563 7.6259C3.80638 7.58301 3.83373 7.54616 3.87165 7.52344L6.07532 6.1551L3.20865 7.8101C3.17068 7.83274 3.12528 7.83936 3.08243 7.82851C3.03957 7.81767 3.00278 7.79024 2.98015 7.75227C2.95752 7.7143 2.9509 7.66889 2.96175 7.62604C2.97259 7.58319 3.00002 7.5464 3.03799 7.52377L3.98132 6.9451L2.48132 7.81177C2.45582 7.8262 2.42694 7.83356 2.39765 7.8331Z" fill="#88DD51"/>
<path d="M5.99035 19.8232C5.95397 19.8233 5.91857 19.8114 5.88955 19.7895C5.86053 19.7675 5.83949 19.7367 5.82963 19.7017C5.81977 19.6667 5.82164 19.6294 5.83495 19.5955C5.84826 19.5617 5.87228 19.5331 5.90335 19.5142L7.66668 18.4392L5.30835 19.7999C5.27043 19.8205 5.226 19.8256 5.1844 19.8141C5.1428 19.8026 5.10727 19.7755 5.08529 19.7383C5.06331 19.7012 5.0566 19.657 5.06655 19.615C5.07651 19.573 5.10237 19.5365 5.13868 19.5132L6.07568 18.9465L4.59535 19.7999C4.55756 19.8207 4.51317 19.826 4.47152 19.8148C4.42987 19.8035 4.3942 19.7766 4.37201 19.7396C4.34982 19.7026 4.34284 19.6584 4.35254 19.6164C4.36224 19.5744 4.38786 19.5377 4.42401 19.5142L10.3667 15.8365L3.50001 19.7999C3.46227 19.82 3.41821 19.8249 3.37697 19.8135C3.33573 19.802 3.30047 19.7752 3.27849 19.7384C3.25651 19.7017 3.2495 19.658 3.2589 19.6162C3.26831 19.5745 3.29341 19.5379 3.32901 19.5142L10.2903 15.2059L2.33335 19.7999C2.29548 19.8212 2.25079 19.8269 2.20878 19.8157C2.16678 19.8046 2.13079 19.7775 2.10849 19.7402C2.08619 19.7029 2.07934 19.6583 2.0894 19.6161C2.09946 19.5738 2.12564 19.5371 2.16235 19.5139L10.079 14.6222L1.26868 19.7089C1.23093 19.729 1.18688 19.7339 1.14564 19.7225C1.1044 19.711 1.06913 19.6842 1.04716 19.6474C1.02518 19.6107 1.01816 19.567 1.02757 19.5252C1.03697 19.4835 1.06208 19.4469 1.09768 19.4232L10.2873 13.7355L0.694346 19.2739C0.656532 19.2944 0.612254 19.2995 0.570773 19.2881C0.529293 19.2767 0.493822 19.2497 0.471779 19.2127C0.449736 19.1758 0.442829 19.1318 0.452502 19.0899C0.462175 19.048 0.487679 19.0114 0.523679 18.9879L8.91968 13.8299L0.451346 18.7189C0.413635 18.7385 0.369843 18.743 0.328935 18.7314C0.288026 18.7198 0.253094 18.693 0.231287 18.6565C0.20948 18.62 0.202448 18.5766 0.21163 18.535C0.220812 18.4935 0.245514 18.4571 0.280679 18.4332L8.94201 13.0952L0.426679 18.0112C0.388905 18.0311 0.34493 18.0357 0.303828 18.0242C0.262725 18.0126 0.227629 17.9857 0.20578 17.949C0.18393 17.9123 0.176995 17.8687 0.186404 17.827C0.195813 17.7854 0.220849 17.7489 0.256346 17.7252L7.32668 13.3865L0.426679 17.3702C0.388865 17.3907 0.344587 17.3958 0.303107 17.3844C0.261626 17.373 0.226155 17.346 0.204112 17.3091C0.182069 17.2721 0.175162 17.2281 0.184835 17.1862C0.194508 17.1443 0.220012 17.1077 0.256013 17.0842L7.31901 12.7192L0.426679 16.6999C0.388817 16.7212 0.344121 16.7269 0.302118 16.7157C0.260115 16.7046 0.224127 16.6775 0.201826 16.6402C0.179525 16.6029 0.172674 16.5583 0.182734 16.5161C0.192794 16.4738 0.218969 16.4371 0.255679 16.4139L6.76068 12.3745L0.426679 16.0332C0.388709 16.0558 0.343304 16.0624 0.300452 16.0516C0.2576 16.0408 0.220811 16.0133 0.198179 15.9754C0.175548 15.9374 0.168926 15.892 0.179772 15.8491C0.190618 15.8063 0.218043 15.7695 0.256013 15.7469L4.76668 12.9665L0.426679 15.4712C0.388905 15.4911 0.34493 15.4957 0.303828 15.4842C0.262725 15.4726 0.227629 15.4457 0.20578 15.409C0.18393 15.3723 0.176995 15.3287 0.186404 15.287C0.195813 15.2454 0.220849 15.2089 0.256346 15.1852L3.47401 13.2072L0.426679 14.9665C0.389049 14.9869 0.345015 14.9921 0.303702 14.9809C0.26239 14.9697 0.226964 14.943 0.204767 14.9064C0.18257 14.8698 0.175303 14.8261 0.18447 14.7843C0.193638 14.7425 0.218539 14.7058 0.254013 14.6819L5.95035 11.0605L0.426679 14.2492C0.388905 14.2691 0.34493 14.2737 0.303828 14.2622C0.262725 14.2506 0.227629 14.2237 0.20578 14.187C0.18393 14.1503 0.176995 14.1067 0.186404 14.065C0.195813 14.0234 0.220849 13.9869 0.256346 13.9632L1.46935 13.2172L0.426679 13.8192C0.388754 13.8422 0.343232 13.8492 0.30013 13.8387C0.257028 13.8282 0.219876 13.801 0.196846 13.763C0.173816 13.7251 0.166796 13.6796 0.177329 13.6365C0.187863 13.5934 0.215087 13.5562 0.253013 13.5332L4.99735 10.4665L0.426679 13.1065C0.389251 13.1272 0.345313 13.1327 0.303951 13.1219C0.262589 13.111 0.226967 13.0847 0.20445 13.0484C0.181934 13.012 0.174244 12.9684 0.182973 12.9266C0.191701 12.8847 0.216179 12.8478 0.251346 12.8235L4.71368 9.86819L0.426679 12.3429C0.388985 12.3636 0.344736 12.3689 0.303187 12.3578C0.261638 12.3466 0.226008 12.3199 0.203749 12.2831C0.18149 12.2462 0.174326 12.2023 0.183756 12.1603C0.193186 12.1183 0.21848 12.0816 0.254346 12.0579L1.58768 11.2125L0.426679 11.8832C0.389192 11.9042 0.345056 11.9098 0.303478 11.8991C0.261901 11.8883 0.226092 11.8619 0.20352 11.8253C0.180948 11.7888 0.173357 11.7449 0.18233 11.7029C0.191303 11.6609 0.216147 11.624 0.251679 11.5999L2.74935 9.95186L0.426679 11.2932C0.389279 11.3142 0.345236 11.3199 0.303708 11.3092C0.26218 11.2986 0.226362 11.2723 0.203699 11.2359C0.181036 11.1995 0.173272 11.1558 0.182022 11.1138C0.190772 11.0718 0.215362 11.0348 0.250679 11.0105L2.33135 9.61319L0.426679 10.7132C0.389698 10.7326 0.346772 10.7374 0.306401 10.7267C0.26603 10.716 0.231157 10.6905 0.208688 10.6553C0.186219 10.6201 0.177791 10.5777 0.185074 10.5366C0.192357 10.4954 0.214819 10.4585 0.248013 10.4332L2.15068 9.10619L0.426679 10.0999C0.389419 10.1206 0.345633 10.1262 0.30433 10.1157C0.263028 10.1051 0.227349 10.0791 0.204633 10.043C0.181917 10.0069 0.173893 9.9635 0.18221 9.92169C0.190527 9.87987 0.214553 9.84283 0.249346 9.81819L0.982679 9.31452L0.426679 9.63652C0.390096 9.65674 0.347252 9.66247 0.306641 9.65258C0.26603 9.64269 0.230617 9.61791 0.207422 9.58313C0.184227 9.54836 0.174944 9.50615 0.181413 9.46485C0.187881 9.42356 0.20963 9.3862 0.242346 9.36019L1.45435 8.43052L0.426679 9.02386C0.391192 9.0439 0.34959 9.05025 0.309741 9.04169C0.269892 9.03314 0.234558 9.01028 0.21042 8.97744C0.186282 8.9446 0.175015 8.90406 0.178748 8.86347C0.182481 8.82289 0.200956 8.78508 0.230679 8.75719L1.15135 7.91186L0.435679 8.32519C0.401027 8.34524 0.360315 8.35215 0.320988 8.34465C0.281662 8.33715 0.246349 8.31574 0.221507 8.28435C0.196666 8.25295 0.183955 8.21366 0.185701 8.17367C0.187446 8.13367 0.203531 8.09564 0.231013 8.06652L0.622346 7.65352C0.588469 7.64792 0.557148 7.632 0.532666 7.60792C0.508184 7.58384 0.491736 7.55279 0.485571 7.51901C0.479406 7.48523 0.483825 7.45037 0.498223 7.4192C0.512622 7.38803 0.536298 7.36206 0.566013 7.34486L1.35801 6.88752C1.3927 6.86747 1.43345 6.86058 1.4728 6.86811C1.51216 6.87565 1.54747 6.89712 1.57229 6.92857C1.59711 6.96003 1.60976 6.99938 1.60794 7.0394C1.60611 7.07943 1.58993 7.11746 1.56235 7.14652L1.26235 7.46386L2.29668 6.86652C2.33217 6.84648 2.37377 6.84013 2.41362 6.84869C2.45347 6.85724 2.4888 6.8801 2.51294 6.91294C2.53708 6.94578 2.54834 6.98632 2.54461 7.02691C2.54088 7.06749 2.5224 7.1053 2.49268 7.13319L1.57201 7.97819L3.50001 6.86652C3.53661 6.84593 3.57964 6.83991 3.62049 6.84967C3.66133 6.85943 3.69699 6.88425 3.72033 6.91916C3.74366 6.95408 3.75295 6.99652 3.74634 7.038C3.73973 7.07947 3.71771 7.11692 3.68468 7.14286L2.47168 8.07286L4.56168 6.86652C4.59886 6.84649 4.64227 6.84132 4.68312 6.85205C4.72396 6.86279 4.75921 6.88864 4.78174 6.92437C4.80426 6.9601 4.81238 7.00305 4.80444 7.04454C4.79651 7.08602 4.77313 7.12295 4.73901 7.14786L4.00568 7.65086L5.36301 6.86652C5.40014 6.84597 5.44371 6.84035 5.48484 6.85081C5.52597 6.86127 5.56155 6.88703 5.58434 6.92283C5.60713 6.95863 5.61541 7.00177 5.60748 7.04347C5.59955 7.08516 5.57602 7.12225 5.54168 7.14719L3.64168 8.47319L6.42468 6.86652C6.462 6.84635 6.5056 6.84116 6.54661 6.85202C6.58762 6.86287 6.62295 6.88896 6.64539 6.92496C6.66783 6.96096 6.6757 7.00417 6.66739 7.04577C6.65909 7.08737 6.63523 7.12424 6.60068 7.14886L4.51801 8.54886L7.42935 6.86652C7.46675 6.84638 7.51042 6.84128 7.55146 6.85226C7.59249 6.86324 7.62778 6.88948 7.65013 6.92561C7.67247 6.96174 7.68017 7.00503 7.67166 7.04665C7.66315 7.08826 7.63907 7.12506 7.60435 7.14952L5.10835 8.79619L8.45135 6.86652C8.48904 6.84579 8.53329 6.84044 8.57484 6.85159C8.61639 6.86273 8.65202 6.88951 8.67428 6.92633C8.69654 6.96314 8.7037 7.00713 8.69427 7.0491C8.68484 7.09107 8.65955 7.12777 8.62368 7.15152L7.28535 7.99986L9.24768 6.86652C9.28514 6.84522 9.3294 6.83925 9.37116 6.84987C9.41293 6.86049 9.44896 6.88688 9.47169 6.9235C9.49442 6.96011 9.50208 7.00411 9.49306 7.04625C9.48405 7.08839 9.45906 7.12541 9.42335 7.14952L4.96168 10.1039L10.5703 6.86652C10.6079 6.84615 10.6518 6.84096 10.6931 6.85204C10.7343 6.86312 10.7698 6.88961 10.792 6.92606C10.8143 6.9625 10.8218 7.0061 10.8128 7.04788C10.8039 7.08965 10.7793 7.12639 10.744 7.15052L6.00001 10.2165L11.8043 6.86652C11.8422 6.84602 11.8864 6.84093 11.9279 6.85232C11.9694 6.86371 12.0049 6.89069 12.0269 6.92763C12.049 6.96457 12.0559 7.0086 12.0462 7.05051C12.0365 7.09243 12.011 7.12898 11.975 7.15252L10.762 7.89786L12.549 6.86652C12.5867 6.84547 12.631 6.83984 12.6728 6.85083C12.7145 6.86182 12.7503 6.88857 12.7728 6.92545C12.7952 6.96233 12.8024 7.00646 12.7929 7.04856C12.7835 7.09066 12.7581 7.12745 12.722 7.15119L7.02535 10.7719L13.7913 6.86652C13.8292 6.84602 13.8734 6.84093 13.9149 6.85232C13.9564 6.86371 13.9919 6.89069 14.0139 6.92763C14.036 6.96457 14.0429 7.0086 14.0332 7.05051C14.0235 7.09243 13.998 7.12898 13.962 7.15252L10.746 9.12952L14.6667 6.86652C14.7045 6.84519 14.7492 6.83949 14.7912 6.85064C14.8332 6.86179 14.8692 6.8889 14.8915 6.9262C14.9138 6.9635 14.9207 7.00804 14.9106 7.05031C14.9006 7.09259 14.8744 7.12927 14.8377 7.15252L10.326 9.93319L15.636 6.86652C15.6738 6.84571 15.7182 6.84036 15.7598 6.8516C15.8015 6.86284 15.8372 6.88979 15.8593 6.92679C15.8815 6.96378 15.8885 7.00794 15.8788 7.04998C15.8691 7.09202 15.8435 7.12865 15.8073 7.15219L9.30001 11.1909L16.7917 6.86652C16.8295 6.84519 16.8742 6.83949 16.9162 6.85064C16.9582 6.86179 16.9942 6.8889 17.0165 6.9262C17.0388 6.9635 17.0457 7.00804 17.0356 7.05031C17.0256 7.09259 16.9994 7.12927 16.9627 7.15252L9.90468 11.5135L17.9547 6.86652C17.9925 6.84602 18.0368 6.84093 18.0783 6.85232C18.1197 6.86371 18.1552 6.89069 18.1772 6.92763C18.1993 6.96457 18.2062 7.0086 18.1965 7.05051C18.1869 7.09243 18.1613 7.12898 18.1253 7.15252L11.0547 11.4905L18.8333 6.99986C18.8712 6.97853 18.9159 6.97283 18.9579 6.98398C18.9999 6.99513 19.0359 7.02224 19.0582 7.05954C19.0805 7.09684 19.0874 7.14137 19.0773 7.18365C19.0672 7.22592 19.0411 7.2626 19.0043 7.28586L10.343 12.6232L19.3333 7.43319C19.3712 7.41269 19.4154 7.40759 19.4569 7.41898C19.4984 7.43037 19.5339 7.45736 19.5559 7.4943C19.578 7.53124 19.5849 7.57527 19.5752 7.61718C19.5655 7.6591 19.54 7.69565 19.504 7.71919L11.103 12.8799L19.559 7.99786C19.5968 7.97735 19.6411 7.97226 19.6826 7.98365C19.7241 7.99504 19.7595 8.02203 19.7816 8.05896C19.8036 8.0959 19.8105 8.13993 19.8009 8.18185C19.7912 8.22376 19.7657 8.26031 19.7297 8.28386L10.54 13.9712L19.5733 8.75619C19.6112 8.73569 19.6554 8.73059 19.6969 8.74198C19.7384 8.75337 19.7739 8.78036 19.7959 8.8173C19.818 8.85424 19.8249 8.89827 19.8152 8.94018C19.8055 8.9821 19.78 9.01865 19.744 9.04219L11.8283 13.9332L19.5733 9.46186C19.6111 9.44222 19.6549 9.43773 19.6958 9.44932C19.7367 9.46091 19.7716 9.4877 19.7934 9.5242C19.8152 9.5607 19.8222 9.60416 19.8131 9.64567C19.8039 9.68719 19.7792 9.72362 19.744 9.74752L12.7827 14.0559L19.5733 10.1352C19.6112 10.1139 19.6559 10.1082 19.6979 10.1193C19.7399 10.1305 19.7759 10.1576 19.7982 10.1949C19.8205 10.2322 19.8274 10.2767 19.8173 10.319C19.8072 10.3613 19.7811 10.3979 19.7443 10.4212L13.8 14.1022L19.574 10.7689C19.6119 10.7482 19.6564 10.7431 19.698 10.7546C19.7396 10.7661 19.7751 10.7932 19.7971 10.8304C19.819 10.8675 19.8258 10.9117 19.8158 10.9537C19.8059 10.9957 19.78 11.0322 19.7437 11.0555L18.8103 11.6222L19.5737 11.1819C19.6115 11.1616 19.6557 11.1568 19.697 11.1683C19.7384 11.1798 19.7736 11.2069 19.7956 11.2438C19.8175 11.2807 19.8243 11.3246 19.8146 11.3664C19.805 11.4082 19.7796 11.4446 19.7437 11.4682L17.9837 12.5412L19.5737 11.6235C19.6114 11.6024 19.656 11.5967 19.6978 11.6078C19.7396 11.6189 19.7755 11.6458 19.7979 11.6829C19.8202 11.72 19.8273 11.7643 19.8175 11.8064C19.8078 11.8486 19.782 11.8853 19.7457 11.9089L14.422 15.2665L19.5733 12.2919C19.611 12.2715 19.655 12.2663 19.6963 12.2775C19.7376 12.2887 19.7731 12.3154 19.7953 12.352C19.8175 12.3885 19.8247 12.4323 19.8156 12.4741C19.8064 12.5159 19.7815 12.5526 19.746 12.5765L14.8297 15.7099L19.5733 12.9715C19.6111 12.9511 19.6552 12.946 19.6966 12.9573C19.738 12.9686 19.7734 12.9954 19.7955 13.0321C19.8177 13.0689 19.8247 13.1128 19.8153 13.1546C19.8059 13.1965 19.7807 13.2331 19.745 13.2569L17.1207 14.8999L19.5733 13.4842C19.611 13.4643 19.6549 13.4596 19.6959 13.4711C19.737 13.4825 19.7721 13.5093 19.794 13.5458C19.8159 13.5823 19.823 13.6259 19.8139 13.6675C19.8047 13.7091 19.7799 13.7456 19.7447 13.7695L18.1913 14.7405L19.5733 13.9429C19.611 13.9221 19.6553 13.9168 19.6968 13.9279C19.7384 13.9391 19.774 13.9658 19.7963 14.0027C19.8185 14.0395 19.8257 14.0835 19.8163 14.1254C19.8068 14.1674 19.7815 14.2041 19.7457 14.2279L17.679 15.5392L19.5727 14.4462C19.61 14.426 19.6536 14.4208 19.6946 14.4317C19.7356 14.4425 19.7709 14.4686 19.7934 14.5046C19.8158 14.5406 19.8237 14.5838 19.8154 14.6254C19.8071 14.667 19.7832 14.7039 19.7487 14.7285L16.2963 17.0485L19.5733 15.1565C19.6108 15.1364 19.6546 15.1314 19.6957 15.1425C19.7367 15.1536 19.772 15.18 19.7942 15.2162C19.8165 15.2525 19.824 15.2959 19.8153 15.3375C19.8066 15.3792 19.7823 15.4159 19.7473 15.4402L18.353 16.3465L19.5733 15.6422C19.6108 15.6215 19.6547 15.616 19.6961 15.6269C19.7374 15.6377 19.7731 15.664 19.7956 15.7003C19.8181 15.7367 19.8258 15.7803 19.8171 15.8221C19.8083 15.864 19.7838 15.9009 19.7487 15.9252L18.4513 16.7839L19.5733 16.1362C19.6102 16.1154 19.6537 16.1094 19.6948 16.1194C19.736 16.1295 19.7717 16.1548 19.7949 16.1903C19.818 16.2258 19.8268 16.2688 19.8194 16.3105C19.812 16.3522 19.7889 16.3895 19.755 16.4149L17.635 17.9645L19.5733 16.8455C19.6097 16.8253 19.6522 16.8194 19.6926 16.829C19.7331 16.8385 19.7685 16.8628 19.7919 16.8971C19.8154 16.9314 19.8252 16.9732 19.8194 17.0144C19.8136 17.0555 19.7927 17.093 19.7607 17.1195L18.1387 18.4212L19.572 17.5929C19.608 17.5721 19.6505 17.5656 19.691 17.5745C19.7316 17.5835 19.7674 17.6072 19.7913 17.6412C19.8153 17.6752 19.8258 17.7169 19.8206 17.7581C19.8154 17.7994 19.795 17.8372 19.7633 17.8642L18.9033 18.5959L19.57 18.2109C19.6058 18.1907 19.6479 18.1844 19.688 18.1934C19.7281 18.2023 19.7636 18.2257 19.7875 18.2592C19.8114 18.2926 19.8221 18.3337 19.8175 18.3746C19.8129 18.4155 19.7934 18.4532 19.7627 18.4805L19.5217 18.6902C19.5544 18.6862 19.5875 18.6918 19.6171 18.7063C19.6467 18.7208 19.6714 18.7436 19.6883 18.7719C19.7105 18.8101 19.7165 18.8556 19.7051 18.8982C19.6938 18.9409 19.6659 18.9774 19.6277 18.9995L18.2397 19.7995C18.2039 19.8197 18.1618 19.8259 18.1217 19.817C18.0816 19.8081 18.0461 19.7847 18.0222 19.7512C17.9983 19.7178 17.9876 19.6767 17.9922 19.6358C17.9968 19.5949 18.0163 19.5572 18.047 19.5299L18.24 19.3615L17.4847 19.7999C17.4487 19.8206 17.4063 19.8272 17.3657 19.8183C17.3251 19.8095 17.2894 19.7857 17.2653 19.7519C17.2414 19.7179 17.2309 19.6762 17.2361 19.6349C17.2413 19.5937 17.2617 19.5558 17.2933 19.5289L18.1537 18.7955L16.4157 19.7999C16.3794 19.8201 16.3368 19.826 16.2964 19.8164C16.256 19.8069 16.2205 19.7826 16.1971 19.7483C16.1736 19.714 16.1639 19.6721 16.1696 19.631C16.1754 19.5899 16.1964 19.5524 16.2283 19.5259L17.8503 18.2259L15.121 19.7999C15.0841 19.8207 15.0407 19.8267 14.9995 19.8166C14.9584 19.8066 14.9226 19.7812 14.8995 19.7457C14.8763 19.7102 14.8676 19.6673 14.875 19.6256C14.8824 19.5839 14.9054 19.5465 14.9393 19.5212L17.059 17.9719L13.8923 19.7999C13.8549 19.8212 13.8106 19.8271 13.7689 19.8165C13.7271 19.8059 13.6911 19.7795 13.6683 19.7429C13.6456 19.7063 13.6379 19.6623 13.647 19.6201C13.656 19.578 13.681 19.541 13.7167 19.5169L15.0133 18.6589L13.0367 19.7999C12.9992 19.82 12.9554 19.825 12.9144 19.8139C12.8733 19.8028 12.838 19.7764 12.8158 19.7402C12.7935 19.7039 12.786 19.6605 12.7947 19.6189C12.8034 19.5772 12.8278 19.5405 12.8627 19.5162L14.257 18.6102L12.1957 19.7999C12.1584 19.82 12.1148 19.8252 12.0737 19.8144C12.0327 19.8035 11.9974 19.7774 11.975 19.7414C11.9525 19.7054 11.9447 19.6622 11.953 19.6206C11.9613 19.579 11.9851 19.5421 12.0197 19.5175L15.4733 17.1999L10.9667 19.7999C10.9291 19.8197 10.8853 19.8245 10.8443 19.8131C10.8034 19.8018 10.7683 19.7752 10.7462 19.7388C10.7242 19.7024 10.7169 19.659 10.7259 19.6174C10.7348 19.5759 10.7593 19.5393 10.7943 19.5152L12.8633 18.2019L10.0953 19.7999C10.0576 19.8203 10.0135 19.8254 9.97209 19.8141C9.9307 19.8028 9.89527 19.776 9.87315 19.7392C9.85103 19.7025 9.84394 19.6586 9.85336 19.6167C9.86277 19.5749 9.88796 19.5383 9.92368 19.5145L11.4757 18.5449L9.30001 19.7999C9.26229 19.8203 9.21814 19.8254 9.17676 19.8141C9.13537 19.8028 9.09993 19.776 9.07782 19.7392C9.0557 19.7025 9.04861 19.6586 9.05802 19.6167C9.06743 19.5749 9.09262 19.5383 9.12835 19.5145L11.75 17.8719L8.41101 19.7999C8.37338 19.8203 8.32935 19.8254 8.28804 19.8142C8.24672 19.803 8.2113 19.7764 8.1891 19.7398C8.1669 19.7032 8.15964 19.6594 8.1688 19.6176C8.17797 19.5758 8.20287 19.5391 8.23835 19.5152L13.1557 16.3819L7.23335 19.7999C7.19569 19.82 7.15174 19.8249 7.11057 19.8136C7.06941 19.8022 7.03415 19.7755 7.01209 19.739C6.99003 19.7024 6.98284 19.6588 6.992 19.6171C7.00117 19.5754 7.02599 19.5388 7.06135 19.5149L12.3837 16.1575L6.07368 19.7999C6.04844 19.8148 6.01969 19.8229 5.99035 19.8232Z" fill="#3D93E8"/>
<path d="M4.05533 12.4904C4.02109 12.4904 3.98769 12.4798 3.95966 12.4601C3.93164 12.4405 3.91035 12.4126 3.89869 12.3804C3.88704 12.3482 3.88558 12.3132 3.89453 12.2802C3.90347 12.2471 3.92237 12.2176 3.94867 12.1957L5.04867 11.2754L3.113 12.3934C3.0759 12.4142 3.03224 12.4201 2.99096 12.4098C2.94967 12.3994 2.9139 12.3737 2.89097 12.3379C2.86804 12.302 2.85969 12.2588 2.86763 12.217C2.87557 12.1752 2.89919 12.138 2.93367 12.113L3.357 11.813L2.83333 12.1154C2.79724 12.1361 2.75471 12.1425 2.7141 12.1334C2.6735 12.1244 2.63776 12.1004 2.6139 12.0663C2.59005 12.0322 2.57981 11.9905 2.58519 11.9492C2.59058 11.908 2.6112 11.8702 2.643 11.8434L3.91967 10.7714L2.76 11.441C2.72535 11.4609 2.68474 11.4676 2.64556 11.46C2.60637 11.4524 2.57121 11.431 2.54647 11.3997C2.52173 11.3684 2.50905 11.3292 2.51074 11.2893C2.51243 11.2494 2.52837 11.2115 2.55567 11.1824L3.30233 10.3934L2.76 10.706C2.72693 10.7249 2.68842 10.7318 2.65085 10.7258C2.61328 10.7197 2.57893 10.7009 2.5535 10.6726C2.52806 10.6443 2.51309 10.6081 2.51106 10.5701C2.50903 10.5321 2.52006 10.4946 2.54233 10.4637L2.76233 10.1637C2.73494 10.1621 2.70838 10.1537 2.68509 10.1392C2.66179 10.1247 2.64251 10.1046 2.629 10.0807C2.60698 10.0425 2.601 9.99712 2.61237 9.95451C2.62374 9.9119 2.65154 9.87553 2.68967 9.85338L3.24067 9.53371C3.27373 9.51487 3.31225 9.50791 3.34982 9.51399C3.38739 9.52008 3.42174 9.53883 3.44717 9.56715C3.4726 9.59546 3.48758 9.63162 3.48961 9.66963C3.49164 9.70763 3.4806 9.74518 3.45833 9.77604L3.27833 10.022L4.126 9.53371C4.16065 9.51389 4.20126 9.50717 4.24044 9.51476C4.27963 9.52235 4.31479 9.54375 4.33953 9.57507C4.36427 9.60639 4.37695 9.64555 4.37526 9.68543C4.37357 9.72531 4.35763 9.76326 4.33033 9.79238L3.58367 10.5817L5.4 9.53371C5.43606 9.51311 5.47851 9.50671 5.51904 9.51576C5.55957 9.52482 5.59525 9.54868 5.61911 9.58267C5.64297 9.61666 5.65327 9.65834 5.64801 9.69953C5.64275 9.74073 5.6223 9.77847 5.59067 9.80538L4.31433 10.8774L6.35267 9.70071C6.38969 9.68052 6.43299 9.67512 6.47385 9.68559C6.5147 9.69607 6.55006 9.72164 6.5728 9.75715C6.59555 9.79266 6.60398 9.83547 6.59641 9.87696C6.58884 9.91845 6.56582 9.95552 6.532 9.98071L6.10833 10.2807L6.55067 10.0254C6.58681 10.0042 6.6296 9.99745 6.67051 10.0064C6.71142 10.0154 6.74746 10.0394 6.77145 10.0737C6.79545 10.1081 6.80563 10.1502 6.79999 10.1917C6.79435 10.2332 6.77329 10.271 6.741 10.2977L5.641 11.2184L6.57433 10.679C6.61002 10.6585 6.65205 10.6518 6.69233 10.6604C6.73262 10.669 6.76829 10.6922 6.79248 10.7256C6.81666 10.7589 6.82765 10.8 6.82331 10.841C6.81898 10.8819 6.79963 10.9198 6.769 10.9474L6.28333 11.3837L6.57433 11.217C6.60705 11.1981 6.64523 11.1909 6.6826 11.1965C6.71997 11.2022 6.75431 11.2203 6.78 11.248C6.80562 11.2758 6.82106 11.3114 6.82378 11.3491C6.82651 11.3868 6.81636 11.4242 6.795 11.4554L6.53667 11.827C6.57541 11.8192 6.61566 11.8255 6.65024 11.8446C6.68483 11.8637 6.71148 11.8945 6.72546 11.9315C6.73944 11.9685 6.73983 12.0092 6.72655 12.0464C6.71328 12.0836 6.68721 12.1149 6.653 12.1347L6.07633 12.468C6.04363 12.4868 6.00554 12.4939 5.96828 12.4882C5.93103 12.4825 5.8968 12.4643 5.8712 12.4367C5.84559 12.409 5.83011 12.3735 5.82729 12.3359C5.82447 12.2983 5.83447 12.2609 5.85567 12.2297L6.102 11.8717L5.06867 12.468C5.03322 12.4871 4.99209 12.4926 4.95286 12.4837C4.91364 12.4748 4.87897 12.4519 4.85525 12.4195C4.83153 12.387 4.82036 12.347 4.82381 12.3069C4.82725 12.2668 4.84508 12.2293 4.874 12.2014L5.36 11.7644L4.13867 12.467C4.11347 12.4821 4.0847 12.4902 4.05533 12.4904Z" fill="#F7C63B"/>
<path d="M19.9107 10.2001C19.9183 8.99147 20.258 7.10014 18.6307 6.85714C13.2943 -3.5242 14.9353 0.273801 4.93099 5.03747C3.57632 6.2278 0.0903241 6.6208 0.0889908 8.52547C0.0979908 11.7688 0.0656574 15.0125 0.0889908 18.2555C0.122324 20.2611 2.41999 19.7945 3.79499 19.8371H17.9693C21.3303 20.4261 19.457 12.4095 19.9107 10.2001ZM9.59566 2.7728C16.309 -1.41353 14.1043 0.895135 18.0623 6.8298C12.8107 6.8348 7.55866 6.82214 2.30666 6.8298L9.59566 2.7728ZM19.4227 18.2461C19.4167 18.8998 19.064 19.4665 18.356 19.4965C12.803 19.4631 7.24266 19.5518 1.69399 19.4965C-0.333343 19.1831 0.899991 15.4725 0.576991 13.9785C0.961991 12.3335 -0.478676 7.3148 1.73332 7.17047C22.6397 8.04747 19.2027 2.77047 19.4227 18.2461Z" fill="#262626"/>
<path d="M6.90798 11.437C7.14831 9.67869 6.51631 9.41802 4.89098 9.57402C4.82431 9.45969 4.59531 9.47836 4.48464 9.57402C3.74531 9.56036 2.43464 9.43036 2.42531 10.445C2.20698 12.2164 2.70998 12.6134 4.44231 12.428C4.50898 12.5427 4.73964 12.5234 4.84998 12.428C5.61831 12.4367 6.99764 12.567 6.90798 11.437ZM5.84131 9.76002C6.39931 9.79336 6.46598 10.39 6.42464 10.8327H4.91098V9.74502C5.22231 9.74169 5.53331 9.74269 5.84198 9.76002H5.84131ZM3.25498 12.179C2.67064 11.7477 2.86164 10.5124 3.03264 9.89536C3.38598 9.58836 3.97564 9.83802 4.42231 9.75202V12.2407C4.04998 12.211 3.60831 12.3284 3.25498 12.179ZM6.42164 11.7864C6.35498 12.538 5.42164 12.153 4.90964 12.2407V11.167H6.42398C6.42298 11.374 6.42964 11.5807 6.42298 11.7864H6.42164Z" fill="#262626"/>
<path d="M2.57798 14.8229C3.53832 14.7176 4.69298 15.0412 5.56132 14.6832C5.82365 14.3556 1.56665 14.3952 2.57798 14.8229Z" fill="#262626"/>
<path d="M6.48334 14.6668C7.09134 14.8815 8.655 14.8001 9.51667 14.6691C8.90867 14.4531 7.345 14.5358 6.48334 14.6668Z" fill="#262626"/>
<path d="M10.572 14.7999C11.5387 14.7023 12.669 15.0029 13.5577 14.6696C13.7417 14.3999 9.66934 14.4333 10.572 14.7999Z" fill="#262626"/>
<path d="M3.43334 16.553C3.15 16.6037 2.516 16.4063 2.44034 16.753C2.60467 16.8457 3.948 16.777 3.43334 16.553Z" fill="#262626"/>
<path d="M5.35399 16.4871C5.06165 16.5377 4.55799 16.3374 4.42065 16.6844C4.45432 17.0954 6.20232 16.7597 5.35399 16.4871Z" fill="#262626"/>
<path d="M7.42298 16.514C7.14765 16.5687 6.41998 16.3437 6.44365 16.766C6.61432 16.9154 8.02065 16.827 7.42298 16.514Z" fill="#262626"/>
<path d="M9.42499 16.5207C9.14933 16.575 8.43533 16.354 8.44299 16.7637C8.61166 16.9027 10.01 16.8183 9.42499 16.5207Z" fill="#262626"/>
<path d="M11.4333 16.548C11.152 16.6 10.5033 16.3977 10.4423 16.756C10.605 16.8553 11.9593 16.7843 11.4333 16.548Z" fill="#262626"/>
<path d="M13.4213 16.508C13.1457 16.5626 12.405 16.3356 12.444 16.7683C12.618 16.9273 14.0303 16.8336 13.4213 16.508Z" fill="#262626"/>
<path d="M14.5783 14.824C15.5383 14.7183 16.6943 15.0437 17.5613 14.684C17.8277 14.3523 13.5623 14.3927 14.5783 14.824Z" fill="#262626"/>
<path d="M15.4227 16.5121C15.1473 16.5668 14.416 16.3411 14.4437 16.7661C14.6153 16.9181 16.0233 16.8288 15.4227 16.5121Z" fill="#262626"/>
<path d="M17.4357 16.5609C17.1483 16.6099 16.5383 16.4215 16.4397 16.7512C16.5837 16.8385 17.9667 16.7479 17.4357 16.5609Z" fill="#262626"/>
</g>
<defs>
<clipPath id="clip0_184_261">
<rect width="20" height="20" fill="white"/>
</clipPath>
</defs>
</svg>
