<svg width="40" height="40" viewBox="0 0 40 40" fill="none" xmlns="http://www.w3.org/2000/svg">
<path d="M23.7062 23.0876L22.0812 23.8501C22.0248 23.8778 21.9628 23.8921 21.9 23.8921C21.8372 23.8921 21.7752 23.8778 21.7187 23.8501L18.4687 22.2251L18.35 22.1814V20.4626C18.35 20.2969 18.2841 20.1379 18.1669 20.0207C18.0497 19.9035 17.8908 19.8376 17.725 19.8376C17.5592 19.8376 17.4003 19.9035 17.2831 20.0207C17.1658 20.1379 17.1 20.2969 17.1 20.4626V22.1814L16.975 22.2251L13.75 23.8501C13.6925 23.8778 13.6295 23.8922 13.5656 23.8922C13.5018 23.8922 13.4388 23.8778 13.3812 23.8501L11.7562 23.0876C11.6068 23.0208 11.437 23.0153 11.2835 23.0724C11.1301 23.1294 11.0051 23.2444 10.9355 23.3926C10.8659 23.5408 10.8572 23.7104 10.9114 23.8649C10.9655 24.0194 11.0781 24.1465 11.225 24.2189L12.8312 25.0001C12.8634 25.0155 12.8969 25.028 12.9312 25.0376V26.6876H12.5C12.3342 26.6876 12.1753 26.7535 12.0581 26.8707C11.9408 26.9879 11.875 27.1469 11.875 27.3126C11.875 27.4784 11.9408 27.6374 12.0581 27.7546C12.1753 27.8718 12.3342 27.9376 12.5 27.9376H14.5875C14.7533 27.9376 14.9122 27.8718 15.0294 27.7546C15.1466 27.6374 15.2125 27.4784 15.2125 27.3126C15.2125 27.1469 15.1466 26.9879 15.0294 26.8707C14.9122 26.7535 14.7533 26.6876 14.5875 26.6876H14.1687V25.0001L14.275 24.9564L17.0875 23.5564V30.2564H15.9C15.7342 30.2564 15.5753 30.3222 15.4581 30.4395C15.3408 30.5567 15.275 30.7156 15.275 30.8814C15.275 31.0472 15.3408 31.2061 15.4581 31.3233C15.5753 31.4405 15.7342 31.5064 15.9 31.5064H19.5437C19.7095 31.5064 19.8685 31.4405 19.9857 31.3233C20.1029 31.2061 20.1687 31.0472 20.1687 30.8814C20.1687 30.7156 20.1029 30.5567 19.9857 30.4395C19.8685 30.3222 19.7095 30.2564 19.5437 30.2564H18.35V23.5626L21.1562 24.9626L21.25 25.0001V26.6876H20.8375C20.6717 26.6876 20.5128 26.7535 20.3956 26.8707C20.2783 26.9879 20.2125 27.1469 20.2125 27.3126C20.2125 27.4784 20.2783 27.6374 20.3956 27.7546C20.5128 27.8718 20.6717 27.9376 20.8375 27.9376H22.9187C23.0845 27.9376 23.2435 27.8718 23.3607 27.7546C23.4779 27.6374 23.5437 27.4784 23.5437 27.3126C23.5437 27.1469 23.4779 26.9879 23.3607 26.8707C23.2435 26.7535 23.0845 26.6876 22.9187 26.6876H22.5V25.0001C22.5375 25.0001 22.5687 25.0001 22.6 24.9626L24.225 24.2001C24.3427 24.115 24.4271 23.9915 24.4636 23.8509C24.5001 23.7103 24.4865 23.5613 24.4251 23.4297C24.3637 23.298 24.2583 23.1918 24.1272 23.1294C23.996 23.067 23.8471 23.0522 23.7062 23.0876Z" fill="white"/>
<path d="M34.4625 9.3751H33.125V5.3501C33.125 4.68706 32.8616 4.05117 32.3928 3.58233C31.9239 3.11349 31.288 2.8501 30.625 2.8501H16.875C16.212 2.8501 15.5761 3.11349 15.1072 3.58233C14.6384 4.05117 14.375 4.68706 14.375 5.3501V6.3876H12.2312C11.5682 6.3876 10.9323 6.65099 10.4635 7.11983C9.99464 7.58867 9.73125 8.22456 9.73125 8.8876V10.5626H5.5375C4.73241 10.5642 3.96077 10.8848 3.39149 11.4541C2.8222 12.0234 2.50165 12.795 2.5 13.6001V34.1126C2.50166 34.9171 2.82241 35.6881 3.39187 36.2564C3.96133 36.8247 4.73299 37.1438 5.5375 37.1438H34.4625C35.2665 37.1422 36.0372 36.8225 36.6063 36.2546C37.1754 35.6866 37.4967 34.9166 37.5 34.1126V12.4188C37.5 11.6127 37.1802 10.8394 36.6107 10.2688C36.0413 9.69816 35.2687 9.37675 34.4625 9.3751ZM15.625 5.3501C15.625 5.01858 15.7567 4.70063 15.9911 4.46621C16.2255 4.23179 16.5435 4.1001 16.875 4.1001H30.625C30.9565 4.1001 31.2745 4.23179 31.5089 4.46621C31.7433 4.70063 31.875 5.01858 31.875 5.3501V9.3751H28.2312C27.8328 9.37259 27.4379 9.44982 27.0697 9.60223C26.7015 9.75465 26.3676 9.97918 26.0875 10.2626L22.675 13.6751C22.3417 14.004 21.8933 14.1901 21.425 14.1938H15.625V5.3501ZM12.2312 7.6376H14.375V14.2001H10.9812V8.8876C10.9812 8.55608 11.1129 8.23813 11.3474 8.00371C11.5818 7.76929 11.8997 7.6376 12.2312 7.6376ZM3.75 34.1126V13.6001C3.75165 13.1265 3.9405 12.6728 4.27537 12.338C4.61023 12.0031 5.06393 11.8142 5.5375 11.8126H9.73125V14.2688C9.04973 14.4121 8.43815 14.7853 7.99895 15.3257C7.55975 15.8662 7.31961 16.5412 7.31875 17.2376V34.1126C7.32009 34.7547 7.5283 35.3793 7.9125 35.8938H5.5375C5.06451 35.8938 4.61079 35.7064 4.27575 35.3725C3.94071 35.0386 3.75165 34.5856 3.75 34.1126ZM36.25 34.1126C36.25 34.5867 36.0617 35.0413 35.7265 35.3765C35.3912 35.7118 34.9366 35.9001 34.4625 35.9001H10.3688C9.89352 35.9001 9.43757 35.7122 9.10036 35.3773C8.76315 35.0424 8.57205 34.5878 8.56875 34.1126V17.2376C8.5704 16.764 8.75925 16.3103 9.09412 15.9755C9.42898 15.6406 9.88268 15.4517 10.3562 15.4501H21.4125C21.811 15.4526 22.2059 15.3754 22.5741 15.223C22.9422 15.0705 23.2762 14.846 23.5562 14.5626L26.9688 11.1563C27.2999 10.8234 27.7492 10.6347 28.2188 10.6313H34.4688C34.9417 10.633 35.3948 10.8221 35.7287 11.1571C36.0625 11.4921 36.25 11.9459 36.25 12.4188V34.1126Z" fill="white"/>
<path d="M31.25 16.3877H28.75C28.2527 16.3877 27.7758 16.5852 27.4242 16.9369C27.0725 17.2885 26.875 17.7654 26.875 18.2627V25.7627C26.875 26.26 27.0725 26.7369 27.4242 27.0885C27.7758 27.4402 28.2527 27.6377 28.75 27.6377H31.25C31.7473 27.6377 32.2242 27.4402 32.5758 27.0885C32.9275 26.7369 33.125 26.26 33.125 25.7627V18.2627C33.125 17.7654 32.9275 17.2885 32.5758 16.9369C32.2242 16.5852 31.7473 16.3877 31.25 16.3877ZM31.875 25.7627C31.875 25.9285 31.8092 26.0874 31.6919 26.2046C31.5747 26.3218 31.4158 26.3877 31.25 26.3877H28.75C28.5842 26.3877 28.4253 26.3218 28.3081 26.2046C28.1908 26.0874 28.125 25.9285 28.125 25.7627V18.2627C28.125 18.0969 28.1908 17.938 28.3081 17.8208C28.4253 17.7035 28.5842 17.6377 28.75 17.6377H31.25C31.4158 17.6377 31.5747 17.7035 31.6919 17.8208C31.8092 17.938 31.875 18.0969 31.875 18.2627V25.7627Z" fill="white"/>
<path d="M32.5 29.3H27.5C27.3342 29.3 27.1753 29.3659 27.0581 29.4831C26.9408 29.6003 26.875 29.7593 26.875 29.925C26.875 30.0908 26.9408 30.2498 27.0581 30.367C27.1753 30.4842 27.3342 30.55 27.5 30.55H32.5C32.6658 30.55 32.8247 30.4842 32.9419 30.367C33.0592 30.2498 33.125 30.0908 33.125 29.925C33.125 29.7593 33.0592 29.6003 32.9419 29.4831C32.8247 29.3659 32.6658 29.3 32.5 29.3Z" fill="white"/>
<path d="M32.5 32.2126H27.5C27.3342 32.2126 27.1753 32.2785 27.0581 32.3957C26.9408 32.5129 26.875 32.6719 26.875 32.8376C26.875 33.0034 26.9408 33.1624 27.0581 33.2796C27.1753 33.3968 27.3342 33.4626 27.5 33.4626H32.5C32.6658 33.4626 32.8247 33.3968 32.9419 33.2796C33.0592 33.1624 33.125 33.0034 33.125 32.8376C33.125 32.6719 33.0592 32.5129 32.9419 32.3957C32.8247 32.2785 32.6658 32.2126 32.5 32.2126Z" fill="white"/>
</svg>
