<svg width="40" height="40" viewBox="0 0 40 40" fill="none" xmlns="http://www.w3.org/2000/svg">
<path d="M37.582 28.3016C37.2584 28.3016 36.9961 28.5639 36.9961 28.8875V31.3219C36.9961 32.211 36.2727 32.9344 35.3836 32.9344H14.5572C14.0683 32.1134 13.3866 31.4111 12.5617 30.8988C14.2372 29.859 15.3223 28.0358 15.3988 26.0239C16.3045 25.7696 16.9705 24.937 16.9705 23.9512C16.9705 22.7641 16.0048 21.7983 14.8176 21.7983H10.6391V2.78437C10.6391 1.89523 11.3625 1.17188 12.2516 1.17188H14.8173C15.1409 1.17188 15.4032 0.909531 15.4032 0.585938C15.4032 0.262344 15.1409 0 14.8173 0H12.2516C10.7163 0 9.46719 1.24906 9.46719 2.78437V3.10547H9.14617C7.61086 3.10547 6.36172 4.35453 6.36172 5.88984V21.7984H3.98508C2.79789 21.7984 1.83203 22.7641 1.83203 23.9513C1.83203 24.937 2.49813 25.7695 3.40359 26.0239C3.48008 28.0358 4.56523 29.859 6.24062 30.8988C4.56562 31.9391 3.48039 33.7622 3.40367 35.7734C3.05133 35.8717 2.72812 36.0589 2.46219 36.3248C2.05586 36.7312 1.83203 37.2717 1.83203 37.8469C1.83203 39.0341 2.79789 40 3.98516 40H4.41648C4.74016 40 5.00242 39.7377 5.00242 39.4141C5.00242 39.0905 4.74016 38.8281 4.41648 38.8281H3.98516C3.44406 38.8281 3.00391 38.388 3.00391 37.8469C3.00391 37.5848 3.10586 37.3384 3.29094 37.1534C3.47648 36.9678 3.72297 36.8656 3.98516 36.8656H14.818C15.3586 36.8656 15.7984 37.3058 15.7984 37.8469C15.7984 38.1091 15.6965 38.3553 15.5114 38.5404C15.3259 38.7259 15.0796 38.8281 14.818 38.8281H7.15078C6.82711 38.8281 6.56484 39.0905 6.56484 39.4141C6.56484 39.7377 6.82711 40 7.15078 40H14.818C15.3926 40 15.9331 39.7759 16.34 39.3691C16.7464 38.9627 16.9702 38.4221 16.9702 37.8469C16.9702 37.6259 16.9366 37.4126 16.8745 37.2117H32.2781C33.8134 37.2117 35.0625 35.963 35.0625 34.4281V34.1063H35.3836C36.9188 34.1063 38.168 32.8572 38.168 31.3219V28.8875C38.168 28.5639 37.9056 28.3016 37.582 28.3016ZM7.53359 5.88984C7.53359 5.0007 8.25703 4.27734 9.14617 4.27734H9.46719V21.7984H7.53359V5.88984ZM3.00391 23.9513C3.00391 23.4103 3.44406 22.9702 3.98508 22.9702H14.8177C15.3586 22.9702 15.7987 23.4103 15.7987 23.9513C15.7987 24.4923 15.3586 24.9324 14.8177 24.9324H3.98508C3.44406 24.9324 3.00391 24.4923 3.00391 23.9513ZM4.58148 26.1043H14.221C14.1005 27.9848 12.8855 29.641 11.1123 30.3127H7.69016C5.91687 29.641 4.70195 27.9849 4.58148 26.1043ZM7.69023 31.4846H11.1123C12.8855 32.157 14.1005 33.8134 14.221 35.6937H4.58148C4.70203 33.8134 5.91687 32.157 7.69023 31.4846ZM33.8906 34.4281C33.8906 35.3168 33.1673 36.0398 32.2781 36.0398H15.9861C15.8069 35.9235 15.6094 35.8332 15.3988 35.7741C15.377 35.198 15.2727 34.6374 15.0951 34.1063H33.8906V34.4281Z" fill="white"/>
<path d="M35.8815 7.15109L31.0165 2.28602C29.5435 0.813047 27.5855 0.00140625 25.5025 0.0003125C25.5006 0.0003125 25.4988 0 25.4969 0H17.5516C17.2279 0 16.9656 0.262344 16.9656 0.585938C16.9656 0.909531 17.2279 1.17188 17.5516 1.17188L23.0521 1.17211C24.3473 1.17219 25.5649 1.67656 26.4808 2.59234C27.397 3.50852 27.9015 4.72672 27.9015 6.02258V8.11797C27.9015 9.30281 28.8654 10.2667 30.0502 10.2667H32.1456C33.4414 10.2667 34.6597 10.7712 35.5758 11.6874C36.4919 12.6036 36.9963 13.8216 36.9961 15.1173V26.1531C36.9961 26.4767 37.2584 26.7391 37.582 26.7391C37.9057 26.7391 38.168 26.4767 38.168 26.1531V12.6711C38.168 10.5859 37.3559 8.62547 35.8815 7.15109ZM36.4045 10.8588C35.267 9.72125 33.7545 9.09484 32.1456 9.09484H30.0502C29.5116 9.09484 29.0734 8.65664 29.0734 8.11797V6.02258C29.0734 4.41367 28.4469 2.90117 27.3095 1.76367C27.1424 1.59664 26.9674 1.4407 26.785 1.29602C28.0661 1.54656 29.2442 2.17086 30.1878 3.11453L35.0529 7.97961C35.9967 8.92352 36.6212 10.1016 36.8719 11.3829C36.7273 11.2007 36.5714 11.0257 36.4045 10.8588Z" fill="white"/>
<path d="M29.8616 13.1248C30.1853 13.1248 30.4476 12.8624 30.4476 12.5388C30.4476 12.2152 30.1853 11.9529 29.8616 11.9529H17.7734C17.4498 11.9529 17.1875 12.2152 17.1875 12.5388C17.1875 12.8624 17.4498 13.1248 17.7734 13.1248H29.8616Z" fill="white"/>
<path d="M13.8532 15.7405C13.8532 16.0641 14.1155 16.3264 14.4391 16.3264H33.1959C33.5195 16.3264 33.7818 16.0641 33.7818 15.7405C33.7818 15.4169 33.5195 15.1545 33.1959 15.1545H14.4391C14.1156 15.1545 13.8532 15.4168 13.8532 15.7405Z" fill="white"/>
<path d="M33.1959 17.668H14.4391C14.1155 17.668 13.8532 17.9303 13.8532 18.2539C13.8532 18.5775 14.1155 18.8398 14.4391 18.8398H33.1959C33.5195 18.8398 33.7818 18.5775 33.7818 18.2539C33.7818 17.9303 33.5195 17.668 33.1959 17.668Z" fill="white"/>
<path d="M33.1959 20.1814H14.4391C14.1155 20.1814 13.8532 20.4437 13.8532 20.7673C13.8532 21.0909 14.1155 21.3533 14.4391 21.3533H33.1959C33.5195 21.3533 33.7818 21.0909 33.7818 20.7673C33.7818 20.4437 33.5195 20.1814 33.1959 20.1814Z" fill="white"/>
<path d="M33.1959 22.6948H28.5108C28.1871 22.6948 27.9249 22.9572 27.9249 23.2808C27.9249 23.6044 28.1871 23.8667 28.5108 23.8667H33.1959C33.5196 23.8667 33.7818 23.6044 33.7818 23.2808C33.7818 22.9572 33.5196 22.6948 33.1959 22.6948Z" fill="white"/>
</svg>
