<svg width="35" height="39" viewBox="0 0 35 39" fill="none" xmlns="http://www.w3.org/2000/svg">
<path d="M32.3463 17.1428L34.5541 18.4676C34.9888 18.7286 35.1299 19.2926 34.8691 19.7275C34.7914 19.8568 34.6832 19.965 34.5541 20.0425L17.5 30.2748L0.445995 20.0425C0.0110957 19.7815 -0.12994 19.2175 0.13101 18.7826C0.208553 18.6533 0.316732 18.5451 0.445995 18.4676L2.65381 17.1428L17.5 26.0505L32.3463 17.1428ZM32.3463 25.775L34.5541 27.0998C34.9888 27.3608 35.1299 27.9248 34.8691 28.3597C34.7914 28.489 34.6832 28.5972 34.5541 28.6747L18.4449 38.3401C17.8632 38.6892 17.1367 38.6892 16.555 38.3401L0.445995 28.6747C0.0110957 28.4137 -0.12994 27.8497 0.13101 27.4148C0.208553 27.2855 0.316732 27.1773 0.445995 27.0998L2.65381 25.775L17.5 34.6827L32.3463 25.775ZM18.4449 0.261722L34.5541 9.92717C34.9888 10.1881 35.1299 10.7522 34.8691 11.1871C34.7914 11.3164 34.6832 11.4245 34.5541 11.5021L17.5 21.7344L0.445995 11.5021C0.0110957 11.2411 -0.12994 10.6771 0.13101 10.2422C0.208553 10.1129 0.316732 10.0047 0.445995 9.92717L16.555 0.261722C17.1367 -0.0872406 17.8632 -0.0872406 18.4449 0.261722Z" fill="#FD5812"/>
</svg>
