<svg width="40" height="40" viewBox="0 0 40 40" fill="none" xmlns="http://www.w3.org/2000/svg">
<path d="M3.75093 8.12476C2.19982 8.12476 1.39282 8.94702 1.00579 9.72109C0.61875 10.4952 0.62285 11.2482 0.62285 11.2482V34.9994C0.62285 34.9994 0.618749 35.7571 1.00579 36.5312C1.39282 37.3053 2.18556 38.1229 3.75093 38.1229H36.2497C37.8047 38.1229 38.6078 37.3053 38.9948 36.5312C39.3819 35.7571 39.3732 34.9994 39.3732 34.9994V17.4998C39.3732 17.4998 39.3819 16.7467 38.9948 15.9726C38.6078 15.1986 37.8032 14.3763 36.2497 14.3763H21.509L15.442 8.3093C15.3248 8.19131 15.1654 8.1249 14.9991 8.12476H3.75093ZM3.75093 9.37506H14.7407L20.8077 15.4421C20.9249 15.56 21.0843 15.6265 21.2506 15.6266H36.2497C37.2085 15.6266 37.6404 16.055 37.8783 16.5309C38.1163 17.0068 38.1228 17.4998 38.1228 17.4998V34.9994C38.1228 34.9994 38.1162 35.4924 37.8783 35.9683C37.6404 36.4442 37.2035 36.8772 36.2497 36.8772H3.75093C2.80593 36.8772 2.36026 36.4442 2.1223 35.9683C1.88433 35.4924 1.87316 34.9994 1.87316 34.9994V11.2482C1.87316 11.2482 1.88433 10.7553 2.1223 10.2793C2.36026 9.80342 2.79903 9.37506 3.75093 9.37506Z" fill="white"/>
<path d="M10.6417 1.87549C8.86811 1.87549 7.80898 2.85711 7.34309 3.7889C6.8772 4.72068 6.8846 5.63262 6.8846 5.63262V8.76621H8.1378V5.63262C8.1378 5.63262 8.14399 4.98203 8.46057 4.34886C8.77716 3.71569 9.28543 3.12868 10.6417 3.12868H31.8812C31.6154 3.40705 31.3846 3.75383 31.21 4.10311C30.6658 5.19139 30.6745 6.26105 30.6745 6.26105V15.0224H31.9264V9.38974H38.811C39.155 9.38856 39.4333 9.11023 39.4346 8.76621V6.26105C39.4346 6.26105 39.4431 5.19139 38.8991 4.10311C38.3549 3.01483 37.2285 1.87549 35.0539 1.87549H10.6417ZM35.0539 3.12868C36.6298 3.12868 37.3855 3.8734 37.7804 4.66307C38.1752 5.45274 38.1826 6.26105 38.1826 6.26105V8.13778H31.9264V6.26105C31.9264 6.26105 31.9337 5.45274 32.3287 4.66307C32.7235 3.8734 33.4849 3.12868 35.0539 3.12868Z" fill="white"/>
<path d="M17.4997 30.6255C17.4997 30.6255 17.057 30.6163 16.5954 30.847C16.1338 31.0778 15.6265 31.5628 15.6265 32.4987V34.3765C15.6278 34.7199 15.9059 34.9981 16.2494 34.9993H26.2518C26.5953 34.9981 26.8735 34.7199 26.8747 34.3765V32.4987C26.8747 31.5824 26.3674 31.0778 25.9058 30.847C25.4443 30.6162 25.0015 30.6255 25.0015 30.6255H17.4997ZM17.4997 31.8758H25.0015C25.0015 31.8758 25.1841 31.8818 25.3476 31.9635C25.511 32.0452 25.6244 32.1856 25.6244 32.4987V33.749H16.8768V32.4987C16.8768 32.1748 16.9902 32.0452 17.1537 31.9635C17.3171 31.8818 17.4997 31.8758 17.4997 31.8758Z" fill="white"/>
<path d="M22.7362 22.5608C22.6371 22.5657 22.5407 22.5942 22.4548 22.6438L17.0429 25.7719C16.7435 25.9438 16.6402 26.326 16.8123 26.6254L17.7534 28.2494C18.1701 28.9711 18.9039 29.2262 19.419 29.1952C19.9341 29.1643 20.314 28.9323 20.314 28.9323L23.5621 27.0591C23.5621 27.0591 23.9467 26.8438 24.2311 26.4132C24.5154 25.9825 24.6616 25.2202 24.245 24.4985L23.3083 22.8745C23.1917 22.6708 22.9707 22.5496 22.7362 22.5608ZM22.5378 24.0418L23.1653 25.1214C23.3736 25.4822 23.289 25.5733 23.1884 25.7258C23.0877 25.8782 22.9346 25.9749 22.9346 25.9749L19.6866 27.8527C19.6866 27.8527 19.5276 27.934 19.3452 27.9449C19.1628 27.9558 19.0414 27.9828 18.8331 27.622L18.2102 26.5378L22.5378 24.0418Z" fill="white"/>
<path d="M18.8284 17.0567C18.3133 17.0876 17.9334 17.315 17.9334 17.315L14.6854 19.1928C14.6854 19.1928 14.3007 19.4035 14.0164 19.8341C13.732 20.2648 13.5859 21.0317 14.0025 21.7534L14.9391 23.3774C15.1126 23.6752 15.4945 23.7763 15.7926 23.6035L21.2045 20.48C21.5039 20.3081 21.6072 19.9259 21.4352 19.6265L20.4986 18.0025C20.0819 17.2808 19.3436 17.0258 18.8284 17.0567ZM18.9023 18.3024C19.0847 18.2914 19.206 18.2645 19.4144 18.6253L20.0372 19.7095L15.7096 22.2102L15.0821 21.1259C14.8738 20.7651 14.9584 20.6786 15.0591 20.5262C15.1597 20.3737 15.3128 20.2724 15.3128 20.2724L18.5608 18.3993C18.5608 18.3993 18.7199 18.3133 18.9023 18.3024Z" fill="white"/>
<path d="M20.351 20.2495L19.2667 20.877L21.1445 24.125L22.2241 23.4975L20.351 20.2495Z" fill="white"/>
<path d="M17.1029 22.1272L16.0233 22.75L17.8965 25.9981L18.9807 25.3752L17.1029 22.1272Z" fill="white"/>
<path d="M17.186 23.5205L11.2343 26.9577C10.5113 27.3729 11.1341 28.4571 11.8572 28.0419L17.8134 24.6047L17.186 23.5205Z" fill="white"/>
</svg>
