<svg width="20" height="20" viewBox="0 0 20 20" fill="none" xmlns="http://www.w3.org/2000/svg">
<g clip-path="url(#clip0_184_308)">
<path d="M10.0485 19.8382C9.97512 19.8384 9.91014 19.7904 9.88853 19.7204C9.86691 19.6502 9.89343 19.574 9.95413 19.5326L10.227 19.3458L9.41307 19.8145C9.33552 19.8568 9.23865 19.8318 9.19144 19.7572C9.14408 19.6827 9.16293 19.5843 9.2342 19.5323L9.68789 19.2189L8.6556 19.8145C8.5785 19.8588 8.48026 19.835 8.43182 19.7604C8.38339 19.6857 8.40193 19.5863 8.47382 19.534L9.5265 18.7716L7.71849 19.8145C7.64109 19.8565 7.54453 19.8313 7.49732 19.7572C7.45027 19.6828 7.46851 19.5849 7.53932 19.5326L8.10459 19.1405L6.99382 19.7811C6.91749 19.8243 6.82078 19.8011 6.77219 19.7282C6.72345 19.6552 6.73939 19.557 6.80867 19.5032L8.17387 18.4622L6.52741 19.4127C6.45139 19.456 6.35483 19.4333 6.30593 19.3606C6.25704 19.2881 6.27237 19.19 6.34103 19.1358L7.33439 18.3627L6.45721 18.8689C6.38165 18.9114 6.28647 18.8892 6.23727 18.818C6.18822 18.7468 6.20155 18.6498 6.26792 18.5944L6.74705 18.2043L6.45721 18.3717C6.38809 18.4113 6.30072 18.3969 6.24815 18.3371C6.19558 18.2773 6.19236 18.1887 6.24049 18.1253L6.66107 17.5738L6.45721 17.6913C6.39744 17.7258 6.32279 17.7202 6.26899 17.6771C6.2152 17.634 6.19328 17.5623 6.21382 17.4965L6.28969 17.2534C6.2644 17.2387 6.24324 17.2176 6.22884 17.1921C6.1827 17.1123 6.20998 17.0102 6.28969 16.9638L6.45721 16.867C6.51684 16.8324 6.59179 16.8379 6.64574 16.8811C6.69969 16.9242 6.72161 16.9959 6.70092 17.0619L6.66168 17.1868L7.21683 16.8664C7.2858 16.827 7.37286 16.8416 7.42544 16.9012C7.47785 16.9608 7.48123 17.049 7.43356 17.1124L7.01298 17.6642L8.39688 16.8654C8.47229 16.8223 8.56824 16.8441 8.61759 16.9156C8.6671 16.9872 8.65346 17.0847 8.58632 17.1399L8.10627 17.5307L9.25965 16.8647C9.33582 16.8206 9.43315 16.843 9.48235 16.9159C9.53155 16.9889 9.51592 17.0874 9.44649 17.1416L8.45282 17.9157L10.2755 16.8637C10.3519 16.8214 10.4478 16.8447 10.4963 16.9173C10.5445 16.99 10.5289 17.0876 10.4604 17.1416L9.09488 18.1823L11.3811 16.8626C11.4586 16.8194 11.5566 16.8441 11.6041 16.9192C11.6518 16.9941 11.6325 17.0933 11.5603 17.1449L10.9955 17.5378L12.1674 16.8614C12.2445 16.8171 12.3427 16.8408 12.3912 16.9155C12.4396 16.9901 12.421 17.0896 12.3492 17.1419L11.2962 17.9059L13.1042 16.8626C13.1819 16.8188 13.2803 16.8436 13.328 16.919C13.3756 16.9943 13.3559 17.0939 13.2831 17.1452L12.83 17.4581L13.8626 16.862C13.9407 16.8143 14.0427 16.8382 14.0914 16.9156C14.1403 16.993 14.1178 17.0954 14.041 17.1452L13.7685 17.3315L14.5828 16.8626C14.6594 16.8177 14.7578 16.8405 14.807 16.9146C14.8561 16.9886 14.8388 17.0881 14.7677 17.1412L13.4012 18.1732L15.6717 16.8586C15.7478 16.816 15.8439 16.839 15.8925 16.9115C15.9411 16.984 15.9259 17.0816 15.8574 17.1359L14.3722 18.285L16.8445 16.8577C16.9222 16.8131 17.0212 16.8375 17.0692 16.913C17.1172 16.9886 17.0972 17.0885 17.024 17.1399L16.4184 17.5621L17.6398 16.8569C17.7157 16.8137 17.812 16.8361 17.8612 16.9081C17.9102 16.9803 17.8956 17.0781 17.8276 17.1328L16.2305 18.4053L17.6532 17.5839C17.7269 17.5433 17.8192 17.5638 17.869 17.6317C17.9186 17.6995 17.9104 17.7937 17.8493 17.8518L16.867 18.7468L17.6542 18.2923C17.7258 18.2508 17.817 18.2678 17.8688 18.3323C17.9206 18.3969 17.9176 18.4896 17.8615 18.5506L17.4657 18.9828L17.6509 18.876C17.7027 18.843 17.7686 18.8412 17.8222 18.8711C17.8759 18.9011 17.9088 18.958 17.9081 19.0196C17.9073 19.0811 17.8728 19.1372 17.8182 19.1657L16.6929 19.8145C16.6213 19.8562 16.5303 19.8392 16.4783 19.7748C16.4265 19.7104 16.4294 19.6177 16.4852 19.5567L16.8814 19.1244L15.6854 19.8145C15.6117 19.8551 15.5193 19.8347 15.4696 19.7668C15.42 19.6989 15.4283 19.6046 15.4891 19.5467L16.4719 18.6533L14.4585 19.8145C14.3828 19.8575 14.2868 19.8353 14.2376 19.7633C14.1886 19.6914 14.2028 19.5939 14.2704 19.5389L15.8678 18.2666L13.1856 19.8145C13.1082 19.8574 13.0107 19.8326 12.9632 19.7579C12.9157 19.6833 12.9345 19.5846 13.0061 19.5326L13.6111 19.1106L12.3904 19.8145C12.3141 19.858 12.2173 19.8353 12.1683 19.7625C12.1194 19.6896 12.135 19.5913 12.2042 19.5374L13.6901 18.3884L11.2205 19.8145C11.1438 19.8595 11.0454 19.8367 10.9962 19.7627C10.9472 19.6886 10.9643 19.5892 11.0356 19.536L12.4017 18.5043L10.1322 19.8145C10.1069 19.8296 10.0781 19.8379 10.0485 19.8382Z" fill="#457393"/>
<path d="M7.15199 17.1675C7.07719 17.1675 7.01144 17.1179 6.99105 17.046C6.97052 16.9741 7.00025 16.8973 7.06386 16.8579L8.96367 15.6766L6.45721 17.1234C6.37858 17.166 6.28064 17.1393 6.23419 17.063C6.18791 16.9867 6.20967 16.8873 6.2837 16.8374L11.2948 13.6395L6.45721 16.433C6.37827 16.4779 6.27788 16.452 6.23098 16.3743C6.18392 16.2968 6.20722 16.1958 6.2837 16.1467L11.3061 12.9407L6.45721 15.7395C6.37873 15.781 6.28171 15.754 6.23573 15.6782C6.18975 15.6023 6.21105 15.5039 6.28401 15.4536L10.8575 12.5526L6.45721 15.0936C6.37827 15.1379 6.27864 15.1114 6.2319 15.034C6.1853 14.9566 6.20844 14.8562 6.28431 14.807L10.4921 12.1504L6.45721 14.4793C6.37827 14.5254 6.27696 14.5 6.22944 14.4218C6.18193 14.3438 6.20584 14.2422 6.28309 14.1933L11.7207 10.6997L6.45721 13.7382C6.37827 13.7811 6.27956 13.754 6.23358 13.6769C6.1876 13.5998 6.21059 13.5002 6.28569 13.451L7.90762 12.4498L6.45721 13.287C6.37812 13.3291 6.28002 13.3017 6.23435 13.2247C6.18852 13.1478 6.21151 13.0485 6.28646 12.9993L6.4451 12.9022C6.36463 12.9407 6.26822 12.9093 6.22561 12.831C6.18315 12.7525 6.20952 12.6546 6.28569 12.6083L7.64645 11.7711L6.45721 12.4576C6.37858 12.5014 6.27926 12.4754 6.23235 12.3983C6.18561 12.3213 6.20814 12.2211 6.28339 12.1716L11.4124 8.89233L6.45675 11.753C6.37796 11.7945 6.28048 11.7671 6.23496 11.6906C6.18929 11.6141 6.21166 11.5153 6.28569 11.4658L7.21928 10.8922L6.45721 11.3312C6.37873 11.3726 6.28171 11.3458 6.23573 11.2699C6.18975 11.194 6.21105 11.0955 6.28401 11.0452L10.9254 8.09869L6.45721 10.6769C6.37873 10.7201 6.28018 10.6939 6.23358 10.6174C6.18699 10.5409 6.20875 10.4413 6.28309 10.3913L11.7281 6.89305L6.45721 9.93734C6.37842 9.98057 6.27972 9.95405 6.23327 9.87726C6.18683 9.80032 6.20921 9.70054 6.28401 9.65103L10.1554 7.20066L6.45721 9.33452C6.37858 9.38035 6.27788 9.35491 6.23036 9.27751C6.18269 9.19995 6.20569 9.09864 6.28202 9.04928L10.6843 6.17987L6.45721 8.62012C6.37873 8.66549 6.27849 8.64035 6.23082 8.56326C6.18315 8.48631 6.20538 8.38531 6.2811 8.33549L10.161 5.7573L6.45721 7.89713C6.37796 7.94495 6.27512 7.91951 6.2273 7.84042C6.17948 7.76133 6.20492 7.65834 6.28401 7.61051L6.92591 7.20434L6.45721 7.47502C6.37888 7.51809 6.28048 7.49203 6.23373 7.41601C6.18699 7.33983 6.20829 7.24036 6.28202 7.18993L7.97859 6.07932L6.45721 6.95727C6.37965 7.00064 6.28171 6.97581 6.23419 6.90086C6.18653 6.82591 6.20584 6.72674 6.27803 6.67509L8.55995 5.08964L6.45721 6.30341C6.38011 6.34724 6.28232 6.32333 6.23404 6.24915C6.18576 6.17481 6.20369 6.0758 6.27496 6.02307L8.13094 4.67182L6.45675 5.63805C6.3798 5.68127 6.28232 5.65721 6.23435 5.58302C6.18637 5.50884 6.20431 5.41013 6.27527 5.35756L7.11245 4.75474L6.45721 5.13286C6.38164 5.17609 6.28539 5.15432 6.23603 5.08244C6.18653 5.01071 6.20047 4.91307 6.26791 4.85789L7.14356 4.14701L6.45721 4.54322C6.38624 4.5843 6.29581 4.5679 6.24385 4.5046C6.19174 4.44114 6.19327 4.34933 6.24753 4.28772L6.8502 3.60198L6.45721 3.82867C6.39958 3.86177 6.32769 3.85779 6.2742 3.81824C6.22071 3.7787 6.19572 3.71141 6.21044 3.64658L6.31083 3.20148C6.27573 3.18768 6.24646 3.16239 6.22776 3.12959C6.18177 3.04958 6.20906 2.9475 6.28876 2.90122L6.45613 2.80435C6.51376 2.77109 6.5858 2.77507 6.63945 2.81462C6.69294 2.85401 6.71808 2.9216 6.70321 2.98659L6.6209 3.34724L7.56276 2.80343C7.63373 2.76266 7.72354 2.77921 7.7755 2.84236C7.82731 2.90551 7.82608 2.99686 7.77244 3.05863L7.16962 3.74498L8.80258 2.80235C8.87815 2.75928 8.97409 2.7812 9.02345 2.85263C9.0728 2.92421 9.05916 3.02169 8.99218 3.07702L8.11623 3.78774L9.82552 2.80143C9.90262 2.75821 9.99995 2.78228 10.0479 2.85646C10.0959 2.93064 10.078 3.02935 10.007 3.08192L9.16798 3.68474L10.7024 2.79914C10.7795 2.7553 10.8773 2.77906 10.9256 2.85339C10.9738 2.92758 10.9559 3.02675 10.8846 3.07932L9.02927 4.43042L11.8562 2.79806C11.9338 2.75469 12.0317 2.77952 12.0792 2.85447C12.1269 2.92942 12.1076 3.02858 12.0354 3.08039L9.75349 4.666L12.9931 2.79868C13.0712 2.75561 13.1696 2.78166 13.2164 2.85769C13.2633 2.93386 13.242 3.03334 13.1681 3.08361L11.4743 4.19162L13.8886 2.79776C13.9679 2.74994 14.0707 2.77538 14.1185 2.85447C14.1664 2.93356 14.1409 3.03655 14.0618 3.08438L13.4179 3.49147L14.621 2.79699C14.6993 2.75162 14.7997 2.77676 14.8473 2.85385C14.895 2.9308 14.8726 3.0318 14.7971 3.08162L10.9147 5.65981L15.8755 2.79607C15.9543 2.74764 16.0574 2.77216 16.1059 2.85094C16.1543 2.92972 16.1298 3.03288 16.051 3.08131L11.6518 5.94873L17.1144 2.79469C17.1936 2.74687 17.2965 2.77216 17.3445 2.85125C17.3923 2.93049 17.367 3.03349 17.2879 3.08131L13.4159 5.53168L17.6538 3.0853C17.7322 3.04223 17.8308 3.06844 17.8774 3.14492C17.9241 3.2214 17.9022 3.32103 17.8279 3.371L12.38 6.87189L17.6538 3.82729C17.7325 3.78407 17.8313 3.81058 17.8777 3.88737C17.9243 3.96416 17.9018 4.06409 17.827 4.1136L13.1856 7.06011L17.6538 4.47962C17.7327 4.43808 17.8302 4.46551 17.8757 4.542C17.9214 4.61848 17.899 4.71734 17.825 4.76685L16.8998 5.3361L17.6538 4.90081C17.7325 4.85682 17.8319 4.88303 17.8786 4.95997C17.9254 5.03691 17.9028 5.13716 17.8276 5.18666L12.6988 8.46669L17.6542 5.60586C17.7332 5.5631 17.8317 5.59023 17.8777 5.66732C17.9237 5.74442 17.9007 5.84405 17.8256 5.89325L16.4572 6.73625L17.6538 6.04529C17.7332 6.00008 17.8342 6.02675 17.8808 6.10522C17.9274 6.18385 17.9024 6.28532 17.8247 6.33314L17.6659 6.43032C17.7463 6.39184 17.8429 6.42311 17.8854 6.50143C17.9278 6.57991 17.9015 6.67785 17.8253 6.72429L16.2104 7.72041L17.6538 6.88737C17.7327 6.84109 17.834 6.86668 17.8815 6.9447C17.929 7.02271 17.9051 7.12449 17.8279 7.17323L12.3876 10.6689L17.6538 7.6286C17.7324 7.5866 17.83 7.61358 17.876 7.68976C17.9221 7.76609 17.9004 7.86495 17.8267 7.91491L13.6229 10.5694L17.6538 8.242C17.7322 8.20061 17.8294 8.22744 17.8752 8.30331C17.9212 8.37918 17.8999 8.47773 17.827 8.528L13.2535 11.429L17.6538 8.88896C17.7324 8.84635 17.8305 8.87302 17.8768 8.94935C17.9231 9.02568 17.9013 9.12485 17.8273 9.17481L12.8018 12.3816L17.6538 9.58175C17.7324 9.53914 17.8305 9.56566 17.8768 9.64199C17.9231 9.71847 17.9013 9.81764 17.8273 9.86761L12.8166 13.0653L17.6538 10.2721C17.7329 10.2275 17.8331 10.2542 17.8797 10.332C17.9263 10.41 17.9022 10.5109 17.8256 10.5593L15.9241 11.742L17.6538 10.7442C17.7321 10.7011 17.8305 10.727 17.8772 10.8032C17.924 10.8794 17.9028 10.9788 17.829 11.0291L13.5622 13.8176L17.6538 11.455C17.7324 11.4137 17.8297 11.4408 17.8754 11.517C17.9212 11.5931 17.8995 11.6919 17.8259 11.7417L17.4288 11.9898L17.6538 11.8601C17.7324 11.8177 17.8305 11.8442 17.8768 11.9205C17.9231 11.9969 17.9013 12.0962 17.8273 12.1462L16.6553 12.8901L17.6538 12.3146C17.7325 12.2706 17.8319 12.2968 17.8786 12.3738C17.9254 12.4507 17.9028 12.5509 17.8276 12.6005L16.7766 13.2735L17.6525 12.768C17.7309 12.7225 17.8311 12.7476 17.8788 12.8247C17.9264 12.9016 17.9042 13.0026 17.8287 13.0525L16.2438 14.1011L17.6525 13.2879C17.7307 13.2434 17.83 13.2687 17.8775 13.3452C17.9249 13.4215 17.9034 13.5218 17.829 13.5722L16.7927 14.2636L17.6525 13.7673C17.7287 13.7244 17.8251 13.7475 17.8739 13.8202C17.9225 13.893 17.9068 13.9909 17.838 14.0449L15.839 15.5859L17.6545 14.5378C17.7316 14.4941 17.8296 14.5184 17.8775 14.5928C17.9257 14.6673 17.9073 14.7665 17.8357 14.8188L17.3736 15.1503L17.6551 14.9875C17.7286 14.9457 17.8214 14.965 17.872 15.0326C17.9226 15.1 17.9151 15.1947 17.8544 15.2533L16.9145 16.1541L17.6588 15.7245C17.7266 15.6854 17.8123 15.6984 17.8654 15.7559C17.9185 15.8132 17.9248 15.8998 17.8805 15.9642L17.5276 16.4749L17.6616 16.3972C17.7416 16.3516 17.8432 16.3792 17.8893 16.4589C17.9353 16.5386 17.9084 16.6406 17.829 16.6872L17.0499 17.1361C16.9821 17.1747 16.8966 17.1615 16.8437 17.1044C16.7908 17.047 16.7846 16.9608 16.8285 16.8964L17.1814 16.3854L15.8809 17.1361C15.8074 17.181 15.712 17.1629 15.66 17.0943C15.608 17.0256 15.6168 16.9287 15.6801 16.8703L16.6199 15.9698L14.6003 17.1361C14.523 17.1798 14.4252 17.1556 14.3771 17.0811C14.3291 17.0066 14.3475 16.9076 14.4191 16.8551L14.8805 16.5241L13.821 17.1361C13.7449 17.179 13.6483 17.156 13.5997 17.0832C13.5511 17.0104 13.5668 16.9126 13.6356 16.8585L15.6369 15.3183L12.4868 17.1361C12.4088 17.1787 12.3111 17.153 12.2644 17.0775C12.2175 17.0021 12.2376 16.9033 12.3104 16.8522L13.3483 16.1597L11.6564 17.1361C11.5782 17.1805 11.4789 17.1553 11.4314 17.0789C11.384 17.0024 11.4053 16.9022 11.4799 16.8518L13.0637 15.8042L10.7554 17.1361C10.677 17.1781 10.5795 17.1514 10.5333 17.0756C10.487 16.9995 10.5084 16.9008 10.5816 16.8505L11.6295 16.1781L9.96684 17.1378C9.88821 17.1818 9.78889 17.1556 9.74214 17.0786C9.69524 17.0017 9.71777 16.9014 9.79303 16.8518L10.965 16.1061L9.17595 17.1408C9.09733 17.1822 9.00015 17.1551 8.95432 17.0789C8.90865 17.0027 8.93041 16.904 9.00383 16.8542L9.39498 16.6098L8.47289 17.1425C8.39411 17.191 8.29096 17.1663 8.24252 17.0875C8.19409 17.0087 8.21861 16.9056 8.2974 16.8571L12.5688 14.0664L7.23598 17.1468C7.21023 17.1611 7.18127 17.1683 7.15199 17.1675Z" fill="#4FC0E8"/>
<path d="M6.72269 3.10594C6.65065 3.10594 6.58658 3.0598 6.5639 2.99144C6.54106 2.92308 6.56466 2.84783 6.6223 2.8046L7.87116 1.87853L6.45722 2.6944C6.3812 2.73793 6.28464 2.71571 6.23544 2.64321C6.18623 2.57086 6.20126 2.47277 6.26961 2.4182L7.35279 1.56141L6.45676 2.0787C6.38365 2.12208 6.28939 2.10369 6.23804 2.03579C6.18654 1.96789 6.19436 1.87225 6.25597 1.81354L6.99965 1.09424L6.45615 1.40798C6.38901 1.44676 6.3041 1.4345 6.25092 1.37825C6.19758 1.322 6.18991 1.23647 6.23222 1.17164L6.50504 0.753817C6.43454 0.767918 6.3628 0.735424 6.32694 0.673042C6.2808 0.593187 6.30809 0.491108 6.38779 0.444666L6.93497 0.128925C7.0021 0.0903 7.08702 0.102562 7.1402 0.158813C7.19354 0.215064 7.20136 0.300437 7.1589 0.365424L6.8965 0.767152L8.00972 0.126013C8.08298 0.0824831 8.17725 0.101029 8.22859 0.168929C8.28009 0.236829 8.27227 0.332471 8.21066 0.391174L7.46836 1.1091L9.17168 0.126013C9.24755 0.0824831 9.34426 0.104861 9.39331 0.177206C9.44251 0.249703 9.42764 0.347645 9.35913 0.40221L8.27595 1.25808L10.2388 0.126013C10.3156 0.0823298 10.4129 0.105781 10.4613 0.179658C10.5099 0.253382 10.4927 0.35209 10.4222 0.405275L9.17336 1.33135L11.2609 0.126013C11.3382 0.0823298 11.436 0.106547 11.4841 0.181037C11.5321 0.255528 11.5137 0.354542 11.4421 0.406961L10.4898 1.08826L12.1587 0.126013C12.2357 0.0809504 12.3346 0.104401 12.3834 0.179198C12.4319 0.253995 12.4134 0.353929 12.341 0.406195L11.2219 1.22114L13.1209 0.126013C13.1969 0.083556 13.2929 0.106547 13.3415 0.178738C13.3899 0.251083 13.375 0.348411 13.3071 0.402823L11.7983 1.57582L14.3115 0.126013C14.3888 0.0823298 14.4866 0.106547 14.5347 0.181037C14.5827 0.255528 14.5643 0.354542 14.4927 0.406961L13.5666 1.06818L15.201 0.126013C15.2774 0.0830962 15.3742 0.106394 15.4224 0.179658C15.4709 0.252769 15.4545 0.351017 15.385 0.404509L14.031 1.42408L16.282 0.126013C16.3594 0.083556 16.4563 0.108233 16.5038 0.18257C16.5511 0.256907 16.5329 0.355308 16.4619 0.407574L15.8016 0.868925L17.0595 0.142719C17.1363 0.0979636 17.2347 0.121108 17.2836 0.195445C17.3324 0.269629 17.3147 0.369103 17.2433 0.421982L15.9984 1.34836L17.5594 0.447425C17.6366 0.404355 17.7341 0.428879 17.7818 0.503216C17.8296 0.577707 17.8112 0.676414 17.7399 0.72868L17.4161 0.957669L17.6542 0.820337C17.728 0.7788 17.8213 0.798726 17.8714 0.867085C17.9215 0.935292 17.9128 1.03032 17.851 1.08826L16.8342 2.01939L17.6576 1.54394C17.73 1.50225 17.8222 1.52033 17.8734 1.58639C17.9248 1.65261 17.9194 1.74641 17.8609 1.80619L17.5056 2.16837L17.6602 2.07932C17.718 2.04575 17.7902 2.04989 17.8438 2.08959C17.8975 2.12928 17.9225 2.19718 17.9073 2.26217L17.8103 2.67907C17.8702 2.70283 17.9111 2.75893 17.9156 2.82315C17.92 2.88752 17.8871 2.94868 17.831 2.98041L17.6636 3.07682C17.6058 3.11008 17.5336 3.10594 17.4801 3.06609C17.4265 3.02639 17.4016 2.95864 17.4168 2.89366L17.4935 2.5632L16.6028 3.07743C16.5304 3.11881 16.4386 3.10042 16.3876 3.03451C16.3366 2.96861 16.3418 2.87511 16.3999 2.81533L16.7551 2.45438L15.6747 3.07513C15.6008 3.11682 15.5077 3.09674 15.4574 3.02853C15.4073 2.96033 15.416 2.8653 15.4778 2.80736L16.4943 1.87715L14.4154 3.07651C14.338 3.11989 14.2402 3.09552 14.1924 3.02072C14.1446 2.94592 14.1633 2.84691 14.2352 2.79495L14.5594 2.56626L13.6734 3.07712C13.5967 3.12188 13.4983 3.09873 13.4494 3.02455C13.4005 2.95021 13.4181 2.85074 13.4895 2.79786L14.7341 1.87148L12.6448 3.07682C12.5673 3.12081 12.469 3.09628 12.4211 3.02118C12.3731 2.94607 12.3924 2.8466 12.465 2.79495L13.1237 2.3359L11.8352 3.07881C11.7586 3.12264 11.6611 3.09965 11.6124 3.02608C11.5636 2.95236 11.5804 2.85365 11.6507 2.80031L13.0047 1.77906L10.7521 3.07957C10.6748 3.1231 10.577 3.09904 10.5289 3.02455C10.4809 2.94991 10.4993 2.85089 10.5709 2.79863L11.497 2.13496L9.8614 3.07911C9.78538 3.12157 9.68943 3.09858 9.641 3.02639C9.59241 2.95404 9.60728 2.85672 9.67518 2.8023L11.1849 1.62977L8.67032 3.08157C8.59323 3.12648 8.49452 3.10303 8.44578 3.02823C8.39704 2.95343 8.41558 2.85365 8.48793 2.80123L9.60651 1.98567L7.70547 3.08249C7.62822 3.12617 7.53044 3.10195 7.48231 3.02746C7.43433 2.95297 7.45273 2.85396 7.5243 2.80154L8.47689 2.11886L6.80638 3.08325C6.78109 3.09812 6.75212 3.10594 6.72269 3.10594Z" fill="#457393"/>
<path d="M19.3237 14.8008C19.263 14.8008 19.2072 14.7681 19.1775 14.7152C19.1479 14.6623 19.1491 14.5977 19.1807 14.546L19.2708 14.399L18.7106 14.7221C18.6375 14.7641 18.5446 14.7454 18.4936 14.6783C18.4427 14.6112 18.4496 14.5166 18.5097 14.4576L18.6844 14.2871L18.1102 14.6187C18.0367 14.6581 17.9452 14.6372 17.8958 14.5698C17.8466 14.5023 17.8546 14.4088 17.9147 14.3507L18.4542 13.8659L17.4463 14.4452C17.3707 14.4879 17.2749 14.4657 17.2257 14.394C17.1767 14.3224 17.1906 14.2251 17.2577 14.1699L17.9418 13.6204L16.8034 14.2784C16.7263 14.3235 16.6275 14.3 16.5787 14.2252C16.53 14.1504 16.5485 14.0505 16.6209 13.9982L17.1248 13.6299L16.1773 14.1763C16.1008 14.2198 16.0037 14.1967 15.9551 14.1234C15.9063 14.0502 15.9227 13.9516 15.9925 13.898L17.5183 12.7418L15.1279 14.1218C15.0505 14.1664 14.9516 14.1423 14.9033 14.067C14.855 13.9918 14.8745 13.8918 14.9475 13.8402L16.6762 12.6214L13.9359 14.2034C13.8577 14.2471 13.7588 14.2215 13.7118 14.1452C13.6647 14.069 13.686 13.9691 13.7602 13.9188L14.9655 13.1246L12.5156 14.539C12.4367 14.584 12.3363 14.558 12.2893 14.4803C12.2424 14.4027 12.2657 14.3017 12.3421 14.2527L13.1732 13.7209L11.3986 14.7451C11.3193 14.7929 11.2165 14.7673 11.1687 14.6881C11.121 14.6089 11.1466 14.5059 11.2258 14.4582L12.0813 13.9225L10.8089 14.6568C10.7305 14.6999 10.6319 14.6737 10.5853 14.5972C10.5387 14.5207 10.5605 14.4211 10.6348 14.3711L13.8315 12.3136L10.81 14.0557C10.7312 14.0991 10.6325 14.0726 10.5861 13.9956C10.5396 13.9188 10.562 13.819 10.6368 13.7695L12.6019 12.5276L10.81 13.5632C10.7315 13.6078 10.6319 13.5822 10.5847 13.5054C10.5373 13.4287 10.5594 13.3283 10.6345 13.2783L14.7241 10.5969L10.81 12.8563C10.7319 12.8989 10.6341 12.8729 10.5875 12.7972C10.5407 12.7215 10.5614 12.6224 10.6345 12.5719L14.7395 9.87902L10.81 12.1473C10.7311 12.1922 10.6307 12.1663 10.5836 12.0886C10.5367 12.011 10.56 11.91 10.6365 11.861L13.1997 10.228L10.81 11.6075C10.7314 11.6531 10.6307 11.6279 10.5832 11.5503C10.5355 11.4729 10.5585 11.3716 10.6348 11.3222L14.0136 9.11434L10.81 10.9643C10.7314 11.0089 10.6315 10.9832 10.5843 10.9061C10.5372 10.8288 10.5599 10.7281 10.6354 10.6786L12.7573 9.30593L10.81 10.4299C10.7314 10.4725 10.6333 10.4458 10.587 10.3695C10.5407 10.2932 10.5625 10.1938 10.6365 10.1439L11.2288 9.76698L10.81 10.0084C10.7315 10.0502 10.6341 10.0237 10.5879 9.94784C10.5418 9.87181 10.5629 9.77311 10.6362 9.72268L11.1736 9.37812L10.81 9.5878C10.7323 9.63056 10.635 9.60543 10.5876 9.53048C10.5404 9.45568 10.5596 9.35682 10.6315 9.30517L12.9529 7.71113L10.81 8.94789C10.7329 8.99111 10.6354 8.96705 10.5875 8.89286C10.5395 8.81868 10.5574 8.71997 10.6285 8.6674L12.7895 7.11L10.81 8.2528C10.7328 8.29709 10.6345 8.27333 10.5861 8.19869C10.5378 8.12405 10.5562 8.02457 10.6281 7.97231L11.8392 7.09835L10.81 7.69197C10.7329 7.73642 10.6347 7.71297 10.5861 7.63863C10.5375 7.56414 10.5554 7.46467 10.6272 7.4121L11.0925 7.07015L10.81 7.23323C10.7348 7.27522 10.6399 7.25331 10.5908 7.18249C10.5416 7.11168 10.5544 7.01512 10.6201 6.95933L10.7601 6.84422C10.713 6.85388 10.6641 6.84254 10.6261 6.81311C10.5726 6.77234 10.5485 6.70352 10.5652 6.63822L10.6758 6.21136C10.6128 6.19128 10.5675 6.13595 10.5602 6.0702C10.553 6.00459 10.5852 5.94068 10.6422 5.90742L10.8338 5.79691C10.8922 5.76319 10.965 5.76779 11.0188 5.80856C11.0724 5.84933 11.0963 5.91846 11.0795 5.98375L10.9881 6.33566L12.307 5.57421C12.3824 5.53129 12.4781 5.55305 12.5274 5.62448C12.5768 5.69575 12.5635 5.79293 12.4968 5.84841L12.3964 5.9298L13.5536 5.26015C13.6304 5.21708 13.7274 5.24084 13.7755 5.31456C13.8237 5.38829 13.8067 5.48669 13.7363 5.53972L13.2719 5.88596L14.5189 5.16604C14.5959 5.12328 14.6927 5.14734 14.7407 5.22122C14.7887 5.2951 14.7712 5.3935 14.7007 5.44622L13.4909 6.31988L15.4966 5.16206C15.5736 5.11883 15.6711 5.1429 15.719 5.21708C15.767 5.29126 15.7491 5.38997 15.6781 5.44254L13.5177 6.99949L16.4937 5.28115C16.5715 5.2367 16.6705 5.26138 16.7184 5.33725C16.7662 5.41312 16.7458 5.51305 16.6721 5.56409L14.3505 7.15828L17.2766 5.46906C17.3549 5.42706 17.4524 5.45373 17.4985 5.5296C17.5448 5.60563 17.5235 5.70433 17.4502 5.75461L16.9123 6.09993L17.7714 5.60363C17.8225 5.57267 17.8863 5.57129 17.9387 5.59996C17.9913 5.62877 18.0244 5.68334 18.0256 5.74311C18.027 5.80289 17.9964 5.85883 17.9452 5.88995L17.3529 6.26669L18.3078 5.71552C18.3864 5.67077 18.4864 5.69652 18.5334 5.77377C18.5806 5.85086 18.5579 5.95156 18.4822 6.00107L16.3594 7.37393L19.0973 5.79323C19.1761 5.7448 19.2792 5.76932 19.3277 5.8481C19.3761 5.92689 19.3516 6.03004 19.2728 6.07847L15.891 8.28836L19.6624 6.11189C19.7411 6.06943 19.8392 6.09595 19.8854 6.17228C19.9317 6.2486 19.91 6.34793 19.8359 6.39789L17.2769 8.02887L19.6638 6.65095C19.7423 6.6065 19.8419 6.63194 19.8891 6.70873C19.9365 6.78552 19.9144 6.88607 19.8393 6.93588L15.7322 9.62826L19.6649 7.35922C19.7432 7.31462 19.8428 7.34021 19.8902 7.417C19.9374 7.49379 19.9153 7.59418 19.8402 7.64415L15.7514 10.3238L19.6658 8.06396C19.7446 8.02074 19.8433 8.04726 19.8897 8.12405C19.9362 8.20084 19.9138 8.30062 19.839 8.35028L17.8711 9.59408L19.6658 8.55781C19.7449 8.50968 19.8479 8.53466 19.896 8.6136C19.9441 8.69254 19.9193 8.79569 19.8402 8.84382L16.648 10.8986L19.6669 9.15527C19.7461 9.10744 19.849 9.13304 19.8968 9.21228C19.9445 9.29152 19.9189 9.39437 19.8396 9.44219L18.9775 9.98386L19.6672 9.58581C19.7458 9.54182 19.8451 9.56803 19.8919 9.64497C19.9388 9.72191 19.9162 9.82215 19.841 9.87166L19.004 10.4041L19.6669 10.0214C19.7452 9.97589 19.8456 10.001 19.8933 10.0781C19.9409 10.1552 19.9185 10.2561 19.843 10.306L18.6409 11.0989L19.6683 10.5065C19.7455 10.4636 19.8428 10.488 19.8905 10.5625C19.9383 10.6368 19.9199 10.7355 19.8487 10.7878L18.119 12.0103L19.6692 11.1156C19.7457 11.0721 19.8428 11.0952 19.8914 11.1685C19.9402 11.2418 19.9238 11.3403 19.854 11.3938L18.3285 12.549L19.6699 11.7748C19.747 11.7299 19.8457 11.7534 19.8945 11.8282C19.9432 11.903 19.9247 12.0028 19.8523 12.0552L19.3475 12.4235L19.6706 12.2373C19.7461 12.1945 19.8419 12.2167 19.8911 12.2885C19.9402 12.36 19.9262 12.4575 19.8591 12.5125L19.1767 13.0603L19.6712 12.7746C19.7449 12.7353 19.8364 12.7559 19.8856 12.8235C19.9348 12.891 19.9268 12.9845 19.8667 13.0426L19.3277 13.5274L19.6719 13.3286C19.7449 13.2864 19.8379 13.3051 19.8888 13.3723C19.9399 13.4394 19.933 13.534 19.8727 13.593L19.6937 13.7682C19.7605 13.7413 19.837 13.7603 19.8836 13.8154C19.9302 13.8704 19.9363 13.949 19.8989 14.0105L19.7743 14.2148C19.8464 14.2223 19.9054 14.2753 19.9205 14.346C19.9357 14.4168 19.9038 14.4893 19.8413 14.5258L19.4083 14.7759C19.3829 14.7919 19.3536 14.8004 19.3237 14.8008Z" fill="#89C053"/>
<path d="M10.7262 13.3739C10.6524 13.3741 10.5873 13.3258 10.5658 13.2551C10.5444 13.1845 10.5718 13.1082 10.6331 13.0672L13.8324 10.9269L10.81 12.6718C10.7324 12.7141 10.6356 12.689 10.5882 12.6145C10.541 12.54 10.5599 12.4414 10.6311 12.3895L14.0378 10.0396L10.81 11.9027C10.7324 11.945 10.6356 11.9198 10.5882 11.8453C10.541 11.7708 10.5599 11.6724 10.6311 11.6205L13.964 9.3145L10.81 11.1349C10.732 11.1775 10.6343 11.1518 10.5874 11.0764C10.5407 11.001 10.5608 10.9021 10.6334 10.8511L12.4393 9.64894L10.81 10.5894C10.7327 10.6331 10.635 10.609 10.5868 10.5344C10.5389 10.4599 10.5573 10.3609 10.6288 10.3086L13.1126 8.52729L10.81 9.85647C10.7326 9.902 10.6331 9.87824 10.5844 9.80283C10.5358 9.72742 10.5554 9.62702 10.6288 9.57522L12.1304 8.50216L10.81 9.26453C10.7323 9.30837 10.6339 9.28369 10.5862 9.20828C10.5384 9.13287 10.5582 9.0334 10.6311 8.9819L10.7951 8.86817C10.7236 8.90021 10.6393 8.87829 10.5925 8.81529C10.5456 8.75245 10.5487 8.66539 10.6 8.60592L11.2937 7.80937L10.81 8.08863C10.751 8.1225 10.6776 8.11744 10.6239 8.07575C10.5703 8.03422 10.547 7.96432 10.5652 7.89888L10.663 7.54589C10.6031 7.52213 10.5622 7.46603 10.5579 7.40166C10.5534 7.33729 10.5864 7.27628 10.6425 7.24456L10.825 7.13941C10.8839 7.10538 10.9574 7.11044 11.0111 7.15198C11.0649 7.19352 11.0882 7.26341 11.0701 7.32886L10.9971 7.59279L11.9953 7.01649C12.0659 6.97618 12.1554 6.99273 12.2072 7.05542C12.259 7.11826 12.2581 7.20915 12.2052 7.27107L11.5117 8.06763L14.1817 6.52739C14.2594 6.48356 14.3578 6.50823 14.4055 6.58364C14.4531 6.65905 14.4334 6.75853 14.3604 6.80988L14.2035 6.91839L14.9497 6.48785C15.0268 6.44233 15.126 6.46639 15.1738 6.54211C15.2221 6.61706 15.2032 6.71669 15.1309 6.7688L13.6291 7.84293L15.8876 6.53935C15.9649 6.49582 16.0626 6.51988 16.1106 6.59437C16.1587 6.66902 16.1404 6.76803 16.0688 6.8203L13.5847 8.60056L16.8201 6.73293C16.8984 6.68634 16.9996 6.71101 17.0477 6.78842C17.0959 6.86582 17.0733 6.96744 16.9968 7.01725L15.1914 8.21922L17.3458 6.97633C17.4232 6.93403 17.5203 6.95916 17.5675 7.03365C17.6147 7.1083 17.596 7.2067 17.5246 7.25866L14.19 9.56495L17.4813 7.66483C17.559 7.62084 17.6574 7.64567 17.7053 7.72108C17.7529 7.79634 17.7332 7.89596 17.6602 7.94731L14.255 10.2965L18.0546 8.10273C18.1327 8.05889 18.2313 8.08434 18.2787 8.16021C18.3259 8.23623 18.3052 8.33586 18.2315 8.38659L15.0308 10.5295L18.3248 8.62769C18.4033 8.58385 18.5023 8.60975 18.5492 8.68639C18.5962 8.76303 18.5743 8.86296 18.4997 8.91293L16.9872 9.89678L18.3265 9.12429C18.404 9.08199 18.5009 9.10712 18.5481 9.18161C18.5955 9.2561 18.5766 9.35466 18.5054 9.40647L16.8074 10.5784L18.3268 9.70213C18.4031 9.65783 18.5008 9.68021 18.5501 9.75347C18.5993 9.82659 18.5832 9.9256 18.5133 9.9794L16.8393 11.2796L18.3299 10.4191C18.4045 10.3758 18.4998 10.3961 18.55 10.4663C18.6002 10.5364 18.589 10.6333 18.5241 10.69L17.3857 11.689L18.3302 11.142C18.4016 11.1009 18.4923 11.1179 18.544 11.182C18.5958 11.2462 18.5932 11.3383 18.5378 11.3995L17.6136 12.4166C17.6282 12.4288 17.6403 12.4436 17.6495 12.4601C17.6955 12.5401 17.668 12.6424 17.5882 12.6885L17.1008 12.9701C17.0293 13.0113 16.9386 12.9943 16.8868 12.93C16.8351 12.866 16.8377 12.7737 16.8931 12.7127L17.5701 11.9663L16.0838 12.8241C16.0093 12.8666 15.9149 12.8461 15.8648 12.7763C15.8148 12.7067 15.8255 12.6105 15.8896 12.5536L17.0281 11.5538L14.8805 12.7927C14.8043 12.8361 14.7074 12.8134 14.6585 12.7406C14.6096 12.6678 14.6253 12.5696 14.6942 12.5154L16.3684 11.2152L13.3885 12.9346C13.3109 12.9769 13.2141 12.9518 13.1667 12.8773C13.1195 12.8027 13.1384 12.7043 13.2096 12.6523L14.9073 11.4804L11.6936 13.3384C11.615 13.3842 11.5143 13.3588 11.4668 13.2813C11.4191 13.2038 11.4421 13.1025 11.5184 13.0531L13.0321 12.0688L10.81 13.3519C10.7846 13.3666 10.7556 13.3741 10.7262 13.3739Z" fill="#B4DF80"/>
<path d="M15.1993 10.7722C15.1321 10.7723 15.0713 10.7323 15.0449 10.6706C15.0186 10.6088 15.0316 10.5374 15.078 10.4889L15.1168 10.4486L14.7287 10.6724C14.6584 10.7124 14.5695 10.6963 14.5177 10.6343C14.4657 10.572 14.4657 10.4817 14.5175 10.4195L15.1246 9.69898L14.2574 10.2013C14.1835 10.2429 14.0903 10.2229 14.0401 10.1547C13.9899 10.0863 13.9987 9.99143 14.0605 9.93333L14.3206 9.69438L14.1585 9.78773C14.0876 9.82834 13.9975 9.81179 13.9457 9.74833C13.894 9.68503 13.8955 9.59338 13.9496 9.53191L14.2419 9.20314C14.1786 9.18322 14.133 9.12773 14.1257 9.06167C14.1185 8.99577 14.1509 8.9317 14.2085 8.89844L14.857 8.52415C14.9281 8.48338 15.0181 8.50008 15.0699 8.56354C15.1217 8.62684 15.12 8.7185 15.0659 8.77996L14.8881 8.98075L15.4707 8.64155C15.5446 8.60002 15.6378 8.61994 15.6881 8.6883C15.7382 8.75651 15.7294 8.85154 15.6677 8.90947L15.4068 9.14919L15.7855 8.93293C15.8557 8.89338 15.9443 8.90947 15.9961 8.9714C16.0479 9.03317 16.0481 9.12314 15.9967 9.18536L15.3898 9.90391L15.963 9.57284C16.0351 9.53115 16.127 9.54877 16.1784 9.61437C16.2299 9.67998 16.2253 9.77347 16.1675 9.83355L15.9269 10.0851C15.9531 10.0995 15.975 10.1209 15.9897 10.147C16.036 10.2272 16.0085 10.3295 15.9285 10.3757L15.283 10.7487C15.2577 10.7639 15.2287 10.772 15.1993 10.7722Z" fill="#89C053"/>
<path d="M11.0664 12.0843C10.9973 12.0843 10.9354 12.0419 10.9104 11.9775C10.8856 11.9131 10.9026 11.84 10.9536 11.7934L11.0509 11.7056L10.8112 11.844C10.7361 11.8875 10.6402 11.8665 10.5902 11.7954C10.5402 11.7245 10.553 11.627 10.6195 11.571L10.8518 11.3742L10.8112 11.3977C10.7389 11.4389 10.6471 11.4205 10.596 11.3546C10.545 11.2887 10.5502 11.1952 10.6085 11.1354L11.2686 10.4658L10.8112 10.7296C10.7375 10.7702 10.6452 10.7498 10.5956 10.6819C10.5458 10.614 10.5542 10.5197 10.615 10.4618L10.8036 10.2917C10.7292 10.3295 10.6382 10.3068 10.5904 10.2383C10.5425 10.1698 10.5525 10.0766 10.6137 10.0198L10.7236 9.91937C10.6767 9.91799 10.6324 9.8973 10.6014 9.86204C10.5487 9.80166 10.5464 9.7123 10.5957 9.64915L10.7889 9.40039C10.7352 9.42108 10.6747 9.41311 10.6281 9.37924C10.5747 9.33969 10.5497 9.27225 10.5645 9.20742L10.6379 8.88432C10.6153 8.86991 10.5965 8.85029 10.583 8.82715C10.5366 8.74729 10.5637 8.64491 10.6436 8.59847L10.7744 8.52244C10.8321 8.48918 10.904 8.49317 10.9575 8.53256C11.0111 8.57195 11.0362 8.63939 11.0215 8.70422L10.9757 8.90777L11.3581 8.68721C11.4274 8.64736 11.5151 8.66207 11.5676 8.72216C11.6202 8.78239 11.6228 8.87129 11.5741 8.93459L11.3839 9.17968L11.7589 8.9631C11.8326 8.92018 11.9271 8.9398 11.9776 9.00847C12.0284 9.07714 12.0192 9.17308 11.9563 9.23087L11.9266 9.25876L11.9959 9.21891C12.0696 9.1783 12.162 9.19883 12.2117 9.26658C12.2613 9.33448 12.2531 9.42874 12.1921 9.48668L12.0066 9.65421L12.174 9.55811C12.2465 9.51672 12.3383 9.53511 12.3893 9.60102C12.4404 9.66693 12.4352 9.76042 12.3769 9.8202L11.716 10.4898L12.2983 10.1551C12.3732 10.1123 12.4684 10.1336 12.5181 10.2041C12.5677 10.2747 12.5556 10.3715 12.4902 10.4276L12.2466 10.6339C12.3216 10.6063 12.4056 10.6358 12.4471 10.7038C12.4888 10.772 12.4765 10.86 12.4178 10.9141L12.0163 11.2764C12.0664 11.3074 12.0964 11.3624 12.0955 11.4214C12.0944 11.4803 12.0627 11.5342 12.0117 11.5637L11.1515 12.062C11.1257 12.077 11.0963 12.0848 11.0664 12.0843Z" fill="#89C053"/>
<path d="M1.79038 14.481C1.71742 14.481 1.6529 14.4338 1.63083 14.3644C1.60875 14.2949 1.63404 14.2191 1.69351 14.1769L3.29368 13.0453L0.923779 14.4134C0.844997 14.4617 0.741844 14.4369 0.693564 14.3579C0.645283 14.2792 0.670113 14.176 0.749048 14.1277L0.797942 14.0963L0.599607 14.2105C0.521438 14.2525 0.42411 14.2261 0.377822 14.1506C0.331381 14.0748 0.352072 13.9761 0.424877 13.9256L0.937573 13.5907L0.450627 13.8716C0.373837 13.9127 0.278348 13.888 0.230987 13.8149C0.183779 13.7418 0.200486 13.6445 0.269612 13.5914L3.26563 11.4772L0.430241 13.1132C0.351919 13.1578 0.252292 13.1322 0.204931 13.0554C0.157723 12.9786 0.179641 12.8782 0.254744 12.8283L1.32627 12.1252L0.430241 12.6428C0.352379 12.6848 0.255357 12.6592 0.208609 12.5841C0.161708 12.509 0.18148 12.4105 0.253518 12.3593L2.13616 11.0955L0.430241 12.08C0.352532 12.1252 0.252905 12.1009 0.204624 12.0248C0.156497 11.9488 0.177035 11.8484 0.251066 11.7974L2.95786 9.91856L0.430241 11.3768C0.352072 11.4192 0.254438 11.3933 0.20769 11.3176C0.161095 11.2419 0.181787 11.1429 0.254744 11.0922L1.43065 10.3191L0.430241 10.898C0.351613 10.9427 0.251679 10.917 0.204624 10.8397C0.157416 10.7626 0.180101 10.6619 0.255817 10.6124L0.724525 10.3083L0.428862 10.4788C0.350233 10.5235 0.250299 10.4978 0.203245 10.4205C0.156037 10.3434 0.178721 10.2427 0.254438 10.1932L0.678083 9.92024L0.430241 10.0629C0.353145 10.1055 0.256124 10.0812 0.208456 10.007C0.160788 9.93296 0.178721 9.83456 0.24938 9.78199L2.47168 8.20129L0.429322 9.3795C0.352379 9.42471 0.253518 9.40172 0.204471 9.32708C0.155577 9.25243 0.173663 9.1525 0.245701 9.09993L1.97216 7.79788L0.431927 8.68778C0.355291 8.73207 0.25735 8.70893 0.208609 8.63505C0.159715 8.56117 0.176882 8.46201 0.247847 8.40882L1.01789 7.82991L0.430241 8.17018C0.355751 8.21263 0.261182 8.19209 0.211215 8.12236C0.161248 8.05277 0.171977 7.95651 0.236045 7.89965L0.942172 7.27721L0.430241 7.57241C0.364794 7.6092 0.282793 7.59786 0.229761 7.54467C0.176729 7.49149 0.165693 7.40948 0.202632 7.34419L0.537379 6.75685L0.528642 6.76191C0.449247 6.80344 0.350999 6.77494 0.306091 6.69723C0.261182 6.61967 0.285552 6.52035 0.361269 6.47222L0.907685 6.15648C0.972979 6.11924 1.05513 6.12997 1.10863 6.183C1.16181 6.23618 1.17285 6.31834 1.13575 6.38378L0.800241 6.9722L2.2246 6.1502C2.29894 6.10774 2.39336 6.12828 2.44332 6.19771C2.49344 6.2673 2.48287 6.36325 2.41911 6.42026L1.71329 7.0427L3.26318 6.14805C3.33997 6.10391 3.43791 6.1269 3.48665 6.20093C3.53539 6.27481 3.51822 6.37382 3.44741 6.42701L2.67722 7.00561L4.16534 6.14637C4.24182 6.10345 4.33854 6.1269 4.38682 6.20016C4.43525 6.27327 4.41885 6.37137 4.34942 6.42501L2.62173 7.72722L5.36531 6.14315C5.44256 6.099 5.54096 6.12307 5.58909 6.19802C5.63722 6.27282 5.61836 6.37229 5.54617 6.4244L3.32311 8.00648L6.26962 6.30546C6.34794 6.26301 6.44588 6.28922 6.49232 6.36524C6.53892 6.44126 6.51761 6.54043 6.44404 6.5907L6.02561 6.86123L6.27038 6.72037C6.34901 6.67562 6.44895 6.70137 6.496 6.77861C6.54321 6.85571 6.52053 6.95641 6.44481 7.00592L5.9761 7.30725L6.27008 7.13758C6.3484 7.09298 6.44803 7.11857 6.49524 7.19536C6.5426 7.27215 6.52053 7.37255 6.44542 7.42251L5.26584 8.19792L6.27038 7.61809C6.34794 7.57471 6.44573 7.59939 6.4934 7.67449C6.54091 7.74944 6.52175 7.84861 6.44941 7.90026L3.74307 9.77938L6.2713 8.31946C6.34932 8.27578 6.44803 8.30107 6.49539 8.37709C6.5426 8.45296 6.5219 8.55274 6.44818 8.60348L4.56875 9.86706L6.27299 8.88305C6.35162 8.83599 6.45339 8.86082 6.50152 8.93868C6.54965 9.0167 6.5262 9.11878 6.44879 9.16798L5.37236 9.87349L6.27376 9.35313C6.35116 9.30838 6.45002 9.33244 6.4983 9.40785C6.54658 9.48311 6.52712 9.58304 6.45416 9.6347L3.45875 11.7494L6.27468 10.1242C6.35331 10.0786 6.45401 10.1039 6.50152 10.1814C6.54903 10.2588 6.5262 10.3601 6.44987 10.4095L5.93993 10.741L6.27468 10.5474C6.35315 10.5036 6.45217 10.5295 6.49907 10.6061C6.54597 10.6828 6.5242 10.7827 6.44941 10.8327L6.31361 10.9208C6.39208 10.8981 6.47562 10.9357 6.51087 11.0096C6.54612 11.0833 6.52282 11.1719 6.45584 11.2188L4.85675 12.3505L6.27774 11.5305C6.35422 11.4867 6.45171 11.5097 6.50045 11.5832C6.54919 11.657 6.53248 11.7557 6.46213 11.809L5.1564 12.7907L6.27698 12.1436C6.35331 12.1001 6.45002 12.1228 6.49907 12.1956C6.54796 12.2685 6.53233 12.3668 6.4632 12.4207L5.80321 12.9317L6.27774 12.6578C6.34871 12.6172 6.43868 12.6338 6.49048 12.6971C6.54229 12.7602 6.54091 12.8517 6.48696 12.9133L5.83141 13.6583L6.27866 13.3998C6.33706 13.3663 6.40986 13.3709 6.46351 13.4115C6.51715 13.4523 6.54106 13.5211 6.52451 13.5864L6.40894 14.0378C6.45125 14.0497 6.48711 14.0775 6.50934 14.1153C6.53156 14.1539 6.53754 14.1996 6.52604 14.2425C6.51439 14.2854 6.48635 14.3219 6.44787 14.344L6.24985 14.4579C6.1916 14.4914 6.11895 14.4868 6.06531 14.4462C6.01181 14.4056 5.9876 14.3369 6.00415 14.2718L6.10224 13.8886L5.11548 14.4579C5.04466 14.4982 4.955 14.4815 4.90335 14.4185C4.85169 14.3555 4.85292 14.2644 4.90626 14.2028L5.56211 13.4578L3.82875 14.4573C3.75258 14.5008 3.65571 14.478 3.60681 14.4052C3.55792 14.3323 3.57355 14.2341 3.64253 14.18L4.30221 13.6694L2.93747 14.4573C2.86084 14.5011 2.76336 14.478 2.71462 14.4044C2.66587 14.3308 2.68273 14.2321 2.75293 14.1786L4.05882 13.1963L1.87407 14.4573C1.84878 14.4724 1.81981 14.4806 1.79038 14.481Z" fill="#5E9CEA"/>
<path d="M0.817699 9.80335C0.7475 9.80351 0.684658 9.75982 0.660288 9.69407C0.635917 9.62832 0.65523 9.55429 0.708415 9.50861L1.28365 9.01584L0.430226 9.50769C0.358801 9.54831 0.26837 9.53099 0.21687 9.46692C0.165524 9.40285 0.168129 9.31089 0.223308 9.24989L0.764666 8.65917L0.429919 8.85214C0.372289 8.88525 0.300404 8.88111 0.246912 8.84172C0.193419 8.80218 0.168436 8.73474 0.18315 8.6699L0.283544 8.22388C0.249211 8.20978 0.220702 8.18434 0.202616 8.152C0.156481 8.07199 0.183763 7.96991 0.263465 7.92362L0.430839 7.82675C0.488622 7.79349 0.560507 7.79748 0.614153 7.83702C0.667798 7.87641 0.692781 7.944 0.678067 8.00899L0.5953 8.37056L1.54191 7.82476C1.61334 7.78414 1.70377 7.80146 1.75511 7.86553C1.80661 7.9296 1.80385 8.02171 1.74883 8.08256L1.20701 8.67327L2.68027 7.82277C2.75506 7.78046 2.84979 7.80146 2.89945 7.87166C2.94911 7.94186 2.93761 8.03827 2.87278 8.09467L2.29663 8.5876L3.62458 7.82108C3.69769 7.7777 3.79195 7.7961 3.8433 7.864C3.8948 7.9319 3.88698 8.02754 3.82537 8.08624L3.07878 8.80785L4.78976 7.81939C4.86425 7.77617 4.95958 7.79656 5.00986 7.8666C5.06013 7.9368 5.04894 8.03367 4.98395 8.09038L4.35906 8.63879L5.78143 7.8174C5.85761 7.77341 5.95494 7.79579 6.00414 7.86875C6.05334 7.94171 6.0377 8.04026 5.96827 8.09436L5.69376 8.31063L6.27068 7.97788C6.34624 7.93511 6.44204 7.95719 6.49124 8.02892C6.54028 8.10065 6.52634 8.19798 6.4592 8.253L6.28401 8.39371C6.35743 8.35646 6.44709 8.37823 6.49522 8.4449C6.5435 8.51157 6.53614 8.60338 6.4779 8.66163L6.25121 8.89828L6.27604 8.88418C6.3349 8.85015 6.40847 8.85506 6.46211 8.89659C6.51591 8.93813 6.53936 9.00787 6.52143 9.07332L6.43667 9.38078C6.49231 9.40806 6.52817 9.4637 6.53017 9.52547C6.53231 9.58739 6.49997 9.64518 6.44648 9.67614L6.27911 9.77255C6.22025 9.80642 6.14668 9.80151 6.09288 9.75998C6.03924 9.71844 6.01594 9.64855 6.03387 9.58295L6.09058 9.37802L5.40484 9.77393C5.33265 9.81546 5.24099 9.79784 5.18949 9.73239C5.13799 9.66694 5.14244 9.5736 5.19991 9.51336L5.42722 9.27564L4.56169 9.77515C4.48612 9.81791 4.39033 9.79584 4.34113 9.72411C4.29208 9.65238 4.30603 9.55505 4.37316 9.50003L4.54498 9.36208L3.82675 9.77653C3.75072 9.82037 3.6537 9.79799 3.6045 9.72534C3.5553 9.65253 3.57063 9.55429 3.6396 9.50003L3.91488 9.28361L3.059 9.77653C2.98436 9.81991 2.88902 9.79937 2.83875 9.72932C2.78848 9.65928 2.79982 9.56241 2.86481 9.5057L3.48985 8.95714L2.06748 9.77822C1.99437 9.82159 1.90011 9.8032 1.84876 9.7353C1.79726 9.6674 1.80508 9.57176 1.8667 9.51306L2.61329 8.79145L0.901385 9.78021C0.875942 9.79523 0.847127 9.8032 0.817699 9.80335Z" fill="#365972"/>
<path d="M3.35928 12.8066C3.29598 12.8066 3.23789 12.7707 3.20954 12.714C3.18118 12.6573 3.18731 12.5895 3.22548 12.5388L3.55348 12.0911L2.37895 12.7698C2.30645 12.8092 2.21618 12.7899 2.16606 12.7244C2.11594 12.6588 2.12099 12.5665 2.17801 12.5069L2.59032 12.0925L1.89584 12.4942C1.83162 12.5322 1.75008 12.5233 1.69582 12.4721C1.6414 12.4211 1.62746 12.3403 1.66148 12.2739L1.92557 11.7519L1.86794 11.7853C1.78855 11.827 1.6903 11.7985 1.64554 11.7208C1.60063 11.6431 1.62485 11.5439 1.70057 11.4958L2.2453 11.181C2.30952 11.1428 2.39137 11.1518 2.44578 11.203C2.50019 11.2542 2.51399 11.3353 2.47981 11.4017L2.21556 11.9233L3.50872 11.1756C3.58122 11.1362 3.6715 11.1555 3.72162 11.2211C3.77174 11.2866 3.76668 11.3788 3.70951 11.4385L3.29874 11.8523L4.07461 11.4047C4.14312 11.365 4.23018 11.379 4.2829 11.438C4.33578 11.497 4.34007 11.585 4.29317 11.6487L3.96532 12.0961L4.23324 11.9424C4.31279 11.9009 4.41089 11.9292 4.4558 12.0069C4.5007 12.0847 4.47633 12.184 4.40062 12.2321L3.44312 12.7828C3.41783 12.7981 3.38887 12.8064 3.35928 12.8066Z" fill="#FFD67B"/>
<path d="M14.9813 10.8016C14.9902 10.8013 14.9992 10.8002 15.008 10.7986C15.0204 10.7986 15.0291 10.8019 15.0432 10.8013C15.7144 10.8011 16.2711 10.2818 16.3178 9.61232C16.3136 9.30194 16.185 9.00628 15.9609 8.79139C15.7369 8.57665 15.4361 8.46047 15.1258 8.46921C14.4842 8.45557 13.9302 8.91585 13.8258 9.54901C13.7997 9.87165 13.9098 10.1905 14.1293 10.4283C14.3488 10.6662 14.6576 10.8016 14.9813 10.8016ZM15.0121 8.79829C15.9874 8.79032 16.1169 10.3868 15.1246 10.4725C14.7356 10.4467 14.4111 10.1656 14.3304 9.78444C14.271 9.56143 14.3124 9.3237 14.4436 9.13395C14.5747 8.9442 14.7825 8.82158 15.0121 8.79829Z" fill="#262626"/>
<path d="M1.09558 6.13113C-0.447717 6.37851 0.091036 8.6212 0.091036 9.78484V12.9901C0.091036 13.7397 0.0715704 14.2768 0.915336 14.4797C1.66315 14.6592 2.66617 14.4797 3.4333 14.4797H6.11971V17.006C6.11971 17.0101 6.11557 17.0135 6.11557 17.0178C6.11557 18.1281 5.71384 19.6003 7.07061 19.8685C8.59506 20.1698 10.4875 19.8685 12.0354 19.8685C13.6132 19.8685 15.4025 20.1082 16.9651 19.8685C18.3884 19.6499 17.9927 18.1003 17.9927 16.9864C17.9911 16.9749 17.9884 16.9637 17.9844 16.9528C17.9864 16.9479 17.9878 16.943 17.9887 16.9378V14.599C18.5406 14.7248 19.103 14.8001 19.6685 14.824C19.7663 14.8266 20.0001 14.7791 20.0001 14.6365V5.93096C19.9985 5.91655 19.9947 5.90245 19.9886 5.88942C19.9956 5.83823 19.9598 5.79761 19.8597 5.78887C19.85 5.78703 19.84 5.78565 19.8302 5.78489C19.2104 5.75577 18.5943 5.67315 17.9887 5.53812V0.865298C17.7178 -0.135572 16.4917 0.150128 15.6716 0.150128H10.0412C9.11296 0.150128 7.95346 -0.0448345 7.04179 0.163769C5.72487 0.465103 6.12093 1.93468 6.12093 3.00422V6.12546C4.48429 6.09634 2.68395 5.8767 1.09558 6.13113ZM6.12093 14.1717C4.6535 14.1954 3.08782 14.3568 1.65273 14.1671C0.70382 14.0418 0.581202 13.5978 0.581202 12.68V9.81795H6.12093V14.1717ZM6.12093 9.45362H0.582581V8.14375H6.12093V9.45362ZM6.12093 7.77942H0.579209C0.570932 7.05766 0.561123 6.58344 1.37914 6.44381C2.86573 6.18968 4.59357 6.42541 6.12093 6.44089V7.77942ZM17.5011 18.7732C17.2832 19.5768 17.148 19.3967 16.6085 19.4928C15.4534 19.6987 14.0808 19.4928 12.908 19.4928H8.55919C7.38727 19.4928 6.76789 19.7209 6.60987 18.3158C6.57263 17.9581 6.57263 17.5975 6.60987 17.2397C6.61324 17.2097 6.61416 17.1793 6.61248 17.149C6.83457 17.1413 7.1241 17.1899 7.28212 17.1899H17.5059C17.5773 17.7153 17.5756 18.2482 17.5011 18.7732ZM19.5102 6.10707V13.5031C19.5102 13.704 19.631 14.478 19.5102 14.6137C19.3977 14.7395 17.6116 14.1634 17.1121 14.0472C15.2856 13.6226 13.7879 13.987 12.0126 14.3485C10.8239 14.5893 11.132 14.809 10.9593 14.0766C10.9593 14.0726 10.9593 14.0676 10.957 14.0633V13.416C13.1217 13.2486 15.0204 12.5247 17.2712 13.0811C17.405 13.1147 17.6207 13.0624 17.6588 12.907L18.4554 12.1276C18.5224 12.1149 18.66 12.0422 18.66 11.9561V8.27296C18.6638 8.21119 18.6206 8.15647 18.5596 8.14574L17.6973 6.99405C17.7016 6.93198 17.6582 6.87695 17.5969 6.86669C16.4783 6.51722 15.3004 6.39798 14.1345 6.51615C13.053 6.65655 12.0504 7.01107 10.9593 7.10656V6.07657C10.9593 6.07657 10.9593 6.07227 10.9616 6.07089C10.9856 6.03733 12.1858 5.92529 12.5145 5.84451C13.9519 5.49091 15.2895 5.29779 16.7669 5.63591C17.6654 5.87731 18.5843 6.03503 19.5117 6.10707H19.5102ZM12.0937 7.30612C12.7633 7.18549 13.4049 6.9283 14.0796 6.83726C14.8081 6.73686 16.0688 6.62099 16.7378 7.01306C17.2645 7.32144 17.0695 7.49817 17.3739 7.94618C17.5531 8.20935 18.1203 8.31818 18.1712 8.40033C18.2716 8.56065 18.1712 9.07825 18.1712 9.27552C18.1712 9.86378 18.4641 11.376 18.1712 11.8775C18.0121 12.1497 17.5016 12.1989 17.256 12.7145C16.2102 12.4921 15.1364 12.4319 14.0723 12.5361C13.0095 12.6385 12.0193 13.0011 10.9582 13.098V12.0875C10.9582 12.0818 10.9582 12.0753 10.9582 12.0697V12.0559C11.7764 11.957 12.4399 11.3468 12.607 10.5399C12.6807 10.0498 12.5438 9.55156 12.2304 9.16792C11.9168 8.78443 11.4557 8.55115 10.961 8.52586V7.61113C10.961 7.59933 10.9593 7.57956 10.9587 7.56515V7.30137C11.3365 7.33984 11.7172 7.34137 12.0953 7.30612H12.0937ZM10.9553 7.28589L10.9573 7.28328C10.9587 7.28328 10.9599 7.28435 10.9587 7.28589H10.9553ZM10.9576 11.856V8.81585C11.3831 8.93219 11.7422 9.21804 11.951 9.60659C12.1599 9.99498 12.2002 10.4522 12.0625 10.8712C11.9649 11.1772 11.7724 11.444 11.5131 11.6333C11.4033 11.7093 11.0235 11.9167 10.961 11.856H10.9576ZM6.60589 0.934271C6.80407 0.302021 6.96883 0.45652 7.41946 0.370687C8.4614 0.172813 9.73173 0.370687 10.7915 0.370687H14.9458C15.651 0.370687 17.2416 0.026897 17.5052 0.99512V2.82872H8.05937C7.96587 2.82872 7.86839 2.83347 7.76907 2.83868H6.99888C6.96546 2.8347 6.9319 2.8347 6.90247 2.82872C6.81096 2.80343 6.71532 2.79607 6.62091 2.80726C6.62811 2.77523 6.62336 2.74166 6.60757 2.71285C6.50519 2.12443 6.50457 1.52284 6.60589 0.934271ZM6.60589 15.1816V3.04943H17.4013C17.6628 3.24455 17.55 4.62615 17.5146 5.44064C16.7413 5.25273 15.9509 5.14421 15.1557 5.11723C13.7055 5.11187 12.3843 5.63253 10.9587 5.75914V5.55283C10.9587 5.45045 10.4737 5.52647 10.4737 5.68281V5.96176C10.4737 5.96376 10.4714 5.96544 10.4714 5.96774V14.6733C10.4714 14.6767 10.4734 14.6784 10.4737 14.6816V15.058C10.4737 15.1604 10.9587 15.0844 10.9587 14.9281V14.7965C12.5496 14.6493 14.024 14.0489 15.6572 14.1784C16.2798 14.2417 16.8972 14.3478 17.5052 14.4958V16.8142H6.52588C6.48158 16.4847 6.60589 15.3874 6.60589 15.1816Z" fill="#262626"/>
<path d="M2.26443 12.8359C2.27485 12.8359 2.28481 12.8336 2.29523 12.8336C2.30627 12.8358 2.31746 12.8373 2.32865 12.8384C2.87844 12.8384 3.67867 12.991 4.17022 12.6897C4.49699 12.4951 4.65303 12.1059 4.55125 11.7394C4.44948 11.3731 4.11519 11.12 3.73492 11.1216C3.22943 11.0882 2.45065 10.9948 1.97444 11.2077C1.60673 11.3595 1.39415 11.7469 1.46388 12.1385C1.53378 12.5303 1.86684 12.8205 2.26443 12.8359ZM2.32696 11.4989C2.43211 11.485 2.53848 11.485 2.64347 11.4989C3.0055 11.4592 3.37105 11.4652 3.7317 11.5167C3.9564 11.5681 4.11289 11.7718 4.10477 12.0021C4.09665 12.2325 3.9259 12.4247 3.69814 12.46C3.57889 12.4713 3.45888 12.4713 3.33948 12.46H2.41709C2.16848 12.4575 1.96202 12.2676 1.93872 12.0201C1.91558 11.7725 2.08326 11.5475 2.32696 11.4989Z" fill="#262626"/>
<path d="M12.8166 18.1924H11.4772C11.3799 18.1924 11.2004 18.2229 11.1582 18.3294C11.119 18.4298 11.1917 18.4897 11.2945 18.4897H12.6338C12.7311 18.4897 12.9106 18.4594 12.9529 18.3529C12.9931 18.2534 12.919 18.1924 12.8166 18.1924Z" fill="#262626"/>
<path d="M10.6158 1.71917H11.6202C11.7109 1.71917 11.8941 1.68407 11.9427 1.59425C11.9913 1.50459 11.8998 1.48145 11.8191 1.48145H10.8146C10.7239 1.48145 10.5407 1.5167 10.4921 1.60636C10.4437 1.69603 10.5361 1.71917 10.6158 1.71917Z" fill="#262626"/>
<path d="M12.9676 1.74465H13.3024C13.4247 1.75461 13.5441 1.70388 13.6218 1.60916C13.6751 1.51168 13.576 1.45542 13.488 1.45542H13.1531C13.0311 1.44516 12.9118 1.49512 12.8337 1.58938C12.7794 1.68809 12.8789 1.74465 12.9676 1.74465Z" fill="#262626"/>
<path d="M9.94937 4.40641H10.2843C10.4049 4.41331 10.5226 4.36656 10.6057 4.27889C10.6642 4.18509 10.5551 4.15198 10.4785 4.15198H10.1436C10.0228 4.14539 9.90523 4.19229 9.82215 4.28027C9.7636 4.3733 9.87273 4.40641 9.94937 4.40641Z" fill="#262626"/>
<path d="M7.94808 8.27722V7.94232C7.94808 7.69218 7.45731 7.76728 7.45731 7.98125V8.316C7.45731 8.56614 7.94808 8.49119 7.94808 8.27722Z" fill="#262626"/>
<path d="M7.94717 6.59848V5.07495C7.93261 4.9134 7.93261 4.75093 7.94717 4.58954C7.98595 4.3886 8.03622 4.4378 8.23839 4.4378H8.61881C8.83002 4.4378 9.12108 4.11838 8.79553 4.11838C8.49435 4.08711 8.19011 4.09707 7.89153 4.14811C7.4898 4.26705 7.45624 4.58816 7.45624 4.94636V6.64538C7.45823 6.87774 7.94717 6.79099 7.94717 6.59848Z" fill="#262626"/>
</g>
<defs>
<clipPath id="clip0_184_308">
<rect width="20" height="20" fill="white"/>
</clipPath>
</defs>
</svg>
