<svg width="20" height="20" viewBox="0 0 20 20" fill="none" xmlns="http://www.w3.org/2000/svg">
<g clip-path="url(#clip0_184_235)">
<path d="M3.55101 18.823C3.51473 18.823 3.47946 18.8111 3.45056 18.7891C3.42165 18.7672 3.40069 18.7365 3.39085 18.7016C3.381 18.6666 3.38282 18.6295 3.39603 18.5957C3.40923 18.5619 3.4331 18.5333 3.46401 18.5143L9.14601 15.0237L2.60434 18.7997C2.5665 18.8199 2.52232 18.8248 2.48099 18.8132C2.43966 18.8017 2.40437 18.7747 2.38247 18.7378C2.36056 18.7009 2.35373 18.657 2.36339 18.6152C2.37305 18.5733 2.39847 18.5369 2.43434 18.5133L7.67934 15.3153L1.64401 18.7997C1.60619 18.8202 1.56191 18.8253 1.52043 18.8139C1.47895 18.8025 1.44348 18.7755 1.42144 18.7386C1.3994 18.7016 1.39249 18.6576 1.40216 18.6157C1.41183 18.5738 1.43734 18.5372 1.47334 18.5137L9.01401 13.8857L0.833339 18.609C0.795524 18.6295 0.751247 18.6346 0.709766 18.6232C0.668285 18.6118 0.632814 18.5848 0.610771 18.5479C0.588729 18.511 0.581821 18.4669 0.591494 18.425C0.601167 18.3831 0.626671 18.3466 0.662672 18.323L9.26267 13.0363L0.474339 18.11C0.436427 18.1306 0.391997 18.1357 0.350396 18.1243C0.308795 18.1128 0.273267 18.0856 0.251286 18.0485C0.229306 18.0113 0.222588 17.9671 0.232545 17.9251C0.242501 17.8831 0.268357 17.8467 0.304672 17.8233L5.35467 14.7707L0.426672 17.616C0.388786 17.637 0.344236 17.6423 0.302451 17.631C0.260666 17.6197 0.224925 17.5926 0.202792 17.5554C0.180659 17.5182 0.173872 17.4738 0.183866 17.4317C0.19386 17.3896 0.219851 17.353 0.256339 17.3297L9.23134 11.8133L0.426339 16.897C0.388564 16.9169 0.34459 16.9216 0.303487 16.91C0.262384 16.8984 0.227288 16.8715 0.205439 16.8348C0.18359 16.7982 0.176654 16.7545 0.186063 16.7128C0.195472 16.6712 0.220508 16.6347 0.256005 16.611L8.84001 11.347L0.426339 16.2043C0.388564 16.2242 0.34459 16.2289 0.303487 16.2173C0.262384 16.2058 0.227288 16.1789 0.205439 16.1422C0.18359 16.1055 0.176654 16.0618 0.186063 16.0202C0.195472 15.9785 0.220508 15.9421 0.256005 15.9183L9.17467 10.4387L0.426005 15.4897C0.388015 15.5108 0.343258 15.5163 0.301286 15.5049C0.259314 15.4936 0.223452 15.4662 0.201354 15.4288C0.179256 15.3913 0.172672 15.3467 0.183007 15.3045C0.193342 15.2622 0.219778 15.2257 0.256672 15.2027L5.81434 11.8383L0.426005 14.9493C0.388015 14.9705 0.343258 14.976 0.301286 14.9646C0.259314 14.9532 0.223452 14.9259 0.201354 14.8884C0.179256 14.851 0.172672 14.8064 0.183007 14.7641C0.193342 14.7219 0.219778 14.6854 0.256672 14.6623L5.18167 11.6873L0.426005 14.433C0.388015 14.4542 0.343258 14.4596 0.301286 14.4483C0.259314 14.4369 0.223452 14.4096 0.201354 14.3721C0.179256 14.3346 0.172672 14.29 0.183007 14.2478C0.193342 14.2056 0.219778 14.169 0.256672 14.146L4.68501 11.473L0.425672 13.933C0.387778 13.9527 0.343757 13.9571 0.302699 13.9454C0.261641 13.9336 0.22668 13.9064 0.205036 13.8696C0.183391 13.8328 0.176715 13.789 0.186386 13.7474C0.196057 13.7058 0.221337 13.6695 0.257005 13.646L1.80267 12.718L0.425672 13.5117C0.387831 13.5319 0.343649 13.5368 0.302321 13.5252C0.260993 13.5137 0.225704 13.4867 0.2038 13.4498C0.181896 13.4129 0.175064 13.369 0.184726 13.3272C0.194388 13.2853 0.2198 13.2489 0.255672 13.2253L6.23334 9.57467L0.425672 12.9273C0.387761 12.948 0.34333 12.9531 0.301729 12.9416C0.260128 12.9301 0.2246 12.903 0.20262 12.8658C0.18064 12.8287 0.173921 12.7845 0.183878 12.7425C0.193835 12.7005 0.219691 12.664 0.256005 12.6407L3.71267 10.5443L0.425339 12.442C0.387627 12.4616 0.343836 12.4661 0.302927 12.4545C0.262019 12.443 0.227086 12.4162 0.205279 12.3797C0.183473 12.3432 0.176441 12.2997 0.185623 12.2582C0.194805 12.2167 0.219506 12.1802 0.254672 12.1563L6.44967 8.32501L0.425339 11.8027C0.387681 11.8228 0.343736 11.8277 0.302567 11.8164C0.261399 11.8051 0.226147 11.7784 0.204085 11.7418C0.182023 11.7052 0.174832 11.6616 0.183997 11.6199C0.193162 11.5782 0.217982 11.5416 0.253339 11.5177L7.14934 7.17634L0.425339 11.0583C0.38728 11.0808 0.341843 11.0873 0.299022 11.0763C0.256201 11.0653 0.219505 11.0377 0.197005 10.9997C0.174506 10.9616 0.168047 10.9162 0.179049 10.8734C0.190051 10.8305 0.217613 10.7938 0.255672 10.7713L1.04767 10.2903L0.425005 10.6497C0.387717 10.6678 0.345032 10.6713 0.305277 10.6596C0.265522 10.6479 0.231548 10.6218 0.209984 10.5864C0.18842 10.551 0.180811 10.5089 0.188641 10.4682C0.196472 10.4275 0.219181 10.3912 0.252339 10.3663L6.08901 6.64867L0.425005 9.91734C0.387498 9.93655 0.344105 9.94085 0.303561 9.92935C0.263017 9.91786 0.228332 9.89143 0.206489 9.85539C0.184645 9.81935 0.177266 9.77638 0.185835 9.73511C0.194404 9.69385 0.218285 9.65737 0.252672 9.63301L4.73834 6.78534L0.424672 9.27501C0.387161 9.29488 0.343482 9.29969 0.302547 9.28845C0.261612 9.27722 0.226505 9.25079 0.204391 9.21456C0.182277 9.17832 0.174821 9.13502 0.183546 9.09347C0.19227 9.05193 0.216517 9.01528 0.251339 8.99101L4.54634 6.22201L0.424672 8.60167C0.387069 8.62236 0.342937 8.62773 0.301467 8.61669C0.259997 8.60565 0.224385 8.57903 0.202047 8.54239C0.179709 8.50575 0.172366 8.4619 0.181548 8.41998C0.19073 8.37806 0.215729 8.34129 0.251339 8.31734L3.45434 6.25467L0.424672 8.00367C0.387271 8.02464 0.343229 8.03039 0.301701 8.01972C0.260173 8.00905 0.224354 7.98278 0.201691 7.94639C0.179028 7.90999 0.171265 7.86626 0.180015 7.82428C0.188764 7.78231 0.213354 7.74532 0.248672 7.72101L3.85334 5.30401L0.424339 7.28367C0.387106 7.3047 0.343218 7.31061 0.301751 7.30018C0.260284 7.28975 0.22441 7.26379 0.201549 7.22766C0.178687 7.19152 0.170587 7.14799 0.178924 7.10605C0.187261 7.06411 0.211396 7.02698 0.246339 7.00234L3.30867 4.88867L0.424339 6.55367C0.386796 6.57405 0.342863 6.57924 0.301609 6.56816C0.260354 6.55708 0.224928 6.53059 0.202643 6.49414C0.180358 6.4577 0.172917 6.41409 0.181854 6.37232C0.190792 6.33055 0.215426 6.29381 0.250672 6.26967L0.406672 6.16967C0.368398 6.18645 0.325219 6.18824 0.28569 6.17468C0.246162 6.16112 0.213169 6.13321 0.193249 6.09647C0.173329 6.05974 0.167937 6.01686 0.17814 5.97633C0.188344 5.93581 0.213398 5.9006 0.248339 5.87767L1.04267 5.34634L0.424005 5.70267C0.386634 5.72308 0.34287 5.7284 0.301694 5.71756C0.260519 5.70672 0.225055 5.68053 0.202581 5.64436C0.180106 5.6082 0.172325 5.5648 0.180834 5.52308C0.189343 5.48136 0.213496 5.44448 0.248339 5.42001L0.381672 5.33067C0.344409 5.34011 0.30503 5.33638 0.270205 5.32011C0.23538 5.30383 0.20725 5.27603 0.190579 5.24139C0.173908 5.20675 0.169722 5.16742 0.17873 5.13005C0.187737 5.09268 0.209385 5.05958 0.240005 5.03634L1.39101 4.16634L0.424339 4.72467C0.387872 4.74492 0.34514 4.75075 0.304582 4.74102C0.264024 4.73129 0.228587 4.70671 0.205268 4.67213C0.18195 4.63755 0.172444 4.59549 0.178628 4.55424C0.184812 4.51299 0.206237 4.47556 0.238672 4.44934L0.800005 4.00967L0.423339 4.22701C0.388481 4.24712 0.347524 4.25394 0.308031 4.2462C0.268538 4.23847 0.233176 4.21671 0.208475 4.18494C0.183774 4.15317 0.171402 4.11354 0.173644 4.07336C0.175886 4.03318 0.19259 3.99517 0.220672 3.96634L0.754005 3.41334L0.422672 3.60434C0.390415 3.62269 0.352955 3.62976 0.31623 3.62441C0.279505 3.61906 0.245616 3.6016 0.219934 3.57481C0.194252 3.54802 0.178247 3.51342 0.174456 3.47651C0.170665 3.43959 0.179305 3.40246 0.199005 3.37101L0.394005 3.06301C0.362835 3.05365 0.335087 3.03537 0.314186 3.01042C0.293285 2.98547 0.280145 2.95495 0.276388 2.92262C0.27263 2.8903 0.27842 2.85758 0.293042 2.8285C0.307665 2.79943 0.33048 2.77527 0.358672 2.75901L0.754339 2.53301C0.7866 2.5145 0.824126 2.50731 0.860943 2.51259C0.89776 2.51787 0.931753 2.53532 0.957511 2.56215C0.983269 2.58898 0.999312 2.62366 1.00309 2.66066C1.00686 2.69766 0.998149 2.73486 0.978339 2.76634L0.845005 2.97801L1.61601 2.53301C1.65079 2.51316 1.69155 2.50651 1.73084 2.51425C1.77013 2.522 1.80532 2.54364 1.82996 2.5752C1.85461 2.60677 1.86706 2.64615 1.86505 2.68615C1.86304 2.72614 1.84669 2.76408 1.81901 2.79301L1.28567 3.34634L2.69367 2.53301C2.73015 2.51239 2.77306 2.50628 2.81385 2.51588C2.85464 2.52548 2.89031 2.5501 2.91376 2.58482C2.93722 2.61954 2.94674 2.66182 2.94042 2.70324C2.9341 2.74467 2.91241 2.78219 2.87967 2.80834L2.31867 3.24567L3.55601 2.53301C3.5927 2.51212 3.63594 2.50594 3.67702 2.51571C3.71809 2.52548 3.75392 2.55047 3.77728 2.58563C3.80064 2.6208 3.80978 2.66352 3.80287 2.70517C3.79595 2.74681 3.77348 2.78428 3.74001 2.81001L2.58867 3.67901L4.57634 2.53301C4.61371 2.5126 4.65747 2.50728 4.69865 2.51812C4.73983 2.52896 4.77529 2.55515 4.79776 2.59132C4.82024 2.62748 4.82802 2.67088 4.81951 2.7126C4.811 2.75432 4.78685 2.7912 4.75201 2.81567L4.69901 2.85134L5.25101 2.53301C5.28841 2.51204 5.33245 2.5063 5.37398 2.51696C5.4155 2.52763 5.45132 2.5539 5.47399 2.5903C5.49665 2.62669 5.50441 2.67043 5.49566 2.7124C5.48691 2.75437 5.46232 2.79136 5.42701 2.81567L4.63201 3.34901L6.043 2.53301C6.08055 2.51263 6.12448 2.50744 6.16574 2.51852C6.20699 2.5296 6.24242 2.5561 6.2647 2.59254C6.28699 2.62898 6.29443 2.67259 6.28549 2.71436C6.27655 2.75613 6.25192 2.79287 6.21667 2.81701L6.08067 2.90501L6.72534 2.53301C6.76249 2.51272 6.80598 2.50733 6.84696 2.51793C6.88795 2.52853 6.92336 2.55433 6.94602 2.5901C6.96867 2.62586 6.97687 2.6689 6.96894 2.71049C6.96101 2.75207 6.93756 2.78908 6.90334 2.81401L3.84101 4.92767L7.99001 2.53101C8.02732 2.51083 8.07093 2.50564 8.11194 2.5165C8.15295 2.52736 8.18827 2.55345 8.21071 2.58945C8.23316 2.62545 8.24103 2.66865 8.23272 2.71025C8.22441 2.75185 8.20055 2.78872 8.16601 2.81334L4.56001 5.23301L9.23801 2.53301C9.27552 2.51314 9.3192 2.50833 9.36013 2.51956C9.40107 2.5308 9.43617 2.55723 9.45829 2.59346C9.4804 2.62969 9.48786 2.673 9.47913 2.71454C9.47041 2.75608 9.44616 2.79273 9.41134 2.81701L6.21134 4.87801L10.2737 2.53067C10.3112 2.5103 10.3551 2.50511 10.3964 2.51619C10.4377 2.52727 10.4731 2.55376 10.4954 2.59021C10.5177 2.62665 10.5251 2.67026 10.5162 2.71203C10.5072 2.7538 10.4826 2.79054 10.4473 2.81467L6.151 5.58434L11.441 2.53034C11.4786 2.50995 11.5227 2.50481 11.564 2.516C11.6053 2.52719 11.6407 2.55384 11.6629 2.59044C11.6851 2.62703 11.6924 2.67077 11.6832 2.71257C11.674 2.75438 11.6491 2.79106 11.6137 2.81501L7.13067 5.66101L12.5533 2.53034C12.591 2.50929 12.6354 2.50366 12.6771 2.51465C12.7188 2.52564 12.7547 2.55239 12.7771 2.58926C12.7995 2.62614 12.8067 2.67027 12.7973 2.71238C12.7878 2.75448 12.7624 2.79127 12.7263 2.81501L6.88767 6.53301L13.823 2.53001C13.861 2.50837 13.9059 2.50251 13.9482 2.5137C13.9904 2.52488 14.0266 2.55221 14.0489 2.5898C14.0712 2.62739 14.0778 2.67223 14.0674 2.71467C14.0569 2.7571 14.0302 2.79373 13.993 2.81667L13.2 3.29967L14.5333 2.53134C14.571 2.51121 14.6149 2.50631 14.6561 2.51764C14.6973 2.52896 14.7325 2.55566 14.7546 2.59221C14.7767 2.62877 14.7838 2.6724 14.7747 2.7141C14.7655 2.75581 14.7407 2.7924 14.7053 2.81634L7.80901 7.15534L15.8207 2.52967C15.8584 2.50951 15.9025 2.50464 15.9437 2.51608C15.985 2.52751 16.0202 2.55436 16.0422 2.59108C16.0642 2.6278 16.0712 2.67157 16.0618 2.71332C16.0524 2.75506 16.0273 2.79159 15.9917 2.81534L9.79167 6.64867L16.9283 2.52967C16.9663 2.50804 17.0113 2.50218 17.0535 2.51336C17.0958 2.52455 17.1319 2.55188 17.1542 2.58947C17.1765 2.62706 17.1831 2.6719 17.1727 2.71433C17.1622 2.75677 17.1355 2.7934 17.0983 2.81634L13.6527 4.90601L17.7693 2.52934C17.8072 2.50912 17.8514 2.50426 17.8927 2.51579C17.934 2.52733 17.9693 2.55435 17.9912 2.59124C18.0131 2.62814 18.0199 2.67206 18.0103 2.71386C18.0006 2.75567 17.9752 2.79213 17.9393 2.81567L11.9583 6.46867L18.7817 2.52934C18.8196 2.50902 18.8639 2.50416 18.9054 2.51578C18.9468 2.5274 18.9822 2.5546 19.004 2.59169C19.0258 2.62877 19.0325 2.67287 19.0225 2.71474C19.0126 2.75662 18.9868 2.79302 18.9507 2.81634L17.4 3.74767L19.341 2.62634C19.3789 2.60572 19.4233 2.60062 19.4649 2.61209C19.5065 2.62357 19.5421 2.65073 19.5641 2.68787C19.586 2.725 19.5928 2.76922 19.5828 2.81121C19.5728 2.8532 19.547 2.88969 19.5107 2.91301L15.0913 5.57967L19.5733 2.99301C19.6114 2.97051 19.6568 2.96405 19.6997 2.97505C19.7425 2.98605 19.7792 3.01362 19.8017 3.05167C19.8242 3.08973 19.8306 3.13517 19.8196 3.17799C19.8086 3.22081 19.7811 3.25751 19.743 3.28001L14.8173 6.25567L19.5733 3.50967C19.6114 3.48717 19.6568 3.48072 19.6997 3.49172C19.7425 3.50272 19.7792 3.53028 19.8017 3.56834C19.8242 3.6064 19.8306 3.65184 19.8196 3.69466C19.8086 3.73748 19.7811 3.77417 19.743 3.79667L14.1763 7.16634L19.5733 4.05034C19.6112 4.02939 19.6558 4.02401 19.6976 4.03533C19.7393 4.04665 19.7751 4.07378 19.7972 4.11099C19.8194 4.1482 19.8261 4.19255 19.8161 4.23467C19.8062 4.2768 19.7802 4.31338 19.7437 4.33667L10.8273 9.81434L19.5733 4.76634C19.6111 4.74643 19.6551 4.74178 19.6962 4.75335C19.7373 4.76492 19.7724 4.79182 19.7942 4.8285C19.8161 4.86519 19.823 4.90886 19.8136 4.95051C19.8042 4.99216 19.7792 5.02861 19.7437 5.05234L11.1597 10.3153L19.5733 5.45801C19.6111 5.4381 19.6551 5.43345 19.6962 5.44502C19.7373 5.45658 19.7724 5.48348 19.7942 5.52017C19.8161 5.55685 19.823 5.60053 19.8136 5.64218C19.8042 5.68383 19.7792 5.72028 19.7437 5.74401L10.7667 11.2613L19.5733 6.17701C19.6114 6.15451 19.6568 6.14805 19.6997 6.15905C19.7425 6.17005 19.7792 6.19762 19.8017 6.23567C19.8242 6.27373 19.8306 6.31917 19.8196 6.36199C19.8086 6.40481 19.7811 6.44151 19.743 6.46401L14.6867 9.52034L19.5733 6.69967C19.6111 6.67977 19.6551 6.67512 19.6962 6.68668C19.7373 6.69825 19.7724 6.72515 19.7942 6.76184C19.8161 6.79852 19.823 6.84219 19.8136 6.88384C19.8042 6.92549 19.7792 6.96194 19.7437 6.98567L11.1463 12.2697L19.5733 7.40301C19.6111 7.3831 19.6551 7.37845 19.6962 7.39002C19.7373 7.40158 19.7724 7.42848 19.7942 7.46517C19.8161 7.50185 19.823 7.54553 19.8136 7.58718C19.8042 7.62883 19.7792 7.66528 19.7437 7.68901L12.2 12.3203L19.5733 8.06434C19.6113 8.0427 19.6563 8.03685 19.6985 8.04803C19.7408 8.05921 19.7769 8.08654 19.7992 8.12413C19.8215 8.16172 19.8281 8.20657 19.8177 8.249C19.8072 8.29144 19.7805 8.32807 19.7433 8.35101L14.4963 11.551L19.5733 8.61901C19.6112 8.59806 19.6558 8.59268 19.6976 8.604C19.7393 8.61532 19.7751 8.64245 19.7972 8.67966C19.8194 8.71686 19.8261 8.76122 19.8161 8.80334C19.8062 8.84546 19.7802 8.88204 19.7437 8.90534L14.0667 12.3933L19.5733 9.21367C19.6111 9.19377 19.6551 9.18912 19.6962 9.20068C19.7373 9.21225 19.7724 9.23915 19.7942 9.27584C19.8161 9.31252 19.823 9.35619 19.8136 9.39784C19.8042 9.43949 19.7792 9.47594 19.7437 9.49967L14.7487 12.574L19.5733 9.78834C19.6112 9.76739 19.6558 9.76201 19.6976 9.77333C19.7393 9.78465 19.7751 9.81179 19.7972 9.84899C19.8194 9.8862 19.8261 9.93055 19.8161 9.97268C19.8062 10.0148 19.7802 10.0514 19.7437 10.0747L16.2367 12.2253L19.5733 10.2997C19.6111 10.2789 19.6555 10.2735 19.6972 10.2848C19.7388 10.296 19.7745 10.3229 19.7967 10.3599C19.8189 10.3969 19.8258 10.4411 19.8161 10.4831C19.8064 10.5252 19.7808 10.5618 19.7447 10.5853L14.7333 13.715L19.5733 10.921C19.6112 10.9001 19.6558 10.8947 19.6976 10.906C19.7393 10.9173 19.7751 10.9445 19.7972 10.9817C19.8194 11.0189 19.8261 11.0632 19.8161 11.1053C19.8062 11.1475 19.7802 11.184 19.7437 11.2073L18.212 12.1457L19.5733 11.36C19.6109 11.3393 19.6551 11.3339 19.6965 11.345C19.738 11.356 19.7736 11.3826 19.796 11.4193C19.8183 11.4559 19.8256 11.4998 19.8165 11.5417C19.8073 11.5836 19.7823 11.6204 19.7467 11.6443L14.4133 15.0797L19.5733 12.0997C19.6108 12.0798 19.6545 12.075 19.6955 12.0862C19.7364 12.0975 19.7715 12.1239 19.7936 12.1601C19.8157 12.1964 19.8232 12.2397 19.8145 12.2812C19.8057 12.3228 19.7815 12.3594 19.7467 12.3837L15.5713 15.0733L19.5733 12.7627C19.6111 12.7425 19.6551 12.7376 19.6964 12.7491C19.7376 12.7605 19.7729 12.7874 19.7949 12.8241C19.8168 12.8608 19.8239 12.9046 19.8145 12.9463C19.805 12.9881 19.7799 13.0246 19.7443 13.0483L19.5793 13.1507C19.6172 13.1323 19.6607 13.1289 19.7009 13.1412C19.7412 13.1535 19.7753 13.1806 19.7965 13.217C19.8176 13.2534 19.8241 13.2965 19.8147 13.3376C19.8054 13.3786 19.7808 13.4146 19.746 13.4383L17.0237 15.1997L19.5733 13.728C19.6107 13.707 19.6548 13.7013 19.6963 13.712C19.7378 13.7226 19.7737 13.7489 19.7963 13.7853C19.819 13.8217 19.8267 13.8654 19.818 13.9074C19.8092 13.9494 19.7847 13.9864 19.7493 14.0107L16.7933 15.9873L19.5733 14.3823C19.6105 14.3609 19.6544 14.3547 19.696 14.3648C19.7377 14.3749 19.7738 14.4007 19.7969 14.4368C19.82 14.4729 19.8284 14.5165 19.8202 14.5585C19.812 14.6006 19.788 14.6379 19.753 14.6627L16.8667 16.7057L19.574 15.1427C19.6112 15.1216 19.655 15.1156 19.6964 15.1259C19.7379 15.1362 19.7738 15.162 19.7968 15.198C19.8197 15.234 19.828 15.2775 19.8199 15.3194C19.8117 15.3613 19.7878 15.3985 19.753 15.4233L18.0647 16.6053L19.5733 15.733C19.6106 15.7117 19.6547 15.7056 19.6964 15.716C19.7381 15.7264 19.7741 15.7525 19.797 15.7888C19.8199 15.8251 19.8279 15.8689 19.8194 15.911C19.8108 15.9531 19.7863 15.9902 19.751 16.0147L19.1683 16.4147L19.5733 16.1813C19.6097 16.1611 19.6523 16.1551 19.6928 16.1647C19.7334 16.1742 19.7688 16.1986 19.7923 16.233C19.8157 16.2674 19.8254 16.3093 19.8195 16.3505C19.8136 16.3917 19.7925 16.4293 19.7603 16.4557L18.5797 17.3997L19.5733 16.826C19.6094 16.8054 19.6518 16.799 19.6924 16.8081C19.7329 16.8171 19.7686 16.841 19.7924 16.875C19.8163 16.909 19.8266 16.9506 19.8214 16.9918C19.8161 17.033 19.7956 17.0708 19.764 17.0977L19.2 17.5727L19.572 17.3577C19.6075 17.3371 19.6494 17.3303 19.6896 17.3386C19.7298 17.347 19.7655 17.3698 19.7898 17.4029C19.8142 17.4359 19.8255 17.4768 19.8216 17.5177C19.8177 17.5585 19.7989 17.5965 19.7687 17.6243L19.5793 17.7993C19.6179 17.7926 19.6576 17.7997 19.6914 17.8192C19.7253 17.8388 19.7512 17.8697 19.7646 17.9065C19.778 17.9432 19.778 17.9835 19.7647 18.0203C19.7514 18.0571 19.7255 18.088 19.6917 18.1077L18.4917 18.8003C18.4562 18.8207 18.4144 18.8272 18.3744 18.8188C18.3344 18.8103 18.2989 18.7875 18.2746 18.7545C18.2504 18.7216 18.2391 18.6809 18.2429 18.6402C18.2467 18.5994 18.2654 18.5615 18.2953 18.5337L18.4513 18.389L17.7407 18.7997C17.7047 18.8202 17.6623 18.8266 17.6218 18.8175C17.5814 18.8085 17.5457 18.7847 17.5219 18.7508C17.498 18.7169 17.4876 18.6753 17.4928 18.6342C17.4979 18.5931 17.5182 18.5553 17.5497 18.5283L18.113 18.0533L16.8197 18.7997C16.7833 18.8203 16.7405 18.8265 16.6998 18.8171C16.659 18.8077 16.6233 18.7833 16.5997 18.7487C16.5762 18.7142 16.5664 18.6721 16.5725 18.6307C16.5785 18.5893 16.5999 18.5517 16.6323 18.5253L17.813 17.584L15.7067 18.7997C15.6695 18.8202 15.6258 18.8257 15.5847 18.8151C15.5436 18.8045 15.508 18.7786 15.4853 18.7427C15.4627 18.7068 15.4546 18.6635 15.4627 18.6218C15.4708 18.5802 15.4945 18.5431 15.529 18.5183L16.1113 18.1183L14.9287 18.7997C14.8916 18.82 14.8482 18.8255 14.8072 18.8151C14.7662 18.8046 14.7307 18.7789 14.708 18.7433C14.6852 18.7076 14.6768 18.6647 14.6846 18.6231C14.6923 18.5815 14.7156 18.5444 14.7497 18.5193L16.437 17.3377L13.9037 18.7997C13.8666 18.8203 13.8231 18.826 13.782 18.8157C13.7408 18.8054 13.7052 18.7798 13.6823 18.7441C13.6594 18.7084 13.651 18.6653 13.6587 18.6236C13.6665 18.5819 13.6898 18.5448 13.724 18.5197L16.612 16.476L12.587 18.7997C12.5496 18.8214 12.5052 18.8277 12.4632 18.8172C12.4212 18.8068 12.3849 18.7804 12.362 18.7437C12.3391 18.707 12.3314 18.6628 12.3405 18.6205C12.3496 18.5782 12.3747 18.5411 12.4107 18.517L15.3667 16.5417L11.4523 18.7997C11.4148 18.8201 11.3709 18.8252 11.3296 18.8142C11.2884 18.8031 11.2529 18.7766 11.2306 18.7401C11.2084 18.7037 11.2009 18.6601 11.2099 18.6183C11.2188 18.5766 11.2434 18.5398 11.2787 18.5157L14.003 16.7547L10.46 18.7997C10.4222 18.8205 10.3778 18.8258 10.3362 18.8146C10.2945 18.8034 10.2589 18.7764 10.2367 18.7394C10.2145 18.7024 10.2075 18.6583 10.2172 18.6162C10.2269 18.5742 10.2525 18.5375 10.2887 18.514L10.4513 18.414L9.78167 18.7997C9.74413 18.8201 9.7002 18.8252 9.65894 18.8142C9.61769 18.8031 9.58226 18.7766 9.55998 18.7401C9.53769 18.7037 9.53025 18.6601 9.53919 18.6183C9.54813 18.5766 9.57276 18.5398 9.60801 18.5157L13.7827 15.8277L8.63334 18.7997C8.59583 18.8195 8.55215 18.8244 8.51121 18.8131C8.47028 18.8019 8.43517 18.7755 8.41306 18.7392C8.39094 18.703 8.38349 18.6597 8.39221 18.6181C8.40094 18.5766 8.42518 18.54 8.46 18.5157L13.7933 15.0797L7.35234 18.7997C7.31437 18.8223 7.26896 18.8289 7.22611 18.8181C7.18326 18.8072 7.14647 18.7798 7.12384 18.7418C7.10121 18.7039 7.09459 18.6585 7.10543 18.6156C7.11628 18.5728 7.1437 18.536 7.18167 18.5133L8.71501 17.5737L6.59134 18.7997C6.55365 18.8196 6.50979 18.8242 6.46875 18.8128C6.42772 18.8013 6.39263 18.7746 6.3707 18.7381C6.34877 18.7015 6.34166 18.658 6.35083 18.6164C6.36 18.5748 6.38475 18.5383 6.42001 18.5143L11.4333 15.3837L5.51434 18.7997C5.47652 18.8202 5.43225 18.8253 5.39077 18.8139C5.34929 18.8025 5.31381 18.7755 5.29177 18.7386C5.26973 18.7016 5.26282 18.6576 5.27249 18.6157C5.28217 18.5738 5.30767 18.5372 5.34367 18.5137L8.84834 16.3663L4.63001 18.7997C4.59219 18.8202 4.54791 18.8253 4.50643 18.8139C4.46495 18.8025 4.42948 18.7755 4.40744 18.7386C4.3854 18.7016 4.37849 18.6576 4.38816 18.6157C4.39783 18.5738 4.42334 18.5372 4.45934 18.5137L9.45167 15.4413L3.63334 18.7997C3.60839 18.8145 3.58001 18.8225 3.55101 18.823Z" fill="#D4E6E7"/>
<path d="M3.98733 19.8234C3.95098 19.8234 3.91563 19.8115 3.88667 19.7895C3.85771 19.7676 3.83672 19.7367 3.8269 19.7017C3.81709 19.6667 3.81898 19.6295 3.8323 19.5957C3.84562 19.5618 3.86962 19.5333 3.90067 19.5144L5.20633 18.7197L3.342 19.7961C3.30403 19.8177 3.25908 19.8235 3.21683 19.8124C3.17458 19.8012 3.13842 19.7739 3.11613 19.7363C3.09384 19.6987 3.0872 19.6538 3.09765 19.6114C3.1081 19.569 3.1348 19.5323 3.172 19.5094L6.11667 17.7094L2.83 19.6077C2.79221 19.6285 2.74782 19.6339 2.70617 19.6226C2.66452 19.6114 2.62885 19.5845 2.60666 19.5475C2.58447 19.5105 2.57749 19.4663 2.58719 19.4243C2.59689 19.3822 2.62251 19.3456 2.65867 19.3221L9.1 15.3117L2.48167 19.1334C2.44378 19.1543 2.39923 19.1597 2.35744 19.1484C2.31566 19.1371 2.27992 19.1099 2.25779 19.0727C2.23565 19.0355 2.22887 18.9912 2.23886 18.9491C2.24885 18.9069 2.27484 18.8704 2.31133 18.8471L7.38167 15.7267L2.42667 18.5857C2.38861 18.6082 2.34317 18.6147 2.30035 18.6037C2.25753 18.5927 2.22083 18.5651 2.19833 18.5271C2.17583 18.489 2.16937 18.4436 2.18038 18.4007C2.19138 18.3579 2.21894 18.3212 2.257 18.2987L3.21933 17.7171L2.42667 18.1744C2.38898 18.1943 2.34512 18.199 2.30408 18.1875C2.26305 18.176 2.22796 18.1493 2.20603 18.1128C2.18409 18.0762 2.17698 18.0327 2.18615 17.9911C2.19532 17.9495 2.22008 17.913 2.25533 17.8891L8.51 13.9834L2.42667 17.4954C2.38892 17.5155 2.34486 17.5204 2.30362 17.509C2.26238 17.4976 2.22712 17.4707 2.20514 17.434C2.18316 17.3973 2.17615 17.3535 2.18555 17.3117C2.19496 17.27 2.22006 17.2335 2.25567 17.2097L7.041 14.2334L2.42667 16.8971C2.38888 16.9179 2.34449 16.9232 2.30284 16.912C2.26119 16.9007 2.22552 16.8738 2.20333 16.8368C2.18114 16.7998 2.17416 16.7556 2.18386 16.7136C2.19356 16.6716 2.21918 16.6349 2.25533 16.6114L6.15533 14.1841L2.42667 16.3367C2.3889 16.3579 2.34439 16.3635 2.30254 16.3524C2.2607 16.3414 2.22481 16.3144 2.20246 16.2774C2.18011 16.2403 2.17306 16.196 2.18281 16.1538C2.19255 16.1116 2.21832 16.0749 2.25467 16.0514L6.23633 13.5464L2.42667 15.7457C2.38904 15.7661 2.345 15.7712 2.30369 15.7601C2.26238 15.7489 2.22695 15.7222 2.20475 15.6856C2.18256 15.649 2.17529 15.6053 2.18446 15.5635C2.19362 15.5217 2.21853 15.485 2.254 15.4611L6.20833 12.9394L2.42667 15.1227C2.38927 15.1429 2.34559 15.148 2.30455 15.137C2.26352 15.126 2.22823 15.0998 2.20589 15.0636C2.18355 15.0275 2.17584 14.9842 2.18435 14.9426C2.19286 14.901 2.21694 14.8642 2.25167 14.8397L6.61333 11.9637L2.42667 14.3807C2.38895 14.4028 2.34406 14.4092 2.30167 14.3985C2.25928 14.3879 2.22278 14.3609 2.20004 14.3236C2.17731 14.2863 2.17015 14.2415 2.18012 14.1989C2.19009 14.1564 2.21638 14.1194 2.25333 14.0961L4.53767 12.6267L2.42667 13.8454C2.38924 13.8661 2.3453 13.8715 2.30394 13.8607C2.26258 13.8499 2.22695 13.8236 2.20444 13.7873C2.18192 13.7509 2.17423 13.7073 2.18296 13.6655C2.19169 13.6236 2.21617 13.5867 2.25133 13.5624L4.79333 11.8797L2.42667 13.2464C2.38943 13.2666 2.34589 13.2719 2.3049 13.2612C2.2639 13.2504 2.22854 13.2245 2.20599 13.1886C2.18344 13.1527 2.17541 13.1096 2.18352 13.068C2.19164 13.0264 2.21529 12.9895 2.24967 12.9647L4.56267 11.3881L2.42667 12.6214C2.38968 12.6426 2.34596 12.6489 2.30451 12.6388C2.26306 12.6288 2.22703 12.6033 2.20384 12.5675C2.18065 12.5317 2.17206 12.4884 2.17984 12.4464C2.18762 12.4045 2.21118 12.3671 2.24567 12.3421L4.402 10.7837L2.42667 11.9231C2.38938 11.9444 2.3453 11.9505 2.30363 11.9401C2.26195 11.9297 2.2259 11.9036 2.20299 11.8673C2.18007 11.8309 2.17207 11.7872 2.18064 11.7451C2.18921 11.703 2.2137 11.6659 2.249 11.6414L2.79533 11.2667L2.42667 11.4794C2.39008 11.5007 2.34676 11.5073 2.30549 11.4978C2.26422 11.4884 2.2281 11.4635 2.20447 11.4284C2.18084 11.3933 2.17146 11.3505 2.17825 11.3087C2.18503 11.2669 2.20747 11.2292 2.241 11.2034L3.32233 10.3617L2.42667 10.8777C2.39115 10.8993 2.34885 10.9069 2.30806 10.8989C2.26726 10.8909 2.23093 10.868 2.20617 10.8346C2.18142 10.8012 2.17004 10.7597 2.17426 10.7184C2.17849 10.677 2.19801 10.6388 2.229 10.6111L3.02 9.86472L2.42667 10.2071C2.39275 10.2266 2.35304 10.2335 2.31451 10.2267C2.27598 10.2199 2.24108 10.1997 2.21592 10.1697C2.19076 10.1398 2.17695 10.1019 2.1769 10.0628C2.17685 10.0236 2.19058 9.98575 2.21567 9.95572L2.53233 9.57839C2.49617 9.57721 2.46137 9.56429 2.4332 9.54159C2.40502 9.51889 2.385 9.48764 2.37615 9.45256C2.36731 9.41747 2.37012 9.38047 2.38416 9.34712C2.39821 9.31378 2.42272 9.28591 2.454 9.26772L3.137 8.87339C3.17092 8.85388 3.21062 8.84692 3.24915 8.85375C3.28768 8.86057 3.32259 8.88073 3.34775 8.9107C3.37291 8.94067 3.38672 8.97853 3.38677 9.01766C3.38681 9.05679 3.37309 9.09469 3.348 9.12472L3.07833 9.44605L4.08333 8.86672C4.11885 8.84475 4.16132 8.83692 4.20233 8.84477C4.24335 8.85262 4.27992 8.87558 4.30482 8.90911C4.32972 8.94264 4.34112 8.98429 4.33677 9.02582C4.33242 9.06736 4.31263 9.10574 4.28133 9.13339L3.49 9.87905L5.245 8.86672C5.28154 8.84556 5.32475 8.83906 5.36589 8.84853C5.40704 8.858 5.44306 8.88273 5.46668 8.91773C5.4903 8.95273 5.49975 8.99539 5.49312 9.03709C5.4865 9.07879 5.4643 9.11643 5.431 9.14239L4.35033 9.98372L6.28367 8.86672C6.3209 8.8457 6.36479 8.83979 6.40625 8.85022C6.44772 8.86064 6.48359 8.88661 6.50646 8.92274C6.52932 8.95887 6.53742 9.00241 6.52908 9.04435C6.52074 9.08628 6.49661 9.12341 6.46167 9.14805L5.91667 9.52305L7.05533 8.86672C7.09232 8.84549 7.13604 8.83925 7.17749 8.84928C7.21894 8.85931 7.25497 8.88485 7.27816 8.92064C7.30135 8.95643 7.30994 8.99975 7.30216 9.04168C7.29438 9.08361 7.27082 9.12097 7.23633 9.14605L5.08033 10.7034L8.26333 8.86672C8.30057 8.84649 8.34411 8.84121 8.3851 8.85194C8.4261 8.86267 8.46146 8.88862 8.48401 8.9245C8.50656 8.96037 8.51459 9.00349 8.50648 9.04508C8.49836 9.08667 8.47471 9.12361 8.44033 9.14839L6.12633 10.7257L9.34667 8.86672C9.3841 8.84606 9.42803 8.84057 9.46939 8.85139C9.51076 8.86221 9.54638 8.88851 9.5689 8.92485C9.59141 8.9612 9.5991 9.0048 9.59037 9.04666C9.58164 9.08851 9.55717 9.12541 9.522 9.14972L6.98067 10.8321L10.385 8.86539C10.4226 8.84396 10.4671 8.83803 10.5091 8.84885C10.551 8.85967 10.5871 8.88639 10.6097 8.92336C10.6323 8.96032 10.6396 9.00462 10.63 9.04688C10.6205 9.08913 10.5949 9.12602 10.5587 9.14972L8.27467 10.6184L11.312 8.86672C11.3494 8.84658 11.3931 8.84148 11.4341 8.85246C11.4751 8.86344 11.5104 8.88968 11.5328 8.9258C11.5551 8.96193 11.5628 9.00523 11.5543 9.04685C11.5458 9.08846 11.5217 9.12526 11.487 9.14972L7.123 12.0267L12.598 8.86672C12.6356 8.84633 12.6797 8.84119 12.721 8.85238C12.7623 8.86357 12.7977 8.89022 12.8199 8.92682C12.8421 8.96341 12.8494 9.00715 12.8402 9.04895C12.831 9.09076 12.8061 9.12744 12.7707 9.15139L8.81867 11.6714L13.6767 8.86672C13.7144 8.84599 13.7586 8.84064 13.8002 8.85179C13.8417 8.86293 13.8773 8.88971 13.8996 8.92652C13.9219 8.96333 13.929 9.00733 13.9196 9.0493C13.9102 9.09127 13.8849 9.12797 13.849 9.15172L9.86833 11.6554L14.7 8.86672C14.7378 8.84591 14.7822 8.84056 14.8238 8.8518C14.8655 8.86304 14.9011 8.88999 14.9233 8.92699C14.9455 8.96398 14.9525 9.00814 14.9428 9.05018C14.9331 9.09221 14.9075 9.12885 14.8713 9.15239L10.9713 11.5807L15.6713 8.86672C15.7091 8.84656 15.7531 8.84169 15.7944 8.85312C15.8356 8.86455 15.8709 8.89141 15.8929 8.92813C15.9148 8.96485 15.9219 9.00862 15.9124 9.05036C15.903 9.09211 15.8779 9.12864 15.8423 9.15239L11.06 12.1261L16.6933 8.87305C16.7312 8.85123 16.7761 8.84514 16.8184 8.85609C16.8606 8.86704 16.8969 8.89415 16.9194 8.93159C16.9419 8.96903 16.9488 9.01381 16.9387 9.05629C16.9285 9.09877 16.902 9.13555 16.865 9.15872L10.6053 13.0667L17.317 9.19305C17.3549 9.17244 17.3993 9.16733 17.4409 9.1788C17.4825 9.19028 17.5181 9.21744 17.5401 9.25458C17.562 9.29172 17.5688 9.33593 17.5588 9.37793C17.5488 9.41992 17.523 9.45641 17.4867 9.47972L16.5297 10.0587L17.5047 9.49572C17.5426 9.47477 17.5871 9.46939 17.6289 9.48071C17.6707 9.49203 17.7064 9.51916 17.7285 9.55637C17.7507 9.59358 17.7575 9.63793 17.7475 9.68006C17.7375 9.72218 17.7115 9.75876 17.675 9.78205L12.6033 12.9034L17.5733 10.0334C17.6111 10.0126 17.6555 10.0072 17.6972 10.0185C17.7388 10.0297 17.7745 10.0567 17.7967 10.0937C17.8189 10.1306 17.8258 10.1748 17.8161 10.2168C17.8064 10.2589 17.7808 10.2955 17.7447 10.3191L11.3083 14.3277L17.575 10.7111C17.6128 10.6908 17.657 10.686 17.6984 10.6975C17.7397 10.709 17.775 10.7361 17.7969 10.773C17.8188 10.8099 17.8256 10.8538 17.8159 10.8956C17.8063 10.9374 17.7809 10.9738 17.745 10.9974L14.7927 12.8001L17.5733 11.1951C17.6111 11.1754 17.655 11.1709 17.696 11.1826C17.737 11.1943 17.7719 11.2213 17.7936 11.2579C17.8154 11.2946 17.8222 11.3382 17.8128 11.3797C17.8034 11.4213 17.7784 11.4577 17.743 11.4814L16.4383 12.2754L17.5733 11.6204C17.6112 11.5998 17.6557 11.5947 17.6973 11.6061C17.7389 11.6176 17.7744 11.6448 17.7964 11.6819C17.8184 11.7191 17.8251 11.7633 17.8151 11.8053C17.8052 11.8472 17.7793 11.8837 17.743 11.9071L16.7827 12.4927L17.5733 12.0361C17.6111 12.014 17.6559 12.0076 17.6983 12.0182C17.7407 12.0289 17.7772 12.0558 17.8 12.0932C17.8227 12.1305 17.8298 12.1753 17.8199 12.2179C17.8099 12.2604 17.7836 12.2974 17.7467 12.3207L12.0693 15.9641L17.5733 12.7864C17.611 12.765 17.6555 12.759 17.6974 12.7699C17.7394 12.7807 17.7754 12.8074 17.798 12.8444C17.8206 12.8813 17.8279 12.9256 17.8184 12.9679C17.8088 13.0101 17.7833 13.047 17.747 13.0707L12.8857 16.2151L17.5733 13.5087C17.6109 13.488 17.6551 13.4827 17.6965 13.4937C17.738 13.5047 17.7736 13.5314 17.796 13.568C17.8183 13.6046 17.8256 13.6485 17.8165 13.6904C17.8073 13.7323 17.7823 13.7691 17.7467 13.7931L14.1953 16.0804L17.5733 14.1304C17.6107 14.1102 17.6544 14.1051 17.6954 14.1161C17.7365 14.1271 17.7718 14.1533 17.7941 14.1895C17.8165 14.2256 17.8242 14.2689 17.8156 14.3105C17.8071 14.3521 17.7831 14.3889 17.7483 14.4134L14.2397 16.7297L17.573 14.8054C17.6105 14.7844 17.6546 14.7787 17.6962 14.7895C17.7378 14.8003 17.7736 14.8267 17.7962 14.8633C17.8187 14.8998 17.8263 14.9437 17.8174 14.9857C17.8084 15.0277 17.7835 15.0646 17.748 15.0887L15.252 16.7371L17.573 15.3971C17.6101 15.3757 17.6541 15.3694 17.6957 15.3795C17.7373 15.3896 17.7735 15.4154 17.7966 15.4515C17.8197 15.4876 17.828 15.5312 17.8199 15.5732C17.8117 15.6153 17.7876 15.6526 17.7527 15.6774L14.8877 17.7041L17.573 16.1541C17.6102 16.133 17.6541 16.1271 17.6956 16.1375C17.7371 16.148 17.7729 16.1739 17.7958 16.2101C17.8187 16.2462 17.8268 16.2897 17.8184 16.3317C17.8101 16.3736 17.7859 16.4107 17.751 16.4354L16.3053 17.4334L17.572 16.7001C17.6092 16.6798 17.6528 16.6745 17.6938 16.6853C17.7348 16.696 17.7701 16.7219 17.7927 16.7578C17.8152 16.7937 17.8233 16.8368 17.8151 16.8784C17.807 16.92 17.7834 16.9569 17.749 16.9817L17.364 17.2437L17.572 17.1237C17.6089 17.1027 17.6525 17.0966 17.6938 17.1066C17.7351 17.1167 17.771 17.1421 17.7942 17.1778C17.8173 17.2134 17.826 17.2565 17.8184 17.2983C17.8108 17.3402 17.7875 17.3775 17.7533 17.4027L17.0533 17.9097L17.571 17.6097C17.6078 17.5888 17.6512 17.5827 17.6924 17.5926C17.7336 17.6025 17.7694 17.6277 17.7927 17.6631C17.8159 17.6985 17.8248 17.7414 17.8176 17.7831C17.8103 17.8248 17.7875 17.8622 17.7537 17.8877L17.5203 18.0604L17.57 18.0317C17.6065 18.011 17.6495 18.0048 17.6904 18.0144C17.7313 18.024 17.7671 18.0487 17.7905 18.0836C17.814 18.1184 17.8234 18.1608 17.817 18.2023C17.8105 18.2438 17.7886 18.2813 17.7557 18.3074L17.644 18.3944C17.6716 18.3925 17.6992 18.3977 17.7242 18.4093C17.7493 18.421 17.771 18.4388 17.7873 18.4611C17.8116 18.494 17.823 18.5347 17.8191 18.5755C17.8153 18.6163 17.7967 18.6542 17.7667 18.6821L17.5923 18.8437C17.6288 18.8444 17.664 18.8569 17.6926 18.8795C17.7212 18.9021 17.7416 18.9334 17.7507 18.9687C17.7599 19.004 17.7572 19.0413 17.7431 19.0749C17.729 19.1085 17.7042 19.1365 17.6727 19.1547L16.5617 19.8001C16.5262 19.8207 16.4843 19.8275 16.4441 19.8191C16.4039 19.8108 16.3682 19.7879 16.3438 19.7549C16.3195 19.7218 16.3081 19.6809 16.3121 19.6401C16.316 19.5992 16.3348 19.5612 16.365 19.5334L16.46 19.4447L15.8453 19.8001C15.8088 19.8208 15.7658 19.827 15.7249 19.8174C15.684 19.8078 15.6483 19.7831 15.6248 19.7482C15.6013 19.7134 15.5919 19.671 15.5984 19.6295C15.6048 19.588 15.6267 19.5504 15.6597 19.5244L15.6697 19.5167L15.1783 19.8001C15.1415 19.821 15.0981 19.8271 15.057 19.8172C15.0158 19.8073 14.9799 19.7821 14.9567 19.7467C14.9334 19.7113 14.9245 19.6684 14.9318 19.6267C14.939 19.5849 14.9618 19.5475 14.9957 19.5221L15.229 19.3504L14.448 19.8001C14.4111 19.8211 14.3675 19.8272 14.3262 19.8171C14.2849 19.8071 14.249 19.7816 14.2259 19.746C14.2027 19.7104 14.194 19.6672 14.2016 19.6254C14.2092 19.5836 14.2325 19.5463 14.2667 19.5211L14.9667 19.0134L13.6037 19.8001C13.5664 19.8208 13.5226 19.8264 13.4813 19.8159C13.44 19.8053 13.4043 19.7793 13.3816 19.7432C13.3589 19.7071 13.3509 19.6637 13.3592 19.6219C13.3675 19.5801 13.3915 19.543 13.4263 19.5184L13.8097 19.2574L12.8697 19.8001C12.8325 19.8203 12.789 19.8257 12.748 19.8151C12.7071 19.8045 12.6716 19.7787 12.649 19.743C12.6263 19.7072 12.6181 19.6642 12.6261 19.6226C12.634 19.581 12.6574 19.544 12.6917 19.5191L14.1377 18.5217L11.9233 19.8001C11.8863 19.8212 11.8425 19.8273 11.801 19.8172C11.7596 19.807 11.7236 19.7813 11.7006 19.7454C11.6775 19.7095 11.6691 19.6661 11.677 19.6242C11.685 19.5823 11.7087 19.545 11.7433 19.5201L14.61 17.4931L10.6123 19.8001C10.5749 19.8202 10.5313 19.8253 10.4902 19.8143C10.4492 19.8033 10.4139 19.7771 10.3916 19.741C10.3692 19.7048 10.3615 19.6615 10.37 19.6199C10.3785 19.5783 10.4026 19.5415 10.4373 19.5171L12.9333 17.8687L9.58733 19.8001C9.5499 19.8207 9.50597 19.8262 9.4646 19.8154C9.42324 19.8046 9.38762 19.7783 9.3651 19.7419C9.34259 19.7056 9.3349 19.662 9.34363 19.6201C9.35235 19.5783 9.37683 19.5414 9.412 19.5171L12.9207 17.2001L8.418 19.8001C8.38046 19.8204 8.33652 19.8256 8.29527 19.8145C8.25401 19.8035 8.21859 19.777 8.1963 19.7405C8.17402 19.7041 8.16658 19.6605 8.17552 19.6187C8.18445 19.5769 8.20909 19.5402 8.24433 19.5161L11.8 17.2277L7.341 19.8001C7.30346 19.8204 7.25952 19.8256 7.21827 19.8145C7.17701 19.8035 7.14159 19.777 7.1193 19.7405C7.09702 19.7041 7.08958 19.6605 7.09852 19.6187C7.10745 19.5769 7.13209 19.5402 7.16733 19.5161L12.0293 16.3714L6.09 19.8001C6.05236 19.8215 6.00785 19.8274 5.96591 19.8166C5.92397 19.8058 5.88789 19.779 5.86532 19.7421C5.84274 19.7051 5.83544 19.6608 5.84496 19.6186C5.85448 19.5763 5.88008 19.5394 5.91633 19.5157L11.5903 15.8754L4.791 19.8001C4.75316 19.8203 4.70898 19.8251 4.66765 19.8136C4.62632 19.8021 4.59103 19.775 4.56913 19.7382C4.54722 19.7013 4.54039 19.6573 4.55005 19.6155C4.55971 19.5737 4.58513 19.5373 4.621 19.5137L5.58767 18.9241L4.07067 19.8001C4.04543 19.815 4.01668 19.8231 3.98733 19.8234Z" fill="#2AA084"/>
<path d="M0.824331 3.1664C0.789759 3.16642 0.756034 3.15569 0.727829 3.1357C0.699624 3.11571 0.678334 3.08744 0.666909 3.05481C0.655483 3.02218 0.654487 2.98681 0.664058 2.95359C0.67363 2.92037 0.693295 2.89094 0.720331 2.8694L2.309 1.60273L0.426664 2.69006C0.390413 2.71077 0.347712 2.71711 0.307006 2.70785C0.266301 2.69858 0.230555 2.67437 0.20684 2.64001C0.183125 2.60566 0.173168 2.56365 0.178937 2.5223C0.184707 2.48096 0.205783 2.44328 0.237997 2.41673L1.338 1.5184L0.426664 2.0444C0.391352 2.06454 0.349897 2.07108 0.3101 2.06278C0.270304 2.05449 0.234909 2.03194 0.210577 1.99938C0.186245 1.96681 0.174654 1.92648 0.177985 1.88596C0.181316 1.84545 0.19934 1.80755 0.228664 1.7794L0.852664 1.1844L0.429997 1.42806C0.395417 1.44787 0.354884 1.45463 0.315747 1.44712C0.27661 1.43961 0.241459 1.41833 0.216667 1.38712C0.191876 1.35592 0.179085 1.31687 0.180613 1.27705C0.182141 1.23723 0.197887 1.19927 0.224997 1.17006L0.477664 0.899729C0.441978 0.886189 0.412147 0.860603 0.39333 0.827396C0.371202 0.789156 0.365163 0.743695 0.376538 0.701005C0.387914 0.658314 0.415775 0.621887 0.453997 0.599729L1.137 0.206396C1.17162 0.186351 1.21229 0.179426 1.25159 0.186886C1.29089 0.194346 1.3262 0.215692 1.35107 0.247028C1.37593 0.278363 1.3887 0.317597 1.38703 0.357565C1.38537 0.397534 1.36938 0.43557 1.342 0.464729L1.23566 0.578062L1.89266 0.199729C1.92818 0.177761 1.97065 0.169926 2.01166 0.177776C2.05268 0.185625 2.08926 0.208586 2.11415 0.242115C2.13905 0.275644 2.15045 0.317297 2.1461 0.358831C2.14175 0.400364 2.12197 0.438752 2.09066 0.466396L1.46666 1.0594L2.957 0.199729C2.99325 0.179024 3.03595 0.172678 3.07665 0.181946C3.11736 0.191213 3.15311 0.21542 3.17682 0.249777C3.20054 0.284134 3.21049 0.32614 3.20472 0.367487C3.19895 0.408833 3.17788 0.446509 3.14566 0.473062L2.04566 1.37106L4.07566 0.199729C4.11202 0.179441 4.15464 0.173493 4.19516 0.183054C4.23568 0.192615 4.27115 0.216993 4.2946 0.251392C4.31805 0.28579 4.32777 0.327719 4.32186 0.368927C4.31595 0.410136 4.29484 0.447641 4.26266 0.474062L2.67366 1.74073L5.34033 0.200396C5.37707 0.179348 5.42044 0.17307 5.46163 0.182837C5.50283 0.192604 5.53877 0.217683 5.56214 0.252983C5.58552 0.288282 5.59459 0.331156 5.5875 0.372897C5.58042 0.414639 5.55771 0.45212 5.524 0.477729L4.173 1.4964L6.42066 0.199729C6.45738 0.179121 6.50054 0.173176 6.54147 0.183089C6.58239 0.193001 6.61805 0.218036 6.64127 0.253162C6.66449 0.288288 6.67355 0.330901 6.66664 0.372437C6.65972 0.413973 6.63734 0.451352 6.604 0.477062L5.26666 1.48373L7.491 0.199729C7.52776 0.178968 7.57104 0.172935 7.61208 0.18285C7.65312 0.192764 7.68887 0.217886 7.71211 0.25314C7.73534 0.288395 7.74433 0.331154 7.73726 0.37278C7.73018 0.414406 7.70757 0.451796 7.674 0.477396L6.36666 1.45706L8.54433 0.199729C8.5811 0.178968 8.62437 0.172935 8.66541 0.18285C8.70646 0.192764 8.74221 0.217886 8.76544 0.25314C8.78868 0.288395 8.79767 0.331154 8.79059 0.37278C8.78352 0.414406 8.76091 0.451796 8.72733 0.477396L7.43666 1.4404L9.58766 0.199729C9.62443 0.178968 9.66771 0.172935 9.70875 0.18285C9.74979 0.192764 9.78554 0.217886 9.80877 0.25314C9.83201 0.288395 9.841 0.331154 9.83393 0.37278C9.82685 0.414406 9.80424 0.451796 9.77066 0.477396L8.456 1.4624L10.6447 0.199729C10.6809 0.179285 10.7236 0.173165 10.7641 0.182572C10.8047 0.19198 10.8403 0.216234 10.8639 0.250559C10.8874 0.284884 10.8973 0.326793 10.8915 0.368035C10.8858 0.409278 10.8648 0.446864 10.8327 0.473396L9.207 1.7864L11.957 0.199729C11.9939 0.178069 12.0377 0.171415 12.0793 0.181144C12.121 0.190872 12.1573 0.216239 12.1807 0.251995C12.2042 0.287751 12.213 0.331159 12.2054 0.373239C12.1977 0.415318 12.1742 0.452848 12.1397 0.478062L10.9107 1.38673L12.9683 0.199729C13.0052 0.178406 13.0489 0.172035 13.0904 0.181927C13.1318 0.191818 13.1679 0.217219 13.1912 0.252908C13.2146 0.288596 13.2233 0.331859 13.2157 0.373799C13.2081 0.41574 13.1847 0.453171 13.1503 0.478396L12.0017 1.31906L13.942 0.199729C13.9791 0.178583 14.0228 0.172463 14.0643 0.182629C14.1057 0.192796 14.1417 0.218474 14.1648 0.254372C14.1879 0.29027 14.1963 0.333653 14.1883 0.37558C14.1804 0.417507 14.1566 0.454784 14.122 0.479729L13.2417 1.1064L14.8133 0.199729C14.8504 0.178887 14.8941 0.173025 14.9354 0.183342C14.9767 0.19366 15.0124 0.219377 15.0354 0.255222C15.0583 0.291066 15.0666 0.334324 15.0587 0.376129C15.0508 0.417933 15.0271 0.455118 14.9927 0.480062L14.2837 0.980062L15.6333 0.199729C15.6702 0.178614 15.7137 0.172372 15.755 0.182276C15.7963 0.192181 15.8323 0.217486 15.8556 0.25302C15.8789 0.288554 15.8877 0.331635 15.8803 0.373462C15.8729 0.415289 15.8497 0.452704 15.8157 0.478062L14.6093 1.3664L16.6333 0.199729C16.6699 0.178712 16.7132 0.172373 16.7543 0.181993C16.7954 0.191612 16.8313 0.216474 16.8548 0.251555C16.8783 0.286637 16.8876 0.329324 16.8808 0.370996C16.874 0.412668 16.8517 0.450218 16.8183 0.476062L15.3767 1.58273L17.774 0.199729C17.811 0.179007 17.8544 0.173147 17.8956 0.183341C17.9367 0.193534 17.9724 0.219015 17.9954 0.2546C18.0185 0.290186 18.027 0.333203 18.0195 0.3749C18.0119 0.416598 17.9887 0.453844 17.9547 0.479062L16.951 1.2024L18.6783 0.205062C18.7153 0.183502 18.7591 0.176981 18.8008 0.186851C18.8424 0.19672 18.8786 0.222224 18.902 0.25808C18.9253 0.293937 18.934 0.337399 18.9262 0.379466C18.9184 0.421534 18.8947 0.458984 18.86 0.484062L17.7687 1.2794L19.2263 0.437729C19.2629 0.416413 19.3062 0.40982 19.3475 0.419288C19.3888 0.428756 19.4249 0.453576 19.4485 0.488707C19.4722 0.523838 19.4815 0.566647 19.4748 0.60844C19.468 0.650233 19.4455 0.687878 19.412 0.713729L18.212 1.6504L19.527 0.891396C19.5636 0.87008 19.6069 0.863487 19.6482 0.872955C19.6894 0.882423 19.7256 0.907242 19.7492 0.942373C19.7728 0.977504 19.7822 1.02031 19.7754 1.06211C19.7686 1.1039 19.7462 1.14154 19.7127 1.1674L19.1297 1.61806L19.5743 1.36173C19.6101 1.34135 19.6521 1.33492 19.6923 1.34368C19.7325 1.35243 19.7681 1.37575 19.7921 1.40915C19.8162 1.44255 19.827 1.48366 19.8225 1.52456C19.8181 1.56547 19.7987 1.60329 19.768 1.63073L19.3287 2.01973L19.5773 1.87606C19.6106 1.85684 19.6494 1.84967 19.6873 1.85577C19.7252 1.86187 19.7598 1.88087 19.7853 1.90956C19.8109 1.93824 19.8257 1.97486 19.8273 2.01321C19.829 2.05156 19.8173 2.08931 19.7943 2.12006L19.5553 2.43906L19.5807 2.4244C19.6189 2.40264 19.6642 2.39691 19.7067 2.40844C19.7492 2.41997 19.7854 2.44783 19.8074 2.48595C19.8294 2.52406 19.8354 2.56933 19.8242 2.61188C19.8129 2.65443 19.7853 2.6908 19.7473 2.71306L19.0177 3.13306C18.9844 3.15229 18.9456 3.15946 18.9077 3.15335C18.8698 3.14725 18.8352 3.12825 18.8097 3.09957C18.7841 3.07088 18.7693 3.03427 18.7677 2.99591C18.766 2.95756 18.7777 2.91982 18.8007 2.88906L19.0397 2.5704L18.063 3.13306C18.0273 3.15309 17.9855 3.15928 17.9455 3.15044C17.9055 3.14161 17.8702 3.11837 17.8463 3.08516C17.8223 3.05195 17.8114 3.01109 17.8157 2.97038C17.82 2.92966 17.839 2.89194 17.8693 2.8644L18.3083 2.47606L17.169 3.13506C17.1324 3.15638 17.0891 3.16297 17.0478 3.1535C17.0066 3.14404 16.9704 3.11922 16.9468 3.08408C16.9232 3.04895 16.9138 3.00614 16.9206 2.96435C16.9274 2.92256 16.9498 2.88491 16.9833 2.85906L17.5667 2.4074L16.3047 3.13573C16.2681 3.15689 16.2249 3.16339 16.1838 3.15392C16.1426 3.14445 16.1066 3.11972 16.083 3.08472C16.0594 3.04972 16.0499 3.00706 16.0565 2.96536C16.0632 2.92366 16.0854 2.88602 16.1187 2.86006L17.3187 1.9234L15.2187 3.13606C15.1817 3.15762 15.1379 3.16414 15.0962 3.15427C15.0546 3.1444 15.0184 3.1189 14.995 3.08304C14.9717 3.04719 14.963 3.00373 14.9708 2.96166C14.9786 2.91959 15.0023 2.88214 15.037 2.85706L16.1267 2.06306L14.2667 3.13673C14.2297 3.15745 14.1862 3.16331 14.1451 3.15312C14.104 3.14292 14.0682 3.11744 14.0452 3.08186C14.0222 3.04627 14.0136 3.00326 14.0212 2.96156C14.0288 2.91986 14.0519 2.88261 14.086 2.8574L15.092 2.13306L13.3507 3.13706C13.314 3.15808 13.2708 3.16442 13.2297 3.1548C13.1886 3.14518 13.1527 3.12032 13.1292 3.08524C13.1057 3.05015 13.0964 3.00747 13.1032 2.9658C13.11 2.92412 13.1323 2.88657 13.1657 2.86073L14.6067 1.75373L12.2093 3.13773C12.1725 3.15884 12.1289 3.16509 12.0876 3.15518C12.0463 3.14528 12.0104 3.11997 11.9871 3.08444C11.9638 3.0489 11.955 3.00582 11.9624 2.964C11.9698 2.92217 11.9929 2.88475 12.027 2.8594L13.2333 1.9694L11.2077 3.1384C11.1705 3.15947 11.1267 3.16548 11.0852 3.15518C11.0438 3.14489 11.0079 3.11907 10.9849 3.08305C10.9619 3.04704 10.9537 3.00359 10.9618 2.96166C10.97 2.91973 10.9939 2.88253 11.0287 2.85773L11.7377 2.3594L10.3877 3.13873C10.3506 3.15987 10.3068 3.16599 10.2654 3.15583C10.2239 3.14566 10.188 3.11998 10.1649 3.08409C10.1418 3.04819 10.1334 3.00481 10.1413 2.96288C10.1493 2.92095 10.173 2.88367 10.2077 2.85873L11.088 2.23306L9.51533 3.1394C9.47842 3.16072 9.43475 3.16709 9.39328 3.1572C9.35182 3.14731 9.31573 3.12191 9.29242 3.08622C9.26911 3.05053 9.26036 3.00727 9.26797 2.96533C9.27558 2.92338 9.29897 2.88595 9.33333 2.86073L10.4827 2.01873L8.54066 3.13973C8.50379 3.16139 8.45999 3.16804 8.41835 3.15831C8.3767 3.14859 8.34038 3.12322 8.31692 3.08746C8.29345 3.05171 8.28463 3.0083 8.29228 2.96622C8.29992 2.92414 8.32345 2.88661 8.358 2.8614L9.58666 1.95206L7.52833 3.1404C7.49205 3.16084 7.44943 3.16696 7.40886 3.15755C7.36829 3.14814 7.33272 3.12389 7.30914 3.08957C7.28556 3.05524 7.27568 3.01333 7.28146 2.97209C7.28723 2.93085 7.30823 2.89326 7.34033 2.86673L8.96666 1.55306L6.215 3.14106C6.17822 3.16229 6.13472 3.16868 6.09338 3.15892C6.05205 3.14915 6.016 3.12398 5.9926 3.08854C5.9692 3.0531 5.96022 3.01007 5.96747 2.96822C5.97473 2.92638 5.99769 2.88888 6.03166 2.8634L7.34666 1.8774L5.15733 3.1414C5.12056 3.16216 5.07729 3.16819 5.03625 3.15827C4.9952 3.14836 4.95945 3.12324 4.93622 3.08798C4.91298 3.05273 4.904 3.00997 4.91107 2.96834C4.91814 2.92672 4.94075 2.88933 4.97433 2.86373L6.26666 1.89973L4.11266 3.14206C4.07588 3.16329 4.03238 3.16968 3.99105 3.15992C3.94972 3.15016 3.91367 3.12498 3.89027 3.08954C3.86687 3.0541 3.85788 3.01107 3.86514 2.96922C3.8724 2.92738 3.89536 2.88988 3.92933 2.8644L5.23833 1.88406L3.05833 3.14273C3.02178 3.16226 2.97926 3.16747 2.93908 3.15735C2.89889 3.14723 2.86392 3.1225 2.84098 3.08799C2.81804 3.05348 2.80878 3.01166 2.81501 2.97068C2.82124 2.92971 2.8425 2.89253 2.87466 2.8664L4.213 1.8594L1.98733 3.1434C1.95066 3.16386 1.90761 3.16973 1.86679 3.15982C1.82598 3.14991 1.79041 3.12496 1.7672 3.08996C1.744 3.05496 1.73486 3.01248 1.74162 2.97103C1.74838 2.92958 1.77054 2.89221 1.80366 2.8664L3.15766 1.84473L0.907664 3.14473C0.882318 3.15926 0.853544 3.16674 0.824331 3.1664Z" fill="#4B717A"/>
<path d="M4.729 13.4897C4.69443 13.4898 4.6607 13.479 4.6325 13.4591C4.60429 13.4391 4.583 13.4108 4.57158 13.3782C4.56015 13.3455 4.55916 13.3102 4.56873 13.2769C4.5783 13.2437 4.59796 13.2143 4.625 13.1927L5.95433 12.1331L4.19067 13.1511C4.15352 13.1722 4.10969 13.1782 4.06824 13.1679C4.02679 13.1576 3.99087 13.1317 3.9679 13.0957C3.94493 13.0597 3.93667 13.0163 3.94481 12.9743C3.95296 12.9324 3.97689 12.8952 4.01167 12.8704L4.21367 12.7287L4.09333 12.7981C4.05657 12.8188 4.01329 12.8249 3.97225 12.815C3.93121 12.805 3.89546 12.7799 3.87222 12.7447C3.84899 12.7094 3.84 12.6667 3.84707 12.625C3.85415 12.5834 3.87676 12.546 3.91033 12.5204L4.28167 12.2437L4.09333 12.3524C4.05889 12.3722 4.0185 12.3791 3.97945 12.3717C3.9404 12.3644 3.90526 12.3433 3.88037 12.3123C3.85547 12.2814 3.84246 12.2425 3.84368 12.2028C3.84489 12.1631 3.86026 12.1251 3.887 12.0957L4.56033 11.3564L4.09367 11.6261C4.06001 11.6453 4.02068 11.6523 3.98247 11.6456C3.94426 11.639 3.90955 11.6193 3.88432 11.5898C3.8591 11.5604 3.84493 11.5231 3.84426 11.4843C3.84359 11.4455 3.85647 11.4077 3.88067 11.3774L4.059 11.1557C4.02763 11.1466 3.99963 11.1285 3.97848 11.1036C3.95732 11.0788 3.94394 11.0482 3.94 11.0158C3.93606 10.9834 3.94173 10.9505 3.95631 10.9213C3.97089 10.8921 3.99373 10.8678 4.022 10.8514L4.57433 10.5327C4.60799 10.5135 4.64732 10.5066 4.68553 10.5132C4.72374 10.5198 4.75845 10.5395 4.78368 10.569C4.8089 10.5984 4.82307 10.6358 4.82374 10.6745C4.82441 10.7133 4.81153 10.7511 4.78733 10.7814L4.69833 10.8924L5.32233 10.5331C5.35674 10.5135 5.397 10.5068 5.43589 10.5142C5.47479 10.5216 5.50978 10.5426 5.53461 10.5734C5.55943 10.6043 5.57247 10.6429 5.57138 10.6825C5.57029 10.7221 5.55515 10.76 5.52867 10.7894L4.85533 11.5284L6.58 10.5331C6.61677 10.5123 6.66004 10.5063 6.70108 10.5162C6.74213 10.5261 6.77787 10.5512 6.80111 10.5865C6.82435 10.6217 6.83333 10.6645 6.82626 10.7061C6.81919 10.7478 6.79658 10.7851 6.763 10.8107L6.39167 11.0877L7.34033 10.5401C7.37748 10.519 7.42131 10.513 7.46276 10.5233C7.50421 10.5336 7.54013 10.5594 7.5631 10.5954C7.58606 10.6314 7.59433 10.6749 7.58618 10.7168C7.57804 10.7587 7.55411 10.7959 7.51933 10.8207L7.31633 10.9631L7.719 10.7297C7.75542 10.7086 7.79851 10.702 7.83959 10.7113C7.88068 10.7206 7.91671 10.7451 7.94045 10.7799C7.96418 10.8147 7.97386 10.8572 7.96753 10.8989C7.9612 10.9405 7.93934 10.9782 7.90633 11.0044L6.57733 12.0631L7.90667 11.2964C7.94279 11.276 7.98524 11.2698 8.02571 11.279C8.06618 11.2882 8.10175 11.3122 8.12547 11.3462C8.14919 11.3803 8.15935 11.422 8.15396 11.4631C8.14857 11.5043 8.12802 11.5419 8.09633 11.5687L7.33967 12.1971L7.90633 11.8697C7.94078 11.8499 7.98117 11.8431 8.02022 11.8504C8.05926 11.8578 8.0944 11.8788 8.1193 11.9098C8.14419 11.9408 8.15721 11.9796 8.15599 12.0193C8.15477 12.0591 8.13941 12.097 8.11267 12.1264L7.64333 12.6414L7.90667 12.4894C7.94476 12.4695 7.98907 12.465 8.03036 12.477C8.07164 12.489 8.1067 12.5165 8.12822 12.5537C8.14973 12.5909 8.15603 12.635 8.1458 12.6767C8.13557 12.7185 8.10961 12.7547 8.07333 12.7777L6.87933 13.4664C6.84492 13.486 6.80467 13.4927 6.76577 13.4853C6.72688 13.4779 6.69188 13.4569 6.66706 13.4261C6.64223 13.3952 6.6292 13.3566 6.63029 13.317C6.63137 13.2774 6.64652 13.2395 6.673 13.2101L7.143 12.6944L5.80533 13.4664C5.76921 13.4868 5.72676 13.4931 5.68629 13.4838C5.64582 13.4746 5.61025 13.4506 5.58653 13.4166C5.56281 13.3825 5.55265 13.3408 5.55804 13.2997C5.56343 13.2585 5.58398 13.2209 5.61567 13.1941L6.372 12.5664L4.81233 13.4664C4.78709 13.4814 4.75835 13.4894 4.729 13.4897Z" fill="#FBDD4E"/>
<path d="M10.359 9.79634C10.3247 9.79634 10.2912 9.78576 10.2632 9.76605C10.2351 9.74633 10.2138 9.71845 10.2022 9.68619C10.1906 9.65393 10.1892 9.61887 10.1982 9.58579C10.2072 9.55271 10.2262 9.52322 10.2527 9.50134L10.9 8.963L9.54599 9.74434C9.50937 9.76203 9.46755 9.76573 9.42839 9.75473C9.38924 9.74373 9.35546 9.71879 9.33342 9.68462C9.31137 9.65045 9.30258 9.60939 9.3087 9.56919C9.31483 9.52898 9.33544 9.4924 9.36665 9.46634L10.1467 8.88967L8.98332 9.56134C8.9463 9.58226 8.90269 9.58824 8.8614 9.57806C8.82012 9.56787 8.78429 9.54229 8.76125 9.50656C8.7382 9.47082 8.72969 9.42763 8.73745 9.38582C8.74521 9.34402 8.76865 9.30676 8.80299 9.28167L9.76965 8.59067L8.53632 9.30234C8.49955 9.3231 8.45628 9.32913 8.41523 9.31922C8.37419 9.3093 8.33844 9.28418 8.31521 9.24893C8.29197 9.21367 8.28298 9.17091 8.29006 9.12929C8.29713 9.08766 8.31974 9.05027 8.35332 9.02467L10.1637 7.67L8.07265 8.87734C8.03531 8.89901 7.99101 8.90534 7.94909 8.89501C7.90716 8.88467 7.87089 8.85846 7.8479 8.82191C7.82492 8.78536 7.81702 8.74131 7.82586 8.69905C7.8347 8.65679 7.85961 8.61961 7.89532 8.59534L8.62199 8.099L7.83332 8.55334C7.796 8.57432 7.75204 8.58014 7.71055 8.56959C7.66906 8.55904 7.63322 8.53293 7.61046 8.49667C7.5877 8.46041 7.57977 8.41678 7.5883 8.37483C7.59684 8.33288 7.6212 8.29582 7.65632 8.27134L8.35965 7.79167L7.64799 8.20234C7.6107 8.22278 7.567 8.22819 7.52585 8.21747C7.4847 8.20675 7.4492 8.18071 7.42663 8.14467C7.40405 8.10864 7.39611 8.06533 7.40441 8.02363C7.41272 7.98192 7.43666 7.94497 7.47132 7.92034L7.87565 7.647L7.52132 7.85167C7.48392 7.87264 7.43988 7.87838 7.39835 7.86771C7.35682 7.85704 7.321 7.83078 7.29834 7.79438C7.27568 7.75798 7.26791 7.71425 7.27666 7.67228C7.28541 7.6303 7.31 7.59332 7.34532 7.569L7.42099 7.51867C7.38569 7.52976 7.34772 7.52891 7.31296 7.51626C7.27819 7.50361 7.24856 7.47985 7.22865 7.44867C7.2057 7.41219 7.19777 7.36823 7.20654 7.32603C7.2153 7.28383 7.24007 7.24666 7.27565 7.22234L7.62099 6.98567L7.42832 7.09667C7.3917 7.11769 7.34848 7.12403 7.30737 7.11441C7.26626 7.10479 7.23034 7.07993 7.20685 7.04484C7.18337 7.00976 7.17407 6.96707 7.18084 6.9254C7.18761 6.88373 7.20994 6.84618 7.24332 6.82034L8.53999 5.82234L7.53332 6.404C7.49826 6.42372 7.45726 6.43009 7.41788 6.42195C7.3785 6.41381 7.34338 6.3917 7.31902 6.3597C7.29466 6.3277 7.28269 6.28797 7.28531 6.24784C7.28794 6.20771 7.30499 6.16988 7.33332 6.14134L8.25299 5.22967L8.23165 5.242C8.19339 5.26376 8.14808 5.26949 8.10561 5.25796C8.06313 5.24643 8.02695 5.21857 8.00494 5.18045C7.98293 5.14234 7.9769 5.09707 7.98815 5.05452C7.9994 5.01197 8.02702 4.9756 8.06499 4.95334L9.20265 4.29667C9.23769 4.27644 9.2789 4.26964 9.31858 4.27755C9.35827 4.28547 9.39372 4.30754 9.41832 4.33967C9.44291 4.37189 9.45492 4.41196 9.4521 4.4524C9.44927 4.49283 9.43181 4.53085 9.40299 4.55934L8.48265 5.47134L10.5513 4.277C10.5879 4.25599 10.6312 4.24965 10.6723 4.25927C10.7134 4.26889 10.7493 4.29375 10.7728 4.32883C10.7963 4.36391 10.8056 4.4066 10.7988 4.44827C10.792 4.48994 10.7697 4.52749 10.7363 4.55334L9.43932 5.55167L11.206 4.533C11.2432 4.51251 11.2868 4.507 11.328 4.51759C11.3691 4.52818 11.4046 4.55408 11.4273 4.59C11.45 4.62591 11.4581 4.66913 11.45 4.71083C11.4419 4.75253 11.4181 4.78955 11.3837 4.81434L11.0397 5.05L11.5463 4.75767C11.5837 4.7367 11.6278 4.73096 11.6693 4.74163C11.7108 4.7523 11.7466 4.77856 11.7693 4.81496C11.792 4.85136 11.7997 4.89509 11.791 4.93706C11.7822 4.97904 11.7576 5.01603 11.7223 5.04034L11.6907 5.062L11.812 4.992C11.8493 4.97156 11.893 4.96615 11.9341 4.97687C11.9753 4.98759 12.0108 5.01363 12.0333 5.04967C12.0559 5.0857 12.0639 5.12901 12.0556 5.17071C12.0473 5.21242 12.0233 5.24937 11.9887 5.274L11.5833 5.548L12.0537 5.27634C12.091 5.25466 12.1353 5.24833 12.1772 5.25867C12.2191 5.26901 12.2554 5.29521 12.2784 5.33176C12.3014 5.36832 12.3093 5.41236 12.3004 5.45462C12.2916 5.49689 12.2667 5.53407 12.231 5.55834L11.528 6.03734L12.2653 5.612C12.3027 5.59033 12.347 5.584 12.3889 5.59433C12.4308 5.60467 12.4671 5.63088 12.4901 5.66743C12.5131 5.70398 12.521 5.74803 12.5121 5.79029C12.5033 5.83255 12.4784 5.86974 12.4427 5.894L11.718 6.389L12.4267 5.97967C12.4634 5.95844 12.5069 5.95206 12.5483 5.96182C12.5896 5.97158 12.6256 5.99675 12.649 6.03219C12.6724 6.06763 12.6814 6.11067 12.6742 6.15251C12.6669 6.19436 12.644 6.23185 12.61 6.25734L10.799 7.61267L12.563 6.59434C12.6 6.57342 12.6436 6.56744 12.6849 6.57762C12.7262 6.5878 12.762 6.61338 12.7851 6.64912C12.8081 6.68485 12.8166 6.72804 12.8089 6.76985C12.8011 6.81166 12.7777 6.84892 12.7433 6.874L11.7783 7.56434L12.5637 7.11134C12.6005 7.09022 12.644 7.08398 12.6854 7.09388C12.7267 7.10379 12.7626 7.12909 12.7859 7.16463C12.8092 7.20016 12.818 7.24324 12.8106 7.28507C12.8032 7.3269 12.7801 7.36431 12.746 7.38967L11.961 7.96634L12.4367 7.692C12.4728 7.67113 12.5155 7.6646 12.5563 7.67371C12.5971 7.68282 12.6329 7.7069 12.6568 7.74119C12.6806 7.77548 12.6907 7.81748 12.6851 7.85886C12.6794 7.90025 12.6585 7.93801 12.6263 7.96467L11.978 8.50267L12.015 8.48134C12.0532 8.45958 12.0986 8.45385 12.141 8.46538C12.1835 8.47691 12.2197 8.50477 12.2417 8.54289C12.2637 8.581 12.2697 8.62627 12.2585 8.66882C12.2472 8.71137 12.2196 8.74775 12.1817 8.77L10.4423 9.774C10.417 9.78874 10.3883 9.79645 10.359 9.79634Z" fill="white"/>
<path d="M0.0899948 14.3829C0.235661 16.0936 -0.716339 19.3749 2.11233 18.8296C1.68766 20.8176 13.21 19.4629 15.148 19.8356C16.104 19.8356 17.6773 20.0519 17.887 18.8356C19.8837 19.2262 20.087 17.3899 19.9097 15.8809C19.9097 13.3867 19.9097 10.8921 19.9097 8.39724C19.5877 6.5239 20.6863 1.18724 19.223 0.271236C14.0333 -0.0144302 8.75099 0.268903 3.53333 0.171903C2.34333 0.269237 0.233328 -0.31343 0.0899948 1.41124C0.0443281 5.7329 0.116328 10.0596 0.0899948 14.3829ZM16.8 19.4916C12.9 19.5156 8.98466 19.4869 5.07866 19.4976C4.18133 19.4289 2.60666 19.8729 2.57866 18.5226C3.09999 8.4259 0.152328 9.0329 8.10766 9.16824C8.63467 9.56789 9.27792 9.78421 9.93933 9.78421C10.6007 9.78421 11.244 9.56789 11.771 9.16824C13.133 9.50624 17.481 8.2389 17.4227 10.2166C17.1187 11.8419 18.1473 19.2292 16.8 19.4916ZM11.695 8.84524C11.661 8.85523 11.6298 8.87303 11.6038 8.89722C11.5779 8.92141 11.558 8.95132 11.5457 8.98457C9.48033 10.8139 6.49166 7.83057 7.93333 5.6329C9.85866 2.48824 14.191 6.38857 11.695 8.84524ZM19.349 18.0602C19.1043 18.6142 18.4367 18.5302 17.9113 18.5099C17.3497 8.9609 20.4447 8.48624 12.1447 8.8309C13.5447 7.4559 12.8727 4.83957 10.9497 4.3309C8.36933 3.44657 5.84066 6.7009 7.761 8.8309C-0.596338 8.30824 2.72999 9.86624 2.08766 18.5169C0.125661 18.8836 0.620995 16.7779 0.576995 15.5432C0.576995 11.4203 0.576995 7.29724 0.576995 3.1739H19.4437C19.325 8.12757 19.5797 13.1329 19.349 18.0602ZM1.24899 0.49357C6.22033 0.48557 11.2023 0.499236 16.1773 0.49357C18.327 0.507236 19.8107 -0.0320965 19.446 2.8269H0.576661C0.684995 2.0719 0.191661 0.694237 1.24799 0.49357H1.24899Z" fill="#262626"/>
<path d="M7.59533 10.5664C7.35566 10.5427 7.11167 10.5627 6.87067 10.5567C5.93733 10.66 3.88633 10.0627 3.75833 11.4597C3.64933 12.5114 3.725 13.7214 5.11433 13.4427C6.054 13.3257 7.44333 13.8094 8.13933 12.979C8.269 12.2524 8.59333 10.7724 7.59533 10.5664ZM7.76033 11.841C7.50429 11.8605 7.24683 11.8486 6.99367 11.8057C6.81333 11.5624 6.95233 11.0937 6.91167 10.769C7.61867 10.644 7.83333 11.246 7.76033 11.841ZM4.41567 10.8507C4.607 10.7027 4.867 10.8044 5.092 10.776V11.8147H4.23333C4.21733 11.4837 4.18967 11.0664 4.41567 10.8507ZM4.542 13.147C4.20867 12.947 4.22633 12.539 4.238 12.1847H5.092V13.233C4.90423 13.2565 4.71364 13.2267 4.542 13.147ZM7.43467 13.2234H5.57467C5.57467 12.406 5.57467 11.5934 5.57467 10.776H6.42333C6.296 11.9724 6.53833 12.3024 7.766 12.1584C7.78467 12.542 7.80733 13.2084 7.43333 13.2234H7.43467Z" fill="#262626"/>
<path d="M1.57666 1.81812C1.77666 1.80846 2.29532 1.88779 2.22299 1.56679C2.04332 1.38179 1.06666 1.59946 1.57666 1.81812Z" fill="#262626"/>
<path d="M3.24432 1.82125C3.44432 1.81192 3.96632 1.89058 3.88932 1.56625C3.70799 1.37625 2.73032 1.59692 3.24432 1.82125Z" fill="#262626"/>
<path d="M5.13633 1.76844C5.25033 1.80478 5.75266 1.64678 5.489 1.56344C5.14066 1.47244 4.30833 1.78678 5.13633 1.76844Z" fill="#262626"/>
<path d="M16.3093 1.83268C16.605 1.79601 19.2807 2.01201 18.3573 1.49734C18.0617 1.53501 15.386 1.31901 16.3093 1.83268Z" fill="#262626"/>
<path d="M4.354 16.4093C4.73534 16.3526 4.524 15.8736 4.575 15.6013C4.46267 15.5116 4.26434 15.5976 4.148 15.6573C4.059 15.8463 3.956 16.5959 4.354 16.4093Z" fill="#262626"/>
<path d="M5.82433 16.4329C5.99867 16.1995 6.02967 15.2169 5.509 15.5635C5.33333 15.7995 5.30367 16.7809 5.82433 16.4329Z" fill="#262626"/>
<path d="M7.02865 16.4399C7.34665 16.4563 7.37632 15.3273 6.97132 15.5586C6.65332 15.5423 6.62365 16.6713 7.02865 16.4399Z" fill="#262626"/>
<path d="M8.517 16.4572C9.008 16.5819 9.017 15.7379 8.817 15.5419C8.32533 15.4169 8.316 16.2612 8.517 16.4572Z" fill="#262626"/>
<path d="M9.843 16.4292C10.3747 16.4748 10.2277 15.9592 10.243 15.6012C10.1593 15.5685 10.0673 15.5634 9.98045 15.5866C9.89362 15.6099 9.81649 15.6603 9.76033 15.7305C9.80867 15.9325 9.64633 16.3518 9.843 16.4292Z" fill="#262626"/>
<path d="M11.1753 16.4263C11.7063 16.4683 11.562 15.9616 11.5753 15.6013C11.4912 15.5717 11.4001 15.5682 11.314 15.5912C11.2279 15.6143 11.1507 15.6629 11.0927 15.7306C11.1417 15.9296 10.9803 16.3526 11.1753 16.4263Z" fill="#262626"/>
<path d="M12.8487 16.4514C13.3867 16.5231 13.221 15.9447 13.2413 15.6014C13.2021 15.5749 13.1576 15.5572 13.1109 15.5494C13.0641 15.5416 13.0163 15.544 12.9706 15.5562C12.9248 15.5685 12.8823 15.5904 12.8457 15.6205C12.8091 15.6506 12.7795 15.6882 12.7587 15.7307C12.8093 15.9431 12.643 16.3494 12.8487 16.4514Z" fill="#262626"/>
<path d="M14.1773 16.4331C14.3106 16.4275 14.5216 16.4031 14.5746 16.2665C14.5246 16.0635 14.6876 15.6458 14.4893 15.5635C14.356 15.5691 14.145 15.5935 14.092 15.7301C14.142 15.9331 13.979 16.3518 14.1773 16.4331Z" fill="#262626"/>
<path d="M15.6896 15.4947C15.2803 15.5237 15.3916 16.2114 15.4796 16.4691C16.008 16.7884 16.1033 15.4617 15.6896 15.4947Z" fill="#262626"/>
<path d="M7.01834 17.4773C6.11034 17.6246 4.80301 17.1676 4.08768 17.681C3.95568 18.028 8.33701 17.9636 7.01834 17.4773Z" fill="#262626"/>
<path d="M11.3543 17.4878C10.4413 17.6304 9.15434 17.1878 8.42101 17.6841C8.30368 18.0098 12.6473 17.9454 11.3543 17.4878Z" fill="#262626"/>
<path d="M15.7627 17.5371C14.796 17.6331 13.669 17.3371 12.7763 17.6655C12.5707 17.9251 16.6867 17.8871 15.7627 17.5371Z" fill="#262626"/>
<path d="M10.7553 6.17676C10.2267 6.27342 10.0357 6.99109 9.66799 7.34342C9.55999 7.09776 9.02565 7.13709 9.11065 7.43209L9.44399 7.76542C10.072 7.97309 10.353 6.86042 10.77 6.51442C10.8817 6.39942 11.0047 6.19942 10.7553 6.17676Z" fill="#262626"/>
</g>
<defs>
<clipPath id="clip0_184_235">
<rect width="20" height="20" fill="white"/>
</clipPath>
</defs>
</svg>
