<svg width="20" height="20" viewBox="0 0 20 20" fill="none" xmlns="http://www.w3.org/2000/svg">
<path d="M12.8177 17.8236C12.7617 17.8236 12.7073 17.7953 12.6757 17.7443C12.6283 17.6676 12.651 17.5673 12.726 17.5176L14.6457 16.2596L11.9863 17.7946C11.908 17.84 11.809 17.8146 11.7613 17.7386C11.7137 17.6623 11.7357 17.562 11.81 17.512L15.3857 15.1183L11.3353 17.457C11.257 17.503 11.1567 17.477 11.1093 17.3993C11.0623 17.322 11.086 17.221 11.1623 17.172L13.157 15.9006L11.1283 17.072C11.05 17.1173 10.951 17.0923 10.9033 17.0156C10.8557 16.939 10.8777 16.839 10.9527 16.789L15.1417 14.0056L11.0933 16.343C11.0153 16.3883 10.916 16.3633 10.8683 16.2866C10.8207 16.21 10.8427 16.11 10.9177 16.06L15.15 13.2473L11.093 15.5893C11.0147 15.6353 10.914 15.609 10.8667 15.531C10.8197 15.4533 10.8443 15.352 10.921 15.3036L11.7657 14.7743L11.0927 15.1626C11.0147 15.208 10.9147 15.183 10.8673 15.106C10.82 15.029 10.8423 14.929 10.9173 14.879L14.826 12.305L11.0927 14.4606C11.0143 14.5063 10.9147 14.4806 10.867 14.4033C10.8197 14.3263 10.843 14.2256 10.9187 14.1763L14.0953 12.1186L11.0923 13.8523C11.014 13.898 10.914 13.8726 10.8667 13.795C10.8193 13.718 10.8427 13.6173 10.9183 13.568L13.9387 11.6176L11.0923 13.261C11.014 13.307 10.9143 13.2806 10.8663 13.2033C10.8193 13.126 10.843 13.025 10.919 12.976L13.281 11.468L11.0923 12.7316C11.014 12.777 10.914 12.752 10.867 12.6746C10.8197 12.5976 10.8423 12.4973 10.9177 12.4476L14.3887 10.1856L11.092 12.089C11.0137 12.1346 10.9143 12.109 10.8667 12.0323C10.8193 11.9556 10.8417 11.855 10.917 11.8053L14.7267 9.30263L11.092 11.4013C11.0137 11.447 10.914 11.4213 10.8663 11.3443C10.819 11.2673 10.842 11.1666 10.9177 11.1173L14.2593 8.9453L11.0917 10.774C11.0137 10.8193 10.9137 10.794 10.8663 10.7173C10.819 10.6406 10.8413 10.5403 10.9163 10.4903L14.827 7.91464L11.0913 10.0716C11.013 10.1173 10.913 10.092 10.8657 10.0143C10.8183 9.93664 10.8417 9.8363 10.9177 9.7873L13.7783 7.9453L11.091 9.49663C11.0127 9.5423 10.9133 9.51663 10.8657 9.43997C10.8183 9.3633 10.8407 9.26264 10.916 9.21297L14.6867 6.73863L11.091 8.81464C11.0127 8.85997 10.9127 8.83497 10.8653 8.7573C10.818 8.6803 10.8413 8.5793 10.917 8.5303L13.8657 6.62797L11.091 8.22997C11.0127 8.27563 10.9127 8.2503 10.8653 8.17264C10.818 8.09563 10.8413 7.99464 10.9173 7.94564L13.601 6.21563L11.091 7.66464C11.013 7.70963 10.914 7.68464 10.8663 7.60864C10.8187 7.5323 10.84 7.43263 10.9147 7.3823L14.6397 4.86863L11.091 6.9173C11.013 6.96263 10.913 6.93763 10.866 6.86063C10.8183 6.7843 10.8407 6.68363 10.9157 6.63397L13.016 5.24597L11.091 6.3573C11.013 6.40263 10.9137 6.37764 10.866 6.30097C10.8183 6.2243 10.8403 6.1243 10.915 6.0743L12.4267 5.0663L11.0907 5.8373C11.013 5.88263 10.9147 5.85797 10.8667 5.78263C10.8187 5.70697 10.8387 5.60763 10.912 5.5563L12.5187 4.43563L11.0907 5.2603C11.0143 5.30497 10.9157 5.28097 10.8677 5.20697C10.819 5.1323 10.8377 5.0333 10.9093 4.9813L12.1527 4.07797L11.0903 4.6913C11.0143 4.7363 10.9163 4.7123 10.8677 4.63863C10.819 4.56497 10.8367 4.4663 10.9073 4.4133L11.583 3.90963L11.09 4.1943C11.0143 4.23797 10.9177 4.2163 10.8687 4.14364C10.82 4.0713 10.8347 3.9733 10.9033 3.9193L11.2597 3.63797L11.0897 3.73597C11.0223 3.77564 10.936 3.7623 10.8833 3.70397C10.8307 3.6463 10.825 3.5593 10.8703 3.49564L11.3103 2.87164L11.2837 2.88697C11.2037 2.93297 11.1017 2.90597 11.056 2.82597C11.0097 2.7463 11.037 2.6443 11.117 2.5983L11.8 2.20397C11.8673 2.16464 11.9537 2.17764 12.0063 2.23597C12.059 2.29364 12.0647 2.38064 12.0193 2.4443L11.5797 3.06797L13.0893 2.19664C13.164 2.1523 13.2613 2.17464 13.3107 2.2473C13.3593 2.31964 13.3447 2.41764 13.276 2.47164L12.92 2.75264L13.8833 2.19664C13.9597 2.1523 14.0573 2.17597 14.106 2.2493C14.1547 2.32264 14.137 2.42164 14.0663 2.47464L13.3897 2.97897L14.7447 2.19664C14.821 2.1513 14.9197 2.17597 14.9677 2.24997C15.0163 2.32464 14.9977 2.42364 14.926 2.47564L13.6837 3.37764L15.7297 2.19664C15.806 2.15164 15.9057 2.17597 15.9537 2.2513C16.0017 2.32664 15.9817 2.4263 15.9083 2.47764L14.3003 3.59897L16.7297 2.19664C16.8077 2.15097 16.907 2.17597 16.9547 2.25297C17.0023 2.3293 16.9803 2.42964 16.9057 2.47964L15.3957 3.48663L17.63 2.19664C17.708 2.15097 17.8077 2.17597 17.855 2.2533C17.9027 2.32964 17.8803 2.4303 17.8053 2.47997L15.7063 3.8673L18.598 2.19764C18.676 2.15197 18.7747 2.17697 18.8227 2.25364C18.8703 2.32997 18.849 2.42964 18.7743 2.47997L15.047 4.99497L19.3183 2.5293C19.3967 2.48364 19.4967 2.50897 19.544 2.58664C19.5913 2.66364 19.568 2.76463 19.492 2.81363L16.8083 4.54364L19.5433 2.96497C19.6217 2.9193 19.7217 2.94464 19.769 3.0223C19.8163 3.0993 19.793 3.2003 19.7173 3.2493L16.771 5.1503L19.57 3.53397C19.6487 3.4883 19.7477 3.51397 19.7953 3.59064C19.8427 3.6673 19.8203 3.76797 19.745 3.81763L15.9743 6.29197L19.57 4.21597C19.6487 4.17064 19.7483 4.19564 19.7957 4.2733C19.843 4.35097 19.8197 4.4513 19.7437 4.5003L16.883 6.3423L19.5703 4.79097C19.649 4.7453 19.748 4.77097 19.7957 4.84763C19.843 4.9243 19.8207 5.02463 19.7457 5.07463L15.835 7.6503L19.5707 5.4933C19.6493 5.44763 19.7487 5.4733 19.7963 5.5503C19.8437 5.6273 19.8207 5.72797 19.745 5.7773L16.4033 7.9493L19.571 6.12063C19.6497 6.07497 19.7487 6.10063 19.7963 6.1773C19.8437 6.25397 19.8213 6.35463 19.746 6.4043L15.9363 8.90697L19.571 6.8083C19.6497 6.76263 19.7493 6.78797 19.7963 6.8653C19.8437 6.9423 19.821 7.04297 19.7457 7.0923L16.2747 9.3543L19.5713 7.45097C19.6503 7.4053 19.75 7.4313 19.7973 7.50864C19.8443 7.58597 19.8207 7.68697 19.7447 7.73597L17.3827 9.24397L19.5713 7.9803C19.65 7.9343 19.7497 7.9603 19.797 8.03763C19.8443 8.11497 19.821 8.2153 19.7453 8.26463L16.725 10.215L19.5713 8.57164C19.65 8.5263 19.7493 8.55163 19.797 8.62897C19.8443 8.70597 19.821 8.80663 19.7453 8.85597L16.5687 10.9136L19.5717 9.17997C19.6493 9.1343 19.749 9.15963 19.797 9.23663C19.8443 9.3133 19.822 9.41363 19.747 9.46363L15.8383 12.0376L19.5717 9.88197C19.6507 9.8363 19.751 9.8623 19.798 9.9403C19.845 10.0183 19.8203 10.1193 19.7437 10.1676L18.893 10.7006L19.5717 10.309C19.6493 10.263 19.749 10.2886 19.7967 10.3653C19.8443 10.442 19.8223 10.542 19.7473 10.592L15.517 13.4033L19.572 11.0623C19.6497 11.0163 19.7493 11.042 19.797 11.1186C19.8447 11.1953 19.8227 11.2953 19.7477 11.3453L15.557 14.1296L19.5723 11.8116C19.6513 11.7663 19.7513 11.792 19.7983 11.8693C19.8453 11.9466 19.8217 12.0476 19.7453 12.0966L17.753 13.3666L19.5723 12.3163C19.65 12.2706 19.7497 12.296 19.7973 12.3723C19.845 12.4486 19.823 12.549 19.7487 12.599L16.1723 14.993L19.5723 13.03C19.651 12.9846 19.75 13.01 19.7977 13.087C19.845 13.1636 19.8223 13.264 19.7473 13.3136L17.829 14.571L19.5723 13.5643C19.6487 13.5193 19.7477 13.5436 19.796 13.6183C19.8443 13.6933 19.8247 13.7926 19.7523 13.8443L17.076 15.7463L19.5723 14.3053C19.65 14.2593 19.7497 14.2846 19.7977 14.362C19.845 14.4383 19.8227 14.539 19.7477 14.5886L19.5183 14.7403L19.5727 14.709C19.649 14.6636 19.7487 14.6883 19.7967 14.7636C19.8447 14.839 19.8247 14.9386 19.7513 14.99L18.8943 15.5893L19.5727 15.1976C19.6487 15.1523 19.7477 15.1763 19.7963 15.2516C19.8443 15.3266 19.8253 15.4256 19.753 15.4776L19.3187 15.7876L19.5727 15.6413C19.647 15.5976 19.7433 15.619 19.7927 15.69C19.842 15.7606 19.829 15.8576 19.7627 15.9133L19.0007 16.5503L19.5727 16.2203C19.6447 16.1776 19.738 16.197 19.789 16.2643C19.8397 16.3316 19.832 16.4263 19.7713 16.4846L19.4133 16.829L19.5443 16.7533C19.6233 16.7066 19.726 16.734 19.772 16.8143C19.8183 16.894 19.791 16.996 19.711 17.042L18.3943 17.802C18.322 17.8443 18.2287 17.825 18.178 17.758C18.1273 17.6906 18.135 17.596 18.1957 17.5376L18.5533 17.1936L17.4997 17.802C17.425 17.8456 17.329 17.8243 17.2797 17.7533C17.2303 17.6826 17.2433 17.5856 17.3097 17.53L18.072 16.8926L16.4963 17.8023C16.4197 17.847 16.321 17.823 16.2727 17.7483C16.2247 17.6733 16.2437 17.5743 16.316 17.5223L16.7503 17.2123L15.7287 17.8023C15.651 17.8473 15.5527 17.823 15.5047 17.7476C15.4567 17.6723 15.4767 17.5726 15.55 17.5213L16.406 16.9226L14.8827 17.8023C14.804 17.8473 14.705 17.8226 14.6573 17.7456C14.61 17.6693 14.6323 17.5686 14.7073 17.519L14.9397 17.3653L14.1827 17.8023C14.1063 17.8473 14.0077 17.823 13.959 17.7483C13.9107 17.6733 13.9303 17.574 14.0027 17.5223L16.6783 15.621L12.8997 17.8023C12.8733 17.8176 12.8447 17.8246 12.8163 17.8246L12.8177 17.8236Z" fill="#25A8FF"/>
<path d="M13.8247 3.82287C13.7723 3.82287 13.721 3.7982 13.6887 3.75254C13.639 3.6822 13.651 3.58587 13.716 3.52987L13.8907 3.37987L13.3713 3.6792C13.303 3.71987 13.215 3.70454 13.1623 3.64454C13.11 3.5842 13.1077 3.49554 13.1563 3.43254L13.56 2.9152L13.0967 3.18254C13.0307 3.2212 12.947 3.2092 12.8933 3.15387C12.8403 3.09887 12.8313 3.01454 12.8723 2.94987L12.958 2.81354C12.8967 2.83154 12.828 2.81087 12.7847 2.75954L12.6053 2.5442C12.5523 2.5502 12.4837 2.51787 12.4507 2.4612C12.4047 2.38154 12.432 2.27954 12.512 2.2332L12.572 2.19854C12.6427 2.1582 12.7317 2.1742 12.7837 2.23654L12.9517 2.4382L13.367 2.19854C13.4327 2.15987 13.517 2.17154 13.5703 2.2272C13.6233 2.2822 13.6323 2.36654 13.5913 2.4312L13.5117 2.55787L14.1347 2.19854C14.2037 2.15854 14.2913 2.1732 14.3437 2.2332C14.396 2.2932 14.3983 2.3822 14.3497 2.4452L13.946 2.96254L15.2697 2.19854C15.3443 2.1552 15.4393 2.1762 15.489 2.24654C15.5387 2.31687 15.5267 2.4132 15.4617 2.4692L15.2863 2.61987L16.0163 2.19854C16.0907 2.1552 16.186 2.1762 16.236 2.24687C16.2853 2.31754 16.273 2.4142 16.2077 2.46987L16.063 2.59254L16.7457 2.19854C16.8147 2.15787 16.904 2.17354 16.9563 2.23487C17.0083 2.29687 17.0087 2.38654 16.9577 2.44887L16.4613 3.04954L17.936 2.19854C18.004 2.1582 18.092 2.17254 18.1447 2.2332C18.197 2.29287 18.2 2.3812 18.1517 2.44454L17.5917 3.17287C17.6383 3.1812 17.681 3.2092 17.7063 3.25354C17.7527 3.3332 17.7253 3.4352 17.6453 3.4812L17.094 3.79987C17.0253 3.83987 16.9377 3.82554 16.8853 3.76554C16.833 3.70554 16.83 3.6172 16.8783 3.55387L17.3757 2.90687L15.8273 3.80054C15.7577 3.84087 15.6687 3.82554 15.6167 3.7642C15.5647 3.7022 15.5643 3.61254 15.6153 3.5502L16.1113 2.94954L14.6373 3.80054C14.5633 3.84454 14.4677 3.8232 14.418 3.7522C14.3683 3.68154 14.3807 3.58487 14.446 3.5292L14.5913 3.40587L13.9077 3.80054C13.8817 3.81587 13.853 3.82287 13.8247 3.82287Z" fill="#404E60"/>
<path d="M4.28768 17.8229C4.23201 17.8229 4.17768 17.7949 4.14601 17.7442C4.09835 17.6679 4.12035 17.5675 4.19535 17.5175L4.49635 17.3172L3.65901 17.8002C3.58268 17.8449 3.48368 17.8209 3.43568 17.7465C3.38735 17.6715 3.40635 17.5725 3.47835 17.5205L6.16501 15.5915L2.33901 17.8002C2.26068 17.8452 2.16168 17.8202 2.11401 17.7442C2.06635 17.6679 2.08835 17.5675 2.16268 17.5175L4.76401 15.7739L1.27235 17.7895C1.19401 17.8352 1.09435 17.8095 1.04668 17.7322C0.999347 17.6552 1.02268 17.5545 1.09835 17.5052L3.34268 16.0539L0.75668 17.5469C0.678347 17.5932 0.578013 17.5669 0.53068 17.4889C0.48368 17.4115 0.507347 17.3105 0.584013 17.2619L2.23201 16.2149L0.510013 17.2089C0.43168 17.2552 0.331347 17.2289 0.284014 17.1509C0.237014 17.0732 0.261014 16.9722 0.33768 16.9235L1.83735 15.9759L0.426013 16.7905C0.34768 16.8355 0.248347 16.8109 0.20068 16.7339C0.153347 16.6575 0.17568 16.5569 0.25068 16.5072L4.23935 13.8752L0.426013 16.0765C0.347014 16.1222 0.246347 16.0959 0.19968 16.0182C0.15268 15.9402 0.177347 15.8392 0.254347 15.7909L0.678013 15.5262L0.42568 15.6719C0.347013 15.7179 0.24668 15.6922 0.19968 15.6135C0.152347 15.5359 0.17668 15.4349 0.253347 15.3865L1.43468 14.6435L0.42568 15.2259C0.347347 15.2715 0.247347 15.2462 0.200014 15.1685C0.15268 15.0915 0.176014 14.9909 0.25168 14.9415L3.28735 12.9809L0.425347 14.6329C0.347014 14.6782 0.24768 14.6532 0.200347 14.5762C0.15268 14.4999 0.175014 14.3995 0.24968 14.3495L4.37068 11.6202L0.425013 13.8982C0.34668 13.9439 0.24668 13.9185 0.199347 13.8409C0.152014 13.7632 0.175347 13.6629 0.251347 13.6135L3.10201 11.7785L0.425013 13.3242C0.34668 13.3692 0.24768 13.3445 0.200014 13.2679C0.152347 13.1912 0.174347 13.0909 0.249347 13.0409L4.45501 10.2485L0.42468 12.5752C0.346014 12.6215 0.246347 12.5952 0.199014 12.5175C0.15168 12.4399 0.175347 12.3395 0.251347 12.2905L2.70868 10.7189L0.424347 12.0375C0.346014 12.0829 0.247014 12.0579 0.199347 11.9812C0.15168 11.9045 0.17368 11.8045 0.24868 11.7545L4.49235 8.9332L0.424013 11.2822C0.345347 11.3282 0.245013 11.3025 0.198014 11.2242C0.151014 11.1465 0.175014 11.0455 0.25168 10.9969L1.81568 10.0089L0.42368 10.8122C0.345347 10.8575 0.246347 10.8325 0.19868 10.7559C0.151014 10.6792 0.173013 10.5792 0.24768 10.5292L4.56668 7.65187L0.427347 10.0469C0.349013 10.0925 0.249014 10.0672 0.202014 9.98987C0.15468 9.9132 0.177347 9.81253 0.25268 9.76287L3.86401 7.40187L0.427347 9.3862C0.349013 9.43153 0.24968 9.40687 0.202347 9.32953C0.15468 9.2532 0.177014 9.15253 0.252013 9.10287L4.29101 6.43353L0.427347 8.66453C0.34868 8.71087 0.248347 8.68453 0.201347 8.60653C0.154347 8.52853 0.178347 8.42753 0.255014 8.3792L1.56035 7.55687L0.427347 8.21087C0.349013 8.25587 0.250014 8.23087 0.202347 8.15487C0.15468 8.07853 0.17668 7.9782 0.251014 7.9282L4.34401 5.1862L0.427347 7.4482C0.34968 7.49353 0.25068 7.46887 0.20268 7.39253C0.155014 7.3162 0.176347 7.21653 0.25068 7.16587L3.74068 4.80053L0.427347 6.71353C0.34968 6.7592 0.251014 6.7342 0.203014 6.65853C0.155014 6.58253 0.17568 6.4832 0.249347 6.4322L2.95968 4.56253L0.427347 6.02453C0.34968 6.0702 0.25068 6.0452 0.20268 5.96887C0.155014 5.89253 0.176347 5.79287 0.25068 5.7422L1.66335 4.78353L0.427347 5.4972C0.34968 5.54253 0.251347 5.51787 0.203347 5.44253C0.155347 5.3672 0.175347 5.26753 0.24868 5.2162L1.34401 4.4532L0.427347 4.98253C0.34968 5.0282 0.251014 5.0032 0.203014 4.9272C0.155014 4.8512 0.176014 4.75153 0.24968 4.70087L0.394347 4.60153C0.326347 4.62353 0.247347 4.59787 0.205347 4.53453C0.15668 4.46087 0.17368 4.3622 0.244347 4.3092L0.81868 3.87887L0.42768 4.10453C0.352013 4.14853 0.255347 4.1262 0.206347 4.05387C0.15768 3.98153 0.172347 3.88353 0.241014 3.82953L0.47668 3.64353L0.42768 3.67187C0.360013 3.71187 0.27268 3.6982 0.21968 3.6382C0.167347 3.5792 0.163347 3.49153 0.21068 3.42787L0.60668 2.89653C0.530347 2.93153 0.437013 2.90287 0.394347 2.82787C0.348013 2.7482 0.375347 2.6462 0.455347 2.6002L1.13835 2.20587C1.20668 2.1662 1.29401 2.17987 1.34635 2.23953C1.39868 2.29853 1.40268 2.3862 1.35535 2.44987L0.96068 2.9792L2.31301 2.19853C2.38801 2.1542 2.48501 2.17653 2.53435 2.2492C2.58301 2.32153 2.56835 2.41953 2.49968 2.47353L2.26468 2.6592L3.06235 2.19853C3.13768 2.15387 3.23601 2.1772 3.28468 2.25087C3.33335 2.32453 3.31635 2.4232 3.24568 2.4762L2.67035 2.9072L3.89835 2.19853C3.97635 2.15353 4.07468 2.17787 4.12268 2.25387C4.17068 2.32987 4.14968 2.42953 4.07601 2.4802L3.97368 2.5502L4.58301 2.19853C4.65935 2.15353 4.75901 2.17787 4.80701 2.2532C4.85501 2.32887 4.83501 2.4282 4.76168 2.47953L3.66668 3.2422L5.47435 2.19853C5.55268 2.15353 5.65135 2.17787 5.69901 2.2542C5.74668 2.33053 5.72535 2.4302 5.65101 2.48087L4.23801 3.43987L6.38768 2.19853C6.46568 2.15353 6.56401 2.1782 6.61201 2.25353C6.66001 2.32953 6.63935 2.42887 6.56568 2.47987L3.85535 4.34953L7.58135 2.19853C7.65935 2.15353 7.75835 2.17787 7.80601 2.2542C7.85368 2.33053 7.83235 2.4302 7.75801 2.48087L4.26701 4.84687L8.51101 2.39653C8.58868 2.35087 8.68801 2.37587 8.73601 2.45253C8.78368 2.52887 8.76168 2.6292 8.68735 2.6792L4.59468 5.42087L8.87735 2.94853C8.95635 2.9032 9.05668 2.92853 9.10335 3.00687C9.15035 3.0842 9.12635 3.18553 9.04968 3.23387L7.74835 4.05387L8.90801 3.3842C8.98601 3.3382 9.08535 3.36353 9.13301 3.44087C9.18068 3.5172 9.15835 3.61787 9.08335 3.66753L5.04435 6.33687L8.90835 4.1062C8.98635 4.06087 9.08668 4.0862 9.13368 4.1632C9.18101 4.23987 9.15835 4.34053 9.08301 4.3902L5.47168 6.7512L8.90868 4.76687C8.98668 4.7212 9.08568 4.7462 9.13368 4.8232C9.18135 4.89953 9.15935 4.99987 9.08468 5.04987L4.76568 7.9272L8.90901 5.5352C8.98801 5.48953 9.08801 5.5152 9.13501 5.5932C9.18201 5.6712 9.15801 5.77187 9.08135 5.82053L7.51735 6.80853L8.90935 6.0052C8.98735 5.95953 9.08635 5.98453 9.13435 6.06153C9.18201 6.13787 9.16001 6.2382 9.08501 6.2882L4.84135 9.10953L8.90968 6.76053C8.98868 6.7152 9.08835 6.74087 9.13535 6.8182C9.18268 6.89553 9.15901 6.9962 9.08301 7.0452L6.62568 8.61687L8.91001 7.2982C8.98801 7.25253 9.08701 7.27753 9.13501 7.35453C9.18268 7.43087 9.16068 7.53153 9.08568 7.58153L4.88001 10.3739L8.91035 8.0472C8.98835 8.00187 9.08868 8.02687 9.13601 8.10453C9.18335 8.1822 9.16001 8.28253 9.08401 8.33187L6.23335 10.1669L8.91035 8.6212C8.98835 8.57553 9.08768 8.60053 9.13535 8.67787C9.18301 8.7542 9.16068 8.85453 9.08601 8.90453L4.96301 11.6352L8.91068 9.3562C8.98868 9.31053 9.08901 9.33587 9.13635 9.41353C9.18368 9.49053 9.16035 9.5912 9.08468 9.64053L6.05201 11.5992L8.91068 9.94887C8.98968 9.90353 9.08968 9.92887 9.13668 10.0072C9.18401 10.0849 9.15968 10.1859 9.08301 10.2342L7.90168 10.9772L8.91068 10.3949C8.98935 10.3485 9.09001 10.3752 9.13701 10.4532C9.18401 10.5312 9.15935 10.6322 9.08235 10.6805L8.65868 10.9452L8.91101 10.7995C8.98901 10.7539 9.08835 10.7789 9.13635 10.8562C9.18368 10.9325 9.16135 11.0332 9.08635 11.0829L5.09768 13.7149L8.91101 11.5135C8.99001 11.4679 9.09001 11.4935 9.13701 11.5715C9.18401 11.6495 9.16001 11.7502 9.08335 11.7989L7.58335 12.7469L8.91101 11.9802C8.99001 11.9345 9.09001 11.9602 9.13701 12.0382C9.18401 12.1155 9.16035 12.2165 9.08368 12.2652L7.43601 13.3119L8.91135 12.4602C8.98935 12.4149 9.08935 12.4399 9.13701 12.5175C9.18435 12.5945 9.16101 12.6952 9.08535 12.7445L6.84101 14.1959L8.91168 13.0005C8.98968 12.9545 9.08868 12.9802 9.13668 13.0565C9.18435 13.1329 9.16235 13.2332 9.08801 13.2832L6.48535 15.0279L8.91168 13.6272C8.98801 13.5822 9.08701 13.6062 9.13501 13.6809C9.18335 13.7559 9.16435 13.8549 9.09235 13.9069L6.40568 15.8359L8.91168 14.3892C8.98968 14.3432 9.08868 14.3685 9.13668 14.4455C9.18435 14.5219 9.16235 14.6222 9.08735 14.6722L8.78668 14.8725L8.91201 14.8002C8.98835 14.7559 9.08635 14.7789 9.13501 14.8535C9.18335 14.9275 9.16535 15.0269 9.09368 15.0789L7.87501 15.9702L8.91201 15.3715C8.98635 15.3279 9.08135 15.3495 9.13101 15.4192C9.18068 15.4892 9.16935 15.5859 9.10435 15.6419L7.95235 16.6382L8.91201 16.0842C8.98135 16.0432 9.07135 16.0592 9.12335 16.1215C9.17535 16.1839 9.17501 16.2742 9.12268 16.3362L8.52935 17.0362L8.85668 16.8475C8.93601 16.8012 9.03835 16.8285 9.08435 16.9085C9.13068 16.9882 9.10335 17.0902 9.02335 17.1362L7.86535 17.8045C7.79568 17.8455 7.70601 17.8292 7.65401 17.7672C7.60201 17.7052 7.60235 17.6145 7.65468 17.5525L8.24768 16.8529L6.59935 17.8042C6.52635 17.8479 6.43035 17.8269 6.38035 17.7565C6.33068 17.6865 6.34201 17.5899 6.40701 17.5339L7.55901 16.5375L5.36501 17.8042C5.28935 17.8489 5.19068 17.8255 5.14201 17.7509C5.09368 17.6769 5.11168 17.5775 5.18335 17.5255L6.40135 16.6345L4.37568 17.8042C4.34935 17.8195 4.32068 17.8265 4.29235 17.8265L4.28768 17.8229Z" fill="#25A8FF"/>
<path d="M3.15398 3.82378C3.10198 3.82378 3.05032 3.79911 3.01832 3.75378C2.96865 3.68378 2.97998 3.58745 3.04465 3.53145L3.24799 3.35478L2.69499 3.67378C2.62332 3.71578 2.53165 3.69778 2.47998 3.63211C2.42898 3.56678 2.43365 3.47345 2.49165 3.41378L2.81132 3.08311L2.44598 3.29411C2.37865 3.33345 2.29232 3.31978 2.23965 3.26211C2.18698 3.20411 2.18132 3.11711 2.22665 3.05345L2.35732 2.86911C2.28598 2.90511 2.19898 2.88645 2.14998 2.82278L1.93398 2.54511C1.88265 2.54245 1.81599 2.51711 1.78432 2.46178C1.73832 2.38211 1.76565 2.28011 1.84565 2.23378L1.90565 2.19911C1.97865 2.15811 2.06965 2.17578 2.12065 2.24145L2.32432 2.50345L2.85065 2.19945C2.91832 2.15978 3.00465 2.17378 3.05698 2.23145C3.10965 2.28945 3.11532 2.37645 3.06999 2.44011L2.93932 2.62445L3.67532 2.19978C3.74665 2.15778 3.83798 2.17578 3.89032 2.24145C3.94132 2.30678 3.93665 2.40011 3.87865 2.45978L3.55865 2.79045L4.58232 2.19978C4.65665 2.15611 4.75165 2.17745 4.80132 2.24745C4.85099 2.31745 4.83965 2.41345 4.77499 2.46978L4.57132 2.64678L5.34599 2.19978C5.41599 2.15811 5.50699 2.17511 5.55899 2.23911C5.61065 2.30278 5.60799 2.39478 5.55299 2.45545L5.07598 2.98278L6.43299 2.19945C6.50165 2.15878 6.59032 2.17411 6.64265 2.23478C6.69498 2.29545 6.69665 2.38511 6.64665 2.44778L6.14865 3.07045L6.95865 2.60311C7.02665 2.56278 7.11465 2.57745 7.16732 2.63745C7.21965 2.69745 7.22265 2.78578 7.17432 2.84911L6.92498 3.17378C6.97198 3.18211 7.01465 3.21011 7.03999 3.25445C7.08632 3.33411 7.05899 3.43611 6.97899 3.48211L6.42765 3.80078C6.35899 3.84078 6.27132 3.82645 6.21899 3.76645C6.16665 3.70645 6.16365 3.61811 6.21199 3.55478L6.39932 3.31111L5.54998 3.80145C5.48098 3.84145 5.39232 3.82645 5.34032 3.76611C5.28799 3.70511 5.28632 3.61578 5.33632 3.55311L5.83432 2.93045L4.32532 3.80145C4.25432 3.84278 4.16399 3.82578 4.11232 3.76211C4.06065 3.69845 4.06332 3.60645 4.11832 3.54578L4.59565 3.01811L3.23798 3.80178C3.21198 3.81711 3.18298 3.82411 3.15465 3.82411L3.15398 3.82378Z" fill="#404E60"/>
<path d="M6.15865 9.16674C6.10132 9.16674 6.04498 9.13674 6.01432 9.0834C5.96798 9.00374 5.99532 8.90174 6.07532 8.85574L10.6767 6.1994C10.752 6.15507 10.8497 6.17774 10.8983 6.25074C10.947 6.32374 10.9313 6.42207 10.862 6.4754L9.39532 7.60707L11.8337 6.1994C11.9087 6.1554 12.005 6.1774 12.0543 6.24907C12.1033 6.3204 12.0893 6.41807 12.022 6.47274L10.3827 7.8054L12.5107 6.57707C12.5857 6.53307 12.6817 6.55507 12.731 6.6264C12.7803 6.69774 12.7667 6.79507 12.6997 6.85007L11.5013 7.83374L12.574 7.21474C12.6473 7.17207 12.7427 7.1924 12.7923 7.2614C12.8423 7.33074 12.8317 7.42674 12.768 7.48374L12.1543 8.02907L12.574 7.78674C12.6397 7.74807 12.7233 7.75974 12.7767 7.81474C12.8297 7.86907 12.8393 7.95274 12.7993 8.01774L12.493 8.51874C12.5703 8.48507 12.663 8.5124 12.706 8.5874C12.7523 8.66707 12.725 8.76907 12.645 8.81507L12.0937 9.1334C12.028 9.17174 11.9443 9.1604 11.891 9.1054C11.838 9.05107 11.8283 8.9674 11.8683 8.9024L12.1737 8.40274L10.903 9.13607C10.8297 9.17974 10.7343 9.1584 10.6847 9.0894C10.6347 9.02007 10.6453 8.92407 10.709 8.86707L11.3223 8.32207L9.90998 9.1374C9.83498 9.18174 9.73898 9.1594 9.68965 9.08807C9.64032 9.01674 9.65398 8.9194 9.72098 8.8644L10.92 7.88007L8.73832 9.1394C8.66365 9.18374 8.56698 9.1614 8.51765 9.08974C8.46865 9.0184 8.48265 8.92074 8.54998 8.86607L10.1893 7.5334L7.40298 9.14174C7.32765 9.1864 7.22999 9.1634 7.18132 9.0904C7.13265 9.0174 7.14832 8.91907 7.21765 8.86574L8.68465 7.73374L6.24232 9.1434C6.21598 9.15874 6.18732 9.16574 6.15898 9.16574L6.15865 9.16674Z" fill="#64E570"/>
<path d="M5.23068 10.3766C5.18601 10.3766 5.14168 10.3586 5.10934 10.3243C5.05668 10.2683 5.04901 10.1829 5.09134 10.1183L5.46534 9.5506L4.83301 9.9156C4.75701 9.9606 4.65901 9.93693 4.61001 9.8626C4.56168 9.7886 4.57968 9.6896 4.65101 9.63726L6.88634 7.9926L4.33834 9.46326C4.25968 9.5086 4.16101 9.4836 4.11334 9.40726C4.06568 9.33093 4.08768 9.2306 4.16201 9.1806L4.43101 9.0006L4.06401 9.21226C3.98734 9.2566 3.88868 9.23293 3.84034 9.15826C3.79234 9.08326 3.81134 8.98426 3.88401 8.93226L4.88634 8.21693L3.71501 8.89293C3.64001 8.9366 3.54334 8.91493 3.49434 8.84326C3.44534 8.7716 3.45934 8.67393 3.52701 8.61926L4.85134 7.54726L3.25268 8.46993C3.17734 8.51393 3.08068 8.4916 3.03134 8.41926C2.98268 8.34693 2.99734 8.24893 3.06601 8.19493L4.08468 7.39126L2.85834 8.09926C2.78334 8.14326 2.68668 8.12126 2.63768 8.0496C2.58868 7.97793 2.60268 7.88026 2.67034 7.8256L4.22101 6.5706L3.32101 7.09026C3.24634 7.13393 3.15034 7.1126 3.10101 7.04126C3.05168 6.97026 3.06468 6.87326 3.13134 6.81793L4.81934 5.41893C4.78934 5.34293 4.81834 5.25493 4.89101 5.21326L5.48534 4.87026C5.56001 4.8266 5.65601 4.84793 5.70534 4.91926C5.75468 4.99026 5.74168 5.08726 5.67501 5.1426L4.86334 5.81526L5.89268 5.22126C5.96734 5.17726 6.06401 5.1996 6.11334 5.27093C6.16234 5.3426 6.14834 5.44026 6.08068 5.49493L4.53001 6.7496L5.91468 5.9506C5.98934 5.90626 6.08668 5.9286 6.13601 6.00126C6.18468 6.0736 6.17001 6.1716 6.10135 6.2256L5.08168 7.02993L6.51868 6.2006C6.59368 6.1566 6.69001 6.1786 6.73935 6.25026C6.78834 6.32193 6.77435 6.4196 6.70668 6.47426L5.38268 7.54626L7.71368 6.2006C7.79001 6.15526 7.88868 6.1796 7.93735 6.2546C7.98534 6.3296 7.96634 6.4286 7.89368 6.4806L6.89135 7.19593L8.61568 6.2006C8.69368 6.15493 8.79268 6.18026 8.84068 6.2566C8.88834 6.33293 8.86634 6.43326 8.79201 6.48326L8.52201 6.66393L9.32468 6.2006C9.40101 6.15626 9.49901 6.17993 9.54768 6.2536C9.59601 6.3276 9.57801 6.4266 9.50668 6.47893L6.12968 8.96326C6.16601 9.01826 6.16701 9.0906 6.12968 9.14726L5.75568 9.71493L5.90701 9.6276C5.98601 9.58093 6.08868 9.6086 6.13468 9.6886C6.18101 9.76826 6.15368 9.87026 6.07368 9.91626L5.31301 10.3553C5.28701 10.3706 5.25834 10.3776 5.22968 10.3776L5.23068 10.3766Z" fill="#64E570"/>
<path d="M14.0097 10.8769C13.9683 10.8769 13.9277 10.8615 13.8957 10.8319C13.8423 10.7819 13.8277 10.7025 13.86 10.6365L14.1253 10.0969C14.0487 10.1332 13.9533 10.1052 13.91 10.0295C13.8637 9.94985 13.891 9.84785 13.971 9.80185L14.433 9.53519C14.4963 9.49852 14.576 9.50719 14.6303 9.55752C14.6837 9.60752 14.6983 9.68685 14.666 9.75285L14.4013 10.2915L15.0107 9.93952C15.09 9.89319 15.1923 9.92019 15.2383 10.0005C15.2847 10.0802 15.2573 10.1822 15.1773 10.2282L14.0933 10.8542C14.0673 10.8692 14.0387 10.8765 14.01 10.8765L14.0097 10.8769Z" fill="#FFDA3F"/>
<path d="M14.1383 15.011C14.084 15.011 14.031 14.9843 13.999 14.9357C13.9503 14.8617 13.968 14.763 14.039 14.7103L14.8713 14.0923L14.0917 14.5423C14.0153 14.587 13.9167 14.563 13.8687 14.489C13.82 14.4147 13.8387 14.3153 13.9103 14.2633L14.5757 13.7793L14.086 14.062C14.0103 14.1067 13.913 14.0837 13.864 14.0103C13.8153 13.9373 13.8313 13.839 13.901 13.7857L14.755 13.1303L13.5937 13.801C13.5177 13.8463 13.42 13.822 13.371 13.7483C13.3223 13.6747 13.34 13.5757 13.4107 13.523L14.1313 12.9873L12.7217 13.801C12.6443 13.846 12.5463 13.8217 12.4977 13.7463C12.4497 13.671 12.4697 13.5717 12.5427 13.5203L13.047 13.1663L11.948 13.8007C11.8717 13.8457 11.773 13.8213 11.7247 13.747C11.6763 13.6723 11.6953 13.5733 11.7673 13.521L13.0523 12.5973L10.9673 13.8007C10.8907 13.8457 10.7923 13.8213 10.744 13.747C10.6957 13.6723 10.7147 13.5733 10.7867 13.521L12.6223 12.201L9.85168 13.8007C9.77568 13.8447 9.67801 13.8217 9.62968 13.749C9.58101 13.6757 9.59735 13.5773 9.66701 13.524L11.086 12.4407L8.73035 13.8007C8.65435 13.8447 8.55668 13.822 8.50801 13.7483C8.45935 13.6747 8.47635 13.576 8.54702 13.523L9.86368 12.5357L7.79168 13.7317C7.71601 13.776 7.61868 13.7533 7.56968 13.6803C7.52068 13.607 7.53701 13.5087 7.60668 13.4553L8.95868 12.4173L7.44568 13.2907C7.37101 13.3347 7.27435 13.3123 7.22535 13.2417C7.17602 13.1703 7.18968 13.073 7.25668 13.018L8.30068 12.1587L7.42768 12.6627C7.35335 12.7067 7.25768 12.6847 7.20802 12.614C7.15868 12.5433 7.17102 12.4467 7.23702 12.391L7.59401 12.0893L7.42768 12.1853C7.36168 12.2237 7.27735 12.212 7.22435 12.1567C7.17135 12.1017 7.16235 12.0173 7.20335 11.9527L7.49635 11.4867C7.42268 11.5123 7.33668 11.4843 7.29535 11.413C7.24901 11.3333 7.27635 11.2313 7.35635 11.1853L7.90835 10.8667C7.97435 10.8277 8.05835 10.8397 8.11168 10.8953C8.16468 10.9503 8.17368 11.0347 8.13268 11.0993L7.84268 11.5607L9.04968 10.864C9.12335 10.8203 9.21968 10.8417 9.26935 10.9127C9.31868 10.9833 9.30635 11.08 9.24035 11.1357L8.88235 11.438L9.87901 10.8627C9.95401 10.819 10.05 10.841 10.0993 10.9117C10.1487 10.983 10.135 11.0803 10.068 11.1353L9.02468 11.994L10.9883 10.8607C11.064 10.816 11.1613 10.8393 11.2103 10.912C11.259 10.9853 11.243 11.0837 11.1733 11.137L9.82135 12.175L12.1017 10.8587C12.1773 10.8137 12.2753 10.8373 12.324 10.911C12.3727 10.9847 12.3557 11.0833 12.285 11.1363L10.9677 12.1243L13.163 10.857C13.2387 10.8123 13.3363 10.8357 13.385 10.9087C13.4337 10.9817 13.4173 11.0803 13.3477 11.1337L11.9287 12.217L15.344 10.2453C15.4203 10.2003 15.5187 10.2243 15.5673 10.299C15.6157 10.3737 15.5967 10.4727 15.5247 10.525L13.6897 11.8443L15.7757 10.6403C15.852 10.5953 15.95 10.6193 15.999 10.694C16.0473 10.7687 16.0283 10.8677 15.9563 10.92L14.6717 11.8437L16.1547 10.9877C16.2313 10.9423 16.3303 10.967 16.3787 11.0423C16.4267 11.1177 16.4067 11.217 16.3337 11.2683L15.8277 11.6233L16.454 11.2617C16.5303 11.2173 16.628 11.241 16.6767 11.3143C16.7253 11.3877 16.7077 11.487 16.637 11.5397L15.9163 12.0753L16.7917 11.57C16.8673 11.5257 16.9647 11.5483 17.0137 11.6217C17.0623 11.6947 17.0463 11.793 16.9767 11.8463L16.1227 12.5013L17.1487 11.9093C17.225 11.864 17.3233 11.8887 17.3717 11.9627C17.4203 12.037 17.4017 12.1363 17.33 12.1883L16.6663 12.671L17.2073 12.3587C17.2837 12.3143 17.3813 12.338 17.43 12.4113C17.4787 12.4853 17.461 12.584 17.39 12.6367L16.027 13.649C16.0547 13.663 16.0787 13.685 16.0953 13.714C16.1417 13.7937 16.1143 13.8957 16.0343 13.9417L14.2217 14.9887C14.1957 15.004 14.1667 15.011 14.1383 15.011Z" fill="#FFDA3F"/>
<path d="M1.56366 17.8047C3.66133 17.7933 5.76066 17.8323 7.85799 17.8047C9.95333 17.734 9.07066 15.1297 9.24166 13.7583H10.7563C10.8543 15.345 10.0733 18.2907 12.6433 17.833C14.7127 17.8007 16.797 17.8923 18.8577 17.8103C20.1153 17.5843 19.911 16.2773 19.911 15.3377V5.554C19.85 4.25633 20.4123 1.98366 18.4047 2.16666C16.3 2.177 14.1943 2.14066 12.09 2.16666C10.0633 2.278 10.9253 4.82533 10.7567 6.167H9.24199C9.06266 4.96566 9.70899 3.34766 8.78366 2.40866C8.37533 2.15366 7.84066 2.14066 7.37366 2.19533C5.30133 2.233 3.20833 2.12666 1.15166 2.22133C-0.0746742 2.41766 0.0743258 3.731 0.0919924 4.671V14.4547C0.160992 15.7323 -0.422008 17.989 1.56366 17.8047ZM9.22066 13.575C8.67299 13.4497 7.65333 13.8843 7.57466 12.9353C7.59933 11.895 7.24799 10.7807 8.76666 11.092C9.40066 11.1437 10.112 11.058 10.7783 11.092C11.7477 11.1337 12.8313 11.0637 13.8407 11.092C13.9193 11.092 14.2407 11.0503 14.2407 10.9353C13.8893 8.385 15.7697 11.2403 16.5853 11.7247C17.1243 12.0687 17.2827 12.5847 16.6817 12.966C16.2043 13.204 14.5903 15.3777 14.2993 14.6843C14.1443 14.4 14.2407 13.914 14.2407 13.6017C13.263 13.524 12.2227 13.6007 11.2243 13.5747C10.6517 13.464 9.86999 13.6447 9.22066 13.575ZM9.24133 9.16666H10.758V10.9083H9.24133V9.16666ZM15.226 2.5C16.037 2.49766 16.8477 2.50466 17.6587 2.49733C17.162 3.37366 17.602 3.65733 16.2787 3.51633C15.35 3.41733 14.1817 3.81533 13.3697 3.31866C13.1843 3.07166 13.3023 2.731 13.0853 2.5H15.226ZM11.691 2.55433C13.4043 2.04566 12.0363 4.22966 14.3883 3.81666C15.4597 3.679 16.825 4.18566 17.717 3.46766C18.022 2.99366 17.855 2.27133 18.69 2.50566C19.6973 2.65133 19.423 4.22333 19.423 4.93266C19.1047 6.62233 20.2177 17.9633 18.6907 17.4997C16.5413 17.5007 14.3913 17.499 12.242 17.4997C10.5293 17.3443 11.4757 14.9133 11.244 13.758C12.0907 13.7483 12.9363 13.776 13.7823 13.7523C13.3317 17.067 16.9643 13.2413 17.5703 12.317C17.2353 11.3653 16.055 10.835 15.3993 10.0617C14.6547 9.063 13.4487 9.734 13.7527 10.9077H11.242V9.166C12.8773 9.425 13.084 8.327 12.9107 6.97833C12.8733 6.06566 11.902 6.17 11.244 6.16666C11.4393 5.07 10.7433 3.338 11.691 2.55433ZM10.9077 6.49966C11.9883 6.415 12.6087 6.48133 12.423 7.771C12.586 8.76166 12.1047 8.963 11.209 8.83333C9.45599 8.997 7.34166 8.508 5.75733 9.02066C5.84066 9.50766 5.78933 10.6147 5.13933 9.83466C4.69866 9.14 2.14433 7.92 3.26166 7.15666C4.04433 6.623 4.74233 5.43233 5.60966 5.21966C5.88233 5.38666 5.75733 6.08833 5.75733 6.35466C7.26066 6.762 9.24899 6.366 10.9077 6.49966ZM3.50666 2.47133H6.98699C6.50166 3.37233 6.90399 3.617 5.59299 3.485C4.66266 3.36266 3.52499 3.752 2.70033 3.30933C2.51433 3.05733 2.63266 2.70133 2.39866 2.471H3.50633L3.50666 2.47133ZM0.574992 3.328C0.549992 2.176 2.22033 2.20633 2.15966 3.358C3.09166 4.396 5.01266 3.649 6.30066 3.84833C7.44833 3.858 6.94499 2.66966 7.64633 2.51466C9.45333 2.40566 8.55299 5.046 8.75833 6.167H6.24899C6.47133 2.93433 3.26733 6.62433 2.46933 7.47433C2.31133 7.86466 2.58333 8.10966 2.83966 8.344C3.75599 9.13666 6.33866 12.192 6.25033 9.16633H8.75833V10.908C7.15433 10.6823 6.89999 11.7067 7.09166 13.0647C7.17866 13.9547 8.13499 13.7207 8.75799 13.7583C8.57099 14.892 9.23133 16.5863 8.35499 17.4577C6.03866 17.6523 3.60199 17.4997 1.26566 17.5117C0.306326 17.3003 0.574326 15.7663 0.574326 15.058C0.584659 11.148 0.558326 7.23666 0.574326 3.32766L0.574992 3.328Z" fill="#262626"/>
<path d="M2.90798 16.4766C3.30831 16.3753 7.13065 16.75 6.42565 16.1893C6.02531 16.2903 2.20298 15.916 2.90798 16.4766Z" fill="#262626"/>
<path d="M17.094 16.1956C15.9067 16.3006 14.549 15.981 13.442 16.3273C13.156 16.6003 18.1683 16.5813 17.094 16.1956Z" fill="#262626"/>
</svg>
