<svg width="30" height="30" viewBox="0 0 30 30" fill="none" xmlns="http://www.w3.org/2000/svg">
<path d="M15.4318 15.4533C15.3727 15.4532 15.3145 15.4383 15.2627 15.4098C15.2109 15.3814 15.167 15.3403 15.1353 15.2904C15.0934 15.2691 15.0471 15.258 15.0001 15.258C14.9531 15.258 14.9068 15.2691 14.8648 15.2904C14.824 15.3545 14.7634 15.4037 14.6922 15.4305C14.6211 15.4573 14.5431 15.4603 14.4701 15.439C14.3971 15.4177 14.3329 15.3734 14.2872 15.3126C14.2416 15.2518 14.2169 15.1778 14.2168 15.1017C14.2168 14.6522 14.8447 14.5549 15.0001 14.5549C15.1555 14.5549 15.7834 14.6522 15.7834 15.1017C15.7834 15.195 15.7463 15.2844 15.6804 15.3503C15.6145 15.4162 15.525 15.4533 15.4318 15.4533Z" fill="#25B003"/>
<path d="M12.5002 10.7299C11.7439 10.5165 10.9375 10.5671 10.2139 10.8734C10.2814 11.0119 10.1096 11.4884 10.0498 11.5617C10.1889 11.5712 10.3286 11.5553 10.4621 11.5148C11.0799 11.3974 11.7128 11.3826 12.3354 11.471C12.4289 11.4812 12.5229 11.4565 12.5993 11.4017C12.6757 11.3469 12.7292 11.2658 12.7496 11.174C12.7699 11.0822 12.7556 10.9861 12.7095 10.9041C12.6633 10.8222 12.5886 10.7601 12.4995 10.7299H12.5002Z" fill="#25B003"/>
<path d="M14.9996 18.7763C14.079 18.7763 13.588 18.0872 13.4351 17.4422C13.4023 17.3164 13.3984 17.1847 13.4237 17.0572C13.449 16.9296 13.503 16.8095 13.5814 16.7058C13.6412 16.6278 13.7178 16.5643 13.8056 16.5202C13.8934 16.4761 13.9901 16.4524 14.0883 16.451H15.9108C16.0091 16.4524 16.1058 16.4761 16.1936 16.5202C16.2814 16.5643 16.358 16.6278 16.4178 16.7058C16.4961 16.8092 16.55 16.929 16.5754 17.0562C16.6008 17.1834 16.5971 17.3147 16.5645 17.4403C16.4112 18.0872 15.9202 18.7763 14.9996 18.7763ZM14.1251 17.1541C14.1092 17.1949 14.1073 17.2399 14.1198 17.2819C14.1633 17.4661 14.3572 18.0731 14.9996 18.0731C15.642 18.0731 15.8358 17.4661 15.8799 17.2802C15.8921 17.2387 15.89 17.1943 15.8741 17.1541H14.1251Z" fill="#25B003"/>
<path d="M10.4231 13.7374C10.354 13.7373 10.2864 13.7168 10.2289 13.6784C10.1714 13.6401 10.1264 13.5857 10.0997 13.522C10.0729 13.4583 10.0655 13.3881 10.0785 13.3202C10.0914 13.2523 10.124 13.1897 10.1723 13.1402C10.5682 12.7348 11.2352 12.2496 12.4523 12.7144C12.5359 12.7501 12.6025 12.8168 12.638 12.9005C12.6735 12.9842 12.6752 13.0784 12.6427 13.1633C12.6102 13.2483 12.5461 13.3173 12.4638 13.356C12.3815 13.3946 12.2874 13.3999 12.2013 13.3706C11.3871 13.0589 10.9872 13.3118 10.6757 13.6308C10.6429 13.6646 10.6036 13.6914 10.5602 13.7098C10.5168 13.7281 10.4702 13.7375 10.4231 13.7374Z" fill="#25B003"/>
<path d="M11.6121 14.7375C12.009 14.7375 12.3307 14.4158 12.3307 14.0189C12.3307 13.622 12.009 13.3003 11.6121 13.3003C11.2153 13.3003 10.8936 13.622 10.8936 14.0189C10.8936 14.4158 11.2153 14.7375 11.6121 14.7375Z" fill="#25B003"/>
<path d="M20.1183 11.0459C19.7254 10.8204 19.2912 10.6763 18.8414 10.622C18.3917 10.5677 17.9356 10.6044 17.5003 10.7299C17.4129 10.7589 17.3391 10.8188 17.2927 10.8984C17.2463 10.978 17.2305 11.0717 17.2484 11.1621C17.2657 11.2566 17.3182 11.341 17.3953 11.3984C17.4725 11.4557 17.5684 11.4817 17.6639 11.471C18.2866 11.3825 18.9195 11.3974 19.5373 11.5148C19.9737 11.632 20.1549 11.5319 20.2278 11.4073C20.2595 11.3445 20.2658 11.2719 20.2454 11.2046C20.225 11.1373 20.1795 11.0805 20.1183 11.0459Z" fill="#25B003"/>
<path d="M19.5773 13.7374C19.5304 13.7374 19.484 13.7281 19.4408 13.7099C19.3975 13.6917 19.3584 13.665 19.3256 13.6315C19.0144 13.3125 18.6145 13.0596 17.8001 13.3713C17.7566 13.3899 17.7098 13.3995 17.6625 13.3995C17.6152 13.3996 17.5684 13.3901 17.5249 13.3716C17.4813 13.3532 17.4419 13.3261 17.4091 13.2921C17.3763 13.258 17.3506 13.2177 17.3337 13.1736C17.3169 13.1294 17.309 13.0823 17.3108 13.035C17.3125 12.9878 17.3238 12.9413 17.3439 12.8985C17.364 12.8557 17.3925 12.8174 17.4278 12.7859C17.463 12.7544 17.5043 12.7303 17.5491 12.7151C18.7657 12.2501 19.4332 12.7357 19.8291 13.1409C19.8774 13.1904 19.9101 13.2531 19.9229 13.3211C19.9358 13.3891 19.9284 13.4594 19.9015 13.5231C19.8746 13.5869 19.8295 13.6413 19.7719 13.6795C19.7142 13.7178 19.6465 13.7382 19.5773 13.7381V13.7374Z" fill="#25B003"/>
<path d="M18.3875 14.7375C18.7844 14.7375 19.1061 14.4158 19.1061 14.0189C19.1061 13.622 18.7844 13.3003 18.3875 13.3003C17.9907 13.3003 17.6689 13.622 17.6689 14.0189C17.6689 14.4158 17.9907 14.7375 18.3875 14.7375Z" fill="#25B003"/>
<path d="M26.0565 21.8203C25.8008 17.659 24.9747 12.5892 24.4808 9.55993L24.3871 8.98313C23.7552 5.09133 20.5483 0.902817 14.9999 0.902817C9.45153 0.902817 6.24458 5.09133 5.61294 8.98313L5.51919 9.55993C5.02513 12.5892 4.19896 17.659 3.94325 21.8203C3.72458 25.376 3.74731 28.6095 6.30481 29.1748C6.32909 29.2689 6.36996 29.358 6.42552 29.4377C6.50196 29.5436 6.60238 29.6298 6.71857 29.6894C6.83475 29.7489 6.96339 29.7801 7.09396 29.7804H22.9058C23.0364 29.7801 23.165 29.7489 23.2812 29.6894C23.3974 29.6298 23.4978 29.5436 23.5743 29.4377C23.6298 29.358 23.6707 29.2689 23.695 29.1748C26.2525 28.6095 26.2752 25.376 26.0565 21.8203ZM14.9999 2.34375C19.577 2.34375 22.1108 5.90625 22.528 9.21446C22.538 9.29334 22.5209 9.37327 22.4795 9.44119C22.4382 9.50911 22.3751 9.56102 22.3004 9.58843C22.2258 9.61585 22.1441 9.61716 22.0686 9.59214C21.9931 9.56713 21.9284 9.51727 21.8849 9.45071C20.5054 7.3411 18.6158 4.45313 14.9999 4.45313C11.384 4.45313 9.49442 7.3411 8.11489 9.45024C8.07141 9.5168 8.00664 9.56666 7.93117 9.59167C7.8557 9.61669 7.77398 9.61538 7.69934 9.58796C7.62471 9.56055 7.56158 9.50864 7.52024 9.44072C7.47891 9.3728 7.46182 9.29287 7.47177 9.21399C7.88919 5.90461 10.4228 2.34375 14.9999 2.34375ZM10.2552 24.0776C10.3394 24.0118 10.4432 23.9761 10.55 23.9761C10.5964 23.9761 10.6424 23.9827 10.6869 23.9956C10.7609 24.0166 10.8287 24.055 10.8848 24.1076C10.941 24.1601 10.9838 24.2253 11.0097 24.2977C11.4397 25.4815 11.8897 26.8584 12.1916 27.8053V27.807C12.1935 27.812 12.1941 27.8175 12.1933 27.8228C12.1926 27.8282 12.1906 27.8333 12.1874 27.8377C12.1843 27.8425 12.1801 27.8464 12.1751 27.8492C12.1701 27.852 12.1645 27.8535 12.1588 27.8536C11.8335 27.8754 11.4725 27.9162 11.0905 27.9598C10.0325 28.0802 8.58271 28.245 8.22481 27.8602C8.19646 27.8295 8.12052 27.7484 8.16575 27.5056C8.33896 26.5767 9.51036 24.6541 10.2552 24.0776ZM8.1913 14.1136C9.31911 13.4154 10.1244 12.1552 10.9738 10.8246C12.3006 8.74594 13.6726 6.59672 16.4209 6.32813C16.5456 6.31831 16.67 6.35033 16.7745 6.41914C16.8789 6.48795 16.9575 6.58961 16.9977 6.70805C17.6305 8.4211 18.7539 9.55758 19.7439 10.5605C20.8004 11.6306 21.7126 12.5562 21.8258 13.9249C21.6641 15.7737 21.2917 18.0788 19.8608 19.5872C19.0124 20.4816 17.6075 21.1861 15.685 21.6811C15.2355 21.7964 14.7643 21.7964 14.3148 21.6811C12.3929 21.1861 10.9867 20.4816 10.139 19.5872C8.75614 18.1296 8.36239 15.9286 8.1913 14.1136ZM13.8676 22.2891C13.9576 22.3125 14.0472 22.3385 14.1393 22.3622C14.7037 22.5075 15.2958 22.5075 15.8603 22.3622C15.9524 22.3388 16.0422 22.3137 16.1322 22.2891C16.3025 23.306 16.9056 24.0091 17.9938 24.4584C16.625 25.7107 15.7483 25.8987 15.0074 25.8987C14.2665 25.8987 13.3874 25.7112 12.0161 24.4542C13.0982 24.0045 13.6979 23.3025 13.8676 22.2891ZM19.0049 24.2981C19.0308 24.2257 19.0736 24.1605 19.1298 24.1079C19.186 24.0553 19.2539 24.0169 19.3279 23.9958C19.4011 23.974 19.4785 23.9701 19.5536 23.9843C19.6287 23.9986 19.6992 24.0307 19.7593 24.0778C20.5044 24.6544 21.6758 26.577 21.8486 27.5058C21.8936 27.7486 21.8179 27.8297 21.7893 27.8604C21.4311 28.2455 19.9818 28.0805 18.9238 27.96C18.5415 27.9164 18.1806 27.8756 17.8555 27.8538C17.8498 27.8537 17.8442 27.8522 17.8391 27.8494C17.8341 27.8466 17.8298 27.8427 17.8267 27.8379C17.8236 27.8335 17.8216 27.8284 17.8208 27.8231C17.8201 27.8177 17.8207 27.8123 17.8225 27.8072C18.1246 26.8594 18.5748 25.4824 19.0049 24.2981ZM6.30903 16.1998C6.02286 15.5937 5.99169 14.7841 6.48669 14.4094C6.78859 14.2251 7.14831 14.1599 7.49567 14.2266C7.51911 14.4609 7.54489 14.7009 7.5763 14.9452C7.38856 14.8783 7.18927 14.8501 6.99036 14.8622C6.94358 14.8657 6.89797 14.8785 6.85623 14.9C6.81448 14.9214 6.77745 14.9509 6.7473 14.9869C6.71715 15.0228 6.69451 15.0644 6.6807 15.1093C6.66689 15.1541 6.66219 15.2013 6.66688 15.2479C6.67157 15.2946 6.68556 15.3399 6.70802 15.3811C6.73048 15.4223 6.76096 15.4585 6.79766 15.4878C6.83436 15.517 6.87653 15.5386 6.92171 15.5513C6.96688 15.5639 7.01413 15.5674 7.06067 15.5616C7.18822 15.5615 7.31411 15.5905 7.42877 15.6463C7.54342 15.7022 7.64382 15.7835 7.72232 15.8841C7.80835 16.3496 7.92191 16.8096 8.06239 17.2617C7.85487 17.2896 7.64368 17.2671 7.44669 17.1961C6.95535 17.0194 6.54897 16.6635 6.30903 16.1998ZM13.3325 29.0773C13.131 28.3995 12.606 26.7923 12.1715 25.5049C13.1507 26.2624 14.042 26.6016 15.0074 26.6016C15.9728 26.6016 16.8639 26.2631 17.8433 25.5056C17.4086 26.7931 16.884 28.3997 16.6825 29.0773H13.3325ZM23.6919 16.1998C23.452 16.6635 23.0458 17.0194 22.5545 17.1961C22.3575 17.2672 22.1463 17.2897 21.9388 17.262C22.0792 16.8097 22.1927 16.3495 22.2786 15.8838C22.3574 15.784 22.4577 15.7032 22.5721 15.6475C22.6864 15.5919 22.8119 15.5628 22.9391 15.5625C22.9857 15.5684 23.0329 15.5649 23.0781 15.5522C23.1233 15.5395 23.1654 15.5179 23.2021 15.4887C23.2388 15.4595 23.2693 15.4232 23.2918 15.382C23.3142 15.3408 23.3282 15.2956 23.3329 15.2489C23.3376 15.2022 23.3329 15.155 23.3191 15.1102C23.3053 15.0654 23.2826 15.0238 23.2525 14.9878C23.2223 14.9519 23.1853 14.9223 23.1436 14.9009C23.1018 14.8795 23.0562 14.8666 23.0094 14.8631C22.8105 14.8513 22.6113 14.8795 22.4235 14.9461C22.4549 14.7019 22.4816 14.4616 22.5041 14.2275C22.8516 14.1607 23.2115 14.226 23.5133 14.4106C24.0081 14.7841 23.9765 15.5937 23.6908 16.1998H23.6919Z" fill="#25B003"/>
</svg>
